<?xml version="1.0" encoding="iso-8859-1"?>
<!-- Generator: Adobe Illustrator 28.3.0, SVG Export Plug-In . SVG Version: 6.00 Build 0)  -->
<svg version="1.1" id="Capa_1" xmlns="http://www.w3.org/2000/svg" xmlns:xlink="http://www.w3.org/1999/xlink" x="0px" y="0px"
	 viewBox="0 0 512 512" style="enable-background:new 0 0 512 512;" xml:space="preserve">
<g>
	<g>
		<g>
			<path style="fill:#FDE0BE;" d="M337.671,87.99l9.686-45.316C351.431,23.618,368.267,10,387.754,10h0
				c22.814,0,41.309,18.495,41.309,41.309v37.057c0,26.799-6.631,53.182-19.303,76.796l-26.393,49.187L337.671,87.99z"/>
			<path style="fill:#FDE0BE;" d="M174.329,87.99l-9.686-45.316C160.569,23.618,143.733,10,124.246,10h0
				c-22.814,0-41.309,18.495-41.309,41.309v37.057c0,26.799,6.631,53.182,19.303,76.796l26.393,49.187L174.329,87.99z"/>
		</g>
		<path style="fill:#F7B073;" d="M174.328,87.987l-45.696,126.364l-26.397-49.19c-6.858-12.772-11.939-26.357-15.162-40.374
			c12.892-24.861,32.201-45.756,56.008-60.576c7.541-4.689,15.433-8.715,23.586-12.029L174.328,87.987z"/>
		<path style="fill:#F7B073;" d="M424.927,124.787c-3.223,14.017-8.304,27.602-15.162,40.374l-26.397,49.19L337.672,87.987
			l7.661-35.805c8.153,3.314,16.045,7.34,23.586,12.029C392.726,79.031,412.034,99.926,424.927,124.787z"/>
		<path style="fill:#FDE0BE;" d="M80.04,374.544v-25.395c0-13.726,5.611-26.856,15.532-36.343l0.945-0.903
			c19.012-18.18,20.799-47.941,4.099-68.266l0,0c-12.528-15.248-14.98-36.414-6.268-54.121l22.753-46.248
			c20.323-41.308,62.358-67.475,108.394-67.475h61.011c46.037,0,88.072,26.166,108.394,67.475l22.753,46.248
			c8.712,17.707,6.26,38.874-6.268,54.121l0,0c-16.7,20.325-14.913,50.086,4.099,68.266l0.944,0.903
			c9.921,9.487,15.532,22.616,15.532,36.343v25.395C431.96,444.936,374.896,502,304.504,502h-97.007
			C137.104,502,80.04,444.936,80.04,374.544z"/>
		<path style="fill:#F7B073;" d="M292.45,502H207.5c-70.4,0-127.46-57.06-127.46-127.46v-25.39c0-13.73,5.61-26.86,15.53-36.34
			l0.95-0.91c19.01-18.18,20.8-47.94,4.1-68.26c-7.54-9.18-11.43-20.51-11.43-31.94c0-7.55,1.69-15.14,5.16-22.18l22.75-46.25
			c19.05-38.73,57.2-64.16,99.83-67.18c-36.49,49.53-58.04,110.73-58.04,176.96C158.89,356.96,211.95,448.48,292.45,502z"/>
		<path style="fill:#FFFFFF;" d="M216.55,283.512l-9.328,31.197c-7.611,25.413-30.996,42.824-57.524,42.824H80.045v-8.384
			c0-13.726,5.603-26.859,15.523-36.338l0.944-0.904c19.017-18.184,20.805-47.945,4.107-68.268
			c-7.551-9.187-11.437-20.513-11.437-31.94c0-0.743,0.02-1.486,0.05-2.229h60.466c26.528,0,49.913,17.421,57.524,42.834
			L216.55,283.512z"/>
		<path style="fill:#D2DCFD;" d="M175.56,351.68c-7.9,3.77-16.69,5.85-25.86,5.85H80.04v-8.38c0-13.73,5.61-26.86,15.53-36.34
			l0.94-0.9c19.02-18.19,20.81-47.95,4.11-68.27c-7.55-9.19-11.44-20.51-11.44-31.94c0-0.74,0.02-1.49,0.05-2.23h60.47
			c4.15,0,8.23,0.43,12.17,1.24c-1.97,13.83-2.98,27.97-2.98,42.34C158.89,287.61,164.76,320.8,175.56,351.68z"/>
		<path style="fill:#FFFFFF;" d="M431.955,349.149v8.384h-69.643c-26.538,0-49.923-17.411-57.524-42.824l-9.338-31.217l9.328-31.187
			c7.611-25.413,30.996-42.834,57.524-42.834h60.466c0.542,12.17-3.354,24.389-11.386,34.169
			c-7.661,9.328-11.426,20.634-11.426,31.9c0,13.294,5.241,26.528,15.533,36.368l0.944,0.904
			C426.352,322.289,431.955,335.423,431.955,349.149z"/>
		<path style="fill:#FFFFFF;" d="M264.705,430.578l-8.718-5.374l-8.686,5.357c-17.533,10.814-40.132-1.799-40.132-22.399V303.371
			c0-14.534,11.782-26.317,26.317-26.317h45.029c14.534,0,26.317,11.782,26.317,26.317v104.806
			C304.831,428.773,282.238,441.387,264.705,430.578z"/>
		<path style="fill:#FDBEB9;" d="M304.828,303.372v13.726l-27.351,6.968C264.846,327.24,256,338.596,256,351.609
			c0-6.506-2.209-12.601-6.004-17.461c-3.785-4.86-9.157-8.495-15.473-10.081l-27.351-6.537v-14.158
			c0-14.539,11.778-26.317,26.317-26.317h45.023C293.051,277.056,304.828,288.833,304.828,303.372z"/>
	</g>
	<g>
		<path style="fill:#FD7DA0;" d="M312.849,315.178c-1.346-5.357-6.782-8.609-12.136-7.261l-25.676,6.454
			c-7.545,1.896-14.083,5.94-19.037,11.38c-4.953-5.44-11.491-9.484-19.036-11.38l-25.676-6.454
			c-5.357-1.35-10.79,1.904-12.136,7.261c-1.347,5.355,1.904,10.789,7.26,12.136l25.677,6.454
			c8.191,2.059,13.912,9.396,13.912,17.842c0,5.522,4.477,10,10,10c5.522,0,10-4.478,10-10c0-8.446,5.721-15.783,13.912-17.842
			l25.676-6.454C310.944,325.967,314.195,320.533,312.849,315.178z"/>
		<g>
			<path style="fill:#052A75;" d="M423.34,305.58c-15.926-14.302-17.86-39.061-4.229-55.595
				c14.984-18.236,17.934-43.705,7.514-64.884l-7.761-15.775c13.211-24.843,20.199-52.82,20.199-80.96V51.309
				C439.062,23.017,416.046,0,387.754,0c-24.047,0-45.149,17.067-50.176,40.584l-7.023,32.855
				c-14.067-5.033-28.951-7.645-44.049-7.645h-61.011c-15.098,0-29.982,2.612-44.05,7.645l-7.023-32.855
				C169.395,17.067,148.293,0,124.246,0C95.954,0,72.937,23.017,72.937,51.309v37.058c0,28.14,6.988,56.117,20.199,80.959
				l-7.762,15.776c-10.419,21.18-7.469,46.647,7.515,64.884c13.632,16.533,11.697,41.293-4.228,55.594
				c-11.833,11.316-18.621,27.196-18.621,43.57v25.395C70.04,450.338,131.703,512,207.497,512h97.007
				c75.794,0,137.456-61.662,137.456-137.456v-25.395C441.96,332.775,435.173,316.895,423.34,305.58z M357.137,44.764
				C360.204,30.415,373.08,20,387.754,20c17.264,0,31.309,14.045,31.309,31.309v37.058c0,19.874-3.953,39.653-11.492,58.005
				l-3.698-7.517c-10.796-21.946-27.479-40.378-48.242-53.304c-2.104-1.31-4.249-2.54-6.415-3.724L357.137,44.764z M92.937,88.366
				V51.309C92.937,34.045,106.982,20,124.246,20c14.674,0,27.55,10.415,30.617,24.764l7.922,37.062
				c-2.166,1.184-4.311,2.415-6.416,3.725c-20.764,12.926-37.445,31.357-48.242,53.304l-3.698,7.516
				C96.89,128.019,92.937,108.24,92.937,88.366z M421.96,374.544C421.96,439.31,369.27,492,304.504,492h-97.007
				C142.731,492,90.04,439.31,90.04,374.544v-25.395c0-10.941,4.535-21.554,12.442-29.114c23.456-21.481,26.088-58.184,5.859-82.747
				c-10.013-12.186-11.984-29.205-5.021-43.357l22.753-46.248c9.146-18.59,23.277-34.204,40.866-45.152
				c17.589-10.949,37.837-16.736,58.556-16.736h61.011c20.718,0,40.966,5.787,58.555,16.736s31.721,26.562,40.866,45.152
				l22.753,46.247c6.963,14.153,4.992,31.173-5.021,43.358c-20.228,24.563-17.597,61.267,5.858,82.746
				c7.908,7.562,12.443,18.174,12.443,29.115V374.544z"/>
			<path style="fill:#052A75;" d="M278.515,267.054h-45.029c-20.025,0-36.316,16.291-36.316,36.316v104.792
				c0,13.351,6.96,25.206,18.618,31.713c11.658,6.504,25.401,6.206,36.764-0.802l3.438-2.121l3.469,2.139
				c5.912,3.645,12.466,5.473,19.036,5.473c6.06,0,12.133-1.556,17.725-4.678c11.655-6.507,18.613-18.361,18.613-31.71V303.37
				C314.831,283.345,298.54,267.054,278.515,267.054z M294.831,408.176c0,5.998-3.126,11.324-8.363,14.247
				c-5.233,2.924-11.41,2.791-16.515-0.357c-0.001,0-0.001,0-0.001,0l-8.718-5.374c-1.608-0.991-3.428-1.487-5.248-1.487
				c-1.82,0-3.641,0.496-5.25,1.488l-8.686,5.357c-5.105,3.148-11.28,3.285-16.518,0.36c-5.238-2.923-8.365-8.249-8.365-14.248
				V303.37c0-8.997,7.319-16.316,16.316-16.316h45.029c8.997,0,16.316,7.319,16.316,16.316V408.176z"/>
			<circle style="fill:#052A75;" cx="158.888" cy="277.054" r="10"/>
			<circle style="fill:#052A75;" cx="353.112" cy="277.054" r="10"/>
		</g>
	</g>
</g>
<g>
</g>
<g>
</g>
<g>
</g>
<g>
</g>
<g>
</g>
<g>
</g>
<g>
</g>
<g>
</g>
<g>
</g>
<g>
</g>
<g>
</g>
<g>
</g>
<g>
</g>
<g>
</g>
<g>
</g>
</svg>
