<?xml version="1.0" encoding="iso-8859-1"?>
<!-- Generator: Adobe Illustrator 28.3.0, SVG Export Plug-In . SVG Version: 6.00 Build 0)  -->
<svg version="1.1" id="Capa_1" xmlns="http://www.w3.org/2000/svg" xmlns:xlink="http://www.w3.org/1999/xlink" x="0px" y="0px"
	 viewBox="0 0 512 512" style="enable-background:new 0 0 512 512;" xml:space="preserve">
<g>
	<g>
		<g>
			<path style="fill:#D46B5C;" d="M338.319,206.003l37.485,23.485c42.049,26.345,97.468,13.573,123.781-28.527l0,0
				c4.643-7.428,2.392-17.218-5.027-21.866l-73.475-46.034c-16.72-10.475-37.522-12.026-55.607-4.145l-38.561,16.804
				L338.319,206.003z"/>
			<path style="fill:#D46B5C;" d="M173.682,206.003l-37.485,23.485c-42.049,26.345-97.468,13.573-123.781-28.527l0,0
				c-4.643-7.428-2.392-17.218,5.027-21.866l73.636-46.135c16.63-10.419,37.306-12.013,55.333-4.264l39.604,17.023L173.682,206.003z
				"/>
		</g>
		<path style="fill:#B55348;" d="M186.016,145.722l-12.33,60.285l-37.493,23.485c-13.163,8.244-27.632,12.662-42.111,13.535
			c1.376-16.899,6.366-33.426,14.619-48.276l26.407-47.483c3.615-6.506,7.872-12.521,12.672-17.993L186.016,145.722z"/>
		<path style="fill:#B55348;" d="M417.918,243.027c-14.479-0.874-28.948-5.292-42.111-13.535l-37.492-23.485l-11.396-60.285
			l37.422-16.316c4.739,5.432,8.966,11.406,12.551,17.863l26.397,47.483C411.552,209.601,416.543,226.129,417.918,243.027z"/>
		<path style="fill:#D46B5C;" d="M133.856,252.647v19.772c0,40.091,12.053,79.254,34.591,112.391l20.444,30.059h134.216
			l20.444-30.059c22.538-33.138,34.591-72.3,34.591-112.391v-19.772c0-13.432-3.425-26.642-9.952-38.378l-26.404-47.479
			c-11.279-20.282-32.645-32.855-55.831-32.855h-59.915c-23.185,0-44.552,12.574-55.831,32.855l-26.404,47.479
			C137.282,226.005,133.856,239.215,133.856,252.647z"/>
		<path style="fill:#B55348;" d="M266.18,414.87h-77.29l-20.44-30.06c-22.54-33.14-34.59-72.3-34.59-112.39v-19.77
			c0-13.44,3.42-26.65,9.95-38.38l26.4-47.48c11.28-20.28,32.65-32.86,55.83-32.86h3.99C204.28,167.84,189,210.14,189,256
			C189,320.46,219.18,377.87,266.18,414.87z"/>
		<path style="fill:#F7B073;" d="M248.177,502h15.645c28.299,0,51.24-22.941,51.24-51.24v-56.699H196.937v56.699
			C196.937,479.059,219.878,502,248.177,502z"/>
		<path style="fill:#FDE0BE;" d="M213.285,457.164h85.429c18.35,0,33.225-14.875,33.225-33.225v-3.363
			c0-40.542-33.171-73.714-73.714-73.714h-4.453c-40.542,0-73.714,33.171-73.714,73.714v3.363
			C180.06,442.288,194.936,457.164,213.285,457.164z"/>
	</g>
	<g>
		<path style="fill:#052A75;" d="M499.867,170.622l-73.475-46.034c-19.526-12.233-43.792-14.042-64.912-4.839l-35.978,15.678
			c-3.428-2.173-7.032-4.064-10.775-5.649c6.516-22.684,27.233-38.598,51.346-38.598h50.547c28.235,0,54.477-15.246,68.482-39.787
			l2.2-3.854c2.738-4.796,1.069-10.904-3.728-13.642c-4.793-2.739-10.904-1.07-13.642,3.727l-2.201,3.855
			c-10.455,18.32-30.04,29.701-51.112,29.701h-10.282c10.296-10.055,16.19-23.971,16.19-38.396V10c0-5.523-4.478-10-10-10
			s-10,4.477-10,10v22.784c0,9.304-3.898,18.277-10.696,24.619l-14.766,13.776h-10.993c-12.017,0-23.416,2.888-33.5,8.041V41.357
			c0-5.523-4.478-10-10-10s-10,4.477-10,10v52.291c0,0.189,0.018,0.373,0.028,0.559c-7.924,8.406-13.901,18.733-17.179,30.344
			c-3.116-0.403-6.275-0.616-9.465-0.616h-59.914c-3.19,0-6.35,0.213-9.465,0.616c-3.278-11.611-9.255-21.938-17.179-30.344
			c0.01-0.186,0.028-0.37,0.028-0.559V41.357c0-5.523-4.478-10-10-10s-10,4.477-10,10V79.22c-10.084-5.153-21.483-8.041-33.5-8.041
			h-10.993l-14.766-13.776c-6.798-6.342-10.696-15.316-10.696-24.62V10c0-5.523-4.478-10-10-10s-10,4.477-10,10v22.784
			c0,14.424,5.894,28.34,16.19,38.396H95.38c-21.072,0-40.657-11.381-51.113-29.702l-2.2-3.854
			c-2.737-4.796-8.847-6.465-13.642-3.727c-4.797,2.738-6.466,8.846-3.728,13.642l2.199,3.854
			C40.903,75.934,67.145,91.179,95.38,91.179h50.547c24.113,0,44.83,15.914,51.346,38.598c-3.61,1.529-7.089,3.346-10.407,5.423
			l-36.505-15.692c-21.038-9.042-45.184-7.182-64.592,4.978l-73.637,46.135c-12.075,7.566-15.752,23.554-8.197,35.641
			c14.147,22.636,36.255,38.397,62.249,44.381c7.495,1.725,15.053,2.578,22.558,2.578c12.08,0,24.015-2.224,35.322-6.559
			c-0.374,4.116-0.152,21.331-0.208,25.757c-0.612,49.12,18.137,95.386,47.377,134.27c-0.758,4.52-1.173,9.155-1.173,13.887v3.363
			c0,14.16,6.845,26.752,17.399,34.641c1.855,14.203,8.607,27.282,19.207,37.088C218.052,506.199,232.868,512,248.387,512h15.227
			c30.879,0,56.944-23.179,60.913-53.411c10.562-7.888,17.413-20.484,17.413-34.651v-3.363c0-4.732-0.415-9.367-1.173-13.888
			c29.243-38.887,47.988-85.146,47.377-134.269c-0.057-4.538,0.168-21.537-0.208-25.756c11.306,4.335,23.24,6.558,35.321,6.558
			c7.504,0,15.065-0.853,22.559-2.578c25.994-5.983,48.102-21.745,62.248-44.38C515.619,194.176,511.943,178.188,499.867,170.622z
			 M70.671,231.152c-20.784-4.784-38.461-17.388-49.775-35.491c-1.716-2.745-0.883-6.375,1.856-8.091l73.637-46.135
			c13.844-8.674,31.069-10,46.074-3.551l27.519,11.829c-3.206,3.735-6.064,7.82-8.51,12.218l-26.404,47.479
			c-2.239,4.026-4.152,8.218-5.734,12.527C111.602,232.508,90.848,235.796,70.671,231.152z M253.774,356.862h4.453
			c35.132,0,63.713,28.582,63.713,63.713v3.363c0,12.806-10.419,23.225-23.225,23.225h-32.534v-24.526
			c0.9-0.414,1.782-0.876,2.633-1.406l16.989-10.594c4.687-2.922,6.117-9.09,3.194-13.776c-2.922-4.687-9.091-6.118-13.776-3.194
			l-16.989,10.594c-1.311,0.815-2.935,0.813-4.239,0l-17.213-10.733c-4.688-2.925-10.855-1.492-13.776,3.194
			c-2.923,4.687-1.492,10.854,3.194,13.776l17.213,10.733c0.895,0.558,1.822,1.044,2.771,1.473v24.459h-32.896
			c-12.806,0-23.225-10.419-23.225-23.225v-3.363C190.061,385.444,218.642,356.862,253.774,356.862z M263.613,492h-15.227
			c-16.779,0-31.552-10.254-38.001-24.945c0.96,0.064,1.924,0.108,2.9,0.108h85.43c0.98,0,1.95-0.045,2.914-0.109
			C295.204,481.763,280.471,492,263.613,492z M368.144,272.419c0.055,39.684-12.356,77.981-35.278,110.323
			c-8.609-16.915-22.79-30.523-40.12-38.401v-71.078c0-15.393,12.502-27.916,27.869-27.916c5.522,0,10-4.477,10-10s-4.478-10-10-10
			c-26.396,0-47.869,21.495-47.869,47.916v64.886c-10.819-1.812-22.671-1.812-33.49,0v-64.886c0-26.421-21.474-47.916-47.869-47.916
			c-5.522,0-10,4.477-10,10s4.478,10,10,10c15.367,0,27.869,12.523,27.869,27.916v71.078c-17.33,7.879-31.511,21.487-40.12,38.401
			c-22.922-32.343-35.333-70.639-35.278-110.323v-19.772c0-11.704,3.005-23.294,8.69-33.518l26.404-47.479
			c9.507-17.095,27.551-27.715,47.092-27.715h59.914c19.541,0,37.585,10.62,47.092,27.716l26.404,47.479
			c5.686,10.224,8.69,21.814,8.69,33.518V272.419z M491.105,195.663c-11.314,18.102-28.991,30.706-49.775,35.49
			c-20.18,4.645-40.932,1.355-58.663-9.217c-1.583-4.309-3.495-8.501-5.734-12.527l-26.404-47.479
			c-2.393-4.303-5.183-8.303-8.306-11.973l27.249-11.874c15.064-6.566,32.375-5.273,46.303,3.452l73.475,46.034
			C491.987,189.286,492.82,192.917,491.105,195.663z"/>
		<circle style="fill:#052A75;" cx="182.81" cy="280.692" r="10"/>
		<circle style="fill:#052A75;" cx="329.19" cy="280.692" r="10"/>
	</g>
</g>
<g>
</g>
<g>
</g>
<g>
</g>
<g>
</g>
<g>
</g>
<g>
</g>
<g>
</g>
<g>
</g>
<g>
</g>
<g>
</g>
<g>
</g>
<g>
</g>
<g>
</g>
<g>
</g>
<g>
</g>
</svg>
