<?xml version="1.0" encoding="iso-8859-1"?>
<!-- Generator: Adobe Illustrator 28.3.0, SVG Export Plug-In . SVG Version: 6.00 Build 0)  -->
<svg version="1.1" id="Capa_1" xmlns="http://www.w3.org/2000/svg" xmlns:xlink="http://www.w3.org/1999/xlink" x="0px" y="0px"
	 viewBox="0 0 512 512" style="enable-background:new 0 0 512 512;" xml:space="preserve">
<g>
	<g>
		<g>
			<path style="fill:#D2DCFD;" d="M383.993,108.285h52.442c31.119,0,56.345-25.227,56.345-56.346V30.257
				c0-11.188-9.07-20.257-20.257-20.257h-32.184c-31.119,0-56.346,25.227-56.346,56.346V108.285z"/>
			<path style="fill:#D2DCFD;" d="M128.007,108.285H75.565c-31.119,0-56.346-25.227-56.346-56.346V30.257
				C19.219,19.07,28.289,10,39.477,10h32.184c31.119,0,56.346,25.227,56.346,56.346V108.285z"/>
			<path style="fill:#93B2F4;" d="M128.01,66.58v41.71H75.798c-3.133,0-6.195-0.251-9.187-0.743
				c10.593-29.279,27.642-55.114,49.24-76.019C123.461,41.167,128.01,53.346,128.01,66.58z"/>
			<path style="fill:#93B2F4;" d="M445.35,107.547c-2.972,0.492-6.035,0.743-9.147,0.743H383.99V66.58
				c0-13.224,4.538-25.403,12.149-35.032C417.728,52.463,434.767,78.278,445.35,107.547z"/>
		</g>
		<path style="fill:#FD7DA0;" d="M310.073,502h-108.15c-38.095,0-68.976-30.882-68.976-68.976v-33.751H379.05v33.751
			C379.05,471.118,348.168,502,310.073,502z"/>
		<path style="fill:#D2DCFD;" d="M211.924,355.406h88.113c86.242,0,149.009-81.812,126.676-165.112l-15.009-55.981
			C392.81,63.84,328.942,14.841,255.981,14.841h0c-72.962,0-136.829,49-155.723,119.472l-15.009,55.981
			C62.915,273.594,125.682,355.406,211.924,355.406z"/>
		<path style="fill:#93B2F4;" d="M430.429,239.151c-7.259,63.729-61.289,116.253-130.39,116.253h-88.118
			c-69.101,0-123.131-52.524-130.39-116.253v-0.01c22.281-15.222,48.286-23.264,75.296-23.264c24.72,0,48.919,6.858,69.974,19.821
			l1.295,0.793c8.394,5.171,18.033,7.902,27.883,7.902c9.85,0,19.479-2.731,27.873-7.892l1.295-0.803
			c21.066-12.963,45.264-19.821,69.984-19.821C382.143,215.877,408.159,223.92,430.429,239.151z"/>
		<path style="fill:#93B2F4;" d="M203.677,188.656c0,9.92-1.817,19.881-5.493,29.379l-15.764,40.716l-38.466,77.756
			c-47.654-28.978-74.523-87.225-58.709-146.214l15.011-55.978c2.53-9.418,5.854-18.455,9.91-27.04h12.129
			c27.482,0,53.106,13.876,68.137,36.89C199.189,157.58,203.677,173.063,203.677,188.656z"/>
		<path style="fill:#93B2F4;" d="M368.136,336.427l-38.607-77.796l-15.714-40.595c-3.675-9.499-5.493-19.459-5.493-29.379
			c0-15.593,4.488-31.076,13.244-44.491c15.031-23.014,40.655-36.89,68.137-36.89h12.089c4.057,8.585,7.38,17.622,9.91,27.04
			l15.011,55.978C442.518,249.232,415.709,307.429,368.136,336.427z"/>
		<path style="fill:#6864F7;" d="M156.827,215.877c13.585,0,27,2.068,39.832,6.095l-14.238,36.779l-38.466,77.746
			c-0.286-0.173-26.993-15.959-42.231-39.701c-15.797-24.612-20.141-57.216-20.192-57.645v-0.01
			C103.811,223.92,129.817,215.877,156.827,215.877z"/>
		<path style="fill:#6864F7;" d="M430.429,239.151c-0.048,0.395-3.408,33.571-18.042,56.417
			c-16.256,25.38-43.966,40.679-44.252,40.848l-38.607-77.786l-14.198-36.679c12.822-4.006,26.227-6.075,39.802-6.075
			C382.143,215.877,408.159,223.92,430.429,239.151z"/>
		<path style="fill:#FDBEB9;" d="M341.71,451.609l-72.897-10.602c-8.938-1.3-18.016-1.295-26.953,0.013l-71.52,10.471
			c-56.326,8.247-106.851-35.419-106.851-92.345v-9.771c0-30.589,14.99-59.237,40.121-76.676l0,0
			c30.465-21.141,70.556-22.241,102.134-2.802l1.308,0.805c30.001,18.468,67.846,18.469,97.848,0.002l1.316-0.81
			c31.578-19.437,71.668-18.337,102.132,2.804l0.002,0.001c25.131,17.44,40.121,46.087,40.121,76.676v9.875
			C448.472,416.142,398.008,459.797,341.71,451.609z"/>
	</g>
	<g>
		<g>
			<path style="fill:#B55348;" d="M196.495,304.64c-5.522,0-10,4.477-10,10s4.478,10,10,10c10.552,0,19.136,8.584,19.136,19.136
				v6.446c0,5.523,4.478,10,10,10s10-4.477,10-10v-6.446C235.631,322.196,218.074,304.64,196.495,304.64z"/>
			<path style="fill:#B55348;" d="M315.505,304.64c-21.579,0-39.136,17.556-39.136,39.136v6.446c0,5.523,4.478,10,10,10
				s10-4.477,10-10v-6.446c0-10.551,8.584-19.136,19.136-19.136c5.522,0,10-4.477,10-10S321.027,304.64,315.505,304.64z"/>
		</g>
		<g>
			<path style="fill:#052A75;" d="M472.44,0h-31.871c-32.187,0-59.109,22.961-65.255,53.364
				C344.106,23.055,301.674,4.84,255.98,4.84c-45.678,0-88.095,18.202-119.301,48.491C130.521,22.945,103.607,0,71.431,0H39.56
				C22.829,0,9.219,13.611,9.219,30.34v21.37c0,36.709,29.866,66.575,66.576,66.575h19.008c-1.574,4.391-2.98,8.872-4.204,13.438
				l-15.009,55.98c-8.106,30.232-5.95,62.241,6.001,90.843c-17.861,18.976-28.102,44.247-28.102,70.828v9.771
				c0,30.041,13.035,58.536,35.764,78.179c11.152,9.637,24.077,16.65,37.859,20.787C137.896,490.041,168.183,512,202.205,512
				h107.587c34.002,0,64.253-21.916,75.063-53.803c13.794-4.142,26.734-11.149,37.89-20.8
				c22.705-19.642,35.727-48.125,35.727-78.146v-9.875c0-26.581-10.24-51.853-28.102-70.829
				c11.952-28.604,14.108-60.61,6.002-90.843l-15.009-55.981c-1.224-4.566-2.63-9.047-4.205-13.438h19.046
				c36.71,0,66.576-29.866,66.576-66.575V30.34C502.781,13.611,489.171,0,472.44,0z M75.795,98.285
				c-25.683,0-46.576-20.894-46.576-46.575V30.34c0-5.702,4.639-10.34,10.341-10.34h31.871c25.683,0,46.576,20.894,46.576,46.576
				v8.121c0,0.007,0.001,0.014,0.001,0.022c-5.448,7.4-10.325,15.275-14.558,23.567H75.795z M309.792,492H202.205
				c-21.478,0-40.968-11.697-51.37-29.702c6.938,0.401,13.955,0.113,20.953-0.911l71.521-10.471
				c7.983-1.169,16.08-1.173,24.063-0.012l72.897,10.602c4.969,0.723,9.945,1.078,14.897,1.078c1.985,0,3.963-0.078,5.937-0.192
				C350.691,480.344,331.239,492,309.792,492z M438.472,359.251c0,24.211-10.501,47.181-28.812,63.021
				c-18.311,15.839-42.557,22.925-66.511,19.441l-72.897-10.602c-9.902-1.439-19.943-1.435-29.84,0.015l-71.521,10.471
				c-23.974,3.511-48.231-3.564-66.56-19.404c-18.329-15.841-28.842-38.821-28.842-63.047v-9.771
				c0-27.302,13.392-52.895,35.822-68.461c27.201-18.876,62.996-19.858,91.19-2.502c33.962,21.623,76.995,21.622,110.957-0.002
				c28.194-17.355,63.989-16.371,91.19,2.505c22.431,15.565,35.822,41.158,35.822,68.46V359.251z M414.316,264.672
				c-0.089-0.062-0.176-0.128-0.265-0.19c-33.729-23.406-78.114-24.623-113.077-3.103c-27.499,17.644-62.489,17.642-89.986,0.002
				c-34.963-21.523-79.349-20.304-113.078,3.102c-0.089,0.062-0.174,0.126-0.263,0.188c-8.246-23.023-9.222-47.608-2.738-71.788
				l15.009-55.981C127.605,70.922,187.67,24.84,255.98,24.84s128.375,46.082,146.064,112.062l15.009,55.981
				C423.538,217.065,422.562,241.648,414.316,264.672z M482.781,51.71c0,25.682-20.894,46.575-46.576,46.575h-27.693
				c-4.224-8.271-9.087-16.128-14.519-23.512v-8.198c0-25.682,20.894-46.576,46.576-46.576h31.871
				c5.702,0,10.341,4.639,10.341,10.34V51.71z"/>
			<circle style="fill:#052A75;" cx="364.425" cy="168.961" r="10"/>
			<circle style="fill:#052A75;" cx="147.58" cy="168.961" r="10"/>
		</g>
	</g>
</g>
<g>
</g>
<g>
</g>
<g>
</g>
<g>
</g>
<g>
</g>
<g>
</g>
<g>
</g>
<g>
</g>
<g>
</g>
<g>
</g>
<g>
</g>
<g>
</g>
<g>
</g>
<g>
</g>
<g>
</g>
</svg>
