<?xml version="1.0" encoding="iso-8859-1"?>
<!-- Generator: Adobe Illustrator 28.3.0, SVG Export Plug-In . SVG Version: 6.00 Build 0)  -->
<svg version="1.1" id="Capa_1" xmlns="http://www.w3.org/2000/svg" xmlns:xlink="http://www.w3.org/1999/xlink" x="0px" y="0px"
	 viewBox="0 0 512.01 512.01" style="enable-background:new 0 0 512.01 512.01;" xml:space="preserve">
<g>
	<g>
		<g>
			<path style="fill:#FDE0BE;" d="M52.422,217.059l51.968,30.023l100.765-40.61v-76.92c0-35.34-18.842-67.996-49.428-85.666
				l-52.316-30.224c-13.071-7.551-29.785-3.07-37.331,10.009L21.381,101.14C-2.037,141.728,11.86,193.626,52.422,217.059z"/>
			<path style="fill:#F7B073;" d="M205.159,129.55v76.922l-100.77,40.605l-51.931-29.992c11.808-25.895,26.498-50.415,43.959-73.318
				l7.259-9.519c21.809-28.596,55.435-46.459,91.141-48.748C201.514,98.965,205.159,114.007,205.159,129.55z"/>
			<path style="fill:#D46B5C;" d="M205.159,129.55v76.922l-35.966,14.489l-44.18-99.143c-9.93-22.903-30.424-39.5-54.883-44.43
				l-31.388-6.326L66.083,23.67c7.541-13.073,24.259-17.561,37.332-10.011l52.313,30.223
				C186.312,61.553,205.159,94.216,205.159,129.55z"/>
			<path style="fill:#B55348;" d="M205.159,129.55v76.922l-35.966,14.489l-44.18-99.143c-0.984-2.269-2.068-4.488-3.263-6.627
				c20.383-17.381,46.138-27.964,73.067-29.691C201.514,98.965,205.159,114.007,205.159,129.55z"/>
		</g>
		<g>
			<path style="fill:#FDE0BE;" d="M459.589,217.059l-51.968,30.023l-100.765-40.61v-76.92c0-35.34,18.842-67.996,49.428-85.666
				L408.6,13.662c13.071-7.551,29.785-3.07,37.331,10.009l44.698,77.469C514.048,141.728,500.15,193.626,459.589,217.059z"/>
			<path style="fill:#F7B073;" d="M459.753,216.965c-0.05,0.03-0.11,0.06-0.161,0.09l-51.971,30.022l-100.77-40.605V129.55
				c0-15.553,3.655-30.594,10.342-44.069h0.01c35.806,2.219,69.523,20.092,91.392,48.768l7.259,9.519
				C433.286,166.64,447.955,191.12,459.753,216.965z"/>
			<path style="fill:#D46B5C;" d="M473.339,71.183l-31.458,6.205c-24.459,4.93-44.953,21.528-54.883,44.43l-42.181,99.956
				l-37.964-15.302V129.55c0-35.334,18.847-67.996,49.431-85.668l52.313-30.223c13.073-7.551,29.791-3.062,37.332,10.011
				L473.339,71.183z"/>
			<path style="fill:#B55348;" d="M390.351,115.041c-1.225,2.189-2.35,4.448-3.354,6.778l-42.181,99.956l-37.964-15.302V129.55
				c0-15.553,3.655-30.594,10.342-44.069h0.01C344.164,87.157,369.928,97.69,390.351,115.041z"/>
		</g>
		<g>
			<path style="fill:#FDE0BE;" d="M94.182,367.978l79.026,68.091c2.408,2.075,4.403,4.587,5.88,7.402l21.893,41.74h110.421
				l21.78-41.715c1.479-2.833,3.482-5.359,5.902-7.444l79.008-68.075c22.795-19.641,32.371-50.587,24.657-79.681l0,0
				c-11.543-43.533-31.534-84.367-58.834-120.176l-7.261-9.523c-15.944-20.914-40.727-33.187-67.016-33.187h-0.264
				c-7.906,0-15.355-3.706-20.127-10.014l-33.244-43.946l-33.244,43.946c-4.772,6.308-12.221,10.014-20.127,10.014h0
				c-26.288,0-51.071,12.273-67.016,33.187l-7.261,9.523c-27.3,35.809-47.291,76.643-58.834,120.176l0,0
				C61.811,317.391,71.387,348.337,94.182,367.978z"/>
			<path style="fill:#F7B073;" d="M321.315,466.233l-9.91,18.98h-110.42l-21.9-41.74c-1.47-2.82-3.47-5.33-5.88-7.4l-79.02-68.09
				c-17.57-15.15-27.29-37-27.29-59.54c0-6.71,0.86-13.48,2.63-20.15c11.54-43.53,31.53-84.36,58.83-120.17l7.26-9.52
				c7.97-10.46,18.16-18.76,29.63-24.44c2.24-1.11,4.53-2.12,6.87-3.03c-15.62,31.76-24.4,67.5-24.4,105.29
				C147.715,345.713,221.115,437.853,321.315,466.233z"/>
			<path style="fill:#D46B5C;" d="M404.469,198.289h-60.586c-25.574,0-50.044,10.402-67.796,28.817l-18.041,18.703
				c-1.197,1.241-3.189,1.226-4.368-0.033l-16.53-17.666c-17.812-19.017-42.704-29.821-68.759-29.821h-60.586
				c6.296-10.392,13.163-20.463,20.554-30.173l7.259-9.519c7.972-10.462,18.154-18.756,29.63-24.439
				c11.477-5.683,24.249-8.745,37.392-8.745c7.902,0,15.352-3.705,20.122-10.021l33.245-43.939l33.245,43.939
				c4.769,6.316,12.22,10.021,20.122,10.021h0.271c26.287,0,51.068,12.27,67.012,33.185l7.26,9.519
				C391.305,177.826,398.173,187.897,404.469,198.289z"/>
			<g>
				<g>
					<path style="fill:#D46B5C;" d="M272.641,330.923l53.055,34.527l59.211-30.356c1.018-0.522,1.652-1.575,1.638-2.719
						l-0.724-56.933c-0.014-1.105-0.632-2.114-1.611-2.628l-19.237-10.109c-27.125-14.254-60.53-2.7-73.023,25.175
						C282.027,310.026,272.641,330.923,272.641,330.923z"/>
				</g>
				<g>
					<path style="fill:#D46B5C;" d="M239.369,330.923l-53.055,34.527l-59.211-30.356c-1.018-0.522-1.652-1.575-1.638-2.719
						l0.724-56.933c0.014-1.105,0.632-2.114,1.611-2.628l19.237-10.109c27.125-14.254,60.53-2.7,73.023,25.175
						C229.984,310.026,239.369,330.923,239.369,330.923z"/>
				</g>
				<path style="fill:#B55348;" d="M172.115,131.133c-10.26,20.85-17.56,43.42-21.37,67.16h-42.94
					c6.29-10.4,13.16-20.47,20.55-30.18l7.26-9.51c7.97-10.47,18.15-18.76,29.63-24.44
					C167.485,133.053,169.775,132.043,172.115,131.133z"/>
				<g>
					<path style="fill:#B55348;" d="M185.145,364.853l-58.04-29.76c-1.02-0.52-1.65-1.57-1.64-2.72l0.72-56.93
						c0.02-1.1,0.64-2.11,1.61-2.63l19.24-10.11c0.67-0.35,1.34-0.68,2.01-0.99C153.005,299.393,165.735,334.463,185.145,364.853z"
						/>
				</g>
			</g>
		</g>
		<path style="fill:#D46B5C;" d="M226.444,501.993h59.113c21.916,0,40.752-15.557,44.906-37.09l7.335-38.017
			c1.888-9.784,0.532-19.917-3.86-28.86l-25-50.902c-7.691-15.659-23.61-25.579-41.047-25.579h-23.784
			c-17.438,0-33.359,9.923-41.049,25.584l-24.992,50.902c-4.389,8.94-5.744,19.068-3.859,28.848l7.329,38.016
			C185.688,486.432,204.525,501.993,226.444,501.993z"/>
		<path style="fill:#FDE0BE;" d="M222.244,423.217v-0.592c0-13.143,13.893-21.634,25.579-15.633l0.15,0.077
			c5.042,2.589,11.023,2.585,16.061-0.013l0,0c11.687-6.026,25.604,2.464,25.604,15.62v0.563c0,5.609-2.676,10.88-7.202,14.189
			l-16.088,11.76c-6.16,4.503-14.52,4.511-20.689,0.021l-16.185-11.782C224.932,434.12,222.244,428.838,222.244,423.217z"/>
	</g>
	<g>
		<path style="fill:#052A75;" d="M499.291,96.161l-44.699-77.47c-4.984-8.639-13.034-14.819-22.666-17.402
			c-9.631-2.583-19.692-1.258-28.328,3.732l-52.315,30.223c-28.174,16.276-47.31,43.969-52.798,75.586
			c-2.635-2.8-32.381-42.844-34.504-45.395c-1.891-2.499-4.843-3.967-7.976-3.967c-3.133,0-6.085,1.468-7.975,3.967
			c0,0-34.057,44.94-34.504,45.395c-5.489-31.618-24.625-59.31-52.797-75.586L108.413,5.021c-8.637-4.989-18.697-6.314-28.33-3.732
			c-9.631,2.583-17.681,8.763-22.666,17.402L12.72,96.161c-26.135,45.295-10.569,103.423,34.7,129.575l27.348,15.799
			c-5.901,14.327-10.893,29.073-14.909,44.217c-8.636,32.573,2.274,67.83,27.796,89.819l79.024,68.09
			c0.251,0.216,0.473,0.463,0.71,0.696l4.328,22.45c5.049,26.193,28.065,45.204,54.727,45.204h59.113
			c26.657,0,49.673-19.007,54.726-45.195l4.273-22.146c0.339-0.354,0.687-0.703,1.056-1.022l79.008-68.076
			c25.521-21.99,36.433-57.246,27.796-89.819c-4.027-15.187-9.036-29.974-14.96-44.339l27.136-15.677
			C509.86,199.584,525.425,141.456,499.291,96.161z M57.424,208.418c-35.725-20.639-48.008-66.514-27.381-102.263l44.698-77.469
			c2.314-4.012,6.051-6.881,10.522-8.08c4.469-1.199,9.138-0.584,13.145,1.731l52.316,30.224
			c23.462,13.555,39.256,36.806,43.367,63.266c-26.068,2.413-50.439,15.755-66.425,36.724l-7.26,9.523
			c-14.628,19.187-27.125,39.61-37.453,61.091L57.424,208.418z M327.979,425.009l-7.335,38.017
			c-3.24,16.795-17.996,28.984-35.087,28.984h-59.113c-17.094,0-31.851-12.191-35.088-28.989l-7.329-38.017
			c-1.465-7.596-0.394-15.604,3.016-22.548l24.993-50.902c5.963-12.145,18.552-19.992,32.072-19.992h23.784
			c13.727,0,26.016,7.659,32.071,19.988l25,50.902C328.374,409.399,329.446,417.41,327.979,425.009z M411.565,360.419l-63.07,54.343
			c-0.462-7.311-2.34-14.528-5.582-21.127l-25-50.902c-9.442-19.227-28.61-31.171-50.022-31.171h-23.784
			c-21.09,0-40.726,12.238-50.025,31.177l-24.993,50.902c-3.207,6.532-5.077,13.669-5.561,20.904l-62.818-54.126
			c-19.759-17.025-28.206-44.322-21.519-69.542c11.264-42.48,30.482-81.735,57.121-116.676l7.26-9.523
			c13.963-18.315,36.042-29.25,59.063-29.25c10.974,0,21.479-5.227,28.102-13.981l25.269-33.403l25.269,33.403
			c6.623,8.755,17.128,13.981,28.102,13.981h0.264c23.021,0,45.101,10.934,59.063,29.25l7.261,9.523
			c26.639,34.941,45.856,74.197,57.12,116.676C439.77,316.098,431.324,343.395,411.565,360.419z M454.587,208.418l-25.324,14.629
			c-10.316-21.437-22.795-41.82-37.396-60.972l-7.261-9.523c-16.039-21.038-40.518-34.402-66.684-36.75
			c4.118-26.45,19.909-49.69,43.363-63.24l52.316-30.224c4.007-2.314,8.675-2.931,13.145-1.731c4.471,1.199,8.207,4.068,10.521,8.08
			l44.698,77.469C502.594,141.904,490.311,187.779,454.587,208.418z"/>
		<circle style="fill:#052A75;" cx="335.705" cy="306.92" r="10"/>
		<circle style="fill:#052A75;" cx="176.305" cy="306.92" r="10"/>
	</g>
</g>
<g>
</g>
<g>
</g>
<g>
</g>
<g>
</g>
<g>
</g>
<g>
</g>
<g>
</g>
<g>
</g>
<g>
</g>
<g>
</g>
<g>
</g>
<g>
</g>
<g>
</g>
<g>
</g>
<g>
</g>
</svg>
