<?xml version="1.0" encoding="iso-8859-1"?>
<!-- Generator: Adobe Illustrator 28.3.0, SVG Export Plug-In . SVG Version: 6.00 Build 0)  -->
<svg version="1.1" id="Capa_1" xmlns="http://www.w3.org/2000/svg" xmlns:xlink="http://www.w3.org/1999/xlink" x="0px" y="0px"
	 viewBox="0 0 512.001 512.001" style="enable-background:new 0 0 512.001 512.001;" xml:space="preserve">
<g>
	<g>
		<g>
			<path style="fill:#D2DCFD;" d="M442.377,498.559l-10.422-74.304c-12.295-87.663-87.343-152.877-175.928-152.877h0
				c-88.537,0-163.56,65.146-175.911,152.752l-10.493,74.427c-0.256,1.819,1.157,3.443,2.995,3.443h366.765
				C441.22,502.001,442.632,500.377,442.377,498.559z"/>
			<path style="fill:#93B2F4;" d="M432.006,424.626c-11.908,9.228-25.243,16.979-39.842,22.903l-6.326,2.56
				C344.41,466.908,300.722,475.433,256,475.433c-44.722,0-88.409-8.525-129.838-25.343l-6.326-2.56
				c-14.579-5.914-27.893-13.656-39.792-22.863l0.07-0.532c6.175-43.808,28.024-81.993,59.391-109.234
				c31.368-27.241,72.254-43.527,116.524-43.527c88.58,0,163.635,65.215,175.925,152.881L432.006,424.626z"/>
		</g>
		<g>
			<path style="fill:#D2DCFD;" d="M462.523,197.923l-54.457,56.571l-169.315-98.55l83.831-113.466
				c15.248-20.638,39.478-32.716,65.149-32.474h58.967c29.693,0.28,53.811,24.603,54.504,54.267l0.758,32.441
				C502.842,134.353,488.644,170.787,462.523,197.923z"/>
			<path style="fill:#D2DCFD;" d="M49.477,197.923l54.457,56.571l169.315-98.55L189.418,42.478
				C174.17,21.839,149.94,9.762,124.269,10.004l-58.967-0.004c-29.693,0.28-53.811,24.606-54.504,54.271l-0.758,32.441
				C9.159,134.353,23.356,170.787,49.477,197.923z"/>
			<path style="fill:#93B2F4;" d="M471.536,187.603c-2.821,3.564-5.834,7.008-9.017,10.322l-54.451,56.57L256,165.985
				l-152.068,88.51l-54.451-56.57c-3.183-3.313-6.195-6.757-9.017-10.322c24.65-70.236,81.371-122.689,150.361-143.222L256,132.599
				l65.175-88.219C390.166,64.914,446.886,117.367,471.536,187.603z"/>
			<g>
				<ellipse style="fill:#FDBEB9;" cx="114.561" cy="108.217" rx="48.541" ry="48.505"/>
				<path style="fill:#FD7DA0;" d="M163.103,108.22c0,26.789-21.728,48.497-48.537,48.497c-19.208,0-35.806-11.135-43.678-27.301
					c18.475-25.534,41.971-46.83,68.81-62.705C153.725,75.216,163.103,90.618,163.103,108.22z"/>
			</g>
			<g>
				<ellipse style="fill:#FDBEB9;" cx="397.148" cy="108.217" rx="48.541" ry="48.505"/>
				<path style="fill:#FD7DA0;" d="M440.942,129.175c-7.822,16.286-24.5,27.542-43.798,27.542
					c-26.799,0-48.537-21.708-48.537-48.497c0-17.652,9.438-33.105,23.556-41.589C398.982,82.465,422.457,103.701,440.942,129.175z"
					/>
			</g>
		</g>
		<g>
			<path style="fill:#D2DCFD;" d="M378.951,414.963l-6.322,2.565c-74.787,30.346-158.469,30.346-233.256,0l-6.322-2.565
				c-65.713-26.664-99.136-99.979-76.143-167.022l16.244-47.364C99.928,122.496,173.4,70.048,256,70.048h0
				c82.6,0,156.072,52.449,182.85,130.529l16.244,47.364C478.087,314.984,444.664,388.299,378.951,414.963z"/>
		</g>
		<g>
			<path style="fill:#93B2F4;" d="M285.63,438.861c-49.33,4.74-99.53-2.37-146.26-21.33l-6.32-2.57
				c-65.71-26.66-99.14-99.98-76.14-167.02l16.24-47.36c22.22-64.78,76.57-111.92,141.62-126.1
				c-50.25,37.57-82.77,97.54-82.77,165.1C132,335.261,197.22,415.701,285.63,438.861z"/>
		</g>
		<g>
			<path style="fill:#FFFFFF;" d="M458.483,323.003c-9.9,40.284-38.386,75.266-79.533,91.964l-6.326,2.56
				c-74.784,30.343-158.464,30.343-233.248,0l-6.326-2.56c-40.254-16.336-68.398-50.184-78.871-89.373l10.463,3.514
				c36.619,13.415,76.752,9.378,109.515-9.79c8.725-5.091,16.919-11.266,24.389-18.465h114.837
				c6.768,6.516,14.127,12.2,21.929,16.999c20.413,12.561,43.868,19.128,67.625,19.128c14.88,0,29.891-2.581,44.35-7.872
				L458.483,323.003z"/>
		</g>
		<g>
			<path style="fill:#D2DCFD;" d="M285.63,438.861c-49.33,4.74-99.53-2.37-146.25-21.33l-6.33-2.56
				c-40.25-16.34-68.4-50.19-78.87-89.38l10.46,3.52c28.9,10.58,60,10.3,87.93,0.29C178.53,382.921,226.98,423.501,285.63,438.861z"
				/>
		</g>
		<path style="fill:#BC9AF4;" d="M255.635,449.482h0.731c24.935,0,45.337-20.402,45.337-45.337v-91.036h-91.405v91.036
			C210.298,429.08,230.7,449.482,255.635,449.482z"/>
		<path style="fill:#BC9AF4;" d="M255.525,402.819h0.95c32.435,0,58.973-26.538,58.973-58.973v-54.459
			c0-32.435-26.538-58.973-58.973-58.973h-0.95c-32.435,0-58.973,26.538-58.973,58.973v54.459
			C196.552,376.281,223.09,402.819,255.525,402.819z"/>
	</g>
	<g>
		<g>
			<g>
				<path style="fill:#6864F7;" d="M322.436,312.962c-2.019-5.141-7.822-7.672-12.963-5.654l-29.072,11.413
					c-10.089,3.96-18.446,10.628-24.401,18.985c-5.954-8.357-14.312-15.025-24.4-18.985l-29.072-11.413
					c-5.141-2.018-10.945,0.514-12.963,5.654c-2.018,5.141,0.514,10.945,5.654,12.963l29.073,11.413
					C237.479,342.514,246,355.006,246,369.161v11.779v18.864c0,5.523,4.477,10,10,10c5.523,0,10-4.477,10-10V380.94v-11.779
					c0-14.155,8.521-26.647,21.709-31.823l29.072-11.413C321.922,323.907,324.454,318.104,322.436,312.962z"/>
				<g>
					<path style="fill:#052A75;" d="M464.553,244.696l-8.714-25.41l13.889-14.428c27.774-28.853,43.167-68.355,42.231-108.38
						L511.2,64.037c-0.396-16.965-7.252-32.944-19.305-44.991C479.772,6.927,463.754,0.165,446.699,0.004l-58.873,0
						c-0.281-0.003-0.561-0.004-0.841-0.004c-28.48,0-55.511,13.615-72.445,36.535l-20.08,27.179
						c-12.513-2.407-25.376-3.667-38.459-3.667c-13.083,0-25.946,1.26-38.459,3.667l-20.08-27.179
						C180.36,13.389,152.954-0.268,124.269,0.004L65.207,0.001c-16.96,0.16-32.979,6.923-45.103,19.043
						C8.052,31.093,1.197,47.072,0.8,64.037L0.042,96.478c-0.936,40.024,14.457,79.527,42.231,108.38l13.889,14.428l-8.715,25.41
						c-17.697,51.601-4.26,106.707,30.739,144.345c-3.67,10.916-6.356,22.23-7.972,33.692l-10.494,74.427
						c-0.526,3.735,0.591,7.51,3.065,10.357c2.475,2.849,6.059,4.482,9.832,4.482h366.765c3.772,0,7.355-1.633,9.83-4.479
						c2.474-2.846,3.592-6.619,3.068-10.351l-10.421-74.303c-1.616-11.521-4.316-22.897-8.007-33.867
						C468.823,351.362,482.243,296.279,464.553,244.696z M330.625,48.42c13.302-18.004,34.592-28.604,57.106-28.416l58.873,0
						c24.025,0.227,44.033,20.19,44.602,44.501l0.758,32.441c0.812,34.729-12.545,69.005-36.646,94.042l-6.772,7.035l-0.237-0.691
						C426.805,134.63,376.657,87.642,315.474,68.928L330.625,48.42z M56.682,190.988c-24.101-25.037-37.458-59.313-36.646-94.042
						l0.758-32.441c0.568-24.314,20.577-44.278,44.507-44.504l59.062,0.003c22.438-0.202,43.71,10.412,57.012,28.417l15.151,20.508
						C135.343,87.642,85.195,134.63,63.691,197.333l-0.237,0.691L56.682,190.988z M80.647,492.001l9.372-66.475
						c1.023-7.253,2.526-14.439,4.476-21.478c10.361,8.147,22.006,14.991,34.796,20.181c29.809,12.633,61.278,21.029,93.495,24.325
						c9.238,6.861,20.67,10.928,33.035,10.928h0.36c12.363,0,23.793-4.065,33.03-10.925c32.217-3.296,63.69-11.696,93.5-24.329
						c12.807-5.197,24.466-12.053,34.837-20.214c1.965,7.089,3.48,14.326,4.505,21.63l9.307,66.356H80.647z M220.298,403.96v-0.846
						c10.318,6.156,22.364,9.706,35.228,9.706h0.95c12.863,0,24.909-3.549,35.228-9.706v0.846c0,19.587-15.936,35.522-35.522,35.522
						h-0.36C236.233,439.482,220.298,423.547,220.298,403.96z M305.448,343.846c0,27.004-21.969,48.973-48.973,48.973h-0.95
						c-27.004,0-48.973-21.969-48.973-48.973v-54.459c0-27.004,21.969-48.973,48.973-48.973h0.95
						c27.004,0,48.973,21.969,48.973,48.973V343.846z M375.191,405.696c-21.852,9.235-44.66,16.217-68.012,20.193
						c2.906-6.731,4.523-14.144,4.523-21.929v-18.84c8.629-11.516,13.746-25.809,13.746-41.273v-54.459
						c0-38.032-30.941-68.973-68.973-68.973h-0.95c-38.032,0-68.973,30.941-68.973,68.973v54.459
						c0,15.465,5.117,29.757,13.746,41.273v18.84c0,7.786,1.618,15.2,4.525,21.932c-23.351-3.976-46.161-10.961-68.013-20.196
						c-60.76-24.654-91.703-92.524-70.444-154.512l16.244-47.364C107.999,129.788,177.68,80.047,256,80.047
						s148.001,49.741,173.391,123.773l16.244,47.364C466.894,313.172,435.951,381.042,375.191,405.696z"/>
					<g>
						<circle style="fill:#052A75;" cx="156.3" cy="254.415" r="10"/>
						<circle style="fill:#052A75;" cx="355.63" cy="254.415" r="10"/>
					</g>
				</g>
			</g>
		</g>
	</g>
</g>
<g>
</g>
<g>
</g>
<g>
</g>
<g>
</g>
<g>
</g>
<g>
</g>
<g>
</g>
<g>
</g>
<g>
</g>
<g>
</g>
<g>
</g>
<g>
</g>
<g>
</g>
<g>
</g>
<g>
</g>
</svg>
