<?xml version="1.0" encoding="iso-8859-1"?>
<!-- Generator: Adobe Illustrator 28.3.0, SVG Export Plug-In . SVG Version: 6.00 Build 0)  -->
<svg version="1.1" id="Capa_1" xmlns="http://www.w3.org/2000/svg" xmlns:xlink="http://www.w3.org/1999/xlink" x="0px" y="0px"
	 viewBox="0 0 512 512" style="enable-background:new 0 0 512 512;" xml:space="preserve">
<g>
	<g>
		<g>
			<path style="fill:#93B2F4;" d="M169.279,461.026L256,502l86.721-40.974c42.573-20.115,69.725-62.953,69.725-110.009v0
				c0-44.284-27.198-84.029-68.498-100.096L256,216.706l-87.948,34.215c-41.299,16.067-68.498,55.812-68.498,100.096v0
				C99.554,398.073,126.706,440.911,169.279,461.026z"/>
			<path style="fill:#6864F7;" d="M412.446,351.016c0,4.799-0.281,9.559-0.844,14.248c-9.87,7.521-20.554,13.947-31.859,19.148
				c-5.241,2.41-9.74,6.215-12.712,11.155c-17.19,28.476-48.427,47.021-83.309,47.021h-55.445
				c-34.882,0-66.119-18.545-83.309-47.021c-2.972-4.94-7.47-8.746-12.712-11.155c-11.306-5.201-21.989-11.627-31.859-19.148
				c-0.562-4.689-0.844-9.448-0.844-14.248c0-44.28,27.201-84.032,68.498-100.097L256,216.71l87.948,34.209
				c20.654,8.033,37.773,21.989,49.732,39.47C405.648,307.871,412.446,328.876,412.446,351.016z"/>
		</g>
		<g>
			<path style="fill:#93B2F4;" d="M440.607,233.105L499.473,93.13c8.842-21.024-6.61-44.259-29.433-44.259H283.89L440.607,233.105z"
				/>
			<path style="fill:#93B2F4;" d="M71.393,233.105L12.527,93.13c-8.842-21.024,6.61-44.259,29.433-44.259H228.11L71.393,233.105z"/>
			<path style="fill:#6864F7;" d="M228.107,48.868L71.39,233.107l-29.831-70.938l7.601-48.337
				c3.655-23.275,12.089-45.364,24.56-64.964H228.107z"/>
			<path style="fill:#6864F7;" d="M470.442,162.169l-29.831,70.938L283.893,48.868h154.388c12.471,19.6,20.905,41.689,24.56,64.964
				L470.442,162.169z"/>
		</g>
		<g>
			<path style="fill:#FFFFFF;" d="M203.625,359.805h104.751c80.089,0,141.251-71.465,128.82-150.521l-14.027-89.209
				C413.204,56.698,358.553,10,294.349,10h-76.697c-64.204,0-118.855,46.698-128.82,110.075l-14.027,89.209
				C62.374,288.339,123.536,359.805,203.625,359.805z"/>
			<path style="fill:#93B2F4;" d="M426.915,143.884l-55.486-38.266c-9.97-7.249-21.608-10.794-33.185-10.794
				c-15.111,0-30.112,6.045-41.127,17.772c-11.135,11.848-26.126,17.782-41.117,17.782s-29.982-5.934-41.117-17.782
				c-19.459-20.714-51.319-23.696-74.312-6.978l-56.219,42.914l4.478-28.456C98.791,56.7,153.443,10,217.654,10h76.692
				c64.211,0,118.863,46.7,128.824,110.077L426.915,143.884z"/>
			<path style="fill:#D2DCFD;" d="M380.958,326.366v11.426c-20.634,13.856-45.525,22.01-72.585,22.01H203.627
				c-27.06,0-51.951-8.153-72.585-22.01v-11.507c0-23.736,8.043-47.112,22.642-65.818l0.12-0.151
				c3.575-4.589,5.583-10.402,5.583-16.306v-3.876l193.105,1.386v2.42c0,5.924,2.018,11.758,5.683,16.427
				C372.865,279.114,380.958,302.549,380.958,326.366z"/>
			<path style="fill:#FFFFFF;" d="M312.332,233.105v10.832c0,14.941,5.011,29.451,14.233,41.212l0,0
				c9.222,11.761,14.233,26.271,14.233,41.212v19.037c0,31.495-25.552,57.027-57.072,57.027h-55.452
				c-31.52,0-57.072-25.532-57.072-57.027v-19.117c0-14.892,4.978-29.357,14.144-41.099l0.058-0.075
				c9.166-11.742,14.144-26.207,14.144-41.099v-12.295L312.332,233.105z"/>
			<g>
				<ellipse style="fill:#93B2F4;" cx="178.494" cy="200.741" rx="44.264" ry="44.229"/>
				<ellipse style="fill:#93B2F4;" cx="333.506" cy="200.741" rx="44.264" ry="44.229"/>
				<line style="fill:#93B2F4;" x1="333.506" y1="200.741" x2="333.506" y2="200.741"/>
				<line style="fill:#93B2F4;" x1="178.494" y1="200.741" x2="178.494" y2="200.741"/>
			</g>
		</g>
		<path style="fill:#D46B5C;" d="M263.508,299.494h-15.016c-13.24,0-23.973,10.725-23.973,23.954v0
			c0,6.099,2.328,11.968,6.509,16.41l14.526,15.434c5.662,6.016,15.229,6.016,20.891,0l14.526-15.434
			c4.181-4.443,6.509-10.312,6.509-16.41v0C287.481,310.219,276.748,299.494,263.508,299.494z"/>
	</g>
	<g>
		<path style="fill:#052A75;" d="M504.97,57.597c-7.789-11.726-20.847-18.726-34.93-18.726h-78.701
			c-1.865-1.781-3.776-3.52-5.745-5.202C360.186,11.957,327.78,0,294.349,0h-76.697c-33.432,0-65.837,11.957-91.246,33.668
			c-1.969,1.682-3.88,3.421-5.745,5.202H41.96c-14.083,0-27.141,7-34.93,18.726c-7.782,11.714-9.174,26.447-3.722,39.41
			c1.592,2.825,58.049,139.871,60.239,142.27c1.645,23.891,9.396,47.076,22.795,67.374c2.519,3.816,5.214,7.486,8.061,11.01
			c-3.211,10.82-4.85,22.02-4.85,33.356c0,24.987,7.072,49.352,20.451,70.46c13.379,21.108,32.398,37.91,55.002,48.59l86.722,40.974
			C253.08,511.681,254.54,512,256,512s2.92-0.319,4.271-0.958l86.721-40.974c22.604-10.68,41.624-27.482,55.003-48.59
			c13.379-21.109,20.451-45.474,20.451-70.46c0-11.334-1.642-22.535-4.853-33.355c2.901-3.591,5.644-7.331,8.204-11.223
			c13.312-20.244,21.014-43.354,22.655-67.161c0.542-0.69,60.24-142.271,60.24-142.271C514.144,84.044,512.752,69.311,504.97,57.597
			z M21.744,89.253c-2.891-6.874-2.182-14.378,1.945-20.59c4.134-6.224,10.793-9.793,18.271-9.793h61.365
			c-12.554,17.607-20.97,38.012-24.373,59.651l-12.219,77.708L21.744,89.253z M338.449,451.985L256,490.94l-82.449-38.955
			c-38.877-18.369-63.997-58-63.997-100.968c0-5.429,0.459-10.82,1.351-16.135c15.252,13.432,33.295,23.459,52.98,29.24
			c8.13,27.872,33.909,48.302,64.389,48.302h55.451c30.481,0,56.261-20.432,64.39-48.306c19.683-5.781,37.729-15.804,52.978-29.233
			c0.892,5.314,1.352,10.703,1.352,16.131C402.446,393.984,377.326,433.616,338.449,451.985z M259.163,348.439
			c-1.118,1.188-2.462,1.366-3.163,1.366s-2.045-0.178-3.163-1.366l-14.526-15.433c-2.444-2.597-3.791-5.991-3.791-9.557
			c0-7.694,6.269-13.954,13.973-13.954h15.016c7.704,0,13.973,6.26,13.973,13.954c0,3.566-1.347,6.96-3.791,9.557L259.163,348.439z
			 M350.798,342.162v-15.801c0-17.097-5.812-33.924-16.364-47.382c-5.718-7.293-9.544-15.926-11.186-24.993
			c3.324,0.638,6.751,0.985,10.259,0.985c29.922,0,54.265-24.327,54.265-54.229c0-29.902-24.343-54.229-54.265-54.229
			s-54.265,24.327-54.265,54.229c0,18.324,9.151,34.543,23.116,44.365c0.258,16.694,6.027,33.063,16.338,46.214
			c7.805,9.954,12.103,22.398,12.103,35.042v19.037c0,25.93-21.116,47.026-47.072,47.026H266V367.64
			c2.887-1.301,5.526-3.155,7.728-5.494l14.526-15.434c5.95-6.322,9.227-14.583,9.227-23.264c0-18.722-15.24-33.954-33.973-33.954
			h-15.016c-18.732,0-33.973,15.232-33.973,33.954c0,8.681,3.276,16.942,9.227,23.265l14.526,15.433
			c2.202,2.339,4.841,4.193,7.728,5.494v24.785h-17.726c-25.956,0-47.072-21.096-47.072-47.026v-19.118
			c0-12.599,4.271-25.01,12.013-34.927c0.005-0.006,0.068-0.087,0.073-0.093c10.244-13.123,15.976-29.441,16.237-46.07
			c14.032-9.813,23.234-26.073,23.234-44.449c0-29.902-24.343-54.229-54.265-54.229s-54.265,24.327-54.265,54.229
			c0,29.902,24.343,54.229,54.265,54.229c3.469,0,6.859-0.34,10.15-0.965c-1.629,9.044-5.431,17.659-11.107,24.931
			c-0.005,0.006-0.068,0.087-0.073,0.093c-10.486,13.434-16.262,30.215-16.262,47.252v15.874
			c-23.649-8.882-44.033-25.109-58.168-46.523c-16.502-24.997-23.02-55.111-18.352-84.795l14.027-89.209
			c4.449-28.298,18.899-54.136,40.688-72.754C161.188,30.254,188.979,20,217.651,20h76.697c28.672,0,56.463,10.254,78.254,28.874
			c21.788,18.618,36.238,44.456,40.688,72.754l14.027,89.209C436.267,267.759,403.781,322.362,350.798,342.162z M299.241,200.741
			c0-18.874,15.371-34.229,34.265-34.229s34.265,15.355,34.265,34.229s-15.371,34.229-34.265,34.229
			S299.241,219.615,299.241,200.741z M178.494,234.971c-18.894,0-34.265-15.355-34.265-34.229s15.371-34.229,34.265-34.229
			s34.265,15.355,34.265,34.229S197.388,234.971,178.494,234.971z M490.256,89.253l-44.989,106.976l-12.219-77.708
			c-3.402-21.639-11.819-42.044-24.373-59.651h61.365c7.478,0,14.137,3.569,18.271,9.793
			C492.438,74.875,493.146,82.38,490.256,89.253z"/>
		<circle style="fill:#052A75;" cx="178.494" cy="200.744" r="10"/>
		<circle style="fill:#052A75;" cx="333.506" cy="200.744" r="10"/>
	</g>
</g>
<g>
</g>
<g>
</g>
<g>
</g>
<g>
</g>
<g>
</g>
<g>
</g>
<g>
</g>
<g>
</g>
<g>
</g>
<g>
</g>
<g>
</g>
<g>
</g>
<g>
</g>
<g>
</g>
<g>
</g>
</svg>
