<?xml version="1.0" encoding="iso-8859-1"?>
<!-- Generator: Adobe Illustrator 28.3.0, SVG Export Plug-In . SVG Version: 6.00 Build 0)  -->
<svg version="1.1" id="Capa_1" xmlns="http://www.w3.org/2000/svg" xmlns:xlink="http://www.w3.org/1999/xlink" x="0px" y="0px"
	 viewBox="0 0 512.001 512.001" style="enable-background:new 0 0 512.001 512.001;" xml:space="preserve">
<g>
	<g>
		<path style="fill:#B55348;" d="M495.905,169.076l-3.117,6.86c-5.818,12.806-21.017,18.337-33.705,12.266l-98.374-47.071
			l22.772-83.546l68.023,17.95C492.075,86.242,513.261,130.874,495.905,169.076z"/>
		<path style="fill:#B55348;" d="M16.31,169.076l3.117,6.86c5.818,12.806,21.017,18.337,33.705,12.266l98.374-47.071l-22.772-83.546
			l-68.023,17.95C20.14,86.242-1.046,130.874,16.31,169.076z"/>
		<path style="fill:#FDE0BE;" d="M115.942,444.097L115.942,444.097c89.811,36.469,190.306,36.469,280.117,0l0,0
			c82.608-33.544,125.195-125.274,97.507-210.024l-21.456-65.676C444.965,85.311,367.47,29.103,280.063,29.103h-48.126
			c-87.407,0-164.902,56.208-192.046,139.293l-21.456,65.676C-9.253,318.823,33.334,410.552,115.942,444.097z"/>
		<path style="fill:#F7B073;" d="M228.636,470.44c-38.37-2.82-76.4-11.6-112.69-26.34c-82.61-33.55-125.2-125.28-97.51-210.03
			l21.46-65.67c20.24-61.97,68.49-108.98,127.96-128.89c-35.51,51.85-56.29,114.59-56.29,182.18
			C111.566,321.78,157.126,411.24,228.636,470.44z"/>
		<path style="fill:#FDE0BE;" d="M312.254,308.001v16.502c0,14.932,5.004,29.434,14.213,41.188l0,0
			c9.209,11.754,14.213,26.256,14.213,41.188v0c0,41.984-34.035,76.019-76.019,76.019h-17.324
			c-41.984,0-76.019-34.035-76.019-76.019v-0.08c0-14.883,4.971-29.339,14.125-41.075l0.058-0.075
			c9.154-11.735,14.125-26.192,14.125-41.075V306.61L312.254,308.001z"/>
		<path style="fill:#D46B5C;" d="M263.498,380.027h-14.995c-13.222,0-23.94,10.718-23.94,23.94v0c0,6.095,2.325,11.961,6.5,16.401
			l14.506,15.425c5.655,6.013,15.208,6.013,20.863,0l14.506-15.425c4.176-4.44,6.5-10.306,6.5-16.401v0
			C287.438,390.746,276.719,380.027,263.498,380.027z"/>
		<path style="fill:#D46B5C;" d="M143.52,372.726L143.52,372.726c68.458,0,111.188-74.174,76.845-133.395l-40.162-69.257
			c-16.339-28.176-57.026-28.176-73.366,0l-40.162,69.257C32.332,298.552,75.061,372.726,143.52,372.726z"/>
		<path style="fill:#B55348;" d="M148.936,372.57c-1.79,0.11-3.59,0.16-5.42,0.16c-68.45,0-111.18-74.18-76.84-133.4l40.16-69.26
			c2.99-5.16,6.8-9.37,11.13-12.64c-4.2,20.77-6.4,42.26-6.4,64.26C111.566,276.19,125.076,327.54,148.936,372.57z"/>
		<circle style="fill:#FDE0BE;" cx="143.52" cy="283.279" r="44.203"/>
		<path style="fill:#F7B073;" d="M128.396,324.83c-16.96-6.18-29.08-22.45-29.08-41.55c0-12.53,5.22-23.84,13.6-31.89
			C115.236,276.84,120.516,301.43,128.396,324.83z"/>
		<path style="fill:#D46B5C;" d="M368.492,372.726L368.492,372.726c68.458,0,111.188-74.174,76.845-133.395l-40.162-69.257
			c-16.339-28.176-57.026-28.176-73.366,0l-40.162,69.257C257.304,298.552,300.034,372.726,368.492,372.726z"/>
		<circle style="fill:#FDE0BE;" cx="368.492" cy="283.279" r="44.203"/>
	</g>
	<g>
		<path style="fill:#052A75;" d="M503.071,230.967l-12.174-37.263c6.912-4.756,10.968-12.911,14.112-20.492
			c9.493-20.896,9.293-44.771-0.549-65.506c-9.842-20.733-28.214-35.984-50.405-41.84L387.449,48.29
			c-32.498-19.149-69.236-29.188-107.385-29.188h-48.126c-38.215,0-75.015,10.074-107.555,29.289L58.16,65.866
			c-22.191,5.855-40.563,21.106-50.405,41.84c-9.842,20.734-10.042,44.61-0.549,65.507c3.126,7.514,7.119,15.602,13.941,20.359
			L8.93,230.967c-14.18,43.403-11.4,90.115,7.828,131.53c19.228,41.416,53.116,73.686,95.422,90.865
			c27.414,11.131,56.125,19.059,85.352,23.582c14.067,10.029,31.253,15.954,49.807,15.954h17.324
			c18.552,0,35.736-5.923,49.802-15.95c29.227-4.523,57.941-12.453,85.357-23.585c42.306-17.18,76.194-49.449,95.422-90.865
			C514.471,321.082,517.251,274.37,503.071,230.967z M448.952,85.204c16.483,4.35,30.131,15.678,37.441,31.078
			c7.31,15.401,7.459,33.137,0.407,48.656l-3.083,6.787l-2.102-6.435c-10.681-32.691-28.766-61.755-52.953-85.44L448.952,85.204z
			 M25.822,116.283c7.311-15.4,20.957-26.729,37.44-31.078l19.997-5.277c-24.148,23.671-42.205,52.707-52.873,85.363l-2.013,6.161
			l-2.959-6.51C18.363,149.419,18.512,131.684,25.822,116.283z M259.147,428.943c-1.112,1.184-2.449,1.36-3.146,1.36
			c-0.697,0-2.033-0.177-3.146-1.36l-14.506-15.425c-2.441-2.596-3.785-5.987-3.785-9.551c0-7.687,6.254-13.939,13.94-13.939h14.995
			c7.687,0,13.939,6.254,13.939,13.94c0,3.562-1.344,6.954-3.785,9.55L259.147,428.943z M477.103,354.075
			c-17.088,36.809-47.206,65.488-84.806,80.756c-17.674,7.176-35.917,12.945-54.494,17.253
			c8.155-13.146,12.879-28.632,12.879-45.206c0.224-18.883-7.395-36.665-19.11-51.21c-3.031-4.614-9.229-5.9-13.849-2.868
			c-4.616,3.032-5.9,9.232-2.868,13.849c9.216,11.527,16.165,25.126,15.827,40.23c0,35.954-28.896,65.267-64.682,65.985v-24.728
			c2.883-1.301,5.518-3.154,7.717-5.492l14.506-15.425c5.942-6.319,9.215-14.577,9.215-23.252c0-18.714-15.226-33.939-33.939-33.939
			h-14.995c-18.715,0-33.94,15.226-33.94,33.94c0,8.674,3.273,16.932,9.216,23.251l14.506,15.425
			c2.198,2.338,4.833,4.191,7.716,5.491v24.729c-35.785-0.718-64.681-30.032-64.681-66.066c-0.319-14.892,6.445-28.49,15.607-39.926
			c3.042-4.609,1.77-10.812-2.84-13.854c-4.611-3.042-10.812-1.771-13.854,2.84c-11.634,14.448-19.122,32.194-18.913,51.021
			c0,16.573,4.724,32.059,12.878,45.204c-18.577-4.308-36.819-10.075-54.493-17.251c-37.6-15.268-67.718-43.947-84.807-80.756
			c-17.088-36.808-19.559-78.323-6.957-116.897l21.456-65.677c12.659-38.748,36.792-71.88,69.79-95.813
			c32.998-23.935,71.986-36.585,112.75-36.585h48.126c40.764,0,79.752,12.65,112.75,36.585
			c32.998,23.934,57.131,57.065,69.79,95.813l21.456,65.677C496.662,275.752,494.191,317.268,477.103,354.075z"/>
		<circle style="fill:#052A75;" cx="143.52" cy="283.278" r="10"/>
		<circle style="fill:#052A75;" cx="368.496" cy="283.278" r="10"/>
	</g>
</g>
<g>
</g>
<g>
</g>
<g>
</g>
<g>
</g>
<g>
</g>
<g>
</g>
<g>
</g>
<g>
</g>
<g>
</g>
<g>
</g>
<g>
</g>
<g>
</g>
<g>
</g>
<g>
</g>
<g>
</g>
</svg>
