<?xml version="1.0" encoding="iso-8859-1"?>
<!-- Generator: Adobe Illustrator 28.3.0, SVG Export Plug-In . SVG Version: 6.00 Build 0)  -->
<svg version="1.1" id="Capa_1" xmlns="http://www.w3.org/2000/svg" xmlns:xlink="http://www.w3.org/1999/xlink" x="0px" y="0px"
	 viewBox="0 0 512 512" style="enable-background:new 0 0 512 512;" xml:space="preserve">
<g>
	<g>
		<g>
			<path style="fill:#FFFFFF;" d="M502,320.11l-0.633,93.369c-0.03,4.88-5.944,7.28-9.378,3.806l-10.463-10.603l-35.816,91.813
				c-1.687,4.328-7.631,4.749-9.91,0.703l-25.996-46.067c-17.973-31.849-46.118-56.771-79.935-70.777l-73.871-30.584l-74.072,30.604
				c-33.868,13.987-62.063,38.928-80.056,70.828l-25.956,45.997c-2.279,4.046-8.234,3.625-9.92-0.703L30.33,407.053l-10.282,10.412
				c-3.424,3.474-9.338,1.074-9.368-3.805l-0.392-57.986l-0.241-34.661c0.01-0.231,0.01-0.462,0.02-0.683
				c1.928-66.56,44.15-125.52,106.986-148.674l138.805-51.148l138.795,51.148c62.926,23.184,105.178,82.284,106.986,148.965
				L502,320.11z"/>
			<path style="fill:#D2DCFD;" d="M478.263,240.768c-0.08,26.227-6.255,52.423-18.505,76.22c-5.111,9.92-8.635,20.533-10.483,31.538
				c-3.313,19.7-12.089,37.994-25.383,52.905c-9.308,10.442-20.524,18.877-33.004,24.891
				c-16.547-19.077-37.402-34.189-61.018-43.969l-73.871-30.584l-74.072,30.604c-23.606,9.75-44.451,24.811-60.988,43.848
				c-12.39-6.014-23.526-14.408-32.783-24.791c-13.294-14.911-22.08-33.205-25.383-52.905c-1.847-11.005-5.372-21.618-10.483-31.538
				c-12.34-23.967-18.515-50.375-18.505-76.792c11.798-19.399,27.602-36.297,46.529-49.431c1.607,2.962,3.344,5.874,5.201,8.715
				l8.836,13.565c14.348,21.989,41.891,31.337,66.671,22.612l94.997-33.436l94.997,33.436c24.791,8.725,52.333-0.623,66.671-22.612
				l8.846-13.565c1.817-2.791,3.524-5.633,5.101-8.535C450.641,204.169,466.475,221.208,478.263,240.768z"/>
		</g>
		<g>
			<path style="fill:#D46B5C;" d="M85.51,199.476l8.845,13.565c14.342,21.997,41.885,31.34,66.67,22.616l112.112-39.462
				L180.68,99.69c-18.051-18.841-39.331-34.304-62.833-45.658L81.569,36.506l-14.096,65.414
				C60.228,135.54,66.721,170.659,85.51,199.476z"/>
			<path style="fill:#D46B5C;" d="M426.535,199.476l-8.845,13.565c-14.342,21.997-41.885,31.34-66.67,22.616l-112.112-39.462
				l92.457-96.505c18.051-18.841,39.331-34.304,62.833-45.658l36.278-17.526l14.096,65.414
				C451.817,135.54,445.324,170.659,426.535,199.476z"/>
			<path style="fill:#B55348;" d="M446.775,142.368c-1.757,16.939-6.868,33.466-15.142,48.577c-1.576,2.902-3.283,5.743-5.101,8.535
				l-8.846,13.565c-14.338,21.989-41.881,31.337-66.671,22.612l-94.997-33.436l-94.997,33.436
				c-24.781,8.725-52.323-0.623-66.671-22.612l-8.836-13.565c-1.858-2.842-3.595-5.753-5.201-8.715
				c-8.223-15.071-13.294-31.538-15.041-48.407c21.638-30.042,52.895-52.443,88.812-63.036l3.042-0.894
				c8.334,6.496,16.216,13.595,23.556,21.266l34.35,35.856l40.997,42.784l40.896-42.693l34.44-35.946
				c7.34-7.671,15.222-14.77,23.556-21.266l3.032,0.894C393.88,89.925,425.137,112.326,446.775,142.368z"/>
		</g>
		<g>
			<path style="fill:#FD8F01;" d="M364.471,398.945l-99.666,28.831c-5.737,1.66-11.828,1.66-17.565,0l-99.666-28.831
				c-26.147-7.564-45.64-29.428-50.146-56.246l0,0c-2.447-14.561-7.131-28.657-13.888-41.788l0,0
				c-19.232-37.376-19.6-81.644-0.992-119.333l0,0c16.396-33.209,45.938-58.061,81.486-68.55l47.771-14.096
				c9.028-2.664,18.774-1.165,26.582,4.088l0,0c10.662,7.173,24.613,7.173,35.274,0l0,0c7.808-5.253,17.554-6.751,26.582-4.088
				l47.771,14.096c35.548,10.489,65.091,35.342,81.486,68.55l0,0c18.608,37.69,18.24,81.958-0.992,119.333l0,0
				c-6.757,13.131-11.442,27.227-13.888,41.788l0,0C410.112,369.517,390.618,391.381,364.471,398.945z"/>
			<path style="fill:#D2DCFD;" d="M257.008,474.683h-1.97c-28.475,0-51.559-23.083-51.559-51.558v-53.419h105.087v53.419
				C308.566,451.599,285.482,474.683,257.008,474.683z"/>
			<path style="fill:#FD6050;" d="M374.852,390.466c-0.08,1.586-0.201,3.173-0.371,4.749c-3.203,1.476-6.547,2.721-10.011,3.725
				l-99.666,28.837c-5.733,1.657-11.828,1.657-17.561,0l-99.666-28.837c-3.414-0.984-6.707-2.209-9.87-3.665
				c-0.191-1.657-0.321-3.333-0.402-5.01l-0.04-0.743c-0.633-12.852,1.175-25.524,5.382-37.683l31.056-89.855
				c0.181-0.512,0.713-2.068-0.562-3.866c-1.295-1.817-2.982-1.817-3.544-1.817c-6.888,0-13.123-2.791-17.642-7.31
				c-4.518-4.508-7.31-10.744-7.31-17.642v-12.2h222.867v11.989c0,13.896-11.266,25.162-25.162,25.162c-0.281,0-0.833,0-1.486,0.231
				c-0.653,0.221-1.406,0.673-2.048,1.586c-1.275,1.787-0.743,3.354-0.562,3.866l31.267,90.889
				C373.698,365.002,375.485,377.654,374.852,390.466z"/>
			<path style="fill:#FD8F01;" d="M357.462,199.071l-15.108,20.083c-28.479,0-48.489,28.007-39.234,54.912l31.268,90.889
				c2.615,7.602,3.754,15.633,3.354,23.662v0c-1.571,31.575-34.326,51.782-63.291,39.046l-1.007-0.443
				c-11.018-4.845-23.564-4.85-34.587-0.015l-0.942,0.413c-29.12,12.773-61.951-7.513-63.508-39.176l-0.037-0.753
				c-0.396-8.047,0.754-16.095,3.386-23.71l31.058-89.855c9.303-26.915-10.71-54.968-39.214-54.968l-15.019-20.083H357.462z"/>
		</g>
	</g>
	<g>
		<g>
			<path style="fill:#FD6050;" d="M255.876,216.966c-5.523,0-10-4.477-10-10v-98.57c0-5.523,4.477-10,10-10s10,4.477,10,10v98.57
				C265.876,212.489,261.399,216.966,255.876,216.966z"/>
		</g>
		<g>
			<path style="fill:#052A75;" d="M444.373,187.911c12.8-27.388,16.354-58.492,9.974-88.098l-12.796-59.385
				c8.579-7.695,13.557-18.647,13.557-30.428c0-5.523-4.477-10-10-10s-10,4.477-10,10c0,7.213-3.637,13.829-9.729,17.696
				c-0.494,0.702-34.821,16.836-35.532,17.331c-24.659,11.913-46.765,27.977-65.704,47.745l-2.081,2.172l-18.991-5.604
				c-11.925-3.52-24.68-1.557-34.994,5.382c-7.323,4.927-16.787,4.927-24.11,0c-10.314-6.939-23.068-8.9-34.994-5.382l-18.992,5.604
				l-2.081-2.172c-18.938-19.768-41.044-35.832-65.704-47.745c-0.71-0.487-34.96-16.607-35.474-17.294
				C80.595,23.87,76.937,17.241,76.937,10c0-5.523-4.477-10-10-10s-10,4.477-10,10c0,11.79,4.976,22.737,13.557,30.431
				L57.697,99.813c-6.367,29.543-2.843,60.564,9.885,87.907c-20.196,15.586-36.964,35.732-48.587,58.462
				C6.732,270.162,0.164,297.086,0,324.042c0,0.024,0.003,0.048,0.003,0.072c0,0.021-0.003,0.042-0.003,0.063l0.675,89.553
				c0.042,6.278,3.829,11.862,9.646,14.227c1.899,0.772,3.882,1.147,5.847,1.147c3.806,0,7.527-1.426,10.43-4.089l30.08,77.116
				c2.197,5.633,7.309,9.398,13.342,9.827c0.381,0.027,0.759,0.041,1.136,0.041c5.593,0,10.679-2.949,13.463-7.884l25.958-46.005
				c10.377-18.391,24.741-34.719,41.652-47.409l21.445,6.203c5.175,7.766,12.562,14.408,21.111,18.622
				c5.892,28.279,31.216,49.156,60.462,49.156h1.549c29.442,0,54.459-20.452,60.439-48.988c8.654-4.262,16.148-10.968,21.356-18.853
				l21.018-6.08c16.837,12.671,31.141,28.954,41.484,47.285l25.995,46.07c2.784,4.935,7.87,7.884,13.463,7.884
				c0.376,0,0.756-0.013,1.136-0.041c6.033-0.429,11.146-4.194,13.342-9.827l30.222-77.479c2.93,2.78,6.734,4.268,10.625,4.268
				c1.964,0,3.947-0.375,5.847-1.147c5.817-2.365,9.604-7.949,9.646-14.254c0-0.001,0.63-88.419,0.63-88.419
				C512,271.631,486.594,220.609,444.373,187.911z M398.548,63.036l24.831-11.996l11.418,52.986
				c4.381,20.333,3.274,41.487-2.986,61.165c-18.384-29.63-47.258-51.809-80.969-61.756l-7.033-2.075
				C359.893,85.713,378.27,72.832,398.548,63.036z M77.248,104.026L88.667,51.04l24.831,11.996
				c20.278,9.796,38.654,22.677,54.738,38.325l-7.032,2.075c-33.712,9.947-62.586,32.127-80.971,61.758
				C73.972,145.515,72.866,124.363,77.248,104.026z M93.16,448.283l-21.296,37.743l-29.862-76.557l18.845-19.087
				c3.88-3.93,3.839-10.262-0.09-14.142c-3.931-3.88-10.262-3.839-14.142,0.09l-26.021,26.357L20,324.145
				c0.235-38.022,14.871-74.633,40.127-102.432c-3.699,28.437,1.147,57.785,14.52,83.774c6.294,12.231,10.64,25.309,12.918,38.87
				c4.239,25.229,20.421,46.856,42.736,58.399C115.484,415.701,102.798,431.202,93.16,448.283z M256.797,464.683h-1.549
				c-16.16,0-30.554-9.417-37.452-23.288c8.172,0.274,16.421-1.236,24.134-4.619l0.945-0.414c8.436-3.701,18.111-3.697,26.543,0.011
				l1.008,0.443c7.106,3.125,14.672,4.67,22.215,4.669c0.539,0,1.078-0.012,1.617-0.028
				C287.396,455.408,273.103,464.683,256.797,464.683z M361.693,389.339l-14.378,4.159c1.341-10.718,0.011-21.589-3.47-31.797
				l-31.268-90.889c-3.343-9.719-1.836-20.093,4.135-28.461c5.984-8.387,15.331-13.197,25.643-13.197h15.108c5.523,0,10-4.477,10-10
				s-4.477-10-10-10h-15.108c-16.857,0-32.138,7.866-41.923,21.581c-9.773,13.697-12.239,30.676-6.767,46.584l31.268,90.889
				c6.225,17.004,2.819,38.36-13.794,48.025c-9.998,6.176-21.902,7.006-32.661,2.275c-4.035-1.847-8.287-3.206-12.602-3.999v-15.623
				c1.295-0.542,2.562-1.18,3.784-1.94l19.747-12.285c4.689-2.917,6.125-9.084,3.208-13.773c-2.917-4.688-9.083-6.125-13.773-3.208
				l-19.747,12.285c-1.955,1.217-4.482,1.217-6.438,0l-19.49-12.125c-4.688-2.918-10.856-1.482-13.773,3.208
				c-2.917,4.689-1.481,10.856,3.208,13.773l19.49,12.125c1.222,0.76,2.49,1.398,3.784,1.94v15.715
				c-4.098,0.795-8.135,2.108-11.978,3.857c-10.837,4.755-22.814,3.917-32.856-2.298c-16.885-9.847-20.06-31.681-13.834-48.917
				l31.058-89.855c5.501-15.914,3.051-32.907-6.72-46.624c-9.785-13.735-25.073-21.612-41.946-21.612h-15.019
				c-5.523,0-10,4.477-10,10s4.477,10,10,10h15.019c10.322,0,19.673,4.817,25.656,13.216c5.971,8.38,7.467,18.763,4.107,28.485
				l-31.058,89.855c-3.633,10.532-4.864,21.776-3.442,32.827l-14.512-4.198c-22.315-6.456-39.219-25.413-43.063-48.297
				c-2.621-15.598-7.62-30.639-14.858-44.707c-17.7-34.398-18.043-75.643-0.917-110.331c15.114-30.613,42.579-53.716,75.35-63.386
				l47.771-14.096c6.192-1.828,12.815-0.81,18.169,2.794c14.106,9.49,32.335,9.489,46.438,0c5.355-3.602,11.978-4.621,18.169-2.793
				l47.771,14.096c32.772,9.67,60.236,32.773,75.35,63.386c17.126,34.688,16.783,75.933-0.918,110.331
				c-7.238,14.066-12.237,29.107-14.858,44.707C400.911,363.926,384.008,382.884,361.693,389.339z M491.415,402.466l-25.984-26.318
				c-3.88-3.93-10.211-3.971-14.142-0.09c-3.93,3.88-3.971,10.212-0.09,14.142l18.654,18.895l-30.008,76.932l-21.333-37.808
				c-9.598-17.01-22.218-32.453-36.956-45.366c22.412-11.519,38.673-33.197,42.924-58.496c2.279-13.562,6.625-26.64,12.918-38.87
				c13.308-25.862,18.168-55.051,14.571-83.357C477.215,250.113,492,286.9,492,325.102L491.415,402.466z"/>
			<circle style="fill:#052A75;" cx="345.91" cy="262.328" r="10"/>
			<circle style="fill:#052A75;" cx="166.1" cy="262.328" r="10"/>
		</g>
	</g>
</g>
<g>
</g>
<g>
</g>
<g>
</g>
<g>
</g>
<g>
</g>
<g>
</g>
<g>
</g>
<g>
</g>
<g>
</g>
<g>
</g>
<g>
</g>
<g>
</g>
<g>
</g>
<g>
</g>
<g>
</g>
</svg>
