<?xml version="1.0" encoding="iso-8859-1"?>
<!-- Generator: Adobe Illustrator 28.3.0, SVG Export Plug-In . SVG Version: 6.00 Build 0)  -->
<svg version="1.1" id="Capa_1" xmlns="http://www.w3.org/2000/svg" xmlns:xlink="http://www.w3.org/1999/xlink" x="0px" y="0px"
	 viewBox="0 0 512 512" style="enable-background:new 0 0 512 512;" xml:space="preserve">
<g>
	<g>
		<path style="fill:#FDCB50;" d="M392.363,437.596L256,502l-136.363-64.404C52.694,405.979,10,338.645,10,264.681v0
			c0-69.607,42.768-132.079,107.708-157.334L256,53.568l138.292,53.78C459.232,132.602,502,195.074,502,264.681v0
			C502,338.645,459.306,405.979,392.363,437.596z"/>
		<path style="fill:#FD8F01;" d="M489.399,200.705c-4.518,7.41-9.689,14.188-15.443,20.182c-8.223,8.585-17.381,15.242-27.03,19.79
			c12.059,35.454,8.334,80.286-11.507,122.428c-15.272,32.412-37.924,58.829-64.07,75.346c-0.964,3.625-2.129,7.209-3.474,10.714
			L256,502l-111.714-52.765c-1.355-3.494-2.52-7.069-3.494-10.693c-26.217-16.507-48.919-42.965-64.211-75.437
			c-19.841-42.141-23.566-86.973-11.507-122.428c-9.649-4.538-18.806-11.205-27.03-19.79c-5.753-5.994-10.924-12.772-15.443-20.182
			c4.528-11.035,10.191-21.538,16.899-31.327c18.806-27.472,45.736-49.411,78.208-62.032L256,53.567l138.292,53.779
			C438.341,124.475,472.179,158.715,489.399,200.705z"/>
		<g>
			
				<ellipse transform="matrix(0.2785 -0.9604 0.9604 0.2785 169.1074 514.9431)" style="fill:#FDE0BE;" cx="427.295" cy="144.915" rx="64.166" ry="39.74"/>
			
				<ellipse transform="matrix(0.9604 -0.2785 0.2785 0.9604 -37.0089 29.3251)" style="fill:#FDE0BE;" cx="84.705" cy="144.915" rx="39.74" ry="64.166"/>
		</g>
		<path style="fill:#D46B5C;" d="M414.28,168.095c0,87.313-70.865,158.095-158.28,158.095S97.72,255.408,97.72,168.095
			C97.72,56.953,256,10,256,10S414.28,56.953,414.28,168.095z"/>
		<path style="fill:#B55348;" d="M412.406,192.462C400.678,268.21,335.122,326.185,256,326.185S111.322,268.21,99.594,192.462
			c4.318-3.123,8.916-5.844,13.786-8.133c11.667-5.482,24.289-8.264,37.492-8.264c28.837,0,57.915,13.174,82.435,36.187
			c6.938-3.173,14.64-4.89,22.692-4.89c8.053,0,15.754,1.717,22.692,4.89c24.52-23.013,53.598-36.187,82.435-36.187
			c13.204,0,25.825,2.781,37.482,8.254C403.48,186.608,408.088,189.329,412.406,192.462z"/>
		<path style="fill:#FDE0BE;" d="M349.43,215.412l2.864-7.105c7.64-18.952-0.075-40.619-17.98-50.497l0,0
			c-13.107-7.231-29.141-6.645-41.684,1.524l-14.148,9.214c-6.577,4.283-14.259,6.564-22.111,6.564h-0.743
			c-7.852,0-15.534-2.281-22.111-6.564l-14.148-9.214c-12.543-8.169-28.577-8.755-41.684-1.524l0,0
			c-17.905,9.878-25.62,31.545-17.98,50.497l3.078,7.635l93.215,199.988L349.43,215.412z"/>
		<path style="fill:#F7B073;" d="M352.291,208.306l-2.862,7.109L256,415.93l-93.219-199.993l-3.072-7.631
			c-1.988-4.93-2.942-10.041-2.942-15.091c0-5.773,1.245-11.456,3.595-16.668c25.674,2.53,51.118,15.212,72.947,35.705
			c6.938-3.173,14.64-4.89,22.692-4.89c8.053,0,15.754,1.717,22.692,4.89c21.829-20.493,47.272-33.175,72.947-35.705
			C356.037,186.297,356.559,197.723,352.291,208.306z"/>
		
			<ellipse transform="matrix(0.9044 -0.4267 0.4267 0.9044 -118.27 105.1812)" style="fill:#67CCD1;" cx="175.61" cy="316.547" rx="69.265" ry="105.965"/>
		
			<ellipse transform="matrix(0.4267 -0.9044 0.9044 0.4267 -93.4212 485.728)" style="fill:#67CCD1;" cx="336.39" cy="316.547" rx="105.965" ry="69.265"/>
		<path style="fill:#FD6050;" d="M326.335,443.253l-15.463,27.03C299.652,489.896,278.771,502,256.155,502h0
			c-22.521,0-43.33-12.004-54.585-31.488l-15.702-27.182c-10.235-17.719-11.212-39.3-2.619-57.869l60.093-129.849
			c4.989-10.78,20.328-10.78,25.317,0l60.163,130.001C337.376,404.097,336.449,425.572,326.335,443.253z"/>
	</g>
	<g>
		<g>
			<path style="fill:#27A2CC;" d="M198,352.177c-20.472-9.721-40.363-29.708-54.575-54.834
				c-10.999-19.445-17.759-40.692-19.037-59.826c-0.368-5.51-5.122-9.669-10.644-9.312c-5.511,0.368-9.68,5.133-9.312,10.644
				c1.495,22.386,8.958,46.018,21.584,68.34c16.191,28.626,39.301,51.608,63.404,63.054c1.385,0.658,2.845,0.969,4.283,0.969
				c3.741,0,7.329-2.109,9.04-5.713C205.112,360.511,202.988,354.546,198,352.177z"/>
			<path style="fill:#27A2CC;" d="M214.533,312.64c-14.012-12.146-26.203-28.725-35.254-47.944
				c-7.32-15.544-12.093-31.966-13.804-47.489c-0.605-5.49-5.549-9.449-11.036-8.844c-5.489,0.605-9.449,5.546-8.844,11.036
				c1.95,17.691,7.341,36.301,15.59,53.819c10.229,21.72,24.146,40.579,40.248,54.535c1.892,1.64,4.224,2.444,6.545,2.444
				c2.799,0,5.583-1.169,7.561-3.45C219.157,322.573,218.707,316.257,214.533,312.64z"/>
			<path style="fill:#27A2CC;" d="M398.256,228.205c-5.52-0.368-10.276,3.802-10.644,9.312c-1.277,19.134-8.038,40.38-19.036,59.826
				c-14.181,25.073-34.031,45.039-54.46,54.779c-4.985,2.377-7.1,8.345-4.723,13.33c1.715,3.597,5.298,5.699,9.033,5.699
				c1.442,0,2.908-0.314,4.297-0.976c24.048-11.466,47.105-34.423,63.261-62.985c12.626-22.323,20.089-45.955,21.584-68.34
				C407.936,233.338,403.767,228.573,398.256,228.205z"/>
			<path style="fill:#27A2CC;" d="M350.814,273.217c8.25-17.517,13.64-36.127,15.59-53.818c0.605-5.49-3.355-10.431-8.844-11.036
				c-5.496-0.605-10.431,3.355-11.036,8.844c-1.711,15.523-6.484,31.945-13.804,47.489c-9.051,19.219-21.242,35.798-35.254,47.944
				c-4.173,3.617-4.624,9.933-1.006,14.106c1.978,2.282,4.761,3.45,7.561,3.45c2.321,0,4.654-0.804,6.545-2.444
				C326.668,313.796,340.585,294.938,350.814,273.217z"/>
		</g>
		<g>
			<path style="fill:#052A75;" d="M475.642,156.663c4.733-17.56,5.071-35.317,0.899-50.226
				c-4.808-17.185-14.974-28.821-28.624-32.764c-16.403-4.737-34.267,2.652-48.566,19.492
				c-13.955-19.685-33.636-37.906-58.774-54.189C300.26,12.861,260.516,0.909,258.844,0.413c-1.855-0.551-3.832-0.551-5.688,0
				c-1.672,0.496-41.416,12.448-81.733,38.563c-25.138,16.283-44.819,34.505-58.774,54.189
				c-14.3-16.842-32.165-24.232-48.567-19.492c-13.65,3.943-23.815,15.579-28.624,32.764c-4.171,14.908-3.834,32.665,0.898,50.224
				C12.896,187.606,0,225.848,0,264.681c0,38.189,10.813,75.429,31.27,107.692c20.455,32.262,49.536,57.942,84.097,74.265
				c1.61,0.662,84.222,39.968,85.85,40.448C214.936,502.709,234.954,512,256.155,512c21.396,0,41.552-9.442,55.276-25.302
				c1.937-0.388,83.356-39.367,85.203-40.059c34.562-16.323,63.642-42.003,84.097-74.265C501.187,340.11,512,302.871,512,264.681
				C512,225.862,499.1,187.601,475.642,156.663z M442.367,92.888c9.102,2.629,13.251,12.995,14.914,18.939
				c3.297,11.783,2.782,26.85-1.413,41.336c-7.124,24.604-21.646,39.947-34.015,43.546c1.606-9.375,2.427-18.925,2.427-28.614
				c0-19.671-4.675-38.639-13.802-56.595C420.191,97.529,432.736,90.109,442.367,92.888z M343.047,396.958
				c-1.118-5.309-2.828-10.526-5.15-15.544l-47.934-103.579c23.601-39.261,61.357-60.302,87.322-48.104
				c13.585,6.383,22.626,21.029,25.456,41.241c3.047,21.767-1.465,46.899-12.705,70.768
				C378.667,365.88,361.644,385.697,343.047,396.958z M121.965,341.74c-11.24-23.869-15.752-49.001-12.705-70.768
				c2.83-20.212,11.87-34.858,25.456-41.241c25.951-12.193,63.724,8.853,87.321,48.106l-47.863,103.424
				c-2.348,5.074-4.071,10.349-5.189,15.716C150.376,385.72,133.34,365.894,121.965,341.74z M295.31,337.01l-21.139,8.295
				c-7.285,2.859-13.467,7.442-18.171,13.175c-4.704-5.733-10.886-10.316-18.171-13.175l-21.139-8.295l35.726-77.198
				c0.92-1.988,2.64-2.285,3.583-2.285s2.664,0.297,3.583,2.284L295.31,337.01z M194.527,438.328
				c-8.596-14.88-9.419-33.074-2.203-48.667l15.951-34.467l22.248,8.73c9.402,3.689,15.477,12.589,15.477,22.674v9.159
				c0,5.523,4.477,10,10,10s10-4.477,10-10v-9.159c0-10.085,6.075-18.985,15.477-22.674l22.248-8.73l16.022,34.62
				c7.665,16.408,6.124,35.694-3.511,50.954l-15.804-9.193c-11.666-6.786-26.027-5.744-36.587,2.654
				c-4.566,3.63-10.956,3.644-15.541,0.029l-0.152-0.12c-10.581-8.341-24.931-9.331-36.558-2.524l-15.652,9.162L194.527,438.328z
				 M181.92,56.007C213.9,35.218,246.381,23.671,256,20.496c9.626,3.178,42.104,14.725,74.08,35.511
				c21.87,14.216,39.22,29.906,51.57,46.635c15.017,20.34,22.63,42.362,22.63,65.453c0,17.103-2.863,33.716-8.505,49.554
				c-3.103-2.333-6.433-4.35-9.987-6.019c-32.975-15.493-76.221,3.631-105.713,44.844l-2.342-5.061
				c-3.963-8.564-12.292-13.884-21.734-13.884s-17.771,5.32-21.734,13.885l-2.343,5.062c-29.493-41.206-72.754-60.33-105.712-44.845
				c-3.553,1.669-6.884,3.687-9.987,6.019c-5.642-15.837-8.505-32.45-8.505-49.553c0-23.091,7.614-45.113,22.63-65.453
				C142.7,85.913,160.05,70.223,181.92,56.007z M54.719,111.827c1.663-5.944,5.812-16.31,14.914-18.938
				c9.625-2.784,22.174,4.64,31.889,18.612c-9.127,17.956-13.802,36.924-13.802,56.595c0,9.689,0.821,19.238,2.427,28.614
				c-12.37-3.6-26.891-18.943-34.015-43.545C51.937,138.676,51.422,123.61,54.719,111.827z M48.16,361.664
				C29.738,332.608,20,299.072,20,264.681c0-30.263,8.823-60.121,25.063-85.553c12.124,23.241,31.172,38.185,50.047,38.398
				c1.735,5.627,3.771,11.175,6.111,16.633c-5.91,9.417-9.927,20.899-11.766,34.039c-3.581,25.573,1.54,54.716,14.417,82.062
				c14.777,31.378,38.385,56.658,63.93,68.763c0.986,13,6.713,25.627,13.693,36.729l-57.587-27.198
				C92.777,413.852,66.584,390.721,48.16,361.664z M256.155,492c-18.89,0-36.487-10.15-45.926-26.49l-4.284-7.416l15.752-9.221
				c4.477-2.621,10-2.239,14.076,0.974l0.152,0.12c11.904,9.384,28.502,9.35,40.367-0.084c4.064-3.232,9.592-3.633,14.083-1.021
				l15.929,9.266l-4.112,7.188C292.777,481.775,275.136,492,256.155,492z M463.84,361.664
				c-18.424,29.057-44.617,52.188-75.748,66.891l-57.314,27.069c6.908-11.094,12.553-23.676,13.505-36.641
				c25.513-12.121,49.085-37.379,63.845-68.722c12.877-27.346,17.998-56.489,14.417-82.062c-1.84-13.14-5.857-24.623-11.767-34.04
				c2.34-5.458,4.376-11.006,6.111-16.633c18.875-0.214,37.923-15.156,50.047-38.398C483.175,204.56,492,234.429,492,264.681
				C492,299.072,482.262,332.608,463.84,361.664z"/>
			<circle style="fill:#052A75;" cx="312.785" cy="195.935" r="10"/>
			<circle style="fill:#052A75;" cx="199.676" cy="195.935" r="10"/>
		</g>
	</g>
</g>
<g>
</g>
<g>
</g>
<g>
</g>
<g>
</g>
<g>
</g>
<g>
</g>
<g>
</g>
<g>
</g>
<g>
</g>
<g>
</g>
<g>
</g>
<g>
</g>
<g>
</g>
<g>
</g>
<g>
</g>
</svg>
