<?xml version="1.0" encoding="iso-8859-1"?>
<!-- Generator: Adobe Illustrator 28.3.0, SVG Export Plug-In . SVG Version: 6.00 Build 0)  -->
<svg version="1.1" id="Capa_1" xmlns="http://www.w3.org/2000/svg" xmlns:xlink="http://www.w3.org/1999/xlink" x="0px" y="0px"
	 viewBox="0 0 512 512" style="enable-background:new 0 0 512 512;" xml:space="preserve">
<g>
	<g>
		<path style="fill:#FD8F01;" d="M186.714,358.402h138.573c65.701,0,118.963-53.261,118.963-118.963v-42.406
			C444.249,93.737,360.512,10,257.216,10h-2.433C151.488,10,67.751,93.737,67.751,197.033v42.406
			C67.751,305.14,121.012,358.402,186.714,358.402z"/>
		<path style="fill:#FD6050;" d="M229.31,358.4h-42.6c-65.7,0-118.96-53.26-118.96-118.96v-42.41
			c0-89.21,62.47-163.84,146.06-182.52c-33.63,45.39-53.51,101.58-53.51,162.4C160.3,246.57,186.38,310.15,229.31,358.4z"/>
		<path style="fill:#D46B5C;" d="M424.666,114.224h-75.929c-20.754,0-40.113,10.422-51.539,27.753l-8.16,12.563
			c-3.561,5.482-9.654,8.79-16.192,8.79h-33.456c-6.449,0-12.472-3.219-16.054-8.581l-8.533-12.771
			c-11.426-17.33-30.785-27.753-51.54-27.753H87.334C118.079,52.442,181.849,10,255.548,10h0.904
			C330.151,10,393.921,52.442,424.666,114.224z"/>
		<path style="fill:#B55348;" d="M213.68,14.69c-21.67,29.29-37.61,63.07-46.18,99.68c-1.4-0.1-2.82-0.15-4.24-0.15H87.33
			C112.07,64.5,158.2,27.31,213.68,14.69z"/>
		<path style="fill:#93B2F4;" d="M212.247,502h87.506c34.118,0,60.624-29.719,56.737-63.615l-15.596-136.009
			c-3.271-28.526-20.649-53.502-46.26-66.483l0,0c-24.285-12.31-52.983-12.31-77.269,0l0,0
			c-25.61,12.982-42.989,37.958-46.26,66.483L155.51,438.385C151.624,472.281,178.13,502,212.247,502z"/>
	</g>
	<g>
		<g>
			<path style="fill:#6864F7;" d="M285.302,396.54c-5.523,0-10,4.478-10,10v29.809c0,5.522,4.477,10,10,10s10-4.478,10-10V406.54
				C295.302,401.018,290.825,396.54,285.302,396.54z"/>
			<path style="fill:#6864F7;" d="M226.698,396.54c-5.523,0-10,4.478-10,10v29.809c0,5.522,4.477,10,10,10s10-4.478,10-10V406.54
				C236.698,401.018,232.221,396.54,226.698,396.54z"/>
		</g>
		<g>
			<path style="fill:#052A75;" d="M256.453,0h-0.906C146.481,0,57.75,88.73,57.75,197.796v41.157
				c0,58.764,40.042,110.244,96.214,125.132l-8.389,73.161c-2.177,18.985,3.87,38.053,16.589,52.313
				c12.719,14.262,30.974,22.44,50.083,22.44h87.506c19.109,0,37.364-8.179,50.083-22.44c12.719-14.261,18.766-33.328,16.589-52.313
				l-8.389-73.163c26.021-6.913,49.534-21.98,66.776-42.936c18.983-23.073,29.438-52.264,29.438-82.193v-41.157
				C454.25,88.73,365.519,0,256.453,0z M334.91,476.247C325.981,486.259,313.167,492,299.753,492h-87.506
				c-13.414,0-26.229-5.741-35.157-15.753c-8.929-10.011-13.173-23.396-11.645-36.722l15.596-136.009
				c2.896-25.263,18.166-47.207,40.846-58.703c10.68-5.414,22.396-8.121,34.113-8.121s23.433,2.707,34.113,8.121
				c22.68,11.496,37.949,33.44,40.846,58.703l15.596,136.009C348.083,452.852,343.839,466.236,334.91,476.247z M434.25,238.953
				c0,48.647-32.539,91.47-78.522,105.004l-4.898-42.719c-3.665-31.958-22.982-59.72-51.673-74.264
				c-27.022-13.697-59.289-13.696-86.311,0c-28.692,14.544-48.009,42.306-51.674,74.264l-4.899,42.726
				c-46.002-13.53-78.521-56.309-78.521-105.01v-41.157C77.75,99.759,157.51,20,255.547,20h0.906
				C354.49,20,434.25,99.759,434.25,197.796V238.953z"/>
			<circle style="fill:#052A75;" cx="157.51" cy="182.192" r="10"/>
			<circle style="fill:#052A75;" cx="354.49" cy="182.192" r="10"/>
		</g>
	</g>
</g>
<g>
</g>
<g>
</g>
<g>
</g>
<g>
</g>
<g>
</g>
<g>
</g>
<g>
</g>
<g>
</g>
<g>
</g>
<g>
</g>
<g>
</g>
<g>
</g>
<g>
</g>
<g>
</g>
<g>
</g>
</svg>
