<?xml version="1.0" encoding="iso-8859-1"?>
<!-- Generator: Adobe Illustrator 28.3.0, SVG Export Plug-In . SVG Version: 6.00 Build 0)  -->
<svg version="1.1" id="Capa_1" xmlns="http://www.w3.org/2000/svg" xmlns:xlink="http://www.w3.org/1999/xlink" x="0px" y="0px"
	 viewBox="0 0 510.022 510.022" style="enable-background:new 0 0 510.022 510.022;" xml:space="preserve">
<g>
	<g>
		<g>
			<g>
				<path style="fill:#D46B5C;" d="M497.89,146.903l-5.985,40.458c-3.251,21.976-26.061,35.229-46.736,27.155l-109.211-42.647
					c-22.924-8.952-29.418-38.34-12.404-56.134l58.768-61.465c16.09-16.829,35.059-30.641,56.009-40.782l0,0
					c20.152-9.755,44.11,1.953,48.82,23.858l8.458,39.331C500.573,99.757,501.346,123.546,497.89,146.903z"/>
			</g>
			<g>
				<path style="fill:#D46B5C;" d="M12.131,146.903l5.985,40.458c3.251,21.976,26.061,35.229,46.736,27.155l109.211-42.647
					c22.924-8.952,29.418-38.34,12.404-56.134L127.7,54.268c-16.09-16.829-35.059-30.641-56.009-40.782l0,0
					c-20.152-9.755-44.11,1.953-48.82,23.858l-8.458,39.331C9.449,99.757,8.676,123.546,12.131,146.903z"/>
			</g>
			<path style="fill:#B55348;" d="M174.061,171.865l-109.21,42.65c-20.67,8.07-43.48-5.18-46.74-27.15l-1.01-6.83l4.54-11.6
				c19.87-50.81,57.97-91.28,106.55-114.16l58.28,60.96C203.481,133.525,196.991,162.915,174.061,171.865z"/>
			<path style="fill:#B55348;" d="M492.921,180.515l-1.01,6.85c-3.26,21.97-26.07,35.22-46.74,27.15l-109.21-42.65
				c-22.93-8.95-29.42-38.34-12.41-56.13l58.28-60.96c48.58,22.88,86.68,63.35,106.56,114.16L492.921,180.515z"/>
		</g>
		<g>
			<path style="fill:#FD8F01;" d="M185.385,453.165h0.168c12.766,0,25.099,4.638,34.706,13.053l0,0
				c19.89,17.42,49.594,17.402,69.463-0.044l0.006-0.005c9.627-8.453,21.999-13.109,34.805-13.097h0
				c61.229,0.057,116.907-35.514,142.641-91.128l16.098-34.789c8.331-18.005,8.954-38.635,1.725-57.11l-33.862-86.538
				C432.394,135.61,393.163,98.665,344.26,82.858l0,0c-19.246-6.221-39.978-6.1-59.151,0.345l0,0
				c-19.53,6.565-40.667,6.565-60.197,0l0,0c-19.173-6.445-39.905-6.566-59.151-0.345l0,0
				C116.859,98.665,77.628,135.61,58.886,183.507l-33.862,86.538c-7.229,18.476-6.606,39.105,1.725,57.11l16.141,34.882
				C68.601,417.603,124.209,453.165,185.385,453.165z"/>
			<path style="fill:#FD6050;" d="M248.591,478.875c-10.2-1.24-20.1-5.46-28.33-12.66c-9.61-8.41-21.94-13.05-34.71-13.05h-0.17
				c-61.17,0-116.78-35.56-142.49-91.13l-16.14-34.88c-8.33-18-8.96-38.63-1.73-57.11l33.87-86.54
				c9.37-23.95,23.86-45.15,42.12-62.35c14.26-13.43,30.81-24.41,49.02-32.35c-27.5,42.92-43.45,93.96-43.45,148.72
				C106.581,341.325,163.891,431.745,248.591,478.875z"/>
			<path style="fill:#FFFFFF;" d="M436.328,400.345l-59.971-82.432c-9.518-13.083-0.182-31.449,15.986-31.449h0
				c20.455,0,40.69,4.217,59.446,12.387l30.387,13.238l-12.372,44.173L436.328,400.345z"/>
			<path style="fill:#FFFFFF;" d="M73.693,400.345l59.971-82.432c9.518-13.083,0.182-31.449-15.986-31.449h0
				c-20.455,0-40.69,4.217-59.446,12.387l-30.387,13.238l13.083,45.708L73.693,400.345z"/>
			<path style="fill:#D2DCFD;" d="M123.261,332.215l-49.57,68.13l-32.76-42.55l-13.09-45.71l30.39-13.23
				c9.38-4.08,19.13-7.18,29.09-9.26c7.77-1.62,15.67-2.62,23.62-2.97C113.751,302.325,117.901,317.565,123.261,332.215z"/>
			<path style="fill:#FFFFFF;" d="M209.405,216.7L209.405,216.7c0.01,13.889-13.324,23.884-26.636,19.964l-1.713-0.504
				c-3.865-1.138-7.978-1.127-11.836,0.033h0c-13.323,4.004-26.737-5.975-26.747-19.9v0c-0.012-15.756,12.736-28.539,28.476-28.557
				l9.457-0.01C196.408,187.708,209.393,200.682,209.405,216.7z"/>
			<path style="fill:#FFFFFF;" d="M367.548,216.7L367.548,216.7c0.01,13.889-13.324,23.884-26.636,19.964l-1.713-0.504
				c-3.865-1.138-7.978-1.127-11.836,0.033h0c-13.323,4.004-26.737-5.975-26.747-19.9v0c-0.012-15.756,12.736-28.539,28.476-28.557
				l9.457-0.01C354.551,187.708,367.536,200.682,367.548,216.7z"/>
		</g>
		<g>
			<path style="fill:#D2DCFD;" d="M246.15,500.015h17.72c18.226,0,33.002-14.775,33.002-33.002v-50.805h-83.724v50.805
				C213.149,485.239,227.924,500.015,246.15,500.015z"/>
			<path style="fill:#FFFFFF;" d="M199.426,315.052l-35.975,52.099c-15.538,22.502-14.626,52.51,2.249,74.026l0,0
				c17.569,22.4,48.058,30.053,74.107,18.604l3.399-1.494c7.511-3.301,16.06-3.301,23.571,0l3.182,1.399
				c26.15,11.494,56.758,3.733,74.289-18.836l0.256-0.33c16.749-21.564,17.544-51.525,1.96-73.948l-35.846-51.579
				c-3.431-4.937-10.765-4.824-14.043,0.217l-16.998,26.144c-11.564,17.787-37.585,17.781-49.142-0.01l-16.95-26.092
				C210.203,310.199,202.849,310.095,199.426,315.052z"/>
			<path style="fill:#D46B5C;" d="M261.897,400.345h-13.773c-12.144,0-21.989,9.854-21.989,22.01v0
				c0,5.604,2.135,10.997,5.971,15.079l13.323,14.181c5.194,5.528,13.968,5.528,19.162,0l13.323-14.181
				c3.835-4.082,5.971-9.475,5.971-15.079v0C283.886,410.199,274.041,400.345,261.897,400.345z"/>
		</g>
	</g>
	<g>
		<path style="fill:#052A75;" d="M505.385,74.572l-8.458-39.331c-2.896-13.467-11.652-24.654-24.023-30.693
			c-12.362-6.034-26.551-6.056-38.931-0.063c-22.097,10.697-41.906,25.121-58.879,42.872l-25.557,26.731
			c-21.695-7.584-45.832-7.684-67.614-0.364c-17.354,5.834-36.471,5.833-53.825,0c-21.78-7.318-45.917-7.22-67.613,0.364
			l-25.557-26.731c-16.971-17.75-36.781-32.174-58.879-42.872C63.669-1.508,49.48-1.485,37.119,4.548
			c-12.372,6.039-21.129,17.226-24.025,30.693L4.636,74.572c-5.234,24.338-6.041,49.167-2.398,73.794l5.985,40.458
			c2.195,14.838,11.549,27.28,24.688,33.62l-17.2,43.957c-8.181,20.906-7.465,44.581,1.962,64.953l16.141,34.883
			c25.637,55.375,79.664,92.71,140.556,96.498c8.885,5.979,18.94,9.866,29.392,11.474c3.435,20.296,21.129,35.806,42.388,35.806
			h17.721c21.303,0,39.029-15.575,42.411-35.935c10.326-1.628,20.25-5.491,29.04-11.397c61.066-3.717,115.219-40.995,140.928-96.539
			l16.098-34.789c9.428-20.373,10.143-44.048,1.962-64.954l-17.2-43.957c13.139-6.34,22.494-18.782,24.689-33.621l5.984-40.458
			C511.427,123.737,510.619,98.908,505.385,74.572z M28.008,185.897l-5.985-40.458c-3.291-22.248-2.562-44.676,2.166-66.662
			l8.458-39.331c1.598-7.427,6.425-13.596,13.245-16.924c6.808-3.325,14.624-3.336,21.442-0.035
			c19.943,9.654,37.822,22.672,53.138,38.691l20.052,20.972c-41.449,19.667-73.959,54.29-90.95,97.712l-9.33,23.843
			C33.73,200.031,29.139,193.546,28.008,185.897z M222.049,346.791c7.279,11.205,19.597,17.896,32.952,17.899
			c0.003,0,0.005,0,0.008,0c13.352-0.001,25.671-6.687,32.952-17.886l15.751-24.225l34.54,49.7
			c13.161,18.937,12.499,43.896-1.652,62.115l-0.25,0.322c-13.872,17.86-37.406,24.666-58.457,17.347l7.311-7.782
			c5.599-5.96,8.683-13.747,8.683-21.926c0-17.65-14.35-32.01-31.988-32.01h-13.773c-17.639,0-31.989,14.36-31.989,32.011
			c0,8.18,3.083,15.967,8.683,21.926l7.305,7.775c-5.683,2.007-11.551,2.998-17.371,2.997c-15.698-0.001-31.014-7.082-41.184-20.048
			c-14.256-18.177-15.016-43.162-1.888-62.172l34.67-50.209L222.049,346.791z M270.627,430.587l-13.323,14.182
			c-0.812,0.864-1.785,0.993-2.292,0.993c-0.508,0-1.481-0.129-2.293-0.994l-13.324-14.182c-2.101-2.236-3.258-5.16-3.258-8.231
			c0-6.623,5.378-12.01,11.989-12.01h13.773c6.61,0,11.988,5.388,11.988,12.011C273.886,425.427,272.728,428.35,270.627,430.587z
			 M263.871,490.015H246.15c-10.103,0-18.699-6.551-21.781-15.625c6.588-0.887,13.138-2.675,19.461-5.454l3.4-1.494
			c4.934-2.168,10.59-2.167,15.523,0l3.182,1.398c6.415,2.82,13.055,4.632,19.732,5.508
			C282.596,483.445,273.99,490.015,263.871,490.015z M474.197,322.956l-16.098,34.789c-19.31,41.73-56.752,71.596-100.71,81.627
			c14.555-24.244,13.766-54.794-2.714-78.508l-35.847-51.579c-3.46-4.979-9.108-7.928-15.157-7.928
			c-0.096,0-0.191,0.001-0.286,0.002c-6.157,0.095-11.837,3.234-15.194,8.398l-16.998,26.144c-3.631,5.585-9.529,8.788-16.184,8.788
			c-0.001,0-0.003,0-0.004,0c-6.656-0.001-12.555-3.207-16.185-8.794l-16.95-26.092c-3.362-5.175-9.053-8.317-15.222-8.404
			c-6.15-0.109-11.945,2.893-15.452,7.971c0,0,0,0,0,0l-35.975,52.099c-16.286,23.586-17.088,53.825-2.815,77.932
			c-43.838-10.098-81.183-39.944-100.441-81.563l-16.141-34.883c-7.15-15.452-7.693-33.409-1.488-49.266l33.862-86.539
			c17.721-45.288,54.402-79.833,100.638-94.777c17.085-5.523,35.868-5.414,52.889,0.309c21.463,7.215,45.105,7.215,66.57,0
			c17.02-5.723,35.803-5.831,52.89-0.309c46.235,14.945,82.917,49.49,100.638,94.777l33.861,86.539
			C481.89,289.546,481.348,307.503,474.197,322.956z M487.998,145.439l-5.984,40.457c-1.132,7.65-5.722,14.135-12.236,17.809
			l-9.329-23.843c-16.991-43.422-49.501-78.045-90.951-97.712l20.051-20.972c15.318-16.021,33.196-29.038,53.139-38.691
			c6.82-3.301,14.636-3.287,21.442,0.035c6.82,3.329,11.647,9.497,13.244,16.924l8.458,39.332
			C490.56,100.762,491.289,123.19,487.998,145.439z"/>
		<circle style="fill:#052A75;" cx="175.02" cy="280.69" r="10"/>
		<circle style="fill:#052A75;" cx="333.16" cy="280.69" r="10"/>
	</g>
</g>
<g>
</g>
<g>
</g>
<g>
</g>
<g>
</g>
<g>
</g>
<g>
</g>
<g>
</g>
<g>
</g>
<g>
</g>
<g>
</g>
<g>
</g>
<g>
</g>
<g>
</g>
<g>
</g>
<g>
</g>
</svg>
