<?xml version="1.0" encoding="iso-8859-1"?>
<!-- Generator: Adobe Illustrator 28.3.0, SVG Export Plug-In . SVG Version: 6.00 Build 0)  -->
<svg version="1.1" id="Capa_1" xmlns="http://www.w3.org/2000/svg" xmlns:xlink="http://www.w3.org/1999/xlink" x="0px" y="0px"
	 viewBox="0 0 512 512" style="enable-background:new 0 0 512 512;" xml:space="preserve">
<g>
	<g>
		<path style="fill:#FD8F01;" d="M10.421,498.496l37.964-305.003C61.424,88.748,150.446,10.119,256,10.119h0.006
			c105.551,0,194.571,78.626,207.608,183.369l37.965,305.008c0.224,1.797-1.178,3.384-2.989,3.384H13.411
			C11.599,501.881,10.198,500.294,10.421,498.496z"/>
		<path style="fill:#FD6050;" d="M157.01,423.837c-53.279,0-96.624-43.344-96.624-96.621V305.46
			c0-38.005,13.726-74.737,38.648-103.428l39.396-45.354c2.282-2.628,3.538-5.989,3.538-9.467v-27.22
			c0-10.51,8.52-19.03,19.03-19.03h190.003c10.51,0,19.03,8.52,19.03,19.03v27.22c0,3.479,1.257,6.841,3.539,9.467l39.395,45.355
			c24.923,28.691,38.648,65.422,38.648,103.427v21.749c0,25.812-10.053,50.078-28.305,68.327
			c-18.249,18.246-42.511,28.295-68.318,28.295c-30.156-0.005-58.987-14.373-77.139-38.435l-0.829-1.1
			c-6.871-9.108-16.12-10.468-21.022-10.468c-4.901,0-14.15,1.361-21.026,10.478l-0.833,1.104
			C215.994,409.472,187.16,423.837,157.01,423.837z"/>
		<path style="fill:#FDE0BE;" d="M255.626,440.496h0.748c50.394,0,91.626-41.232,91.626-91.626v-12.41c0-6.6-5.4-12-12-12H176
			c-6.6,0-12,5.4-12,12v12.41C164,399.265,205.232,440.496,255.626,440.496z"/>
		<path style="fill:#F7B073;" d="M348.004,336.506v11.989c0,26.799-11.617,51.017-30.062,67.886
			c-15.704-6.537-29.66-17.16-40.093-30.986l-0.823-1.105c-6.868-9.107-16.125-10.462-21.025-10.462
			c-4.9,0-14.148,1.355-21.025,10.473l-0.833,1.105c-10.422,13.816-24.359,24.439-40.063,30.986
			c-18.455-16.859-30.082-41.087-30.082-67.896v-11.989c0-6.627,5.422-12.049,12.049-12.049h159.91
			C342.582,324.457,348.004,329.879,348.004,336.506z"/>
		<path style="fill:#FFFFFF;" d="M387.013,352.808H311.93l26.828,112.41c2.691,11.277,18.736,11.277,21.427,0L387.013,352.808z"/>
		<path style="fill:#FFFFFF;" d="M200.071,352.808h-75.083l26.828,112.41c2.691,11.277,18.736,11.277,21.427,0L200.071,352.808z"/>
		<path style="fill:#D2DCFD;" d="M387.01,352.809l-16.66,69.81c-5.03,0.8-10.16,1.21-15.36,1.21c-9.22,0-18.33-1.34-27.04-3.91
			l-16.02-67.11H387.01z"/>
		<path style="fill:#D2DCFD;" d="M200.07,352.809l-16.02,67.12c-8.71,2.57-17.82,3.91-27.04,3.91c-5.23,0-10.36-0.42-15.36-1.23
			l-16.66-69.8H200.07z"/>
		<path style="fill:#FD8F01;" d="M177.111,86.452v60.758c0,11.947-4.314,23.492-12.149,32.512l-39.397,45.355
			c-19.371,22.3-30.037,50.845-30.037,80.383v21.756c0,33.954,27.526,61.478,61.48,61.478h0.001c19.293,0,37.468-9.056,49.085-24.46
			l0.824-1.092c24.596-32.611,73.569-32.613,98.168-0.003l0.823,1.091c11.616,15.399,29.785,24.454,49.074,24.456h0
			c33.958,0.005,61.489-27.522,61.489-61.478V305.46c0-29.538-10.666-58.083-30.037-80.383l-39.397-45.355
			c-7.835-9.02-12.149-20.565-12.149-32.512V86.452H177.111z"/>
		<path style="fill:#FDE0BE;" d="M416.473,305.46v21.748c0,16.979-6.888,32.352-18.013,43.477
			c-11.125,11.125-26.498,18.003-43.477,18.003c-19.289,0-37.462-9.057-49.07-24.46l-0.823-1.084
			c-24.6-32.613-73.579-32.613-98.169,0l-0.823,1.094c-5.804,7.701-13.254,13.816-21.668,18.003
			c-8.404,4.187-17.772,6.456-27.422,6.456c-33.958,0-61.48-27.532-61.48-61.48V305.46c0-29.54,10.663-58.086,30.042-80.387
			l39.39-45.354c4.147-4.759,7.3-10.232,9.348-16.085l26.719,12.109c34.932,15.282,74.653,15.322,109.605,0.09l27.1-12.089
			c2.048,5.814,5.191,11.246,9.308,15.975l39.39,45.354C405.809,247.374,416.473,275.92,416.473,305.46z"/>
	</g>
	<g>
		<path style="fill:#052A75;" d="M511.924,500.646l-38.386-308.393c-6.607-53.08-32.326-101.813-72.417-137.223
			C361.03,19.62,309.491,0.119,256,0.119S150.971,19.62,110.879,55.031C70.788,90.44,45.07,139.173,38.462,192.253L0.076,500.646
			c-0.354,2.846,0.53,5.706,2.429,7.855s4.628,3.38,7.495,3.38h492c2.867,0,5.597-1.23,7.495-3.38S512.278,503.491,511.924,500.646z
			 M21.323,491.881L58.31,194.724C70.699,95.183,155.689,20.119,256,20.119s185.301,75.063,197.69,174.604l36.987,297.157H21.323z"
			/>
		<path style="fill:#052A75;" d="M281.855,269.904c5.522,0,10-4.478,10-10v-5.487c0-8.163,6.641-14.804,14.804-14.804
			c5.522,0,10-4.478,10-10s-4.478-10-10-10c-19.19,0-34.804,15.613-34.804,34.804v5.487
			C271.855,265.426,276.332,269.904,281.855,269.904z"/>
		<path style="fill:#052A75;" d="M205.342,239.613c8.163,0,14.804,6.641,14.804,14.804v5.487c0,5.522,4.478,10,10,10s10-4.478,10-10
			v-5.487c0-19.19-15.613-34.804-34.804-34.804c-5.522,0-10,4.478-10,10S199.82,239.613,205.342,239.613z"/>
		<path style="fill:#052A75;" d="M354.588,173.164c-6.255-7.2-9.699-16.418-9.699-25.954v-36.171c0-5.522-4.478-10-10-10
			s-10,4.478-10,10v36.171c0,14.356,5.186,28.231,14.6,39.069l39.396,45.355c17.79,20.48,27.587,46.698,27.587,73.825v21.748
			c0,13.752-5.355,26.68-15.081,36.403c-9.724,9.722-22.65,15.075-36.4,15.075c-0.002,0-0.005,0-0.006,0
			c-16.06-0.003-31.422-7.658-41.091-20.476l-0.824-1.094c-13.632-18.07-34.432-28.435-57.068-28.435
			c-22.636,0.001-43.437,10.366-57.07,28.442l-0.819,1.088c-9.674,12.825-25.039,20.481-41.103,20.481
			c-28.387,0-51.48-23.093-51.48-51.479V305.46c0-27.127,9.797-53.345,27.587-73.825l39.396-45.355
			c9.414-10.838,14.6-24.713,14.6-39.069v-36.171c0-5.522-4.478-10-10-10s-10,4.478-10,10v36.171c0,9.536-3.444,18.754-9.699,25.954
			l-39.396,45.355c-20.949,24.118-32.487,54.994-32.487,86.94v21.756c0,39.413,32.066,71.479,71.481,71.479
			c6.743,0,13.395-0.978,19.77-2.826c0.353,13.065,6.424,25.105,16.81,33.177c18.053,14.033,39.635,21.45,62.411,21.45
			c23.017,0,45.622-7.966,63.651-22.43c9.736-7.81,15.464-19.448,15.895-32.114c6.273,1.787,12.811,2.733,19.437,2.734
			c0.003,0,0.005,0,0.009,0c19.09-0.001,37.04-7.435,50.541-20.933c13.503-13.5,20.939-31.451,20.939-50.546V305.46
			c0-31.946-11.538-62.822-32.487-86.94L354.588,173.164z M315.588,394.42c0,7.159-3.081,13.737-8.452,18.047
			c-14.703,11.795-32.385,18.029-51.136,18.029c-18.289,0-35.626-5.962-50.137-17.241c-5.795-4.504-9.118-11.279-9.118-18.589
			v-8.086c6.591-4.398,12.482-9.891,17.337-16.327l0.819-1.089c9.817-13.016,24.798-20.48,41.101-20.481
			c16.303,0,31.283,7.464,41.099,20.477l0.824,1.094c4.935,6.541,10.939,12.109,17.663,16.542V394.42z"/>
		<circle style="fill:#052A75;" cx="123.98" cy="157.664" r="10"/>
		<circle style="fill:#052A75;" cx="388.02" cy="157.664" r="10"/>
	</g>
</g>
<g>
</g>
<g>
</g>
<g>
</g>
<g>
</g>
<g>
</g>
<g>
</g>
<g>
</g>
<g>
</g>
<g>
</g>
<g>
</g>
<g>
</g>
<g>
</g>
<g>
</g>
<g>
</g>
<g>
</g>
</svg>
