<?xml version="1.0" encoding="iso-8859-1"?>
<!-- Generator: Adobe Illustrator 28.3.0, SVG Export Plug-In . SVG Version: 6.00 Build 0)  -->
<svg version="1.1" id="Capa_1" xmlns="http://www.w3.org/2000/svg" xmlns:xlink="http://www.w3.org/1999/xlink" x="0px" y="0px"
	 viewBox="0 0 512.02 512.02" style="enable-background:new 0 0 512.02 512.02;" xml:space="preserve">
<g>
	<g>
		<g>
			<path style="fill:#D46B5C;" d="M472.893,136.641l-1.982,1.982c-11.561,11.561-30.479,11.561-42.04,0l-60.002-60.002
				l60.002-60.002c11.561-11.561,30.479-11.561,42.04,0l1.982,1.982C504.804,52.514,504.804,104.731,472.893,136.641z"/>
			<path style="fill:#B55348;" d="M479.739,128.793c-2.149,2.811-4.508,5.512-7.079,8.083l-1.667,1.667
				c-11.607,11.607-30.604,11.607-42.212,0l-59.914-59.924l46.379-46.379c4.629,3.052,9.087,6.376,13.374,9.95
				C455.119,64.291,473.183,94.936,479.739,128.793z"/>
		</g>
		<g>
			<path style="fill:#D46B5C;" d="M39.126,136.641l1.982,1.982c11.561,11.561,30.479,11.561,42.04,0l60.002-60.002L83.149,18.621
				c-11.561-11.561-30.479-11.561-42.04,0l-1.982,1.982C7.216,52.514,7.216,104.731,39.126,136.641z"/>
			<path style="fill:#B55348;" d="M143.151,78.619l-59.914,59.924c-11.607,11.607-30.604,11.607-42.212,0l-1.667-1.667
				c-2.701-2.711-5.181-5.563-7.42-8.535c6.637-33.657,24.66-64.111,51.017-86.11c4.378-3.645,8.936-7.029,13.666-10.141
				L143.151,78.619z"/>
		</g>
		<g>
			<path style="fill:#F7B073;" d="M370.878,457.663l-102.634,41.894c-7.98,3.257-16.919,3.257-24.9,0L140.71,457.663
				c-71.357-29.127-112.744-104.07-99.393-179.977l24.544-139.544C76.8,73.769,139.12,31.443,202.991,45.008l32.92,6.991
				c13.014,2.764,26.462,2.766,39.477,0.007l33.241-7.048c63.86-13.539,126.155,28.785,137.091,93.143l24.551,139.585
				C483.622,353.593,442.234,428.536,370.878,457.663z"/>
		</g>
		<g>
			<path style="fill:#FD8F01;" d="M341.7,469.575l-73.46,29.98c-7.98,3.26-16.92,3.26-24.9,0l-102.63-41.89
				c-71.36-29.13-112.74-104.07-99.39-179.98l24.54-139.54c7.6-44.73,40-78.81,80.5-90.9c-11.48,33.97-17.7,70.37-17.7,108.21
				C128.66,297.975,216.88,419.895,341.7,469.575z"/>
		</g>
		<g>
			<path style="fill:#D46B5C;" d="M457.489,204.993l-64.753-64.623c-12.33-12.33-29.058-19.248-46.489-19.248
				c-18.154,0-34.591,7.36-46.489,19.248c-11.898,11.898-19.258,28.335-19.258,46.489v16.537h-49.401v-16.537
				c0-36.308-29.44-65.737-65.747-65.737c-8.725,0-17.26,1.727-25.162,5c-7.902,3.273-15.162,8.083-21.327,14.248l-64.964,65.757
				l11.959-67.986C76.801,73.77,139.125,31.447,202.994,45.013l32.914,6.988c13.013,2.761,26.468,2.761,39.48,0.01l33.235-7.049
				c63.87-13.545,126.163,28.777,137.097,93.139L457.489,204.993z"/>
		</g>
		<g>
			<path style="fill:#B55348;" d="M146.36,47.245c-9.07,26.82-14.85,55.16-16.87,84.52c-3.81,2.47-7.37,5.35-10.63,8.61
				l-64.96,65.75l11.96-67.98C73.46,93.415,105.87,59.335,146.36,47.245z"/>
		</g>
		<g>
			<path style="fill:#B55348;" d="M274.725,417.015H236.87c-18.227,0-33.002-14.776-33.002-33.002v-70.858h103.86v70.858
				C307.728,402.239,292.952,417.015,274.725,417.015z"/>
			<path style="fill:#D46B5C;" d="M319.872,238.644l34.012,60.492c8.448,15.025,9.028,33.229,1.553,48.761l0,0
				c-12.332,25.627-42.75,36.878-68.791,25.444l-19.71-8.655c-7.085-3.111-15.15-3.111-22.235,0l-19.467,8.548
				c-26.137,11.477-56.663,0.097-68.908-25.69l-0.286-0.602c-7.376-15.532-6.724-33.683,1.746-48.647l33.869-59.836
				c13.064-23.081,37.535-37.348,64.057-37.348h0C282.309,201.111,306.837,215.46,319.872,238.644z"/>
			<path style="fill:#B55348;" d="M261.551,360.283h-11.507c-21.524,0-39.135-17.611-39.135-39.135v-0.46
				c0-13.533,11.073-24.606,24.606-24.606h40.565c13.533,0,24.606,11.073,24.606,24.606v0.46
				C300.686,342.673,283.075,360.283,261.551,360.283z"/>
		</g>
	</g>
	<g>
		<path style="fill:#052A75;" d="M459.049,156.162c31.32-9.948,47.207-46.503,47.638-77.54c0-24.741-9.574-47.942-26.959-65.327
			l-1.66-1.66C470.564,4.132,460.558,0,449.891,0s-20.674,4.132-28.177,11.635L387.92,45.429
			c-25.086-12.518-53.416-16.179-81.365-10.254l-33.241,7.047c-11.721,2.485-23.607,2.483-35.325-0.006l-32.92-6.991
			c-27.844-5.913-56.066-2.311-81.087,10.086L90.306,11.636C82.803,4.132,72.796,0,62.129,0S41.455,4.132,33.952,11.635l-1.66,1.66
			C14.907,30.68,5.333,53.881,5.333,78.622c0.414,30.932,16.198,67.207,47.222,77.451L31.469,275.954
			c-6.852,38.954-0.095,79.475,19.026,114.098c19.121,34.623,49.818,61.923,86.437,76.87l102.634,41.894
			c5.232,2.136,10.73,3.204,16.229,3.204c5.499,0,10.997-1.068,16.229-3.204l102.634-41.894
			c36.619-14.947,67.315-42.247,86.437-76.87c19.121-34.624,25.877-75.144,19.026-114.098L459.049,156.162z M435.856,25.777
			c3.725-3.726,8.709-5.777,14.034-5.777c5.325,0,10.309,2.052,14.035,5.778l1.66,1.66c13.608,13.607,21.102,31.785,21.102,51.185
			c-0.377,22.247-10.353,47.756-31.109,57.805l0-0.001c-5.551-32.665-23.268-61.06-50.03-80.34L435.856,25.777z M48.095,131.468
			C33.55,117.697,25.291,98.83,25.333,78.622c0-19.399,7.494-37.577,21.102-51.185l1.66-1.66C51.82,22.052,56.804,20,62.129,20
			c5.325,0,10.309,2.052,14.034,5.778l30.146,30.146c-26.878,19.255-44.682,47.678-50.27,80.342
			C53.065,135.315,50.326,133.699,48.095,131.468z M443.585,380.383c-16.92,30.638-44.083,54.795-76.487,68.022l-102.633,41.894
			c-5.592,2.282-11.75,2.282-17.342,0L144.49,448.405c-32.404-13.227-59.568-37.384-76.488-68.022
			c-16.919-30.638-22.898-66.494-16.836-100.964L75.72,139.817c4.83-28.424,20.625-52.999,44.475-69.197
			c17.627-11.972,37.883-18.166,58.64-18.166c7.328,0,14.72,0.772,22.079,2.335l32.919,6.991
			c14.473,3.075,29.152,3.077,43.628,0.008l33.241-7.047c28.195-5.979,56.856-0.35,80.698,15.849s39.631,40.77,44.47,69.243
			l24.551,139.585C466.484,313.889,460.505,349.745,443.585,380.383z"/>
		<path style="fill:#052A75;" d="M328.589,233.743c-14.785-26.296-42.71-42.631-72.877-42.631
			c-30.068,0-57.948,16.255-72.759,42.422l-33.869,59.836c-10.062,17.778-10.839,39.409-2.075,57.865l0.285,0.599
			c7.044,14.834,19.397,26.163,34.784,31.899c3.898,1.453,7.884,2.504,11.908,3.161c1.555,22.382,20.249,40.12,43.019,40.12h37.586
			c22.695,0,41.34-17.622,43.003-39.899c19.711-3.063,37.526-15.497,46.855-34.882c8.884-18.46,8.193-40.142-1.848-57.998
			L328.589,233.743z M274.591,407.015h-37.586c-11.738,0-21.455-8.788-22.935-20.13c5.173-0.846,10.272-2.337,15.185-4.494
			l19.467-8.548c4.511-1.98,9.684-1.98,14.194,0l19.71,8.655c4.879,2.143,9.876,3.605,14.89,4.46
			C296.005,398.264,286.304,407.015,274.591,407.015z M220.909,321.148v-0.46c0-8.054,6.552-14.605,14.606-14.605h40.565
			c8.054,0,14.606,6.552,14.606,14.605v0.46c0,16.065-13.07,29.135-29.135,29.135h-11.507
			C233.979,350.283,220.909,337.213,220.909,321.148z M346.427,343.561c-10.049,20.882-34.541,29.942-55.759,20.624l-3.12-1.37
			c13.881-8.692,23.138-24.115,23.138-41.666v-0.46c0-19.082-15.524-34.605-34.606-34.605h-40.565
			c-19.082,0-34.606,15.524-34.606,34.605v0.46c0,17.559,9.265,32.987,23.156,41.678l-2.851,1.252
			c-21.33,9.366-45.863,0.219-55.856-20.826l-0.285-0.599c-5.971-12.575-5.442-27.316,1.415-39.432l33.869-59.836
			c11.268-19.907,32.479-32.274,55.354-32.274c22.951,0,44.196,12.428,55.444,32.433l34.012,60.493
			C352.009,316.206,352.48,330.981,346.427,343.561z"/>
		<circle style="fill:#052A75;" cx="337.56" cy="176.549" r="10"/>
		<circle style="fill:#052A75;" cx="174.04" cy="176.549" r="10"/>
	</g>
</g>
<g>
</g>
<g>
</g>
<g>
</g>
<g>
</g>
<g>
</g>
<g>
</g>
<g>
</g>
<g>
</g>
<g>
</g>
<g>
</g>
<g>
</g>
<g>
</g>
<g>
</g>
<g>
</g>
<g>
</g>
</svg>
