<?xml version="1.0" encoding="iso-8859-1"?>
<!-- Generator: Adobe Illustrator 28.3.0, SVG Export Plug-In . SVG Version: 6.00 Build 0)  -->
<svg version="1.1" id="Capa_1" xmlns="http://www.w3.org/2000/svg" xmlns:xlink="http://www.w3.org/1999/xlink" x="0px" y="0px"
	 viewBox="0 0 512 512" style="enable-background:new 0 0 512 512;" xml:space="preserve">
<g>
	<g>
		<g>
			<path style="fill:#D46B5C;" d="M163.593,108.471h-48.947c-41.949,0-75.956-34.007-75.956-75.956V10h78.298
				c25.74,0,46.606,20.866,46.606,46.605V108.471z"/>
			<path style="fill:#B55348;" d="M163.594,56.8v51.67h-48.638c-3.595,0-7.129-0.251-10.593-0.733
				c10.392-19.841,24.65-37.472,42.272-52.092c4.9-4.067,10.001-7.832,15.282-11.296C163.012,48.316,163.594,52.493,163.594,56.8z"
				/>
		</g>
		<g>
			<path style="fill:#D46B5C;" d="M397.354,108.471h-48.947V56.605c0-25.74,20.866-46.605,46.605-46.605h78.298v22.515
				C473.31,74.465,439.303,108.471,397.354,108.471z"/>
			<path style="fill:#B55348;" d="M407.606,107.737c-3.454,0.482-6.978,0.733-10.563,0.733h-48.638V56.8
				c0-4.338,0.592-8.525,1.697-12.511C374.09,60.053,394.011,81.792,407.606,107.737z"/>
		</g>
		<g>
			<path style="fill:#FDE0BE;" d="M117.656,433.069h46.163l-20.997-70.971h-41.513c-27.826,0-53.614-14.597-67.936-38.457
				L10,284.705v40.7C10,384.866,58.199,433.069,117.656,433.069z"/>
			<path style="fill:#F7B073;" d="M163.815,433.07h-46.158c-10.924,0-21.467-1.627-31.398-4.659
				c-14.188-23.937-23.054-50.455-26.156-77.857c12.22,7.43,26.427,11.547,41.207,11.547h41.509L163.815,433.07z"/>
		</g>
		<g>
			<path style="fill:#FDE0BE;" d="M394.344,433.069H357.16l13.832-70.971h39.7c27.826,0,53.614-14.597,67.936-38.457L502,284.705
				v40.7C502,384.866,453.801,433.069,394.344,433.069z"/>
			<path style="fill:#F7B073;" d="M451.896,350.554c-3.113,27.411-11.979,53.929-26.166,77.867
				c-9.93,3.022-20.473,4.649-31.388,4.649h-37.181l13.826-70.969h39.701C425.469,362.101,439.677,357.985,451.896,350.554z"/>
		</g>
		<g>
			<path style="fill:#D46B5C;" d="M497.693,225.647c0,8.665-6.818,16.838-16.788,16.838c-29.942,0-57.343,14.69-74.071,38.275
				l3.454,18.465C428.381,395.818,354.269,485.111,256,485.111S83.619,395.818,101.713,299.226l3.474-18.555
				c-16.146-23.767-43.266-38.607-72.906-38.607c-0.331,0-0.663,0.01-0.994,0.01c-14.168,0.161-22.13-16.246-13.224-27.281
				l21.748-26.95c16.738-20.724,41.941-32.773,68.579-32.773h20.594c6.978-27.522,22.481-51.238,43.306-68.529
				c22.873-18.977,52.172-30.213,83.71-30.213c60.265,0,112.357,41.017,127.016,98.741h20.262c26.638,0,51.851,12.049,68.579,32.773
				l22.08,27.351C496.528,218.397,497.693,222.062,497.693,225.647z"/>
			<path style="fill:#B55348;" d="M375.928,429.395c-28.546,33.828-71.28,55.716-119.928,55.716s-91.371-21.879-119.917-55.696
				c7.079-13.846,18.304-25.473,32.562-33.074l60.586-32.281c8.264-4.398,17.581-6.727,26.939-6.727
				c9.398,0,18.746,2.35,27.03,6.778l60.285,32.251C357.693,403.961,368.869,415.579,375.928,429.395z"/>
		</g>
		<path style="fill:#F7B073;" d="M205.057,502h101.886c20.595,0,37.291-16.697,37.291-37.294v-0.045
			c0-13.756-7.572-26.395-19.7-32.884l-60.282-32.254c-5.039-2.696-11.09-2.701-16.133-0.014l-60.596,32.282
			c-12.161,6.479-19.759,19.135-19.759,32.915v0C167.766,485.303,184.461,502,205.057,502z"/>
	</g>
	<g>
		<g>
			<path style="fill:#B55348;" d="M193.461,145.068h-11.298c-5.523,0-10,4.477-10,10s4.477,10,10,10h11.298
				c13.007,0,23.588,10.583,23.588,23.591v77.172c0,6.302-2.454,12.226-6.909,16.682c-5.543,5.544-13.148,7.926-20.863,6.535
				c-7.716-1.391-14.01-6.278-17.27-13.41c-2.295-5.023-8.227-7.235-13.252-4.938c-5.023,2.296-7.234,8.229-4.938,13.252
				c5.934,12.984,17.864,22.247,31.912,24.779c2.573,0.464,5.158,0.691,7.727,0.691c11.455,0,22.582-4.522,30.827-12.767
				c8.232-8.233,12.767-19.18,12.767-30.824v-77.172C237.049,164.623,217.496,145.068,193.461,145.068z"/>
			<path style="fill:#B55348;" d="M353.245,270.701c-5.022-2.296-10.956-0.085-13.252,4.938c-3.259,7.131-9.554,12.019-17.27,13.41
				c-7.713,1.39-15.319-0.991-20.863-6.536c-4.456-4.455-6.909-10.379-6.909-16.681v-77.172c0-13.008,10.582-23.591,23.588-23.591
				H330c5.523,0,10-4.477,10-10s-4.477-10-10-10h-11.46c-24.035,0-43.588,19.555-43.588,43.591v77.172
				c0,11.644,4.534,22.59,12.767,30.824c8.245,8.246,19.37,12.768,30.827,12.768c2.568,0,5.155-0.228,7.727-0.691
				c14.048-2.532,25.978-11.795,31.912-24.779C360.479,278.93,358.268,272.997,353.245,270.701z"/>
		</g>
		<g>
			<path style="fill:#052A75;" d="M504.67,275.068c-4.332-1.199-8.931,0.637-11.244,4.49l-23.373,38.937
				c-10.58,17.624-28.61,29.566-48.632,32.749c2.463-17.743,2.06-35.896-1.304-53.862l-2.646-14.127
				c15.038-19.045,38.228-30.771,63.43-30.771c10.404,0,19.655-5.832,24.142-15.22s3.214-20.25-3.322-28.347l-22.081-27.354
				c-18.722-23.193-46.554-36.495-76.359-36.495h-12.71c-2.938-9.362-6.804-18.257-11.479-26.597h17.951
				c47.567,0,86.266-38.699,86.266-86.266V10c0-5.523-4.477-10-10-10h-78.107c-31.317,0-56.795,25.479-56.795,56.796V72.95
				C314.984,56.083,286.371,46.324,256,46.324c-30.372,0-58.984,9.759-82.407,26.626V56.796C173.593,25.479,148.115,0,116.798,0
				H38.69c-5.523,0-10,4.477-10,10v22.206c0,47.567,38.699,86.266,86.266,86.266h17.951c-4.675,8.34-8.541,17.236-11.479,26.597
				h-13.035c-29.805,0-57.637,13.302-76.359,36.495L10.28,208.512c-6.577,8.147-7.825,19.062-3.256,28.484
				c4.569,9.421,13.893,15.204,24.38,15.081c0.3-0.003,0.599-0.005,0.898-0.005c24.883,0,47.758,11.798,62.269,30.948l-2.69,14.361
				c-3.365,17.966-3.768,36.119-1.304,53.862c-20.022-3.182-38.053-15.124-48.632-32.749l-23.373-38.937
				c-2.313-3.854-6.914-5.692-11.244-4.49c-4.331,1.2-7.33,5.142-7.33,9.637v40.7c0,64.88,52.78,117.664,117.656,117.664h17.219
				c6.987,7.366,14.662,14.104,22.942,20.14c-0.016,0.499-0.051,0.995-0.051,1.497c0,26.078,21.215,47.294,47.291,47.294h101.887
				c26.076,0,47.291-21.216,47.291-47.339c0-0.487-0.035-0.968-0.05-1.453c8.279-6.035,15.954-12.773,22.941-20.139h17.218
				C459.22,443.069,512,390.285,512,325.405v-40.7C512,280.21,509.001,276.268,504.67,275.068z M358.407,56.796
				c0-20.29,16.506-36.796,36.795-36.796h68.107v12.206c0,36.539-29.727,66.266-66.266,66.266h-31.556
				c-2.262-2.779-4.623-5.468-7.081-8.06V56.796z M114.956,98.471c-36.539,0-66.266-29.727-66.266-66.266V20h68.107
				c20.289,0,36.795,16.506,36.795,36.796v33.615c-2.459,2.592-4.82,5.281-7.082,8.06H114.956z M117.656,423.069
				C62.055,423.214,17.583,376.202,20,320.793l4.799,7.994c14.914,24.844,41.315,40.928,69.999,43.06
				c1.982,7.294,4.448,14.478,7.438,21.497c4.471,10.497,9.983,20.44,16.405,29.725H117.656z M306.943,492h-3.5v-28.548
				c0-5.523-4.477-10-10-10s-10,4.477-10,10V492h-54.887v-28.548c0-5.523-4.477-10-10-10s-10,4.477-10,10V492h-3.5
				c-15.048,0-27.291-12.244-27.291-27.294c0-10.107,5.541-19.337,14.46-24.089l60.596-32.282c1.05-0.56,2.2-0.839,3.351-0.839
				c1.155,0,2.31,0.282,3.362,0.845l60.282,32.254c8.893,4.758,14.417,13.98,14.417,24.112C334.234,479.756,321.992,492,306.943,492
				z M348.599,442.29c-4.327-8.06-10.963-14.845-19.346-19.331l-60.282-32.254c-7.995-4.278-17.547-4.287-25.552-0.022
				l-60.596,32.282c-8.409,4.48-15.066,11.268-19.406,19.337c-18.638-15.147-33.322-34.587-42.781-56.795
				c-9.767-22.931-13.432-47.816-10.809-72.626c1.89,2.13,4.622,3.368,7.481,3.368c1.108,0,2.236-0.186,3.34-0.577
				c5.206-1.844,7.931-7.56,6.086-12.766l-1.937-5.466c-13.894-39.221-50.966-65.368-92.492-65.368
				c-0.373,0-0.754,0.002-1.128,0.006c-3.869,0.08-5.595-2.649-6.157-3.809c-0.563-1.16-1.609-4.184,0.822-7.195l21.754-26.949
				c14.906-18.466,37.066-29.057,60.797-29.057h32.06c5.523,0,10-4.477,10-10c0-4.82-3.411-8.842-7.95-9.788
				C159.916,98.279,205.076,66.324,256,66.324c50.876,0,95.996,31.894,113.444,78.822c-4.958,0.592-8.805,4.804-8.805,9.922
				c0,5.523,4.477,10,10,10h32.642c23.73,0,45.89,10.591,60.796,29.057l22.081,27.354c2.416,2.992,1.392,6.004,0.839,7.16
				c-0.552,1.156-2.252,3.844-6.096,3.844c-42.942,0-81.227,27.268-95.267,67.852l-0.718,2.075
				c-1.806,5.219,0.961,10.914,6.181,12.72c1.083,0.375,2.185,0.553,3.27,0.553c2.988,0,5.832-1.356,7.724-3.66
				c2.801,25.094-0.848,50.288-10.727,73.484C381.909,407.708,367.23,427.145,348.599,442.29z M492,325.405
				c0.032,54.201-44.455,98.223-98.64,97.664c6.422-9.285,11.934-19.229,16.405-29.727c2.989-7.018,5.455-14.201,7.437-21.495
				c28.684-2.131,55.085-18.215,69.999-43.06l4.799-7.994V325.405z"/>
			<circle style="fill:#052A75;" cx="329.84" cy="204.442" r="10"/>
			<circle style="fill:#052A75;" cx="182.16" cy="204.442" r="10"/>
		</g>
	</g>
</g>
<g>
</g>
<g>
</g>
<g>
</g>
<g>
</g>
<g>
</g>
<g>
</g>
<g>
</g>
<g>
</g>
<g>
</g>
<g>
</g>
<g>
</g>
<g>
</g>
<g>
</g>
<g>
</g>
<g>
</g>
</svg>
