<?xml version="1.0" encoding="iso-8859-1"?>
<!-- Generator: Adobe Illustrator 28.3.0, SVG Export Plug-In . SVG Version: 6.00 Build 0)  -->
<svg version="1.1" id="Capa_1" xmlns="http://www.w3.org/2000/svg" xmlns:xlink="http://www.w3.org/1999/xlink" x="0px" y="0px"
	 viewBox="0 0 512 512" style="enable-background:new 0 0 512 512;" xml:space="preserve">
<g>
	<g>
		<g>
			<path style="fill:#FDE0BE;" d="M152.995,146.722l-14.996-92.905c-3.439-21.305-21.83-36.966-43.411-36.966h0
				c-24.285,0-43.973,19.687-43.973,43.973v41.925c0,24.285,19.687,43.973,43.973,43.973H152.995z"/>
			<path style="fill:#FDE0BE;" d="M359.005,146.722l14.996-92.905c3.439-21.305,21.83-36.966,43.411-36.966h0
				c24.285,0,43.973,19.687,43.973,43.973v41.925c0,24.285-19.687,43.973-43.973,43.973H359.005z"/>
			<path style="fill:#F7B073;" d="M152.991,146.726H94.584c-18.284,0-33.958-11.165-40.595-27.05
				c6.386-16.336,14.78-31.96,25.092-46.499c1.667-2.35,2.801-5.02,3.424-7.832c3.785-17.25,11.477-33.416,22.461-47.262
				C121.835,22.18,135.129,36.036,138,53.818L152.991,146.726z"/>
			<path style="fill:#F7B073;" d="M458.011,119.676c-6.637,15.885-22.311,27.05-40.595,27.05h-58.407L374,53.818
				c2.872-17.782,16.166-31.639,33.034-35.735c10.985,13.846,18.676,30.012,22.461,47.262c0.622,2.811,1.757,5.482,3.424,7.832
				C443.231,87.716,451.625,103.339,458.011,119.676z"/>
		</g>
		<path style="fill:#FDE0BE;" d="M256,16.852L256,16.852c113.516,0,199.232,102.94,178.675,214.579l-0.096,0.524
			c-3.353,18.207-9.469,35.795-18.136,52.154L312.161,480.935C305.295,493.895,291.829,502,277.162,502l-42.323,0
			c-14.667,0-28.133-8.105-34.999-21.065L95.556,284.099c-8.667-16.359-14.783-33.946-18.135-52.153l-0.095-0.516
			C56.769,119.792,142.484,16.852,256,16.852z"/>
		<path style="fill:#F7B073;" d="M424.585,130.64c-3.564,9.328-8.394,18.294-14.469,26.648l-23.164,31.87
			c-12.039,16.567-20.875,34.982-26.257,54.742l-36.83,135.059c-8.324,30.524-36.227,51.841-67.866,51.841
			s-59.542-21.317-67.866-51.841l-36.83-135.059c-5.382-19.76-14.218-38.175-26.257-54.742l-23.164-31.87
			c-6.075-8.354-10.904-17.32-14.469-26.648C114.073,64.753,178.565,16.848,256,16.848
			C333.435,16.848,397.927,64.753,424.585,130.64z"/>
		<path style="fill:#D46B5C;" d="M194.833,10l122.335,0c65.164,0,102.822,73.915,64.515,126.63l-23.156,31.866
			c-14.497,19.95-25.251,42.367-31.738,66.16l-36.827,135.063c-4.176,15.315-18.086,25.941-33.961,25.941h0
			c-15.875,0-29.785-10.625-33.961-25.941l-36.827-135.063c-6.488-23.793-17.241-46.209-31.739-66.16l-23.156-31.866
			C92.011,83.915,129.669,10,194.833,10z"/>
	</g>
	<g>
		<g>
			<path style="fill:#B55348;" d="M368.562,132.441c-31.489-17.208-66.751-26.988-102.562-28.528V10c0-5.522-4.478-10-10-10
				s-10,4.478-10,10v93.913c-35.811,1.54-71.073,11.32-102.562,28.528c-4.847,2.648-6.629,8.725-3.98,13.57s8.726,6.63,13.57,3.98
				c28.557-15.605,60.506-24.511,92.973-26.038v81.422c-14.696,1.391-29.153,5.852-42.31,13.39l-15.028,8.609
				c-4.792,2.745-6.451,8.855-3.706,13.647c1.848,3.226,5.218,5.031,8.687,5.031c1.685,0,3.394-0.427,4.961-1.325l15.028-8.609
				c10.088-5.78,21.121-9.318,32.368-10.636v75.942c-5.325,1.313-10.463,3.686-15.106,7.126l-21.766,16.128
				c-4.438,3.287-5.369,9.55-2.081,13.987c3.288,4.438,9.552,5.37,13.987,2.081l21.766-16.127c7.896-5.852,18.506-5.849,26.4-0.001
				l21.766,16.128c1.79,1.327,3.876,1.967,5.945,1.967c3.06,0,6.081-1.4,8.042-4.048c3.288-4.438,2.356-10.7-2.081-13.987
				l-21.766-16.129c-4.643-3.44-9.781-5.813-15.106-7.126v-75.942c11.247,1.318,22.28,4.856,32.368,10.636l15.029,8.609
				c4.793,2.746,10.903,1.086,13.647-3.706c2.745-4.792,1.086-10.902-3.706-13.647l-15.029-8.609
				c-13.156-7.537-27.613-11.999-42.31-13.39v-81.422c32.466,1.527,64.416,10.433,92.973,26.038
				c1.522,0.832,3.165,1.227,4.786,1.227c3.538,0,6.968-1.883,8.784-5.207C375.191,141.166,373.409,135.09,368.562,132.441z"/>
			<path style="fill:#B55348;" d="M331.764,428.249l-52.751,13.259c-9.096,2.286-16.886,7.356-22.567,14.161
				c-5.681-6.805-13.471-11.874-22.567-14.161l-52.752-13.259c-5.354-1.346-10.789,1.904-12.136,7.261s1.904,10.79,7.261,12.136
				l52.751,13.259c10.271,2.582,17.443,11.781,17.443,22.37v11.245c0,5.522,4.478,10,10,10s10-4.478,10-10v-11.245
				c0-10.59,7.173-19.788,17.442-22.37l52.751-13.259c5.356-1.346,8.607-6.779,7.261-12.136
				C342.554,430.154,337.118,426.9,331.764,428.249z"/>
		</g>
		<g>
			<path style="fill:#052A75;" d="M417.412,6.852c-15.083,0-29.187,6.212-39.288,16.964C361.843,8.714,340.269,0,317.167,0H194.833
				c-23.099,0-44.67,8.712-60.951,23.81C123.785,13.055,109.689,6.852,94.588,6.852c-29.761,0-53.973,24.212-53.973,53.973v41.925
				c0,20.559,11.701,39.155,29.723,48.223c-6.813,26.611-7.929,54.675-2.845,82.283l0.093,0.501
				c3.542,19.233,9.979,37.746,19.134,55.024l104.283,196.836C199.625,501.891,216.422,512,234.839,512h42.323
				c18.417,0,35.214-10.109,43.835-26.383L425.279,288.79c9.155-17.281,15.593-35.794,19.133-55.02l0.098-0.529
				c5.083-27.612,3.97-55.668-2.843-82.272c18.019-9.068,29.718-27.659,29.718-48.22V60.824
				C471.385,31.063,447.173,6.852,417.412,6.852z M132.684,58.087C144.834,34.238,168.067,20,194.833,20h122.334
				c26.766,0,49.999,14.238,62.149,38.087s10.011,51.013-5.724,72.665l-23.155,31.865c-15.263,21.004-26.466,44.356-33.297,69.407
				l-36.827,135.063c-2.981,10.935-12.979,18.571-24.313,18.571s-21.332-7.637-24.313-18.571l-36.827-135.063
				c-6.83-25.049-18.032-48.4-33.297-69.407l-23.155-31.865C122.673,109.1,120.533,81.936,132.684,58.087z M60.615,102.749V60.824
				c0-18.732,15.24-33.973,33.973-33.973c10.228,0,19.724,4.52,26.139,12.267c-8.245,11.993-13.584,26.5-15.131,40.664
				c-12.169,15.571-22.367,33.536-29.143,51.694C66.756,125.345,60.615,114.564,60.615,102.749z M424.841,229.614l-0.098,0.529
				c-3.171,17.224-8.938,33.806-17.138,49.283L303.324,476.254c-5.146,9.713-15.17,15.746-26.162,15.746h-42.323
				c-10.992,0-21.017-6.034-26.162-15.747L104.392,279.417c-8.198-15.475-13.964-32.056-17.139-49.297l-0.093-0.501
				c-7.491-40.678,0.014-82.476,20.634-117.746c2.767,10.822,7.592,21.223,14.433,30.637l23.155,31.865
				c13.836,19.04,23.99,40.206,30.182,62.911l36.827,135.063c5.347,19.612,23.279,33.31,43.608,33.31
				c20.328,0,38.261-13.697,43.608-33.31l36.827-135.063c6.192-22.707,16.347-43.873,30.182-62.911l23.155-31.865
				c6.84-9.413,11.664-19.811,14.432-30.632C424.826,147.146,432.333,188.925,424.841,229.614z M451.385,102.749
				c0,11.816-6.138,22.594-15.833,28.726c-6.833-18.306-16.477-35.643-28.792-51.32c-0.114-0.145-0.239-0.276-0.359-0.413
				c-1.552-14.148-6.889-28.641-15.125-40.62c6.418-7.745,15.921-12.271,26.137-12.271c18.732,0,33.973,15.24,33.973,33.973V102.749
				z"/>
			<circle style="fill:#052A75;" cx="124.725" cy="220.403" r="10"/>
			<circle style="fill:#052A75;" cx="387.274" cy="220.403" r="10"/>
		</g>
	</g>
</g>
<g>
</g>
<g>
</g>
<g>
</g>
<g>
</g>
<g>
</g>
<g>
</g>
<g>
</g>
<g>
</g>
<g>
</g>
<g>
</g>
<g>
</g>
<g>
</g>
<g>
</g>
<g>
</g>
<g>
</g>
</svg>
