<?xml version="1.0" encoding="iso-8859-1"?>
<!-- Generator: Adobe Illustrator 28.3.0, SVG Export Plug-In . SVG Version: 6.00 Build 0)  -->
<svg version="1.1" id="Capa_1" xmlns="http://www.w3.org/2000/svg" xmlns:xlink="http://www.w3.org/1999/xlink" x="0px" y="0px"
	 viewBox="0 0 512.035 512.035" style="enable-background:new 0 0 512.035 512.035;" xml:space="preserve">
<g>
	<g>
		<path style="fill:#93B2F4;" d="M445.879,369.514L445.879,369.514c20.527-34.689,23.201-77.11,7.193-114.102l-12.497-28.877
			c-25.094-57.985-89.283-88.387-150.046-71.066l0,0c-22.558,6.43-46.465,6.43-69.023,0l0,0
			C160.743,138.148,96.554,168.55,71.46,226.535l-12.497,28.877c-16.009,36.992-13.335,79.413,7.193,114.102l0.022,0.036
			c25.39,42.906,63.916,76.501,109.879,95.814l31.145,13.087c31.179,13.101,66.317,13.107,97.5,0.016l31.228-13.11
			C381.924,446.049,420.477,412.442,445.879,369.514z"/>
		<path style="fill:#6864F7;" d="M269.208,487.578c-20.92,2.21-42.26-0.83-62.01-9.13l-31.14-13.08
			c-45.96-19.32-84.49-52.91-109.88-95.82l-0.02-0.03c-20.53-34.69-23.2-77.11-7.19-114.11l12.49-28.87
			c20.36-47.03,66.42-75.91,115.52-75.91c3.42,0,6.85,0.14,10.29,0.42c-31.85,37.91-51.03,86.82-51.03,140.21
			C146.238,377.607,196.418,452.237,269.208,487.578z"/>
		<path style="fill:#FDBEB9;" d="M256.018,502.017L256.018,502.017c22.095,0,40.006-17.911,40.006-40.005v-23.367l-39.875-50.02
			l-40.138,50.02v23.367C216.011,484.107,233.923,502.017,256.018,502.017z"/>
		<path style="fill:#FDBEB9;" d="M232.85,445.322h46.335c29.392,0,53.218-23.826,53.218-53.216v-0.105
			c0-15.998-7.197-31.147-19.599-41.253l-44.186-36.006c-7.196-5.864-17.518-5.881-24.733-0.04l-44.522,36.043
			c-12.481,10.104-19.732,25.303-19.732,41.361v0C179.632,421.496,203.458,445.322,232.85,445.322z"/>
		<path style="fill:#FDBEB9;" d="M465.24,247.271l-31.683,33.497c-13.458,14.228-36.192,13.949-49.296-0.605l-44.488-49.41
			c-14.174-15.742-22.018-36.175-22.018-57.358v0c0-62.955,32.373-121.488,85.7-154.952l7.124-4.471
			c12.385-7.772,28.746-3.709,36.057,8.953l37.364,64.713C513.737,139.142,506.107,204.063,465.24,247.271z"/>
		<path style="fill:#FD7DA0;" d="M436.029,221.539l10.673,45.334l-13.143,13.896c-13.465,14.228-36.197,13.947-49.3-0.602
			l-44.491-49.411c-14.168-15.744-22.009-36.177-22.009-57.363c0-31.478,8.093-61.851,22.853-88.529
			c14.76-26.688,36.177-49.682,62.846-66.42l7.119-4.478c12.39-7.772,28.747-3.705,36.057,8.956l10.362,17.953l-14.057,44.46
			C428.8,129.295,426.42,176.386,436.029,221.539z"/>
		<path style="fill:#93B2F4;" d="M396.84,230.335l14.328,60.867c-9.79,0.572-19.78-3.113-26.909-11.035l-44.491-49.411
			c-14.168-15.744-22.009-36.177-22.009-57.363c0-31.478,8.093-61.851,22.853-88.529c14.76-26.688,36.177-49.682,62.846-66.42
			l7.119-4.478c4.378-2.751,9.258-4.016,14.057-3.946l-19.931,63.026C388.356,123.883,385.645,178.123,396.84,230.335z"/>
		<path style="fill:#FDBEB9;" d="M46.795,247.271l31.683,33.497c13.458,14.228,36.192,13.949,49.296-0.605l44.488-49.41
			c14.174-15.742,22.018-36.175,22.018-57.358v0c0-62.955-32.373-121.488-85.7-154.952l-7.124-4.471
			C89.072,6.2,72.71,10.263,65.399,22.925L28.036,87.638C-1.701,139.142,5.928,204.063,46.795,247.271z"/>
		<path style="fill:#FD7DA0;" d="M194.277,173.394c0,21.186-7.842,41.619-22.009,57.363l-44.491,49.411
			c-13.103,14.549-35.836,14.83-49.3,0.602l-12.943-13.685l10.453-45.454c9.619-45.113,7.259-92.174-6.828-136.102L54.579,41.68
			l10.824-18.756c7.31-12.661,23.666-16.728,36.057-8.956l7.119,4.478c26.668,16.738,48.085,39.731,62.845,66.42
			C186.184,111.543,194.277,141.916,194.277,173.394z"/>
		<path style="fill:#93B2F4;" d="M194.277,173.394c0,21.186-7.842,41.619-22.009,57.363l-44.491,49.411
			c-7.049,7.832-16.899,11.527-26.588,11.055l14.007-60.887c11.196-52.212,8.484-106.452-7.862-157.288L86.388,10.061
			c5.121-0.281,10.382,0.964,15.071,3.906l7.119,4.478c26.668,16.738,48.085,39.731,62.845,66.42
			C186.184,111.543,194.277,141.916,194.277,173.394z"/>
	</g>
	<g>
		<g>
			<path style="fill:#DB4B86;" d="M402.233,100.041h81.508c5.523,0,10-4.478,10-10s-4.477-10-10-10h-81.508c-5.523,0-10,4.478-10,10
				S396.71,100.041,402.233,100.041z"/>
			<path style="fill:#DB4B86;" d="M500.964,145.242H392.103c-5.523,0-10,4.478-10,10s4.477,10,10,10h108.861c5.523,0,10-4.478,10-10
				S506.487,145.242,500.964,145.242z"/>
			<path style="fill:#DB4B86;" d="M482.361,210.444h-86.415c-5.523,0-10,4.478-10,10s4.477,10,10,10h86.415c5.523,0,10-4.478,10-10
				S487.884,210.444,482.361,210.444z"/>
			<path style="fill:#DB4B86;" d="M28.294,100.041h81.508c5.523,0,10-4.478,10-10s-4.477-10-10-10H28.294c-5.523,0-10,4.478-10,10
				S22.771,100.041,28.294,100.041z"/>
			<path style="fill:#DB4B86;" d="M119.933,145.242H11.071c-5.523,0-10,4.478-10,10s4.477,10,10,10h108.861c5.523,0,10-4.478,10-10
				S125.456,145.242,119.933,145.242z"/>
			<path style="fill:#DB4B86;" d="M116.089,210.444H29.674c-5.523,0-10,4.478-10,10s4.477,10,10,10h86.415c5.523,0,10-4.478,10-10
				S121.612,210.444,116.089,210.444z"/>
		</g>
		<g>
			<g>
				<g>
					<path style="fill:#FD7DA0;" d="M229.423,410.357c-5.523,0-10-4.478-10-10v-15.248c0-5.522,4.477-10,10-10s10,4.478,10,10
						v15.248C239.423,405.88,234.946,410.357,229.423,410.357z"/>
				</g>
			</g>
			<g>
				<g>
					<path style="fill:#FD7DA0;" d="M282.612,410.357c-5.523,0-10-4.478-10-10v-15.248c0-5.522,4.477-10,10-10s10,4.478,10,10
						v15.248C292.612,405.88,288.135,410.357,282.612,410.357z"/>
				</g>
			</g>
		</g>
		<g>
			<path style="fill:#052A75;" d="M511.028,171.732c3.659-31.136-2.693-61.944-18.369-89.095l-37.363-64.713
				C450.39,9.428,442.443,3.445,432.92,1.08c-2.546-0.632-5.113-0.974-7.667-1.049c-0.12-0.004-0.239-0.007-0.358-0.007
				c-6.876-0.133-13.646,1.721-19.632,5.477l-7.124,4.471c-27.595,17.317-50.516,41.54-66.283,70.048
				c-10.574,19.119-17.787,39.941-21.403,61.407c-7.644,0.832-15.242,2.309-22.666,4.425c-20.783,5.926-42.756,5.926-63.54,0
				c-7.421-2.115-15.026-3.592-22.665-4.423c-3.616-21.467-10.829-42.29-21.403-61.409c-15.767-28.508-38.688-52.73-66.283-70.048
				l-7.124-4.471c-5.98-3.751-12.742-5.605-19.611-5.477c-0.135-0.001-0.271,0.003-0.407,0.008c-2.545,0.077-5.103,0.418-7.64,1.048
				c-9.523,2.365-17.47,8.348-22.375,16.845L19.376,82.638C3.7,109.788-2.652,140.597,1.007,171.732
				c3.659,31.136,16.98,59.633,38.523,82.41l6.528,6.902c-13.092,37.811-8.985,78.96,11.513,113.598
				c26.299,44.442,67.002,79.936,114.611,99.94l31.145,13.087c4.183,1.758,8.508,3.325,12.855,4.657
				c0.043,0.013,0.086,0.022,0.128,0.034c9.147,11.938,23.539,19.656,39.706,19.656c16.182,0,30.586-7.732,39.731-19.688
				c0.006-0.002,0.013-0.003,0.019-0.005c4.325-1.325,8.632-2.885,12.805-4.636l31.228-13.11
				c47.643-20.001,88.372-55.505,114.685-99.972c20.466-34.584,24.584-75.754,11.495-113.565l6.525-6.898
				C494.048,231.365,507.369,202.868,511.028,171.732z M437.976,27.925l37.363,64.713c13.505,23.392,18.978,49.936,15.826,76.761
				s-14.629,51.377-33.19,71l-31.683,33.498c-2.475,2.617-5.416,4.57-8.651,5.807l-11.026-51.461
				c-10.805-50.431-8.176-103.039,7.604-152.14l17.434-54.248C434.268,23.226,436.457,25.294,437.976,27.925z M349.358,89.699
				c14.192-25.66,34.853-47.448,59.724-62.982l-13.905,43.267c-16.849,52.428-19.657,108.602-8.119,162.448l9.705,45.296
				c-1.852-1.157-3.56-2.578-5.072-4.257l-44.488-49.41c-12.542-13.929-19.449-31.923-19.449-50.667
				C327.755,144.194,335.225,115.253,349.358,89.699z M162.677,89.699c14.133,25.554,21.603,54.495,21.603,83.695
				c0,18.744-6.907,36.738-19.449,50.667l-44.487,49.41c-1.512,1.679-3.22,3.1-5.072,4.257l9.705-45.296
				c11.538-53.847,8.73-110.021-8.119-162.448l-13.905-43.267C127.825,42.251,148.486,64.039,162.677,89.699z M20.871,169.398
				c-3.152-26.825,2.32-53.369,15.826-76.761L74.06,27.925c1.519-2.63,3.707-4.699,6.323-6.069l17.434,54.248
				c15.78,49.101,18.41,101.709,7.604,152.14L94.394,279.71c-3.232-1.243-6.181-3.204-8.65-5.815l-31.683-33.497
				C35.5,220.775,24.023,196.224,20.871,169.398z M279.185,435.321H232.85c-23.831,0-43.218-19.387-43.218-43.216
				c0-13.102,5.84-25.345,16.024-33.588l44.522-36.044c1.754-1.42,3.902-2.13,6.049-2.13c2.158,0,4.316,0.717,6.074,2.149
				l44.186,36.007c10.115,8.242,15.916,20.453,15.916,33.501v0.104C322.403,415.934,303.016,435.321,279.185,435.321z
				 M256.018,492.017c-16.545,0-30.006-13.46-30.006-30.005v-7.067c2.248,0.243,4.528,0.376,6.839,0.376h46.335
				c2.311,0,4.591-0.133,6.839-0.376v7.067C286.024,478.558,272.563,492.017,256.018,492.017z M437.273,364.421
				c-24.14,40.795-61.506,73.367-105.214,91.716l-26.302,11.043c0.175-1.699,0.266-3.422,0.266-5.167v-12.688
				c21.474-10.113,36.379-31.953,36.379-57.219v-0.104c0-19.087-8.486-36.948-23.282-49.005l-44.186-36.007
				c-10.804-8.806-26.509-8.831-37.342-0.061l-44.522,36.044c-14.896,12.059-23.44,29.967-23.44,49.133
				c0,25.266,14.905,47.107,36.379,57.219v12.688c0,1.758,0.094,3.494,0.271,5.206l-26.352-11.073
				c-43.678-18.354-81.02-50.916-105.169-91.725c-15.628-26.409-20.068-57.286-12.829-86.594l9.281,9.812
				c8.009,8.468,19.163,13.37,30.785,13.6c12.568,0.299,24.803-5.05,33.208-14.384l44.488-49.41
				c15.854-17.608,24.586-40.355,24.586-64.05c0-3.843-0.126-7.68-0.356-11.509c4.999,0.743,9.965,1.811,14.84,3.2
				c12.187,3.474,24.718,5.21,37.253,5.21c12.532,0,25.069-1.737,37.252-5.21c4.877-1.39,9.841-2.453,14.841-3.196
				c-0.23,3.827-0.356,7.664-0.356,11.505c0,23.694,8.731,46.441,24.586,64.05l44.488,49.41
				c8.109,9.005,19.708,14.255,31.825,14.403c12.083,0.115,23.848-4.801,32.168-13.618l9.281-9.812
				C457.338,307.138,452.892,338.027,437.273,364.421z"/>
			<circle style="fill:#052A75;" cx="192.909" cy="296.641" r="10"/>
			<circle style="fill:#052A75;" cx="319.126" cy="296.641" r="10"/>
		</g>
	</g>
</g>
<g>
</g>
<g>
</g>
<g>
</g>
<g>
</g>
<g>
</g>
<g>
</g>
<g>
</g>
<g>
</g>
<g>
</g>
<g>
</g>
<g>
</g>
<g>
</g>
<g>
</g>
<g>
</g>
<g>
</g>
</svg>
