<?xml version="1.0" encoding="iso-8859-1"?>
<!-- Generator: Adobe Illustrator 28.3.0, SVG Export Plug-In . SVG Version: 6.00 Build 0)  -->
<svg version="1.1" id="Capa_1" xmlns="http://www.w3.org/2000/svg" xmlns:xlink="http://www.w3.org/1999/xlink" x="0px" y="0px"
	 viewBox="0 0 512.465 512.465" style="enable-background:new 0 0 512.465 512.465;" xml:space="preserve">
<g>
	<g>
		<g>
			<path style="fill:#D46B5C;" d="M24.59,132.408l5.46,9.475c8.208,14.245,26.556,19.171,40.773,10.947l80.805-46.745
				l-46.653-80.964C96.767,10.876,78.419,5.95,64.202,14.174l-9.456,5.47C15.504,42.346,1.934,93.089,24.59,132.408z"/>
			<path style="fill:#B55348;" d="M151.627,106.08l-80.808,46.75c-14.208,8.223-32.562,3.293-40.766-10.945l-5.462-9.479
				c-3.042-5.291-5.442-10.784-7.199-16.387c13.886-24.409,31.548-46.74,52.604-66.169c10.633-9.82,21.929-18.716,33.787-26.638
				c0.422,0.613,0.813,1.255,1.195,1.908L151.627,106.08z"/>
		</g>
		<g>
			<path style="fill:#D46B5C;" d="M487.879,132.408l-5.46,9.475c-8.208,14.245-26.556,19.171-40.773,10.947l-80.805-46.745
				l46.653-80.964c8.208-14.245,26.556-19.171,40.773-10.947l9.456,5.47C496.965,42.346,510.535,93.089,487.879,132.408z"/>
			<path style="fill:#B55348;" d="M495.083,116.031c-1.757,5.603-4.157,11.085-7.199,16.377l-5.462,9.479
				c-8.213,14.238-26.558,19.168-40.776,10.945l-80.808-46.75l46.66-80.959c0.382-0.653,0.773-1.295,1.195-1.908
				c11.858,7.922,23.154,16.818,33.787,26.638C463.525,69.281,481.207,91.622,495.083,116.031z"/>
		</g>
		<g>
			<path style="fill:#D46B5C;" d="M301.97,473.838L301.97,473.838c-29.719-9.2-61.515-9.204-91.236-0.012l-0.276,0.085
				C105.902,506.249,1.83,422.509,10.77,313.237l6.592-80.578C27.556,108.055,131.459,12.133,256.234,12.133h0
				c124.776,0,228.678,95.922,238.872,220.526l6.587,80.516C510.636,422.463,406.532,506.206,301.97,473.838z"/>
		</g>
		<g>
			<path style="fill:#B55348;" d="M250.262,467.051c-13.34,0.52-26.63,2.78-39.53,6.78l-0.27,0.08
				c-104.56,32.34-208.63-51.4-199.69-160.67l6.59-80.58c7.77-94.96,69.96-173.26,154.34-205.15
				c-41.69,50.66-66.72,115.54-66.72,186.27C104.982,321.781,163.352,416.151,250.262,467.051z"/>
		</g>
		<g>
			<path style="fill:#FFFFFF;" d="M279.546,502.191h-46.623c-16.975,0-30.736-13.761-30.736-30.736V369.38h108.094v102.075
				C310.282,488.43,296.521,502.191,279.546,502.191z"/>
			<path style="fill:#D2DCFD;" d="M310.282,369.381v99.143c-3.002,0.261-6.035,0.392-9.097,0.392h-89.906
				c-3.062,0-6.095-0.131-9.087-0.392v-99.143H310.282z"/>
		</g>
		<g>
			<path style="fill:#FDE0BE;" d="M301.467,431.765h-90.465c-37.992,0-68.79-30.798-68.79-68.79v-48.143
				c0-58.17,47.156-105.327,105.327-105.327h17.392c58.17,0,105.327,47.156,105.327,105.327v48.143
				C370.257,400.967,339.459,431.765,301.467,431.765z"/>
			<path style="fill:#F7B073;" d="M360.145,270.087c-10.754,40.133-47.443,69.774-90.93,69.774h-25.966
				c-43.477,0-80.176-29.64-90.93-69.774c16.939-35.816,53.397-60.586,95.649-60.586h16.527
				C306.748,209.501,343.216,234.272,360.145,270.087z"/>
			<path style="fill:#D46B5C;" d="M269.448,302.706h-26.426c-31.214,0-56.752-25.538-56.752-56.752v-7.829
				c0-19.625,16.057-35.683,35.683-35.683h68.565c19.625,0,35.683,16.057,35.683,35.683v7.829
				C326.2,277.167,300.662,302.706,269.448,302.706z"/>
		</g>
	</g>
	<g>
		<g>
			<g>
				<path style="fill:#93B2F4;" d="M256.235,512.191c-5.523,0-10-4.477-10-10v-64.424c0-5.523,4.477-10,10-10
					c5.523,0,10,4.477,10,10v64.424C266.235,507.714,261.758,512.191,256.235,512.191z"/>
			</g>
			<g>
				<path style="fill:#FD8F01;" d="M256.235,441.765c-5.523,0-10-4.477-10-10V302.706c0-5.523,4.477-10,10-10
					c5.523,0,10,4.477,10,10v129.059C266.235,437.288,261.758,441.765,256.235,441.765z"/>
			</g>
		</g>
		<g>
			<path style="fill:#052A75;" d="M511.661,312.359l-6.587-80.516c-2.23-27.251-8.829-53.615-19.359-78.22
				c17.71-20.256,25.857-48.244,21.872-75.899c-4.133-28.684-20.393-52.939-44.633-66.612
				c-14.527-9.651-27.201-12.966-38.736-10.135c-17.273,4.239-26.965,20.594-36.755,38.471
				C348.307,15.173,303.045,2.133,256.235,2.133c-46.803,0-92.058,13.036-131.21,37.305C115.573,22.15,105.378,5.186,88.104,0.971
				C76.531-1.853,63.9,1.468,49.497,11.124C25.241,24.809,8.985,49.091,4.87,77.813c-3.96,27.64,4.192,55.585,21.888,75.803
				C16.225,178.224,9.625,204.59,7.395,231.844l-6.592,80.578c-4.376,53.488,16.472,104.119,57.199,138.911
				c19.301,16.488,42.383,28.467,66.753,34.642c13.132,3.328,26.402,4.992,39.716,4.992c10.59,0,21.207-1.071,31.803-3.177
				c5.963,15.347,18.511,23.786,36.435,24.394c0.094,0.003,0.188,0.005,0.283,0.006c4.98,0.028,9.665,0.089,14.07,0.146
				c5.11,0.066,9.88,0.128,14.345,0.128c22.458,0,37.085-1.573,47.227-12.073c3.148-3.259,5.776-7.105,7.775-12.622
				c23.779,4.695,47.667,4.104,71.12-1.811c24.396-6.152,47.507-18.118,66.836-34.604
				C495.157,416.561,516.042,365.899,511.661,312.359z M428.984,20.401c5.773-1.416,13.575,1.123,23.176,7.553
				c0.225,0.151,0.456,0.292,0.692,0.424c18.947,10.572,31.682,29.598,34.939,52.2c2.719,18.864-1.637,37.865-11.782,52.928
				c-13.007-24.146-30.015-46.192-50.587-65.184c-6.817-6.294-13.943-12.159-21.328-17.605
				C412.033,36.174,419.604,22.703,428.984,20.401z M24.668,80.65C27.911,58.01,40.65,38.958,59.616,28.379
				c0.25-0.14,0.493-0.29,0.73-0.45c9.479-6.409,17.222-8.942,23.016-7.529c9.467,2.31,17.083,15.702,25.027,30.305
				C101,56.155,93.869,62.024,87.047,68.322c-20.571,18.991-37.578,41.036-50.585,65.18C26.328,118.469,21.967,99.5,24.668,80.65z
				 M176.615,251.398c1.671,18.215,8.72,32.872,21.025,43.599c13.831,12.057,34.11,18.42,58.083,18.42
				c4.466,0,9.065-0.221,13.77-0.667c20.101,1.601,39.164-8.038,52.421-26.574c7.704-10.772,12.478-23.229,14.048-35.432
				c24.6,27.309,26.474,69.303,24.304,111.438c-0.003,0.062-0.006,0.125-0.008,0.188c-1.914,58.487-49.93,61.651-117.561,59.74
				c-11.182-0.317-21.749-0.616-31.514-0.348c-19.905-0.188-45.903-8.704-57.118-48.063
				C142.402,332.766,153.28,279.845,176.615,251.398z M240.977,211.67c6.75,0,13.7,0.312,20.382,0.61
				c10.488,0.469,20.417,0.914,29.077,0.207c11.501,1.3,19.328,6.342,23.269,14.995c5.864,12.874,2.551,32.225-8.058,47.059
				c-5.411,7.566-17.172,20-35.217,18.214c-0.661-0.065-1.327-0.064-1.987,0.002c-24.81,2.507-45.289-2.051-57.66-12.835
				c-9.098-7.932-13.983-19.482-14.52-34.331c-0.005-0.126-0.012-0.252-0.021-0.377c-0.817-11.037,1.173-18.86,6.084-23.916
				C209.968,213.429,224.915,211.67,240.977,211.67z M294.246,486.497c-6.153,6.371-22.37,6.163-46.925,5.84
				c-4.407-0.057-9.091-0.118-14.068-0.147c-19.043-0.702-22.119-12.752-21.23-46.228c0.038-1.433,0.073-2.832,0.104-4.217
				c9.114-0.233,19.264,0.051,30.006,0.355c8.533,0.241,17.398,0.492,26.339,0.492c10.756,0,21.616-0.367,32.118-1.547
				C301.315,461.303,300.673,479.843,294.246,486.497z M441.384,436.138c-34.082,29.07-77.921,40.543-121.215,31.988
				c0.659-8.02,0.783-17.972,0.296-30.545c3.234-0.799,6.404-1.707,9.479-2.762c32.155-11.034,49.078-35.157,50.301-71.702
				c1.216-23.679,1.608-51.328-4.661-76.966c-6.998-28.617-20.937-49.632-42.546-64.225c-5.641-14.913-18.025-24.981-34.673-28.408
				c14.297-38.904,27.789-68.971,61.639-67.167c19.975-1.444,37.328,16.625,52.646,32.565c1.889,1.965,3.733,3.884,5.535,5.717
				c3.871,3.938,10.202,3.994,14.142,0.122c3.939-3.871,3.994-10.203,0.122-14.142c-1.751-1.782-3.543-3.646-5.378-5.557
				c-17.356-18.06-38.925-40.513-67.997-38.688c-47.803-2.933-69.043,48.514-81.832,86.46c-4.713-0.072-9.774-0.296-14.989-0.529
				c-8.955-0.401-18.309-0.816-27.435-0.538c-7.498-19.645-14.675-41.404-27.777-58.736c-13.816-18.17-31.864-27.132-53.647-26.656
				c-29.069-1.832-50.64,20.628-67.996,38.688c-1.835,1.91-3.628,3.775-5.379,5.558c-3.872,3.939-3.817,10.271,0.122,14.142
				c3.938,3.871,10.269,3.817,14.142-0.122c1.802-1.834,3.647-3.753,5.536-5.718c15.318-15.939,32.688-34.012,52.646-32.564
				c33.976-1.905,47.58,28.795,61.819,67.646c-10.204,2.176-19.349,6.203-26.305,13.364c-4.037,4.157-7.045,9.119-9.032,14.84
				c-19.34,13.105-34.566,37.083-43.013,67.846c-8.265,30.102-8.667,62.588-1.104,89.13c5.268,18.488,14.01,33.306,25.984,44.041
				c9.002,8.071,19.505,13.516,31.354,16.319c-0.033,1.899-0.085,3.867-0.139,5.893c-0.193,7.286-0.397,15.108,0.191,22.771
				c-43.31,8.532-87.162-2.976-121.228-32.078c-35.784-30.569-54.102-75.063-50.256-122.073l6.592-80.578
				c4.725-57.757,30.752-111.191,73.285-150.457c42.528-39.262,97.795-60.884,155.621-60.884
				c57.825,0,113.093,21.623,155.621,60.884c42.533,39.266,68.56,92.7,73.285,150.457l6.587,80.516
				C495.577,361.045,477.228,405.567,441.384,436.138z"/>
			<g>
				<circle style="fill:#052A75;" cx="154.492" cy="168.216" r="10"/>
				<circle style="fill:#052A75;" cx="357.982" cy="168.216" r="10"/>
			</g>
		</g>
	</g>
</g>
<g>
</g>
<g>
</g>
<g>
</g>
<g>
</g>
<g>
</g>
<g>
</g>
<g>
</g>
<g>
</g>
<g>
</g>
<g>
</g>
<g>
</g>
<g>
</g>
<g>
</g>
<g>
</g>
<g>
</g>
</svg>
