<?xml version="1.0" encoding="iso-8859-1"?>
<!-- Generator: Adobe Illustrator 28.3.0, SVG Export Plug-In . SVG Version: 6.00 Build 0)  -->
<svg version="1.1" id="Capa_1" xmlns="http://www.w3.org/2000/svg" xmlns:xlink="http://www.w3.org/1999/xlink" x="0px" y="0px"
	 viewBox="0 0 512 512" style="enable-background:new 0 0 512 512;" xml:space="preserve">
<g>
	<g>
		<path style="fill:#93B2F4;" d="M190.345,441.632H321.73c28.068,0,54.221-14.235,69.458-37.807l7.614-11.778
			c18.116-28.024,17.616-64.188-1.266-91.701l0,0c-6.066-8.839-10.357-18.774-12.631-29.25l-12.815-59.017
			c-8.258-38.029-41.909-65.157-80.824-65.157h-70.456c-38.915,0-72.566,27.128-80.824,65.157l-12.736,58.653
			c-2.26,10.408-6.509,20.281-12.513,29.077l-0.398,0.583c-18.769,27.498-19.222,63.569-1.148,91.528l7.696,11.905
			C136.124,427.397,162.277,441.632,190.345,441.632z"/>
		<path style="fill:#6864F7;" d="M374.107,393.76l-29.942,28.295c-2.038,1.918-3.655,4.297-4.699,6.888l-4.689,11.657
			c-4.277,0.683-8.635,1.034-13.043,1.034H190.35c-4.438,0-8.826-0.351-13.133-1.054l-4.689-11.637
			c-1.044-2.591-2.661-4.97-4.699-6.888l-29.942-28.295c-14.981-14.147-19.73-35.665-12.119-54.803
			c7.611-19.148,25.845-31.518,46.449-31.518h4.681c5.632,0,10.653-3.549,12.532-8.858l3.973-11.224
			c8.284-23.445,30.574-39.209,55.445-39.209h14.298c24.871,0,47.162,15.764,55.445,39.209l3.973,11.224
			c1.879,5.309,6.9,8.858,12.532,8.858h4.681c20.604,0,38.838,12.37,46.449,31.518C393.837,358.095,389.087,379.612,374.107,393.76z
			"/>
		<path style="fill:#FD8F01;" d="M256.039,315.267L256.039,315.267c10.282,0,19.309-6.838,22.094-16.735l12.196-43.343
			c2.788-9.908,7.564-19.145,14.038-27.147l20.899-25.834c19.364-23.936,22.329-57.205,7.504-84.189l-50.975-92.783
			C276.632,15.839,266.761,10,256.039,10h0c-10.722,0-20.593,5.839-25.756,15.237l-50.975,92.783
			c-14.825,26.983-11.859,60.253,7.504,84.189l20.899,25.834c6.474,8.002,11.25,17.239,14.038,27.147l12.196,43.343
			C236.73,308.429,245.757,315.267,256.039,315.267z"/>
		<path style="fill:#FD6050;" d="M290.416,254.875c-0.03,0.1-0.06,0.211-0.09,0.311l-12.19,43.346
			c-2.791,9.9-11.818,16.738-22.1,16.738c-10.282,0-19.309-6.838-22.09-16.738l-12.2-43.346c-0.03-0.11-0.06-0.231-0.1-0.341
			c8.223-4.307,17.521-6.697,27.201-6.697h14.298C272.855,248.148,282.173,250.548,290.416,254.875z"/>
		<path style="fill:#D46B5C;" d="M256.196,502h-0.399c-9.661,0-18.352-5.871-21.958-14.833l-28.708-71.339
			c-2.943-7.314-7.434-13.904-13.164-19.318l-29.946-28.294c-9.76-9.222-3.234-25.632,10.194-25.632l22.195,0
			c10.031,0,18.972-6.322,22.316-15.779l9.805-27.731c3.344-9.457,12.285-15.779,22.316-15.779h14.301
			c10.031,0,18.972,6.322,22.316,15.779l9.805,27.731c3.344,9.457,12.285,15.779,22.316,15.779l22.195,0
			c13.427,0,19.954,16.41,10.194,25.632l-29.946,28.294c-5.73,5.414-10.221,12.004-13.164,19.318l-28.708,71.339
			C274.548,496.129,265.856,502,256.196,502z"/>
	</g>
	<g>
		<g>
			<g>
				<path style="fill:#FD6050;" d="M256.039,289.478c-5.523,0-10-4.478-10-10V10c0-5.522,4.477-10,10-10s10,4.478,10,10v269.478
					C266.039,285,261.562,289.478,256.039,289.478z"/>
			</g>
			<circle style="fill:#B55348;" cx="233.396" cy="376.551" r="10"/>
			<circle style="fill:#B55348;" cx="278.577" cy="376.551" r="10"/>
		</g>
		<g>
			<path style="fill:#052A75;" d="M405.781,294.688c-5.358-7.809-9.095-16.46-11.104-25.715l-12.815-59.017
				c-4.233-19.491-14.79-37.248-29.822-50.312c0.94-15.79-2.502-31.874-10.505-46.441l-50.975-92.783
				C283.638,7.825,270.41,0,256.039,0c-14.372,0-27.599,7.825-34.52,20.421l-50.976,92.783
				c-8.003,14.567-11.445,30.651-10.505,46.44c-15.031,13.062-25.594,30.828-29.825,50.313l-12.736,58.653
				c-1.996,9.191-5.696,17.791-11,25.562l-0.398,0.583c-21.094,30.901-21.599,71.173-1.287,102.595l7.696,11.904
				c17.153,26.536,46.258,42.378,77.856,42.378h18.415l15.802,39.269c5.158,12.817,17.418,21.1,31.235,21.1h0.398
				c13.817,0,26.078-8.282,31.235-21.1l15.802-39.269h18.497c31.598,0,60.703-15.842,77.856-42.378l7.614-11.777
				C427.568,365.968,427.011,325.621,405.781,294.688z M188.072,122.835l50.976-92.783c3.407-6.2,9.917-10.052,16.991-10.052
				s13.585,3.852,16.992,10.052l50.975,92.783c12.925,23.526,10.368,52.214-6.515,73.084l-20.899,25.834
				c-7.37,9.108-12.715,19.447-15.89,30.728l-6.4,22.746c-3.524-1.243-7.28-1.932-11.155-1.932h-14.301
				c-3.847,0-7.577,0.678-11.078,1.904l-6.393-22.718c-3.174-11.28-8.52-21.619-15.89-30.728l-20.899-25.834
				C177.704,175.049,175.147,146.362,188.072,122.835z M190.345,431.632c-24.781,0-47.607-12.425-61.061-33.235l-7.695-11.904
				c-15.93-24.644-15.534-56.227,1.009-80.462l0.398-0.583c6.762-9.908,11.48-20.874,14.025-32.593l12.736-58.653
				c2.473-11.388,7.709-22.023,15.09-30.948c3.204,8.977,7.943,17.521,14.19,25.244l20.899,25.835
				c5.652,6.985,9.752,14.914,12.187,23.566l8.602,30.571c-1.474,2.238-2.703,4.669-3.623,7.271l-9.806,27.731
				c-1.927,5.45-7.106,9.112-12.888,9.112h-22.195c-10.239,0-19.3,6.147-23.084,15.662c-3.784,9.515-1.42,20.206,6.023,27.238
				l29.945,28.293c4.715,4.455,8.334,9.766,10.756,15.783l4.858,12.071H190.345z M297.585,412.094l-28.708,71.34
				c-2.094,5.204-7.072,8.566-12.682,8.566h-0.398c-5.61,0-10.587-3.362-12.682-8.566l-28.708-71.34
				c-3.457-8.591-8.842-16.493-15.574-22.854l-29.946-28.293c-2.156-2.037-1.539-4.392-1.174-5.311
				c0.365-0.918,1.535-3.053,4.5-3.053h22.195c14.24,0,26.997-9.021,31.744-22.445l9.806-27.73
				c1.927-5.451,7.106-9.113,12.887-9.113h14.301c5.781,0,10.96,3.662,12.888,9.113l9.805,27.73
				c4.747,13.425,17.504,22.445,31.744,22.445h22.195c2.965,0,4.135,2.135,4.5,3.053c0.365,0.919,0.981,3.273-1.174,5.311
				l-29.946,28.293C306.428,395.601,301.042,403.503,297.585,412.094z M390.404,386.619l-7.614,11.777
				c-13.453,20.811-36.279,33.235-61.061,33.235h-10.448l4.858-12.071c2.422-6.018,6.041-11.328,10.755-15.783l29.946-28.293
				c7.443-7.032,9.807-17.724,6.023-27.238c-3.784-9.515-12.845-15.662-23.084-15.662h-22.195c-5.781,0-10.96-3.662-12.888-9.113
				l-9.805-27.729c-0.908-2.568-2.114-4.972-3.562-7.185l8.626-30.657c2.435-8.652,6.535-16.581,12.187-23.567l20.899-25.834
				c6.247-7.722,10.985-16.266,14.189-25.242c7.379,8.923,12.614,19.555,15.088,30.947l12.815,59.017
				c2.562,11.8,7.326,22.831,14.159,32.787C405.941,330.265,406.378,361.908,390.404,386.619z"/>
			<circle style="fill:#052A75;" cx="178.716" cy="279.481" r="10"/>
			<circle style="fill:#052A75;" cx="333.256" cy="279.481" r="10"/>
		</g>
	</g>
</g>
<g>
</g>
<g>
</g>
<g>
</g>
<g>
</g>
<g>
</g>
<g>
</g>
<g>
</g>
<g>
</g>
<g>
</g>
<g>
</g>
<g>
</g>
<g>
</g>
<g>
</g>
<g>
</g>
<g>
</g>
</svg>
