<?xml version="1.0" encoding="iso-8859-1"?>
<!-- Generator: Adobe Illustrator 28.3.0, SVG Export Plug-In . SVG Version: 6.00 Build 0)  -->
<svg version="1.1" id="Capa_1" xmlns="http://www.w3.org/2000/svg" xmlns:xlink="http://www.w3.org/1999/xlink" x="0px" y="0px"
	 viewBox="0 0 511.971 511.971" style="enable-background:new 0 0 511.971 511.971;" xml:space="preserve">
<g>
	<g>
		<g>
			<path style="fill:#FDCB50;" d="M454.99,125.611l-22.29,12.869L319.413,74.624l126.858-61.856
				c13.031-6.354,28.756-1.545,36.004,11.01l0,0C502.861,59.433,490.645,105.025,454.99,125.611z"/>
			<path style="fill:#FDCB50;" d="M56.981,125.611l22.29,12.869l113.286-63.856L65.699,12.768
				c-13.031-6.354-28.756-1.545-36.004,11.01l0,0C9.109,59.433,21.326,105.025,56.981,125.611z"/>
			<path style="fill:#FD8F01;" d="M192.557,74.624l-113.291,63.86l-22.291-12.872c-5.934-3.424-11.226-7.551-15.814-12.21
				c7.741-16.377,20.483-30.263,36.88-39.35c2.761-1.536,4.95-3.836,6.346-6.667L97.34,41.037c1.707-3.474,3.554-6.848,5.563-10.131
				L192.557,74.624z"/>
			<path style="fill:#FD8F01;" d="M470.778,113.431v0.01c-4.579,4.639-9.86,8.746-15.784,12.169l-22.291,12.872l-113.291-63.86
				l89.634-43.698c2.008,3.293,3.876,6.697,5.583,10.181l12.923,26.337c1.386,2.821,3.574,5.131,6.316,6.657l0.261,0.141
				C450.396,83.309,463.067,97.135,470.778,113.431z"/>
		</g>
		<path style="fill:#FDCB50;" d="M327.169,405.688H184.807c-45.898,0-83.105-37.209-83.102-83.107l0.005-88.605
			c0-9.035-5.558-17.139-13.986-20.393l-0.362-0.14c-8.758-3.381-14.486-11.727-14.484-21.039
			c0.001-6.873,0.001-25.269,0.001-41.419c0-17.379,9.431-33.385,24.632-41.808l0,0c9.922-5.498,17.922-13.902,22.925-24.082
			l12.948-26.35c14.658-29.829,45.002-48.727,78.237-48.727h88.694c33.257,0,63.616,18.922,78.263,48.779l12.919,26.335
			c4.983,10.157,12.949,18.55,22.832,24.055l0.227,0.126c15.148,8.438,24.539,24.418,24.539,41.758v41.334
			c0,9.308-5.726,17.657-14.41,21.009l0,0c-8.683,3.352-14.41,11.701-14.41,21.009v88.157
			C410.275,368.48,373.067,405.688,327.169,405.688z"/>
		<path style="fill:#FD8F01;" d="M380.853,350.957v35.063c-14.479,12.27-33.215,19.67-53.688,19.67H184.806
			c-20.483,0-39.229-7.41-53.718-19.7v-35.032c0-22.14,5.703-43.406,16.608-62.283v-0.864c0-50.636,41.197-91.833,91.843-91.833
			h32.894c50.646,0,91.843,41.197,91.843,91.833v0.914C375.16,307.58,380.853,328.837,380.853,350.957z"/>
		<path style="fill:#FDE0BE;" d="M310.39,279.728H201.581l16.98-127.447c2.499-18.759,18.5-32.769,37.424-32.769h0
			c18.924,0,34.925,14.01,37.424,32.769L310.39,279.728z"/>
		<path style="fill:#F7B073;" d="M310.386,279.727H201.584l10.603-79.593c8.645-2.701,17.833-4.157,27.351-4.157h32.894
			c9.519,0,18.706,1.456,27.351,4.157L310.386,279.727z"/>
		<path style="fill:#F7B073;" d="M259.05,501.971h-6.157c-25.184,0-45.79-20.605-45.79-45.79v-33.283
			c0-25.184,20.605-45.79,45.79-45.79h6.157c25.184,0,45.79,20.605,45.79,45.79v33.283
			C304.84,481.365,284.235,501.971,259.05,501.971z"/>
		<path style="fill:#FDE0BE;" d="M304.346,452.371l-30.609-7.714c-11.652-2.936-23.851-2.937-35.503-0.001l-30.638,7.718
			c-18.447,4.647-36.343-9.299-36.343-28.323v-73.098c0-46.789,37.93-84.719,84.719-84.719h0c46.789,0,84.719,37.93,84.719,84.719
			v73.095C340.691,443.073,322.793,457.02,304.346,452.371z"/>
		<path style="fill:#F7B073;" d="M340.69,350.957v2.641c-13.314,12.481-31.197,20.132-50.847,20.132h-67.715
			c-19.66,0-37.563-7.661-50.877-20.162v-2.611c0-46.79,37.934-84.724,84.724-84.724c23.395,0,44.571,9.478,59.904,24.821
			C331.211,306.376,340.69,327.562,340.69,350.957z"/>
		<path style="fill:#D46B5C;" d="M289.982,333.567h-67.993c-18.77,0-34.127-15.357-34.127-34.127v-11.838
			c0-28.307,23.16-51.467,51.467-51.467h33.313c28.307,0,51.467,23.16,51.467,51.467v11.838
			C324.109,318.21,308.752,333.567,289.982,333.567z"/>
	</g>
	<g>
		<path style="fill:#B55348;" d="M329.111,269.255c-1.346-5.355-6.781-8.607-12.136-7.261l-34.54,8.682
			c-10.832,2.723-20.011,8.971-26.45,17.335c-6.439-8.364-15.618-14.612-26.45-17.335l-34.54-8.682
			c-5.353-1.35-10.789,1.904-12.136,7.261c-1.346,5.356,1.904,10.79,7.261,12.136l34.54,8.682
			c12.556,3.156,21.325,14.402,21.325,27.35v12.991c0,5.522,4.477,10,10,10c5.522,0,10-4.478,10-10v-12.991
			c0-12.947,8.77-24.193,21.325-27.35l34.54-8.682C327.207,280.045,330.458,274.611,329.111,269.255z"/>
		<path style="fill:#052A75;" d="M490.936,18.777c-9.829-17.026-31.373-23.615-49.047-14.998l-66.097,32.228
			c-6.758-8.338-14.871-15.543-24.078-21.282c-15.438-9.621-33.211-14.707-51.399-14.707H211.62
			c-18.178,0-35.942,5.079-51.372,14.689c-9.213,5.738-17.333,12.945-24.096,21.287L70.082,3.779
			C52.409-4.839,30.866,1.751,21.035,18.777C9.743,38.335,6.743,61.119,12.588,82.934c5.845,21.813,19.835,40.046,39.393,51.337
			l11.759,6.789c-0.566,3.247-0.862,6.566-0.862,9.927l0,41.417c-0.002,13.551,8.195,25.471,20.883,30.369l0.361,0.14
			c4.539,1.752,7.589,6.198,7.588,11.063l-0.005,88.604c-0.002,42.453,28.941,79.492,69.548,90.08v11.391
			c0,12.171,5.506,23.443,15.106,30.925c6.233,4.858,13.593,7.645,21.22,8.194c3.536,27.486,27.068,48.8,55.501,48.8h5.783
			c28.437,0,51.972-21.32,55.503-48.811c7.625-0.549,14.984-3.328,21.216-8.184c9.602-7.481,15.108-18.754,15.108-30.927v-11.374
			c40.599-10.578,69.584-47.699,69.584-90.092v-88.157c0-5.136,3.22-9.83,8.012-11.68c12.445-4.805,20.808-16.996,20.808-30.338
			v-41.334c0-3.388-0.302-6.733-0.877-10.005l11.774-6.798c19.558-11.291,33.548-29.523,39.393-51.337
			C505.228,61.119,502.228,38.335,490.936,18.777z M61.981,116.95c-14.931-8.62-25.612-22.539-30.074-39.193
			c-4.462-16.653-2.172-34.048,6.448-48.979c4.603-7.972,14.688-11.053,22.961-7.021l63.837,31.127
			c-0.248,0.485-0.505,0.964-0.746,1.453l-12.948,26.35c-4.122,8.388-10.621,15.216-18.797,19.745
			c-9.3,5.154-16.813,12.666-21.969,21.55L61.981,116.95z M258.863,491.971h-5.783c-18.405,0-33.617-13.894-35.72-31.743
			l23.315-5.874c5.005-1.261,10.153-1.892,15.302-1.892c0.002,0,0.005,0,0.008,0c0.002,0,0.005,0,0.007,0
			c5.148,0.001,10.296,0.632,15.301,1.893l23.29,5.869C292.482,478.074,277.269,491.971,258.863,491.971z M330.69,424.049
			c0,5.964-2.697,11.486-7.401,15.151c-4.704,3.666-10.719,4.931-16.5,3.474l-30.608-7.714c-3.358-0.846-6.765-1.474-10.195-1.89
			v-55.962c0-5.522-4.478-10-10-10c-5.523,0-10,4.478-10,10v55.962c-3.43,0.416-6.837,1.044-10.195,1.89l-30.637,7.719
			c-5.784,1.459-11.797,0.189-16.5-3.476c-4.703-3.666-7.4-9.188-7.4-15.15v-73.098c0-9.007,1.607-17.818,4.695-26.101
			c7.998,11.309,21.167,18.714,36.041,18.714h67.994c14.863,0,28.023-7.394,36.023-18.69c3.081,8.274,4.685,17.074,4.685,26.076
			V424.049z M197.862,299.44v-11.838c0-22.865,18.602-41.467,41.466-41.467h33.313c22.865,0,41.467,18.602,41.467,41.467v11.838
			c0,13.304-10.823,24.127-24.126,24.127h-67.994C208.686,323.567,197.862,312.744,197.862,299.44z M429.094,192.407
			c0,5.137-3.219,9.83-8.011,11.68c-12.446,4.806-20.809,16.997-20.809,30.338v88.157c0,31.508-20.382,59.305-49.584,69.232v-40.86
			c0-19.13-5.678-37.565-16.418-53.313c-0.052-0.076-0.111-0.143-0.164-0.216v-9.822c0-33.893-27.574-61.467-61.467-61.467h-33.313
			c-33.893,0-61.466,27.574-61.466,61.467v9.819c-0.145,0.186-0.293,0.369-0.427,0.568c-10.587,15.67-16.183,33.985-16.183,52.965
			v40.857c-29.203-9.927-49.55-37.678-49.548-69.229l0.005-88.604c0-13.071-8.191-25.016-20.386-29.724l-0.361-0.14
			c-4.913-1.896-8.086-6.492-8.085-11.708l0-41.42c0-13.734,7.464-26.403,19.479-33.062c11.767-6.519,21.122-16.346,27.054-28.419
			l12.948-26.35c13.075-26.608,39.615-43.138,69.262-43.138h88.694c29.219,0,56.415,16.95,69.285,43.184l12.919,26.336
			c5.909,12.044,15.227,21.86,26.906,28.365l0.264,0.148c11.97,6.667,19.405,19.32,19.405,33.021V192.407z M480.064,77.757
			c-4.463,16.654-15.143,30.573-30.074,39.193l-8.748,5.051c-5.13-8.817-12.58-16.274-21.783-21.4l-0.264-0.148
			c-8.143-4.535-14.616-11.354-18.722-19.723l-12.919-26.336c-0.247-0.504-0.511-0.998-0.767-1.497l63.867-31.141
			c8.272-4.034,18.358-0.95,22.961,7.021C482.236,43.709,484.526,61.104,480.064,77.757z"/>
		<circle style="fill:#052A75;" cx="128.922" cy="172.433" r="10"/>
		<circle style="fill:#052A75;" cx="383.021" cy="172.433" r="10"/>
	</g>
</g>
<g>
</g>
<g>
</g>
<g>
</g>
<g>
</g>
<g>
</g>
<g>
</g>
<g>
</g>
<g>
</g>
<g>
</g>
<g>
</g>
<g>
</g>
<g>
</g>
<g>
</g>
<g>
</g>
<g>
</g>
</svg>
