<?xml version="1.0" encoding="iso-8859-1"?>
<!-- Generator: Adobe Illustrator 28.3.0, SVG Export Plug-In . SVG Version: 6.00 Build 0)  -->
<svg version="1.1" id="Capa_1" xmlns="http://www.w3.org/2000/svg" xmlns:xlink="http://www.w3.org/1999/xlink" x="0px" y="0px"
	 viewBox="0 0 512.01 512.01" style="enable-background:new 0 0 512.01 512.01;" xml:space="preserve">
<g>
	<g>
		<g>
			<g>
				<path style="fill:#93B2F4;" d="M415.668,116.41l-33.721,19.469l-49.003-84.876l65.952-38.078
					c10.451-6.034,23.815-2.453,29.85,7.998l8.543,14.797C453.601,63.972,443.921,100.098,415.668,116.41z"/>
				<path style="fill:#93B2F4;" d="M96.422,116.41l33.721,19.469l49.003-84.876l-65.952-38.078
					c-10.451-6.034-23.815-2.453-29.85,7.998L74.801,35.72C58.49,63.972,68.17,100.098,96.422,116.41z"/>
				<path style="fill:#6864F7;" d="M179.144,51l-49,84.88l-33.72-19.47c-8.96-5.17-16.05-12.34-21.04-20.62
					c12.16-28.86,30.86-53.88,54.06-73.49L179.144,51z"/>
				<path style="fill:#6864F7;" d="M436.664,95.88c-4.99,8.24-12.07,15.37-21,20.53l-33.72,19.47l-49-84.88l49.66-28.67
					C405.804,41.96,424.514,67,436.664,95.88z"/>
			</g>
			<path style="fill:#D46B5C;" d="M334.037,477.111c84.147-21.048,139.441-107.881,116.44-196.603l-38.613-148.944
				c-18.41-71.015-82.498-120.606-155.86-120.606h0c-73.362,0-137.45,49.591-155.86,120.606L61.53,280.508
				c-22.939,88.481,31.993,175.083,115.756,196.43L334.037,477.111z"/>
			<path style="fill:#B55348;" d="M293.284,477.07l-116-0.13c-83.76-21.35-138.69-107.95-115.75-196.43l38.61-148.95
				c9.2-35.51,29.83-65.65,57.32-86.93c14.84-11.48,31.68-20.38,49.81-26.13c-34.14,52.97-53.94,116.05-53.94,183.75
				C153.334,315.21,208.464,415.3,293.284,477.07z"/>
			<polygon style="fill:#F7B073;" points="314.843,229.037 196.08,235.252 238.392,10.97 273.696,10.97 			"/>
			<path style="fill:#93B2F4;" d="M273.141,502.01h-34.274c-47.236,0-85.529-38.292-85.529-85.529V284.328
				c0-39.833,32.291-72.124,72.124-72.124h61.084c39.833,0,72.124,32.291,72.124,72.124v132.153
				C358.67,463.717,320.377,502.01,273.141,502.01z"/>
		</g>
	</g>
	<g>
		<path style="fill:#052A75;" d="M219.106,298.998v5.718c0,5.523,4.478,10,10,10s10-4.477,10-10v-5.718
			c0-19.765-16.08-35.844-35.845-35.844c-5.522,0-10,4.477-10,10s4.478,10,10,10C211.998,283.154,219.106,290.262,219.106,298.998z"
			/>
		<path style="fill:#052A75;" d="M308.829,263.154c-19.765,0-35.845,16.08-35.845,35.844v5.718c0,5.523,4.478,10,10,10
			s10-4.477,10-10v-5.718c0-8.736,7.107-15.844,15.845-15.844c5.522,0,10-4.477,10-10S314.352,263.154,308.829,263.154z"/>
		<path style="fill:#052A75;" d="M266.004,416.326v-64.928c0-5.523-4.478-10-10-10c-5.522,0-10,4.477-10,10v64.928l-30.269,30.269
			c-3.905,3.905-3.905,10.237,0,14.143c1.953,1.953,4.512,2.929,7.071,2.929s5.118-0.976,7.071-2.929l26.126-26.126l26.126,26.126
			c1.953,1.953,4.512,2.929,7.071,2.929s5.118-0.976,7.071-2.929c3.905-3.905,3.905-10.237,0-14.143L266.004,416.326z"/>
		<g>
			<path style="fill:#052A75;" d="M460.157,277.998l-38.613-148.944c-0.338-1.305-0.695-2.602-1.062-3.894
				c33.081-19.115,44.451-61.576,25.347-94.666l-8.378-14.511c-4.266-7.389-11.153-12.674-19.395-14.882
				c-8.241-2.208-16.85-1.074-24.237,3.191c-0.059,0.034-0.117,0.068-0.176,0.104l-42.323,25.599
				c-27.479-18.457-60.408-29.037-95.317-29.037c-34.561,0-67.181,10.371-94.493,28.488c-0.141-0.092-0.276-0.19-0.424-0.276
				L118.271,4.293c-7.388-4.266-15.996-5.399-24.237-3.191C85.793,3.31,78.905,8.595,74.64,15.984l-8.378,14.511
				c-19.09,33.066-7.748,75.488,25.277,94.623c-0.372,1.306-0.732,2.617-1.075,3.937L51.851,277.999
				c-11.5,44.359-5.038,90.438,18.197,129.75c22.894,38.737,60.668,67.333,103.754,78.607c17.07,15.906,39.949,25.654,65.066,25.654
				h34.273c25.119,0,48-9.75,65.071-25.659c42.963-11.25,80.634-39.688,103.554-78.274
				C465.161,368.692,471.693,322.495,460.157,277.998z M403.895,21.57c2.745-1.558,5.934-1.967,8.984-1.149
				c3.081,0.825,5.656,2.801,7.251,5.563l8.378,14.511c12.949,22.429,6.207,50.898-14.811,65.301
				c-10.262-24.485-25.916-45.82-45.331-62.736L403.895,21.57z M83.582,40.495l8.378-14.511c1.595-2.762,4.17-4.738,7.251-5.563
				c3.08-0.827,6.298-0.402,9.036,1.179l36.015,20.927c-19.689,16.991-35.563,38.499-45.934,63.225
				C77.362,91.334,70.646,62.9,83.582,40.495z M348.67,416.481c0,41.646-33.883,75.529-75.529,75.529h-34.273
				c-41.646,0-75.529-33.882-75.529-75.529V284.328c0-34.255,27.869-62.124,62.124-62.124h61.084
				c34.255,0,62.124,27.869,62.124,62.124V416.481z M424.57,397.863c-15.402,25.929-38.325,46.674-65.098,59.49
				c5.893-12.398,9.198-26.256,9.198-40.872V284.328c0-45.283-36.841-82.124-82.124-82.124h-61.084
				c-45.283,0-82.124,36.84-82.124,82.124v132.153c0,14.613,3.303,28.468,9.194,40.865c-26.872-12.866-49.87-33.722-65.267-59.773
				c-20.508-34.7-26.21-75.383-16.055-114.555l38.613-148.944C127.09,67.473,187.202,20.958,256.004,20.958
				s128.914,46.515,146.181,113.116l38.613,148.944C450.984,322.312,445.222,363.098,424.57,397.863z"/>
			<circle style="fill:#052A75;" cx="147.124" cy="176.745" r="10"/>
			<circle style="fill:#052A75;" cx="364.964" cy="176.745" r="10"/>
		</g>
	</g>
</g>
<g>
</g>
<g>
</g>
<g>
</g>
<g>
</g>
<g>
</g>
<g>
</g>
<g>
</g>
<g>
</g>
<g>
</g>
<g>
</g>
<g>
</g>
<g>
</g>
<g>
</g>
<g>
</g>
<g>
</g>
</svg>
