<?xml version="1.0" encoding="iso-8859-1"?>
<!-- Generator: Adobe Illustrator 28.3.0, SVG Export Plug-In . SVG Version: 6.00 Build 0)  -->
<svg version="1.1" id="Capa_1" xmlns="http://www.w3.org/2000/svg" xmlns:xlink="http://www.w3.org/1999/xlink" x="0px" y="0px"
	 viewBox="0 0 512 512" style="enable-background:new 0 0 512 512;" xml:space="preserve">
<g>
	<g>
		<path style="fill:#D46B5C;" d="M373.943,474.725L265.1,500.926c-5.981,1.44-12.219,1.44-18.2,0l-108.843-26.201
			C80.745,460.929,40.35,409.649,40.35,350.69V193.456L256,109.481l215.65,83.976V350.69
			C471.65,409.649,431.255,460.929,373.943,474.725z"/>
		<path style="fill:#B55348;" d="M471.647,193.452v157.239c0,26.116-7.932,50.736-21.748,71.24
			c-21.809,10.703-46.308,16.718-72.194,16.718c-33.647,0-67.404-7.832-97.617-22.642L256,404.199l-24.088,11.808
			c-30.213,14.81-63.97,22.642-97.617,22.642c-25.885,0-50.385-6.014-72.193-16.718c-13.816-20.503-21.748-45.123-21.748-71.24
			V193.452L256,109.481L471.647,193.452z"/>
		<path style="fill:#D46B5C;" d="M377.703,398.487L377.703,398.487c-27.712,0-55.057-6.342-79.94-18.541L256,359.473l-41.763,20.473
			c-24.884,12.199-52.228,18.541-79.94,18.541h0C65.65,398.487,10,342.828,10,274.169v0C10,171.059,93.572,87.473,196.664,87.473
			h118.673C418.428,87.473,502,171.059,502,274.168v0C502,342.828,446.35,398.487,377.703,398.487z"/>
		<path style="fill:#B55348;" d="M473.896,175.609c-22.582,21.417-53.066,34.56-86.562,34.56c-18.204,0-35.253,8.886-45.656,23.777
			l-21.056,30.143c3.293,8.083,5.111,16.929,5.111,26.186v14.188c0,18.937-4.468,37.894-12.902,54.843l-11.196,22.481
			c-1.295-0.592-2.59-1.205-3.876-1.837L256,359.477l-41.76,20.473c-1.255,0.623-2.52,1.225-3.795,1.797l-11.437-23.144
			c-8.334-16.858-12.742-35.715-12.742-54.512v-13.816c0-9.268,1.817-18.114,5.121-26.207l-21.056-30.143
			c-10.402-14.891-27.462-23.777-45.625-23.777c-32.532,0-63.147-12.22-86.632-34.5c7.571-12.169,16.517-23.405,26.598-33.496
			c33.777-33.787,80.437-54.682,131.987-54.682h24.218l27.171,30.524c2.761,3.103,6.165,3.575,7.952,3.575s5.191-0.472,7.952-3.575
			l27.171-30.524h24.218C382.263,87.471,440.952,122.694,473.896,175.609z"/>
		<g>
			<ellipse style="fill:#FDE0BE;" cx="161.266" cy="247.307" rx="94.734" ry="94.751"/>
			<ellipse style="fill:#FDE0BE;" cx="350.734" cy="247.307" rx="94.734" ry="94.751"/>
		</g>
		<path style="fill:#F7B073;" d="M256,247.311c0,41.981-27.311,77.595-65.135,90.026c-3.032-10.814-4.599-22.04-4.599-33.245
			v-13.816c0-8.7,1.601-17.028,4.53-24.71c0.358-0.94,0.245-1.992-0.331-2.816l-20.134-28.823
			c-10.402-14.891-27.462-23.777-45.625-23.777c-16.126,0-31.769-3.002-46.318-8.756c16.146-29.128,47.212-48.839,82.877-48.839
			C213.588,152.556,256,194.978,256,247.311z"/>
		<path style="fill:#F7B073;" d="M433.592,201.364c-14.328,5.683-29.932,8.806-46.258,8.806c-18.204,0-35.253,8.886-45.656,23.777
			l-20.135,28.824c-0.576,0.824-0.689,1.875-0.332,2.814c2.92,7.674,4.521,16.001,4.521,24.691v14.188
			c0,11.095-1.536,22.2-4.498,32.904C283.351,324.967,256,289.332,256,247.311c0-52.333,42.412-94.755,94.735-94.755
			C386.39,152.556,417.436,172.256,433.592,201.364z"/>
		<path style="fill:#D46B5C;" d="M387.334,175.023h-0.042c-29.653-0.001-57.437,14.481-74.423,38.791L256,295.206l-56.863-81.403
			c-16.989-24.321-44.786-38.808-74.45-38.8h0c-50.152,0.013-90.815-40.647-90.815-90.808V21.383c0-8.48,8.952-13.972,16.51-10.127
			l61.245,31.155c26.68,13.572,50.588,32.013,70.491,54.373l39.682,44.58c18.212,20.46,50.19,20.46,68.402,0l39.682-44.58
			c19.903-22.36,43.811-40.801,70.491-54.373l61.245-31.155c7.558-3.844,16.51,1.647,16.51,10.127v62.833
			C478.128,134.368,437.478,175.025,387.334,175.023z"/>
		<path style="fill:#FDCB50;" d="M256,255.68L256,255.68c19.102,0,34.587,15.488,34.587,34.593v14.194
			c0,13.596-3.154,27.007-9.214,39.177l-17.794,35.734c-3.109,6.245-12.022,6.231-15.113-0.022l-17.954-36.324
			c-5.985-12.109-9.099-25.436-9.099-38.944v-13.814C221.413,271.168,236.898,255.68,256,255.68z"/>
		<g>
			<path style="fill:#FFFFFF;" d="M389.153,253.457c0,12.505-10.136,22.643-22.639,22.643c-12.503,0-22.639-10.137-22.639-22.643
				c0-12.505,10.136-22.643,22.639-22.643C379.017,230.815,389.153,240.952,389.153,253.457z"/>
			<path style="fill:#FFFFFF;" d="M168.124,253.457c0,12.505-10.136,22.643-22.639,22.643s-22.639-10.137-22.639-22.643
				c0-12.505,10.136-22.643,22.639-22.643S168.124,240.952,168.124,253.457z"/>
		</g>
	</g>
	<g>
		<path style="fill:#052A75;" d="M512,274.168c0-46.547-16.363-91.228-46.209-126.657c14.471-17.872,22.338-39.978,22.338-63.296
			V21.383c0-7.488-3.812-14.296-10.194-18.211c-6.384-3.914-14.178-4.224-20.85-0.83L395.84,33.497
			c-23.05,11.725-43.908,26.775-62.203,44.834c-6.062-0.559-12.2-0.859-18.301-0.859H196.664c-6.1,0-12.238,0.3-18.3,0.859
			c-18.295-18.059-39.153-33.109-62.203-44.834L54.915,2.343c-6.673-3.395-14.467-3.084-20.85,0.83
			c-6.383,3.915-10.194,10.723-10.194,18.211v62.812c0,23.322,7.87,45.43,22.344,63.304C16.359,182.931,0,227.593,0,274.169
			c0,32.37,11.509,62.103,30.649,85.32c1.854,29.207,12.7,56.54,31.451,79.117c19.097,22.993,44.553,38.845,73.617,45.841
			l108.843,26.201c3.742,0.901,7.591,1.352,11.44,1.352c3.85,0,7.698-0.451,11.441-1.352l108.843-26.201
			c29.107-7.007,54.592-22.892,73.696-45.938c18.704-22.563,29.517-49.857,31.367-79.016C500.49,336.275,512,306.541,512,274.168z
			 M377.703,388.487c-26.038,0-52.159-6.058-75.538-17.52l-18.669-9.152l6.829-13.714c6.713-13.484,10.262-28.572,10.262-43.634
			v-14.193c0-10.432-3.61-20.03-9.632-27.634l30.112-43.097c15.104-21.615,39.861-34.52,66.268-34.519c0.001,0,0.001,0,0.003,0
			c23.777,0,46.296-8.185,64.348-23.213C477.741,193.404,492,232.975,492,274.169C492,337.204,440.727,388.487,377.703,388.487z
			 M239.477,338.601c-5.275-10.674-8.064-22.608-8.064-34.514v-13.813c0-13.561,11.03-24.593,24.587-24.593
			c13.558,0,24.587,11.033,24.587,24.593v14.193c0,11.984-2.823,23.99-8.165,34.719l-16.389,32.912L239.477,338.601z
			 M315.336,97.473c0.179,0,0.36,0.007,0.539,0.007l-33.144,37.235c-6.785,7.623-16.528,11.994-26.732,11.994
			c-10.203,0-19.946-4.372-26.73-11.994L196.125,97.48c0.179-0.001,0.359-0.007,0.539-0.007H315.336z M43.872,21.383
			c0-0.188,0-0.763,0.65-1.162c0.648-0.398,1.158-0.138,1.326-0.053l61.245,31.155c25.674,13.06,48.403,30.592,67.555,52.109
			l39.682,44.58c10.576,11.881,25.764,18.696,41.669,18.696c0.001,0,0,0,0,0c15.905,0,31.095-6.815,41.671-18.696l39.682-44.58
			c19.152-21.518,41.882-39.049,67.556-52.109l61.245-31.155c0.169-0.086,0.681-0.343,1.325,0.053c0.65,0.399,0.65,0.973,0.65,1.162
			v62.833c0,21.585-8.404,41.878-23.665,57.141c-15.261,15.262-35.549,23.667-57.172,23.667c-0.002,0-0.001,0-0.003,0
			c-32.89,0-63.775,16.099-82.617,43.063l-29.347,42.003c-5.849-2.825-12.405-4.41-19.324-4.41c-6.917,0-13.471,1.584-19.319,4.407
			l-29.346-42.011c-18.841-26.973-49.728-43.074-82.626-43.074c-0.016,0-0.031,0-0.046,0c-21.575,0-41.861-8.402-57.12-23.66
			c-15.265-15.264-23.671-35.559-23.671-57.148V21.383z M60.329,161.801c18.05,15.022,40.561,23.202,64.334,23.202
			c0.017,0,0.031,0,0.047,0c26.368,0,51.128,12.907,66.23,34.527l30.11,43.105c-6.025,7.605-9.636,17.206-9.636,27.64v13.813
			c0,14.962,3.504,29.961,10.134,43.376l7.067,14.298l-18.78,9.206c-23.379,11.461-49.5,17.52-75.538,17.52
			C71.273,388.487,20,337.204,20,274.168C20,232.948,34.262,193.397,60.329,161.801z M434.583,425.745
			c-16.326,19.694-38.104,33.27-62.98,39.258L262.76,491.204c-4.422,1.065-9.097,1.065-13.52,0l-108.843-26.201
			c-24.838-5.979-46.592-19.526-62.912-39.175c-10.753-12.948-18.451-27.73-22.845-43.589
			c22.301,16.486,49.858,26.248,79.656,26.248c29.073,0,58.238-6.764,84.342-19.562l18.838-9.235l2.025,4.096
			c3.125,6.323,9.448,10.257,16.5,10.267c0.009,0,0.018,0,0.027,0c7.041,0,13.363-3.914,16.501-10.218l2.05-4.117l18.781,9.207
			c26.104,12.797,55.27,19.562,84.342,19.562c29.797,0,57.355-9.762,79.656-26.248C452.975,398.063,445.302,412.815,434.583,425.745
			z"/>
		<path style="fill:#052A75;" d="M366.515,220.815c-17.997,0-32.639,14.644-32.639,32.643s14.642,32.643,32.639,32.643
			s32.639-14.644,32.639-32.643S384.512,220.815,366.515,220.815z M366.515,266.1c-6.969,0-12.639-5.671-12.639-12.643
			s5.67-12.643,12.639-12.643s12.639,5.671,12.639,12.643S373.483,266.1,366.515,266.1z"/>
		<path style="fill:#052A75;" d="M145.486,286.1c17.997,0,32.639-14.644,32.639-32.643s-14.642-32.643-32.639-32.643
			s-32.639,14.644-32.639,32.643S127.489,286.1,145.486,286.1z M145.486,240.815c6.969,0,12.639,5.671,12.639,12.643
			s-5.669,12.643-12.639,12.643s-12.639-5.671-12.639-12.643S138.517,240.815,145.486,240.815z"/>
	</g>
</g>
<g>
</g>
<g>
</g>
<g>
</g>
<g>
</g>
<g>
</g>
<g>
</g>
<g>
</g>
<g>
</g>
<g>
</g>
<g>
</g>
<g>
</g>
<g>
</g>
<g>
</g>
<g>
</g>
<g>
</g>
</svg>
