<?xml version="1.0" encoding="iso-8859-1"?>
<!-- Generator: Adobe Illustrator 28.3.0, SVG Export Plug-In . SVG Version: 6.00 Build 0)  -->
<svg version="1.1" id="Capa_1" xmlns="http://www.w3.org/2000/svg" xmlns:xlink="http://www.w3.org/1999/xlink" x="0px" y="0px"
	 viewBox="0 0 512.013 512.013" style="enable-background:new 0 0 512.013 512.013;" xml:space="preserve">
<g>
	<g>
		<g>
			<g>
				<path style="fill:#93B2F4;" d="M499.99,87.773c0,42.949-34.849,77.767-77.838,77.767s-77.838-34.817-77.838-77.767
					s34.849-77.767,77.838-77.767S499.99,44.824,499.99,87.773z"/>
				<ellipse style="fill:#93B2F4;" cx="89.861" cy="87.773" rx="77.838" ry="77.767"/>
			</g>
			<path style="fill:#6864F7;" d="M167.697,87.772c0,42.955-34.852,77.766-77.836,77.766c-27.803,0-52.192-14.559-65.958-36.468
				c16.678-27.994,38.918-52.363,65.848-71.872c15.955-11.567,33.034-21.046,50.917-28.335
				C157.215,43.121,167.697,64.227,167.697,87.772z"/>
			<path style="fill:#6864F7;" d="M488.11,129.07c-13.766,21.909-38.155,36.468-65.958,36.468
				c-42.985,0-77.836-34.811-77.836-77.766c0-23.546,10.483-44.652,27.03-58.91c17.883,7.29,34.962,16.768,50.917,28.335
				C449.192,76.707,471.432,101.076,488.11,129.07z"/>
		</g>
		<g>
			<path style="fill:#FFFFFF;" d="M115.945,465.885L115.945,465.885c89.813,36.437,190.31,36.437,280.123,0l0,0
				c82.61-33.515,125.198-125.162,97.509-209.838l-21.457-65.618C444.976,107.418,367.479,51.26,280.07,51.26h-48.128
				c-87.409,0-164.905,56.158-192.05,139.17l-21.457,65.618C-9.253,340.723,33.334,432.37,115.945,465.885z"/>
		</g>
		<g>
			<path style="fill:#D2DCFD;" d="M274.046,492.776c-53.55,2.6-107.52-6.37-158.1-26.89c-82.61-33.52-125.2-125.16-97.51-209.84
				l21.46-65.62c20.89-63.9,71.63-111.9,133.77-130.6c-46.32,47.58-74.86,112.56-74.86,184.21
				C98.806,358.706,171.906,456.306,274.046,492.776z"/>
		</g>
		<g>
			<g>
				<path style="fill:#93B2F4;" d="M374.837,371.391h-24.048c-35.666,0-64.579-28.887-64.579-64.52v-40.129
					c0-35.633,28.913-64.52,64.579-64.52h0c22.706,0,43.744,11.914,55.408,31.377l24.047,40.129
					C456.016,316.733,425.006,371.391,374.837,371.391z"/>
				<path style="fill:#93B2F4;" d="M137.176,371.391h24.048c35.666,0,64.579-28.887,64.579-64.52v-40.129
					c0-35.633-28.913-64.52-64.579-64.52h0c-22.706,0-43.744,11.914-55.408,31.377l-24.048,40.129
					C55.997,316.733,87.006,371.391,137.176,371.391z"/>
				<path style="fill:#6864F7;" d="M131.356,371.136c-46.7-4.03-74.35-56.09-49.59-97.41l17.05-28.45
					C99.016,290.886,110.796,333.766,131.356,371.136z"/>
			</g>
		</g>
		<g>
			<path style="fill:#D2DCFD;" d="M276.494,502.006h-40.976c-18.226,0-33.002-14.775-33.002-33.002v-73.881h106.98v73.881
				C309.496,487.231,294.721,502.006,276.494,502.006z"/>
			<path style="fill:#FFFFFF;" d="M329.201,322.913l21.183,67.28c3.287,10.44,3.164,21.655-0.351,32.02l0,0
				c-9.715,28.65-41.914,42.831-69.636,30.669l-3.636-1.595c-13.225-5.802-28.278-5.802-41.503,0l-3.636,1.595
				c-27.723,12.162-59.921-2.018-69.636-30.669l-0.005-0.015c-3.512-10.357-3.638-21.56-0.359-31.993l21.137-67.265
				c6.755-21.495,26.694-36.121,49.244-36.121h47.964C302.505,286.82,322.437,301.432,329.201,322.913z"/>
			<path style="fill:#93B2F4;" d="M263.258,404.498h-14.502c-16.456,0-29.919-13.464-29.919-29.919v-5.137
				c0-9.038,7.327-16.364,16.364-16.364h41.613c9.038,0,16.364,7.327,16.364,16.364v5.137
				C293.177,391.034,279.713,404.498,263.258,404.498z"/>
		</g>
	</g>
	<g>
		<path style="fill:#052A75;" d="M503.082,252.939l-21.457-65.618c-2.992-9.151-6.57-18.016-10.695-26.56
			c24.268-16.205,39.06-43.505,39.06-72.988c0-48.395-39.404-87.767-87.838-87.767c-34.208,0-65.261,20.047-79.58,50.604
			c-20.054-6.175-41.054-9.351-62.501-9.351h-48.128c-21.447,0-42.447,3.176-62.5,9.35c-14.32-30.553-45.388-50.604-79.581-50.604
			c-48.434,0-87.838,39.372-87.838,87.767c0,29.483,14.792,56.783,39.06,72.988c-4.125,8.544-7.703,17.409-10.695,26.56
			L8.931,252.939c-14.182,43.369-11.401,90.044,7.829,131.426c19.229,41.38,53.119,73.622,95.426,90.786
			c29.993,12.168,61.455,20.482,93.534,24.734c7.764,7.495,18.316,12.12,29.934,12.12h40.707c11.615,0,22.165-4.623,29.928-12.115
			c32.08-4.252,63.548-12.572,93.539-24.739c42.308-17.164,76.197-49.406,95.426-90.786
			C514.483,342.983,517.264,296.309,503.082,252.939z M422.152,20.006c37.406,0,67.838,30.4,67.838,67.767
			c0,22.144-10.813,42.696-28.657,55.321c-14.499-23.9-33.663-44.732-56.771-61.476c-13.53-9.804-27.973-17.889-43.088-24.183
			C372.859,34.766,396.346,20.006,422.152,20.006z M22.023,87.773c0-37.367,30.432-67.767,67.838-67.767
			c25.795,0,49.29,14.764,60.676,37.43c-15.115,6.294-29.557,14.378-43.087,24.182c-23.108,16.745-42.271,37.576-56.771,61.476
			C32.836,130.47,22.023,109.917,22.023,87.773z M340.845,393.196c2.667,8.472,2.569,17.395-0.283,25.806
			c-3.786,11.164-11.816,19.933-22.612,24.692c-10.81,4.765-22.719,4.775-33.537,0.03l-3.636-1.595
			c-4.755-2.086-9.722-3.53-14.771-4.356v-23.38c20.733-1.418,37.17-18.727,37.17-39.814v-5.137
			c0-14.537-11.827-26.364-26.364-26.364H235.2c-14.537,0-26.364,11.827-26.364,26.364v5.137c0,21.087,16.438,38.396,37.17,39.814
			v23.381c-5.048,0.826-10.014,2.27-14.767,4.355l-3.636,1.595c-10.817,4.747-22.728,4.735-33.537-0.03
			c-10.78-4.753-18.803-13.503-22.595-24.645c-0.007-0.021-0.014-0.042-0.021-0.062c-2.85-8.403-2.95-17.319-0.29-25.784
			l21.138-67.265c5.473-17.417,21.429-29.119,39.704-29.119h47.964c18.265,0,34.218,11.693,39.697,29.096c0,0,0,0,0,0
			L340.845,393.196z M263.258,394.498h-14.503c-10.983,0-19.919-8.936-19.919-19.919v-5.137c0-3.509,2.855-6.364,6.364-6.364h41.612
			c3.509,0,6.364,2.855,6.364,6.364v5.137C283.177,385.562,274.241,394.498,263.258,394.498z M276.36,492.006h-40.707
			c-12.758,0-23.137-10.379-23.137-23.137v-1.692c7.897-0.21,15.762-1.909,23.123-5.138l3.636-1.595
			c10.635-4.666,22.833-4.666,33.468,0l3.636,1.595c7.359,3.228,15.222,4.928,23.117,5.138v1.692
			C299.497,481.627,289.118,492.006,276.36,492.006z M477.116,375.937c-17.088,36.774-47.207,65.427-84.807,80.681
			c-23.761,9.64-48.501,16.725-73.739,21.147c0.963-4.119,0.978-9.038,0.927-13.341c2.208-0.687,4.388-1.49,6.522-2.431
			c15.754-6.945,27.958-20.274,33.484-36.57c4.226-12.462,4.371-25.684,0.419-38.235l-21.183-67.279
			c-8.116-25.771-31.736-43.09-58.774-43.09h-47.964c-27.055,0-50.679,17.33-58.784,43.123l-21.138,67.265
			c-3.936,12.524-3.793,25.714,0.411,38.148c0.008,0.023,0.016,0.046,0.023,0.069c5.526,16.295,17.73,29.625,33.484,36.57
			c2.133,0.94,4.311,1.743,6.517,2.429c-0.05,4.311-0.036,9.217,0.928,13.344c-25.238-4.422-49.976-11.508-73.74-21.149
			c-37.601-15.254-67.719-43.907-84.807-80.681c-17.087-36.771-19.558-78.246-6.957-116.782l21.457-65.618
			c12.659-38.712,36.791-71.813,69.789-95.725c33-23.914,71.99-36.553,112.756-36.553h48.128c40.766,0,79.757,12.64,112.756,36.553
			c32.998,23.912,57.13,57.013,69.789,95.725l21.457,65.618C496.674,297.692,494.203,339.166,477.116,375.937z"/>
		<path style="fill:#052A75;" d="M155.71,262.486c-6.844-1.123-12.677,4.71-11.555,11.554c0.68,4.145,4.023,7.487,8.167,8.167
			c6.844,1.123,12.677-4.711,11.554-11.555C163.197,266.509,159.854,263.166,155.71,262.486z"/>
		<circle style="fill:#052A75;" cx="357.996" cy="272.347" r="10"/>
	</g>
</g>
<g>
</g>
<g>
</g>
<g>
</g>
<g>
</g>
<g>
</g>
<g>
</g>
<g>
</g>
<g>
</g>
<g>
</g>
<g>
</g>
<g>
</g>
<g>
</g>
<g>
</g>
<g>
</g>
<g>
</g>
</svg>
