<?xml version="1.0" encoding="iso-8859-1"?>
<!-- Generator: Adobe Illustrator 28.3.0, SVG Export Plug-In . SVG Version: 6.00 Build 0)  -->
<svg version="1.1" id="Capa_1" xmlns="http://www.w3.org/2000/svg" xmlns:xlink="http://www.w3.org/1999/xlink" x="0px" y="0px"
	 viewBox="0 0 512 512" style="enable-background:new 0 0 512 512;" xml:space="preserve">
<g>
	<g>
		<path style="fill:#67CCD1;" d="M49.875,499.854l-20.672-68.813c-14.428-48.028-14.695-99.199-0.767-147.374l18.549-64.16
			c7.952-27.507,12.003-55.994,12.035-84.627v0c0.044-40.265,24.437-76.503,61.724-91.698l32.893-13.405
			C218.338,3.41,290.789,3.407,355.492,29.77l32.977,13.436c37.264,15.183,61.654,51.384,61.731,91.622v0
			c0.054,28.669,4.122,57.189,12.084,84.729l21.328,73.776c12.164,42.077,13.529,86.541,3.967,129.284l-17.211,76.94
			c-0.308,1.376-1.529,2.354-2.939,2.355L52.761,502C51.431,502,50.258,501.128,49.875,499.854z"/>
		<path style="fill:#27A2CC;" d="M438.907,261.302v76.009c0,54.783-44.561,99.344-99.344,99.344h-4.388
			c-9.539,7.802-20.523,13.545-32.321,16.919l-2.058,7.3c-5.703,20.172-23.616,33.727-44.581,33.727
			c-20.895,0-38.798-13.495-44.541-33.577l-2.109-7.34c-11.938-3.364-23.044-9.137-32.683-17.029h-4.398
			c-54.783,0-99.344-44.561-99.344-99.344v-75.999c0-29.038,12.641-56.53,34.691-75.427c5.563-4.769,8.746-11.687,8.746-18.997
			c0-1.074-0.07-2.139-0.211-3.233l-0.954-7.4c-3.655-28.345,5.071-56.881,23.927-78.328c18.857-21.437,46.047-33.737,74.593-33.737
			h84.202c28.556,0,55.747,12.3,74.603,33.747c18.857,21.447,27.582,49.983,23.927,78.308l-0.954,7.41
			c-1.085,8.424,2.098,16.718,8.515,22.22C426.276,204.792,438.907,232.274,438.907,261.302z"/>
		<path style="fill:#FFFFFF;" d="M380.053,214.094l0.001,0.001c13.777,11.815,21.706,29.059,21.706,47.209v76.012
			c0,34.348-27.844,62.192-62.192,62.192H172.48c-34.348,0-62.192-27.844-62.192-62.192v-76.002c0-18.155,7.933-35.404,21.718-47.22
			l0,0c15.915-13.642,23.888-34.383,21.207-55.173l-0.958-7.433c-4.796-37.197,24.176-70.145,61.681-70.145h84.2
			c37.505,0,66.478,32.948,61.681,70.145l-0.96,7.443C356.178,179.715,364.146,200.451,380.053,214.094z"/>
		<path style="fill:#D2DCFD;" d="M366.674,256v110.088c0,10.282-1.757,20.162-4.98,29.359c-6.878,2.621-14.338,4.056-22.13,4.056
			H172.484c-7.812,0-15.292-1.436-22.18-4.077c-3.344-9.589-5.02-19.78-4.92-30.233l0.964-95.83
			c-3.826-31.076,4.749-62.946,23.716-87.897l33.336-43.878c12.651-16.638,31.89-26.177,52.784-26.177
			c20.985,0,40.274,9.599,52.915,26.347l33.125,43.878c15.613,20.684,24.208,46.148,24.369,72.003
			C366.643,254.424,366.674,255.207,366.674,256z"/>
		<path style="fill:#FD8F01;" d="M277.676,419.937h-43.304c-29.953,0-54.149-24.441-53.849-54.392l1.1-109.545h149.904v110.085
			C331.527,395.827,307.417,419.937,277.676,419.937z"/>
		<path style="fill:#FDCB50;" d="M189.715,293.078l16.044,31.892c8.578,17.051,15.544,34.868,20.805,53.216l20.823,72.616
			c2.546,8.881,15.139,8.858,17.653-0.032l20.398-72.118c5.277-18.657,12.314-36.771,21.016-54.097l15.904-31.667
			c14.633-29.135,11.461-64.049-8.181-90.07l-33.125-43.882c-12.44-16.479-37.177-16.519-49.67-0.08l-33.346,43.881
			C178.238,228.791,175.009,263.846,189.715,293.078z"/>
	</g>
	<g>
		<path style="fill:#052A75;" d="M493.218,290.556L471.89,216.78c-7.704-26.65-11.638-54.229-11.69-81.971
			c-0.084-44.487-26.759-84.079-67.957-100.864L359.266,20.51C325.861,6.899,290.634-0.001,254.563,0s-71.297,6.904-104.7,20.517
			l-32.894,13.404C75.74,50.725,49.068,90.349,49.019,134.87c-0.03,27.705-3.947,55.246-11.641,81.859l-18.549,64.16
			C4.336,331.022,4.612,383.938,19.625,433.919l20.673,68.812c0,0.001,0,0.001,0.001,0.002c1.666,5.543,6.674,9.267,12.464,9.267
			l414.665-0.088c6.134,0,11.354-4.181,12.698-10.172l17.211-76.939C507.238,380.544,505.813,334.123,493.218,290.556z
			 M477.82,420.436l-15.989,71.478l-403.874,0.086L38.78,428.165c-13.904-46.287-14.159-95.293-0.737-141.721l18.549-64.16
			c8.214-28.412,12.396-57.814,12.428-87.393c0.04-36.362,21.824-68.726,55.498-82.449l32.893-13.404
			C188.406,26.406,221.093,20.001,254.564,20s66.158,6.401,97.155,19.031l32.977,13.436c33.648,13.71,55.436,46.046,55.504,82.381
			c0.057,29.608,4.255,59.044,12.478,87.487l21.328,73.775C485.669,336.457,486.988,379.448,477.82,420.436z"/>
		<path style="fill:#052A75;" d="M386.563,206.503c-13.394-11.487-20.043-28.793-17.787-46.293l0.96-7.444
			c2.653-20.58-3.684-41.32-17.386-56.903c-13.703-15.582-33.463-24.52-54.214-24.52h-84.2c-20.751,0-40.511,8.938-54.214,24.52
			c-13.702,15.583-20.039,36.323-17.386,56.904l0.959,7.433c2.257,17.507-4.396,34.815-17.798,46.302
			c-16.021,13.733-25.21,33.712-25.21,54.812v76.002c0,39.807,32.386,72.192,72.192,72.192h14.865
			c11.006,11.842,26.434,19.517,43.634,20.349l6.796,23.7c2.383,8.313,9.788,13.893,18.433,13.893c0.012,0,0.023,0,0.035,0
			c8.66-0.016,16.063-5.625,18.42-13.958l6.688-23.648c17.087-0.902,32.407-8.559,43.352-20.336h14.865
			c39.807,0,72.192-32.386,72.192-72.192v-76.012C411.76,240.21,402.576,220.236,386.563,206.503z M190.248,366.086V316.39
			l6.577,13.074c8.279,16.456,15.05,33.775,20.126,51.479l8.04,28.036C205.169,404.774,190.248,387.143,190.248,366.086z
			 M275.815,375.93l-19.611,69.34l-20.027-69.84c-5.418-18.897-12.646-37.387-21.483-54.954l-16.044-31.892
			c-12.895-25.631-10.01-56.953,7.35-79.796l33.346-43.881c4.036-5.312,10.173-8.355,16.841-8.355c0.012,0,0.023,0,0.035,0
			c6.683,0.011,12.824,3.075,16.851,8.408l33.125,43.882c17.477,23.152,20.246,53.637,7.227,79.558l-15.904,31.667
			C288.554,337.914,281.252,356.709,275.815,375.93z M321.799,366.086c0,20.982-14.816,38.56-34.533,42.844l7.794-27.557
			c5.094-18.005,11.934-35.611,20.331-52.33l6.408-12.759V366.086z M391.76,337.315c0.071,29.624-24.894,53.377-54.431,52.192
			c2.873-7.258,4.47-15.155,4.47-23.422c-0.246-6.698,0.644-117.245-0.719-120.306c-1.616-17.79-8.159-34.729-18.922-48.987
			l-33.125-43.883c-7.834-10.376-19.782-16.338-32.782-16.358c-0.023,0-0.044,0-0.066,0c-12.974,0-24.914,5.923-32.765,16.254
			l-33.346,43.881c-10.849,14.275-17.451,31.258-19.096,49.112c-1.257,0.01-0.572,116.142-0.73,120.287
			c0,8.267,1.597,16.164,4.47,23.422c-29.537,1.184-54.501-22.569-54.431-52.192v-76.002c0-15.255,6.644-29.699,18.226-39.627
			c18.536-15.888,27.739-39.829,24.618-64.045l-0.959-7.433c-1.918-14.879,2.663-29.873,12.569-41.139
			c7.994-9.092,18.842-15.049,30.615-17.011v20.549c0,5.522,4.478,10,10,10s10-4.478,10-10V91.343h61.334v21.265
			c0,5.522,4.478,10,10,10s10-4.478,10-10V92.054c11.783,1.959,22.64,7.918,30.64,17.016c9.906,11.266,14.487,26.26,12.569,41.138
			l-0.96,7.444c-3.121,24.206,6.077,48.144,24.604,64.033c11.576,9.928,18.216,24.368,18.216,39.618V337.315z"/>
		<g>
			<circle style="fill:#052A75;" cx="105.814" cy="180.657" r="10"/>
			<circle style="fill:#052A75;" cx="406.503" cy="180.657" r="10"/>
		</g>
	</g>
</g>
<g>
</g>
<g>
</g>
<g>
</g>
<g>
</g>
<g>
</g>
<g>
</g>
<g>
</g>
<g>
</g>
<g>
</g>
<g>
</g>
<g>
</g>
<g>
</g>
<g>
</g>
<g>
</g>
<g>
</g>
</svg>
