<?xml version="1.0" encoding="iso-8859-1"?>
<!-- Generator: Adobe Illustrator 28.3.0, SVG Export Plug-In . SVG Version: 6.00 Build 0)  -->
<svg version="1.1" id="Capa_1" xmlns="http://www.w3.org/2000/svg" xmlns:xlink="http://www.w3.org/1999/xlink" x="0px" y="0px"
	 viewBox="0 0 512 512" style="enable-background:new 0 0 512 512;" xml:space="preserve">
<g>
	<g>
		<g>
			<polygon style="fill:#D2DCFD;" points="79.252,345.748 42.179,502 469.821,502 432.748,345.748 			"/>
			<path style="fill:#93B2F4;" d="M445.089,397.756c-2.45-0.08-4.91-0.271-7.35-0.552c-0.241-0.02-0.482-0.05-0.713-0.08
				c-3.906-0.482-7.882-0.723-11.808-0.723c-14.68,0-29.389,3.444-42.553,9.96l-6.958,3.444
				c-19.329,42.513-61.41,69.754-108.32,69.754h-22.763c-46.921,0-89.002-27.251-108.32-69.764l-7.119-3.514
				c-13.113-6.466-27.793-9.89-42.433-9.89c-3.926,0-7.902,0.241-11.808,0.723c-2.681,0.331-5.372,0.552-8.033,0.643l12.34-52.011
				h353.497L445.089,397.756z"/>
		</g>
		<g>
			<path style="fill:#BC9AF4;" d="M61.519,126.165c-30.696-13.464-50.817-43.949-50.817-77.9v0C10.702,27.132,27.802,10,48.895,10
				h18.46c31.864,0,61.044,17.878,75.563,46.296l1.846,3.613L61.519,126.165z"/>
			<path style="fill:#6864F7;" d="M144.768,59.913l-83.248,66.249c-11.366-4.99-21.267-12.3-29.249-21.256
				c6.687-8.404,13.887-16.457,21.568-24.148c20.323-20.363,43.216-37.352,68.278-50.706c8.455,7.159,15.583,16.025,20.805,26.247
				L144.768,59.913z"/>
		</g>
		<g>
			<path style="fill:#BC9AF4;" d="M450.473,126.169c30.701-13.462,50.825-43.949,50.825-77.903v0
				c0-21.133-17.099-38.266-38.193-38.266h-18.46c-31.864,0-61.044,17.878-75.563,46.296l-1.846,3.613L450.473,126.169z"/>
			<path style="fill:#6864F7;" d="M479.73,104.906c-7.973,8.966-17.893,16.286-29.259,21.266l-83.238-66.259l1.848-3.615
				c5.221-10.222,12.35-19.088,20.805-26.247c25.062,13.344,47.955,30.343,68.278,50.706
				C465.843,88.449,473.042,96.502,479.73,104.906z"/>
		</g>
		<path style="fill:#D2DCFD;" d="M164.042,384.301l-19.293-9.524c-22.962-11.335-48.732-15.692-74.136-12.535h0
			C38.417,366.243,10,341.084,10,308.581v-25.384C10,147.638,120.7,36.727,256,36.727h0c135.3,0,246,110.911,246,246.469v25.394
			c0,32.5-28.412,57.658-60.604,53.663l-0.042-0.005c-25.462-3.16-51.29,1.229-74.288,12.624l-18.444,9.138L164.042,384.301z"/>
		<path style="fill:#BC9AF4;" d="M220.927,239.603l-32.111,51.098h-9.007c-30.685,0-60.988,6.848-88.701,20.042L25.714,342.02
			l80.055-135.36c11.527-19.529,31.99-30.173,52.865-30.173c12.471,0,25.082,3.795,36.026,11.778
			c13.113,9.559,21.909,23.947,24.46,39.993L220.927,239.603z"/>
		<path style="fill:#BC9AF4;" d="M487.381,343.024l-67.976-32.643c-27.502-12.963-57.524-19.68-87.917-19.68h-7.008l-32.643-55.867
			l1.044-6.577c2.55-16.045,11.346-30.434,24.46-39.993c10.944-7.982,23.556-11.778,36.026-11.778
			c20.875,0,41.338,10.643,52.865,30.173L487.381,343.024z"/>
		<path style="fill:#93B2F4;" d="M412.647,93.53l-33.185,6.818c-31.92,6.145-62.173,19.027-88.741,37.794l-25.343,17.893
			c-5.643,3.986-13.184,3.996-18.837,0.03l-26.608-18.656c-26.699-18.716-57.062-31.508-89.092-37.533l-31.086-6.677
			c42.573-35.233,97.045-56.47,156.245-56.47C315.382,36.729,370.024,58.096,412.647,93.53z"/>
		<path style="fill:#93B2F4;" d="M391.26,365.746c-8.304,2.219-16.417,5.271-24.198,9.127l-18.445,9.137l-184.57,0.291
			l-19.298-9.529c-7.721-3.805-15.764-6.828-23.997-9.037c-0.994-23.546,4.649-47.262,16.698-67.966l49.009-84.634
			c1.77-3.055,3.899-5.811,6.313-8.232c5.594-5.61,15.151-3.444,17.938,3.972l9.955,26.491l18.314,110.357l33.898-0.094
			l18.645-110.263l11.132-29.462c2.206-5.837,9.483-7.997,14.374-4.122c3.997,3.167,7.43,7.126,10.043,11.755l47.634,84.463
			C386.661,318.655,392.254,342.291,391.26,365.746z"/>
		<path style="fill:#6864F7;" d="M220.927,239.603l-32.111,51.098h-9.007c-13.676,0-27.271,1.355-40.605,4.036l47.252-81.602
			c4.217-7.28,10.473-12.852,17.742-16.246c7.822,8.736,13.053,19.6,14.921,31.367L220.927,239.603z"/>
		<path style="fill:#6864F7;" d="M372.965,294.918c-13.605-2.801-27.502-4.217-41.479-4.217h-7.008l-32.643-55.867l1.044-6.577
			c1.898-11.949,7.27-22.983,15.302-31.789c7.802,3.414,14.499,9.298,18.887,17.069L372.965,294.918z"/>
		<path style="fill:#FFFFFF;" d="M292.083,233.262l47.764,84.695c13.241,22.721,15.1,50.343,5.023,74.639l-0.004,0.009
			c-13.008,31.365-43.578,51.806-77.478,51.806h-22.769c-33.897,0-64.464-20.436-77.474-51.796l0,0
			c-10.085-24.307-8.222-51.944,5.032-74.672l49.038-84.681l20.836,129.639h27.2L292.083,233.262z"/>
		<path style="fill:#93B2F4;" d="M289.358,366.166v-0.07c0-11.331-9.19-20.506-20.5-20.465l-25.864,0.094
			c-11.252,0.041-20.352,9.191-20.352,20.465v0c0,7.814,4.441,14.945,11.445,18.381l12.881,6.318
			c5.655,2.774,12.271,2.779,17.931,0.015l12.983-6.341C284.904,381.132,289.358,373.992,289.358,366.166z"/>
	</g>
	<g>
		<path style="fill:#052A75;" d="M242.958,335.725c-16.717,0.061-30.316,13.728-30.316,30.465c0,11.542,6.689,22.281,17.042,27.359
			l12.881,6.317c4.252,2.086,8.817,3.128,13.384,3.128c4.549,0,9.101-1.035,13.34-3.106l12.983-6.341
			c10.38-5.07,17.087-15.817,17.087-27.381v-0.07c0-8.166-3.184-15.835-8.965-21.595c-5.771-5.75-13.396-8.879-21.571-8.87
			L242.958,335.725z M268.934,355.631c2.77,0,5.377,1.078,7.344,3.038c1.987,1.98,3.081,4.618,3.081,7.427v0.07
			c0,3.976-2.302,7.67-5.864,9.41l-12.983,6.341c-2.906,1.421-6.237,1.416-9.14-0.008l-12.88-6.317
			c-3.554-1.743-5.85-5.434-5.85-9.403c0-5.75,4.66-10.444,10.389-10.465l25.864-0.094
			C268.908,355.631,268.92,355.631,268.934,355.631z"/>
		<path style="fill:#052A75;" d="M462.159,131.525c30.103-16.578,49.138-48.384,49.138-83.26C511.298,21.652,489.679,0,463.105,0
			h-18.461c-34.947,0-66.619,18.908-83.276,49.511C328.64,34.593,292.896,26.727,256,26.727c-36.895,0-72.64,7.866-105.368,22.784
			C133.975,18.909,102.303,0,67.355,0H48.895C22.321,0,0.702,21.652,0.702,48.266c0,34.874,19.036,66.681,49.139,83.26
			C17.486,175.345,0,227.992,0,283.196v25.384c0,18.38,7.894,35.895,21.655,48.053c11.397,10.068,25.937,15.661,40.944,15.986
			l-30.15,127.072c-0.706,2.976-0.012,6.111,1.885,8.51C36.23,510.601,39.12,512,42.179,512h427.643
			c3.059,0,5.948-1.399,7.845-3.798c1.896-2.399,2.591-5.535,1.885-8.51l-30.147-127.062c15.006-0.326,29.549-5.92,40.945-15.989
			C504.108,344.482,512,326.968,512,308.59v-25.394C512,227.992,494.514,175.345,462.159,131.525z M444.645,20h18.461
			c15.545,0,28.192,12.68,28.192,28.266c0,28.718-16.333,54.802-41.873,67.358c-4.025-4.642-8.225-9.167-12.609-13.56
			c-17.359-17.392-36.742-31.97-57.59-43.541C392.452,34.692,417.28,20,444.645,20z M20.702,48.266C20.702,32.68,33.35,20,48.895,20
			h18.461c27.365,0,52.193,14.693,65.419,38.522c-20.848,11.571-40.231,26.149-57.59,43.541c-4.385,4.393-8.585,8.919-12.609,13.56
			C37.035,103.067,20.702,76.982,20.702,48.266z M54.829,492l28.637-120.698c19.637-0.546,39.088,3.672,56.855,12.442l15.7,7.75
			c0.581,1.665,1.209,3.317,1.888,4.953c14.608,35.212,48.645,57.964,86.71,57.964h22.77c38.071,0,72.108-22.756,86.72-57.984
			c0.672-1.62,1.292-3.255,1.869-4.903l15.528-7.693c17.809-8.824,37.311-13.071,57.032-12.519L457.171,492H54.829z M492,308.59
			c0,12.647-5.429,24.698-14.895,33.062c-9.433,8.333-22.001,12.223-34.521,10.672c-28.072-3.499-56.357,1.527-81.563,14.382
			c1.23-18.586-3.005-37.432-12.537-53.79l-47.26-80.97c-2.784-4.769-8.906-6.381-13.678-3.596c-4.77,2.784-6.38,8.908-3.596,13.678
			l47.257,80.964c11.598,19.903,13.252,44.492,4.422,65.783c-11.498,27.723-38.284,45.637-68.241,45.637h-22.77
			c-29.953,0-56.737-17.91-68.237-45.628c-8.828-21.279-7.18-45.858,4.41-65.761l48.303-80.91c2.831-4.742,1.282-10.881-3.46-13.712
			c-4.743-2.832-10.882-1.281-13.712,3.46l-48.331,80.957c-0.018,0.029-0.035,0.059-0.053,0.088
			c-9.539,16.358-13.779,35.208-12.549,53.801c-25.217-12.857-53.526-17.897-81.611-14.388
			c-12.477,1.553-25.048-2.339-34.481-10.674C25.43,333.281,20,321.229,20,308.581v-25.384c0-62.895,24.626-122.205,69.341-167.004
			C134.05,71.396,193.237,46.727,256,46.727s121.95,24.669,166.659,69.465C467.374,160.992,492,220.302,492,283.196V308.59z"/>
		<circle style="fill:#052A75;" cx="354.088" cy="233.262" r="10"/>
		<circle style="fill:#052A75;" cx="157.912" cy="233.262" r="10"/>
	</g>
</g>
<g>
</g>
<g>
</g>
<g>
</g>
<g>
</g>
<g>
</g>
<g>
</g>
<g>
</g>
<g>
</g>
<g>
</g>
<g>
</g>
<g>
</g>
<g>
</g>
<g>
</g>
<g>
</g>
<g>
</g>
</svg>
