<?xml version="1.0" encoding="iso-8859-1"?>
<!-- Generator: Adobe Illustrator 28.3.0, SVG Export Plug-In . SVG Version: 6.00 Build 0)  -->
<svg version="1.1" id="Capa_1" xmlns="http://www.w3.org/2000/svg" xmlns:xlink="http://www.w3.org/1999/xlink" x="0px" y="0px"
	 viewBox="0 0 512 512" style="enable-background:new 0 0 512 512;" xml:space="preserve">
<g>
	<g>
		<g>
			<path style="fill:#93B2F4;" d="M167.435,134.314l-14.355-88.93C149.788,24.991,132.184,10,111.526,10h0
				C88.28,10,69.435,28.845,69.435,52.092v40.131c0,23.246,18.845,42.092,42.091,42.092H167.435z"/>
			<path style="fill:#93B2F4;" d="M344.565,134.314l14.355-88.93C362.212,24.991,379.816,10,400.474,10h0
				c23.247,0,42.092,18.845,42.092,42.092v40.131c0,23.246-18.845,42.092-42.092,42.092H344.565z"/>
			<path style="fill:#6864F7;" d="M167.43,134.315h-55.907c-8.796,0-16.969-2.701-23.726-7.33l0.12-0.482
				c9.86-38.035,31.88-70.356,61.249-93.269c1.878,3.745,3.213,7.822,3.916,12.149L167.43,134.315z"/>
			<path style="fill:#6864F7;" d="M424.204,126.986c-6.757,4.629-14.931,7.33-23.726,7.33H344.57l14.348-88.932
				c0.703-4.328,2.038-8.404,3.916-12.149c29.369,22.913,51.389,55.234,61.249,93.269L424.204,126.986z"/>
		</g>
		<g>
			<path style="fill:#D2DCFD;" d="M290.437,443.619h-68.874c-88.282,0-152.787-83.373-130.619-168.827l35.851-138.203
				C142.064,77.727,195.189,36.625,256,36.625h0c60.811,0,113.935,41.102,129.205,99.964l35.851,138.203
				C443.224,360.247,378.72,443.619,290.437,443.619z"/>
			<path style="fill:#93B2F4;" d="M330.67,437.56c-12.63,3.93-26.13,6.06-40.23,6.06h-68.88c-88.28,0-152.78-83.37-130.62-168.83
				l35.85-138.2c13.62-52.51,57.37-90.88,109.82-98.55c-31.12,44.65-49.37,98.95-49.37,157.5
				C187.24,299.9,245.19,390.71,330.67,437.56z"/>
			<path style="fill:#93B2F4;" d="M290.44,443.623h-68.88c-88.279,0-152.781-83.379-130.621-168.826l1.125-4.318l28.325,35.454
				c17.772,22.371,50.616,25.393,72.163,6.627l4.759-4.147h117.377l4.759,4.147c21.548,18.766,54.391,15.744,72.163-6.627
				l28.375-35.273l1.074,4.137C443.221,360.244,378.719,443.623,290.44,443.623z"/>
			<path style="fill:#93B2F4;" d="M384.402,133.653h-43.276c-24.118,0-45.495,15.533-52.935,38.486
				c-2.259,6.968-6.637,12.822-12.29,16.929c-5.643,4.117-12.571,6.476-19.901,6.476c-7.33,0-14.258-2.36-19.901-6.476
				c-5.653-4.107-10.031-9.96-12.29-16.929c-3.715-11.477-10.924-21.096-20.212-27.853c-9.288-6.747-20.664-10.633-32.723-10.633
				h-43.276C143.844,76.36,196.207,36.628,256,36.628c30.404,0,58.889,10.272,81.682,27.903
				C359.702,81.581,376.419,105.488,384.402,133.653z"/>
			<path style="fill:#6864F7;" d="M330.67,437.56c-12.63,3.93-26.13,6.06-40.23,6.06h-68.88c-88.28,0-152.78-83.38-130.62-168.82
				l1.12-4.32l28.33,35.45c17.77,22.37,50.61,25.4,72.16,6.63l4.76-4.15h14.01C235.99,363.36,278.13,408.77,330.67,437.56z"/>
			<path style="fill:#6864F7;" d="M236.61,38.04c-20.7,29.69-35.7,63.65-43.43,100.29c-6.89-3.03-14.46-4.68-22.31-4.68H127.6
				C142.06,82.65,185.15,45.56,236.61,38.04z"/>
		</g>
		<path style="fill:#D2DCFD;" d="M287.595,241.346l20.266,48.817c10.201,24.604,14.14,51.354,11.462,77.853l-10.395,102.861
			C307.142,488.55,292.265,502,274.502,502h-37.004c-17.763,0-32.64-13.45-34.426-31.122l-10.395-102.861
			c-2.678-26.5,1.26-53.25,11.462-77.853l20.266-48.817H287.595z"/>
	</g>
	<g>
		<g>
			<path style="fill:#052A75;" d="M400.474,0c-25.702,0-47.33,18.417-51.426,43.791l-2.434,15.078
				C321.664,38.548,289.946,26.625,256,26.625c-33.947,0-65.664,11.923-90.614,32.244l-2.434-15.078
				C158.856,18.417,137.229,0,111.526,0C82.803,0,59.435,23.368,59.435,52.091v40.131c0,28.724,23.368,52.092,52.092,52.092h2.933
				L81.264,272.282c-10.248,39.505-3.801,80.146,18.153,114.437c20.899,32.644,54.07,55.65,91.535,63.68l2.171,21.485
				C195.435,494.753,214.512,512,237.498,512h37.004c22.986,0,42.063-17.247,44.375-40.117l2.171-21.485
				c37.465-8.029,70.635-31.036,91.535-63.68c21.954-34.291,28.401-74.932,18.153-114.437L397.54,144.314h2.933
				c28.724,0,52.092-23.368,52.092-52.092V52.091C452.565,23.368,429.197,0,400.474,0z M79.435,92.223V52.091
				C79.435,34.396,93.831,20,111.526,20c15.834,0,29.158,11.346,31.682,26.978l4.653,28.83
				c-12.156,13.928-21.718,30.316-27.835,48.507h-8.5C93.831,124.314,79.435,109.918,79.435,92.223z M395.739,375.935
				c-16.84,26.304-42.896,45.346-72.56,53.377l6.093-60.289c2.835-28.052-1.375-56.646-12.173-82.689l-15.245-36.767
				c-2.115-5.103-7.967-7.523-13.067-5.407c-5.102,2.115-7.522,7.966-5.407,13.067l15.245,36.767
				c9.535,22.998,13.252,48.247,10.749,73.018l-10.395,102.861C297.703,482.487,287.181,492,274.502,492h-8.69v-48.381
				c0-5.523-4.478-10-10-10s-10,4.477-10,10V492h-8.313c-12.679,0-23.201-9.513-24.477-22.128l-10.395-102.861
				c-2.503-24.771,1.214-50.021,10.749-73.018l15.245-36.767c2.115-5.102-0.306-10.952-5.407-13.067
				c-5.104-2.115-10.952,0.306-13.067,5.407l-15.245,36.767c-10.798,26.043-15.008,54.637-12.173,82.689l6.093,60.289
				c-29.664-8.031-55.72-27.073-72.56-53.377c-18.918-29.549-24.472-64.577-15.638-98.631l35.852-138.203
				C150.599,84.652,199.75,46.625,256,46.625s105.401,38.027,119.525,92.476l35.852,138.203
				C420.211,311.358,414.657,346.386,395.739,375.935z M432.565,92.223c0,17.695-14.396,32.092-32.092,32.092h-8.5
				c-6.117-18.191-15.679-34.579-27.835-48.508l4.654-28.829C371.315,31.346,384.64,20,400.474,20
				c17.695,0,32.092,14.396,32.092,32.091V92.223z"/>
			<circle style="fill:#052A75;" cx="153.524" cy="240.122" r="10"/>
			<circle style="fill:#052A75;" cx="358.476" cy="240.122" r="10"/>
		</g>
	</g>
</g>
<g>
</g>
<g>
</g>
<g>
</g>
<g>
</g>
<g>
</g>
<g>
</g>
<g>
</g>
<g>
</g>
<g>
</g>
<g>
</g>
<g>
</g>
<g>
</g>
<g>
</g>
<g>
</g>
<g>
</g>
</svg>
