<?xml version="1.0" encoding="iso-8859-1"?>
<!-- Generator: Adobe Illustrator 28.3.0, SVG Export Plug-In . SVG Version: 6.00 Build 0)  -->
<svg version="1.1" id="Capa_1" xmlns="http://www.w3.org/2000/svg" xmlns:xlink="http://www.w3.org/1999/xlink" x="0px" y="0px"
	 viewBox="0 0 512.098 512.098" style="enable-background:new 0 0 512.098 512.098;" xml:space="preserve">
<g>
	<g>
		<g>
			<path style="fill:#D46B5C;" d="M480.971,138.272l-17.665,17.681c-10.259,10.269-27.047,10.269-37.307,0l-69.061-69.123
				L426,17.705c10.259-10.269,27.047-10.269,37.307,0l17.665,17.681C509.239,63.68,509.239,109.978,480.971,138.272z"/>
			<path style="fill:#D46B5C;" d="M31.127,138.272l17.665,17.681c10.259,10.269,27.047,10.269,37.307,0l69.061-69.123L86.098,17.705
				c-10.259-10.269-27.047-10.269-37.307,0L31.127,35.386C2.859,63.68,2.859,109.978,31.127,138.272z"/>
		</g>
		<path style="fill:#B55348;" d="M155.159,86.831l-68.98,69.041c-10.302,10.312-27.16,10.312-37.462,0l-15.804-15.814
			c0.141-0.241,0.291-0.472,0.432-0.703c22.21-35.906,53.728-64.412,91.492-82.877L155.159,86.831z"/>
		<path style="fill:#B55348;" d="M479.246,139.997l-15.865,15.875c-10.302,10.312-27.16,10.312-37.462,0l-68.98-69.041
			l30.253-30.283c37.492,18.264,68.88,46.459,91.12,81.933l0.12,0.191C478.704,139.113,478.985,139.555,479.246,139.997z"/>
		<path style="fill:#FD8F01;" d="M398.174,453.044l-142.252,27.052l-141.997-27.003C38.466,438.743-6.65,360.66,18.558,288.04
			l31.693-91.302c4.401-12.679,10.185-24.835,17.246-36.246l0,0c19.355-31.278,47.691-55.98,81.302-70.874l33.211-14.717
			c47.071-20.859,100.752-20.859,147.822,0l33.706,14.936c33.302,14.757,61.434,39.147,80.778,70.032l0.073,0.116
			c7.356,11.745,13.353,24.29,17.876,37.393l31.347,90.823C518.664,360.781,473.544,438.711,398.174,453.044z"/>
		<path style="fill:#FFFFFF;" d="M274.722,502.049h-37.346c-29.321,0-53.091-23.77-53.091-53.091v-35.311h143.528v35.311
			C327.813,478.279,304.043,502.049,274.722,502.049z"/>
		<path style="fill:#D2DCFD;" d="M327.811,413.649v35.093c0,9.76-2.621,18.917-7.209,26.779c-3.675,0.472-7.39,0.713-11.145,0.713
			c-12.4,0-24.48-2.54-35.896-7.561l-17.491-7.691l-17.24,7.581c-11.416,5.02-23.485,7.561-35.896,7.561
			c-3.886,0-7.731-0.261-11.527-0.753c-4.528-7.832-7.119-16.929-7.119-26.628v-35.093H327.811z"/>
		<path style="fill:#FD6050;" d="M387.343,343.072c0.191,0.351,0.392,0.693,0.572,1.044c-3.926,5.271-8.244,10.272-12.943,14.981
			l-12.35,12.36H149.476l-12.35-12.36c-4.789-4.789-12.475-9.9-16.462-15.282c0.311-0.562,0.612-1.125,0.934-1.687l50.144-88.681
			c1.155-2.038,1.757-4.338,1.767-6.677l0.02-22.09c0-1.165-1.839-3.379-1.839-3.379c-19.7,0-29.931-17.074-29.55-36.774
			l227.933,1.366c-0.361,19.098-10.222,35.486-29.4,35.486l-3.459,3.151l0.03,22.311c0,2.319,0.602,4.619,1.747,6.647
			L387.343,343.072z"/>
		<path style="fill:#FD8F01;" d="M359.96,185.211h-20.578c-21.714,0-39.31,17.633-39.282,39.367l0.028,22.307
			c0.011,8.343,2.161,16.544,6.247,23.817l50.325,89.587c8.669,15.432,9.264,34.128,1.594,50.081l0,0
			c-12.655,26.321-43.868,37.877-70.589,26.133l-20.225-8.889c-7.271-3.195-15.546-3.195-22.817,0l-19.977,8.78
			c-26.821,11.788-58.145,0.099-70.71-26.386l-0.293-0.619c-7.568-15.953-6.9-34.595,1.791-49.964l50.147-88.674
			c4.13-7.304,6.306-15.552,6.316-23.944l0.025-22.234c0.025-21.732-17.57-39.363-39.282-39.363h-20.582H359.96z"/>
	</g>
	<g>
		<g>
			<path style="fill:#FFFFFF;" d="M256.049,49.358c-5.523,0-10,4.477-10,10v108.187c0,5.523,4.477,10,10,10s10-4.477,10-10V59.358
				C266.049,53.835,261.572,49.358,256.049,49.358z"/>
			<path style="fill:#FFFFFF;" d="M480.61,240.664l-2.759-27.15c-0.559-5.495-5.467-9.503-10.959-8.938
				c-5.495,0.558-9.497,5.465-8.938,10.959l2.759,27.15c4.467,43.972-8.44,87.053-36.345,121.307l-14.041,17.235
				c-3.488,4.282-2.845,10.581,1.437,14.069c1.855,1.512,4.09,2.248,6.31,2.248c2.903,0,5.782-1.258,7.759-3.685l14.041-17.235
				c15.455-18.971,26.854-40.479,33.878-63.926C480.777,289.251,483.084,265.016,480.61,240.664z"/>
			<path style="fill:#FFFFFF;" d="M87.729,363.992c-27.905-34.254-40.812-77.334-36.345-121.307l2.759-27.15
				c0.559-5.494-3.443-10.401-8.938-10.959c-5.498-0.561-10.401,3.443-10.959,8.938l-2.759,27.15
				c-2.474,24.352-0.167,48.588,6.858,72.034c7.025,23.447,18.423,44.955,33.878,63.926l14.041,17.235
				c1.977,2.427,4.855,3.685,7.759,3.685c2.22,0,4.455-0.736,6.31-2.248c4.282-3.488,4.925-9.787,1.437-14.069L87.729,363.992z"/>
			<path style="fill:#FFFFFF;" d="M311.685,60.085c-5.523,0-10,4.477-10,10v60.749c0,5.523,4.477,10,10,10s10-4.477,10-10V70.085
				C321.685,64.562,317.208,60.085,311.685,60.085z"/>
			<path style="fill:#FFFFFF;" d="M200.413,60.085c-5.523,0-10,4.477-10,10v60.749c0,5.523,4.477,10,10,10s10-4.477,10-10V70.085
				C210.413,64.562,205.936,60.085,200.413,60.085z"/>
		</g>
		<g>
			<path style="fill:#052A75;" d="M471.373,194.116c-2.88-8.346-6.348-16.492-10.345-24.366c3.458-1.732,6.637-4.012,9.429-6.806
				l17.378-17.394c32.35-32.379,32.35-85.063,0-117.441l-17.378-17.395c-6.871-6.877-16.035-10.665-25.804-10.665
				c-9.769,0-18.933,3.788-25.804,10.665L354.551,75.07l-21.013-9.311c-49.546-21.956-106.378-21.956-155.925,0l-20.357,9.021
				L93.248,10.714C86.377,3.836,77.213,0.049,67.444,0.049c-9.769,0-18.933,3.788-25.804,10.665L24.262,28.108
				c-32.35,32.378-32.35,85.062,0,117.441l17.378,17.395c2.673,2.675,5.701,4.879,8.99,6.583
				c-3.922,7.74-7.329,15.743-10.171,23.932L8.766,284.761c-12.976,37.381-9.057,78.464,10.752,112.713
				c19.787,34.211,53.39,58.063,92.193,65.442l68.748,13.074c10.203,21.306,31.976,36.059,57.133,36.059h36.913
				c25.234,0,47.059-14.844,57.223-36.256l67.969-12.925c38.757-7.37,72.338-31.185,92.133-65.339
				c19.816-34.191,23.786-75.229,10.891-112.59L471.373,194.116z M432.998,24.85c3.093-3.096,7.232-4.801,11.655-4.801
				c4.423,0,8.562,1.705,11.655,4.801l17.378,17.395c24.562,24.584,24.562,64.585,0,89.17l-17.378,17.394
				c-1.529,1.53-3.316,2.722-5.278,3.537c-19.057-29.535-45.525-53.062-76.994-68.481L432.998,24.85z M38.411,131.414
				c-24.562-24.584-24.562-64.586,0-89.17L55.789,24.85c3.093-3.096,7.232-4.801,11.655-4.801c4.423,0,8.562,1.705,11.655,4.801
				l58.665,58.718c-31.559,15.426-58.073,38.973-77.16,68.565c-1.779-0.805-3.409-1.917-4.816-3.325L38.411,131.414z
				 M274.505,492.049h-36.913c-23.326,0-42.393-18.54-43.266-41.657c11.592,1.583,23.433-0.031,34.383-4.844l19.977-8.78
				c4.693-2.062,10.077-2.063,14.771,0l20.225,8.889c8.47,3.723,17.288,5.492,25.953,5.491c2.731,0,5.446-0.184,8.131-0.53
				C316.777,473.631,297.755,492.049,274.505,492.049z M474.525,387.5c-16.88,29.126-45.516,49.435-78.565,55.72l-58.408,11.107
				c0.162-1.843,0.261-3.703,0.261-5.587v-4.161c12.443-6.125,22.988-16.344,29.494-29.875c5.917-12.309,7.673-26.017,5.338-39.13
				l9.4-9.409c27.911-27.936,43.283-65.079,43.283-104.586v-21.45c0-5.523-4.477-10-10-10s-10,4.477-10,10v21.45
				c0,34.168-13.293,66.291-37.431,90.45l-2.795,2.797l-50.008-89.022c-3.24-5.769-4.957-12.315-4.965-18.932l-0.028-22.307
				c-0.01-7.845,3.036-15.22,8.576-20.767c5.531-5.538,12.884-8.587,20.706-8.587h20.578c5.523,0,10-4.477,10-10s-4.477-10-10-10
				h-20.578c-13.169,0-25.548,5.133-34.857,14.454c-9.319,9.331-14.442,21.734-14.425,34.926l0.028,22.307
				c0.012,10.031,2.615,19.956,7.528,28.702l50.325,89.587c7.065,12.578,7.552,27.849,1.3,40.851
				c-10.373,21.576-35.654,30.936-57.553,21.311l-20.225-8.889c-1.776-0.781-3.601-1.415-5.455-1.913v-26.652
				c2.34-0.778,4.608-1.816,6.742-3.146l27.006-16.835c4.687-2.922,6.118-9.089,3.196-13.776c-2.922-4.687-9.091-6.117-13.776-3.196
				l-27.006,16.835c-3.909,2.438-8.766,2.438-12.675,0l-26.656-16.616c-4.688-2.922-10.855-1.491-13.776,3.196
				c-2.921,4.687-1.49,10.854,3.196,13.776l26.656,16.616c2.241,1.397,4.629,2.47,7.093,3.258v26.553
				c-1.838,0.496-3.648,1.126-5.41,1.9l-19.977,8.78c-22.014,9.675-47.337,0.224-57.651-21.516l-0.294-0.619
				c-6.167-12.998-5.62-28.234,1.461-40.756l50.147-88.674c4.967-8.784,7.599-18.761,7.611-28.855l0.025-22.233
				c0.016-13.19-5.108-25.593-14.426-34.922c-9.309-9.32-21.688-14.453-34.855-14.453h-20.583c-5.523,0-10,4.477-10,10
				s4.477,10,10,10h20.583c7.821,0,15.174,3.049,20.705,8.586c5.54,5.546,8.586,12.921,8.577,20.765l-0.025,22.233
				c-0.008,6.658-1.744,13.24-5.02,19.033l-50.147,88.674c-0.012,0.021-0.022,0.042-0.034,0.062l-2.534-2.536
				c-24.138-24.159-37.431-56.282-37.431-90.45v-21.45c0-5.523-4.477-10-10-10s-10,4.477-10,10v21.45
				c0,39.507,15.372,76.65,43.283,104.586l9.297,9.306c-2.151,12.814-0.412,26.169,5.297,38.204l0.294,0.619
				c6.224,13.118,16.509,23.548,29.343,29.927v4.519c0,1.946,0.102,3.868,0.275,5.77l-59.112-11.242
				c-33.087-6.292-61.742-26.633-78.617-55.808c-16.896-29.213-20.239-64.255-9.171-96.141l31.693-91.302
				c4.154-11.966,9.639-23.494,16.303-34.264c18.373-29.69,44.947-52.855,76.85-66.993l33.211-14.717
				c44.396-19.674,95.322-19.674,139.72,0l33.707,14.937c31.597,14.001,58,36.893,76.348,66.187l0.079,0.127
				c6.944,11.086,12.629,22.979,16.898,35.348l31.348,90.823C494.814,323.333,491.428,358.336,474.525,387.5z"/>
			<circle style="fill:#052A75;" cx="345.269" cy="229.819" r="10"/>
			<circle style="fill:#052A75;" cx="166.829" cy="229.819" r="10"/>
		</g>
	</g>
</g>
<g>
</g>
<g>
</g>
<g>
</g>
<g>
</g>
<g>
</g>
<g>
</g>
<g>
</g>
<g>
</g>
<g>
</g>
<g>
</g>
<g>
</g>
<g>
</g>
<g>
</g>
<g>
</g>
<g>
</g>
</svg>
