<?xml version="1.0" encoding="iso-8859-1"?>
<!-- Generator: Adobe Illustrator 28.3.0, SVG Export Plug-In . SVG Version: 6.00 Build 0)  -->
<svg version="1.1" id="Capa_1" xmlns="http://www.w3.org/2000/svg" xmlns:xlink="http://www.w3.org/1999/xlink" x="0px" y="0px"
	 viewBox="0 0 512.004 512.004" style="enable-background:new 0 0 512.004 512.004;" xml:space="preserve">
<g>
	<g>
		<g>
			<g>
				<g>
					<path style="fill:#93B2F4;" d="M459.174,178.917l-4.545,18.337c-7.37,29.734-34.122,50.57-64.755,50.435l-138.568-0.612
						l64.856-141.75c12.662-27.675,30.173-52.86,51.706-74.367l15.068-15.05c9.253-9.242,24.718-7.381,31.514,3.794l27.229,44.774
						C462.53,98.766,468.829,139.963,459.174,178.917z"/>
				</g>
			</g>
			<g>
				<g>
					<path style="fill:#93B2F4;" d="M53.046,178.917l4.545,18.337c7.37,29.734,34.122,50.57,64.755,50.435l138.568-0.612
						l-64.856-141.75c-12.662-27.675-30.173-52.86-51.706-74.367l-15.068-15.05c-9.253-9.242-24.718-7.381-31.514,3.794
						L70.542,64.477C49.689,98.766,43.391,139.963,53.046,178.917z"/>
				</g>
			</g>
		</g>
		<path style="fill:#6864F7;" d="M251.303,247.077l4.809,0.02l-133.764,0.592c-30.635,0.131-57.383-20.704-64.753-50.435
			l-4.458-17.983c19.268-42.844,49.17-80.688,86.773-109.194l19.62-14.87c1.295-0.984,2.611-1.938,3.946-2.862
			c12.963,16.236,23.907,34.028,32.583,52.985l60.054,131.244L251.303,247.077z"/>
		<path style="fill:#6864F7;" d="M459.088,179.292l-4.458,17.963c-7.37,29.731-34.119,50.566-64.753,50.435l-133.764-0.592l4.8-0.02
			l-4.8-10.503l60.044-131.244c8.675-18.947,19.61-36.709,32.552-52.935c1.285,0.884,2.55,1.807,3.795,2.751l19.67,14.901
			C409.837,98.564,439.789,136.418,459.088,179.292z"/>
		<path style="fill:#D2DCFD;" d="M474.842,387.95l-28.847-17.27l-0.552,78.68l-34.38-33.135
			c-6.968,6.747-14.73,12.842-23.224,18.124l-89.142,55.486c-26.076,16.226-59.1,16.226-85.166,0l-89.152-55.486
			c-8.535-5.312-16.326-11.437-23.325-18.224l-34.49,33.235l-0.552-78.68l-28.847,17.27l23.917-95.538l7.219-28.807l8.625-32
			c13.937-51.65,44.621-97.205,87.245-129.516l19.62-14.87c13.716-10.402,30.454-16.025,47.664-16.025h49.19
			c17.19,0,33.918,5.613,47.624,15.985l19.67,14.891c42.694,32.321,73.438,77.927,87.375,129.627l8.675,32.161l0.131,0.492
			l7.099,28.556L474.842,387.95z"/>
		<path style="fill:#93B2F4;" d="M257.381,450.954h-2.543c-28.475,0-51.558-23.083-51.558-51.558v-54.101h105.659v54.101
			C308.939,427.87,285.856,450.954,257.381,450.954z"/>
		<g>
			<path style="fill:none;" d="M124.759,282.443v20.5c0,26.448,13.259,51.134,35.309,65.738l20.185,13.369"/>
			<path style="fill:none;" d="M387.461,282.443v20.5c0,26.448-13.259,51.134-35.309,65.738l-20.185,13.369"/>
		</g>
		<path style="fill:#93B2F4;" d="M135.445,342.575c0,0,2.823-11.794,5.083-17.51c0,0,28.095-71.095,28.103-71.117
			c-0.026-0.05-0.065-0.106-0.102-0.149c-0.024-0.001-14.411-0.002-14.411-0.002c-0.555,0-1.106-0.011-1.656-0.033
			c-25.955-1.052-24.758-40.13,1.219-40.13h204.858c25.977,0,27.174,39.077,1.219,40.13c-0.549,0.022-1.101,0.033-1.656,0.033
			c0,0-14.51,0.001-14.533,0.002c-0.037,0.043-0.076,0.099-0.102,0.149c0.008,0.022,28.364,72.18,28.364,72.18
			c2.129,5.417,4.866,16.575,4.866,16.575l-42.564,43.709l-153.882-1.389L135.445,342.575z"/>
		<path style="fill:#D2DCFD;" d="M358.102,200.555l-14.448,13.079c-28.428,0-47.934,28.624-37.537,55.082l28.335,72.102
			c2.921,7.432,4.226,15.401,3.83,23.377l-0.007,0.132c-1.58,31.78-34.513,52.118-63.636,39.299l-1.007-0.443
			c-11.081-4.878-23.695-4.886-34.78-0.018l-0.948,0.416c-29.279,12.856-62.288-7.562-63.854-39.431l-0.043-0.88
			c-0.393-8.001,0.927-15.993,3.871-23.443l28.074-71.04c10.46-26.469-9.047-55.154-37.508-55.154l-14.327-13.079H358.102z"/>
		<path style="fill:#6864F7;" d="M257.632,395.535h-3.044c-15.176,0-27.593-12.417-27.593-27.593v-6.764
			c0-7.215,5.849-13.064,13.064-13.064h32.102c7.215,0,13.064,5.849,13.064,13.064v6.764
			C285.225,383.118,272.808,395.535,257.632,395.535z"/>
	</g>
	<g>
		<g>
			<path style="fill:#6864F7;" d="M181.941,371.174l-16.351-10.83c-19.307-12.787-30.832-34.246-30.832-57.401v-20.5
				c0-5.523-4.478-10-10-10c-5.522,0-10,4.477-10,10v20.5c0,29.882,14.874,57.574,39.787,74.075l16.351,10.83
				c1.7,1.126,3.617,1.664,5.514,1.664c3.241,0,6.422-1.574,8.346-4.479C187.806,380.428,186.545,374.223,181.941,371.174z"/>
			<path style="fill:#6864F7;" d="M387.461,272.443c-5.522,0-10,4.477-10,10v20.5c0,23.156-11.525,44.614-30.831,57.401
				l-15.642,10.359c-4.604,3.05-5.865,9.255-2.815,13.859c1.924,2.905,5.104,4.479,8.346,4.479c1.896,0,3.814-0.539,5.513-1.664
				l15.643-10.36c24.913-16.501,39.787-44.193,39.787-74.075v-20.5C397.461,276.92,392.983,272.443,387.461,272.443z"/>
			<path style="fill:#6864F7;" d="M256.109,62.192c-5.522,0-10,3.477-10,9v129.363c0,5.523,4.478,10,10,10s10-4.477,10-10V71.192
				C266.109,65.669,261.632,62.192,256.109,62.192z"/>
		</g>
		<g>
			<path style="fill:#052A75;" d="M484.545,385.533l-31.247-125.555c-0.008-0.032-0.02-0.061-0.028-0.093
				c-0.008-0.032-0.012-0.064-0.021-0.096l-7.138-26.472c8.822-9.474,15.09-21.014,18.224-33.658l4.545-18.337
				c10.224-41.25,3.423-85.733-18.659-122.042l-27.229-44.774c-4.844-7.964-12.929-13.171-22.184-14.285
				c-9.251-1.113-18.345,2.025-24.94,8.613l-15.067,15.049c-14.487,14.47-27.243,30.571-38.017,47.96
				c-12.896-6.92-27.457-10.652-42.138-10.652h-49.198c-14.646,0-29.173,3.712-42.046,10.6
				c-10.766-17.368-23.51-33.453-37.983-47.909L136.352,8.834c-6.596-6.587-15.685-9.73-24.941-8.612
				c-9.255,1.114-17.34,6.321-22.183,14.285L61.998,59.281C39.916,95.592,33.115,140.074,43.34,181.323l4.545,18.336
				c3.133,12.644,9.4,24.184,18.224,33.659l-6.843,25.374c-0.008,0.031-0.012,0.063-0.02,0.094
				c-0.007,0.026-0.017,0.051-0.024,0.078L27.463,385.516c-0.983,3.922,0.493,8.051,3.74,10.461
				c1.762,1.309,3.857,1.971,5.961,1.971c1.771,0,3.549-0.47,5.135-1.419l13.831-8.279l0.434,61.184
				c0.028,3.999,2.436,7.595,6.121,9.146c1.252,0.527,2.569,0.783,3.877,0.783c2.54,0,5.041-0.969,6.942-2.801l27.756-26.755
				c5.606,4.768,11.578,9.138,17.836,13.034l89.144,55.482c14.379,8.95,30.932,13.68,47.868,13.68c16.938,0,33.49-4.73,47.869-13.68
				l89.144-55.482c6.216-3.869,12.147-8.208,17.72-12.938l27.657,26.66c1.901,1.833,4.401,2.801,6.942,2.801
				c1.307,0,2.625-0.257,3.877-0.783c3.686-1.551,6.093-5.148,6.121-9.146l0.434-61.185l13.832,8.279
				c1.587,0.95,3.363,1.419,5.135,1.419c2.1,0,4.193-0.661,5.954-1.965C484.041,393.577,485.521,389.454,484.545,385.533z
				 M374.934,38.034l15.067-15.049c2.226-2.223,5.292-3.285,8.417-2.907c3.123,0.376,5.852,2.133,7.486,4.82l27.229,44.774
				c19.331,31.786,25.284,70.727,16.335,106.838l-4.545,18.337c-1.304,5.262-3.342,10.266-6.039,14.884
				c-16.436-45.702-46.08-86.239-84.914-115.632l-14.603-11.053C349.415,66.712,361.354,51.598,374.934,38.034z M62.752,176.511
				c-8.95-36.11-2.997-75.051,16.334-106.838l27.229-44.774c1.635-2.688,4.362-4.444,7.485-4.82c3.116-0.375,6.19,0.682,8.417,2.907
				l15.068,15.049c13.564,13.548,25.489,28.64,35.528,44.951l-14.682,11.13c-38.786,29.401-68.392,69.931-84.801,115.609
				c-2.694-4.615-4.73-9.616-6.034-14.875L62.752,176.511z M433.853,351.76c-4.739-2.837-10.881-1.293-13.716,3.445
				c-2.837,4.739-1.295,10.88,3.444,13.716l12.375,7.407l-0.352,49.666l-26.636-25.676c-3.978-3.834-10.308-3.717-14.141,0.26
				c-3.832,3.976-3.716,10.307,0.26,14.14l1.273,1.227c-4.374,3.598-8.991,6.92-13.807,9.917l-89.144,55.482
				c-23.008,14.32-51.593,14.319-74.601,0l-89.144-55.482c-4.859-3.024-9.514-6.38-13.923-10.014l1.173-1.13
				c3.976-3.833,4.092-10.164,0.26-14.14c-3.833-3.977-10.164-4.092-14.141-0.26l-26.637,25.676l-0.352-49.665l12.376-7.408
				c4.739-2.836,6.281-8.978,3.444-13.716c-2.835-4.738-8.976-6.28-13.716-3.445l-25.42,15.215l25.872-103.178l7.98-29.591
				c13.28-49.248,42.981-93.339,83.63-124.153l19.614-14.869c11.903-9.022,26.684-13.992,41.62-13.992h49.198
				c14.919,0,29.687,4.958,41.581,13.963l19.673,14.891c40.717,30.819,70.463,74.946,83.76,124.251l8.253,30.607l25.411,102.101
				L433.853,351.76z"/>
			<path style="fill:#052A75;" d="M358.103,203.635h-14.449c-16.66,0-32.208,8.22-41.591,21.987
				c-9.383,13.768-11.346,31.246-5.252,46.753l28.335,72.102c2.418,6.153,3.478,12.621,3.146,19.275l-0.003,0.079
				c-0.588,11.811-6.695,22.149-16.757,28.363c-8.838,5.458-19.155,6.76-28.87,3.767c7.704-6.889,12.564-16.895,12.564-28.019
				v-6.764c0-12.718-10.347-23.064-23.064-23.064h-32.103c-12.718,0-23.064,10.347-23.064,23.064v6.764
				c0,11.144,4.878,21.165,12.606,28.055c-9.706,2.904-19.976,1.566-28.775-3.876c-10.086-6.239-16.204-16.613-16.786-28.458
				l-0.043-0.882c-0.325-6.625,0.745-13.11,3.183-19.277l28.074-71.041c6.131-15.513,4.19-33.009-5.189-46.802
				c-9.381-13.793-24.939-22.027-41.619-22.027h-14.327c-5.522,0-10,4.477-10,10s4.478,10,10,10h14.327
				c10.202,0,19.344,4.838,25.081,13.274s6.877,18.716,3.128,28.204l-28.074,71.04c-3.491,8.833-5.024,18.121-4.56,27.606
				l0.043,0.883c0.896,18.248,10.706,34.878,26.241,44.488c1.374,0.85,2.787,1.612,4.215,2.333
				c5.756,28.489,31.062,49.491,60.53,49.491h2.122c29.408,0,54.669-20.916,60.494-49.316c1.486-0.742,2.948-1.546,4.375-2.427
				c15.515-9.581,25.317-26.174,26.226-44.439l0.003-0.078c0.472-9.456-1.046-18.719-4.51-27.532l-28.334-72.101
				c-3.728-9.485-2.574-19.754,3.165-28.175c5.738-8.42,14.874-13.25,25.063-13.25h14.449c5.522,0,10-4.477,10-10
				S363.625,203.635,358.103,203.635z M236.994,361.178c0-1.69,1.375-3.064,3.064-3.064h32.103c1.689,0,3.064,1.375,3.064,3.064
				v6.764c0,9.701-7.893,17.593-17.594,17.593h-3.044c-9.701,0-17.594-7.892-17.594-17.593V361.178z M257.171,440.953h-2.122
				c-16.336,0-30.785-9.536-37.607-23.579c8.287,0.313,16.658-1.201,24.48-4.636l0.951-0.417c8.491-3.73,18.235-3.725,26.73,0.014
				l1.007,0.443c7.138,3.143,14.74,4.697,22.317,4.696c0.606,0,1.212-0.011,1.817-0.031
				C287.909,431.45,273.48,440.953,257.171,440.953z"/>
			<circle style="fill:#052A75;" cx="347.742" cy="257.52" r="10"/>
			<circle style="fill:#052A75;" cx="164.477" cy="257.52" r="10"/>
		</g>
	</g>
</g>
<g>
</g>
<g>
</g>
<g>
</g>
<g>
</g>
<g>
</g>
<g>
</g>
<g>
</g>
<g>
</g>
<g>
</g>
<g>
</g>
<g>
</g>
<g>
</g>
<g>
</g>
<g>
</g>
<g>
</g>
</svg>
