<svg id="Capa_1" enable-background="new 0 0 512 512" height="512" viewBox="0 0 512 512" width="512" xmlns="http://www.w3.org/2000/svg"><g><circle cx="254" cy="230.612" fill="#efedff" r="223.112"/><ellipse cx="254" cy="347.154" fill="#a78cd6" rx="107.139" ry="94.276"/><path d="m342.702 294.266c-19.271-24.977-51.807-41.389-88.702-41.389s-69.43 16.411-88.702 41.389c24.859 13.839 55.649 21.319 88.702 21.319s63.843-7.48 88.702-21.319z" fill="#807bcf"/><path d="m378.491 185.951c0-65.555-55.737-113.599-124.491-113.599-68.755 0-124.491 48.044-124.491 113.599s55.737 101.633 124.491 101.633c68.755.001 124.491-36.078 124.491-101.633z" fill="#a78cd6"/><g><g fill="#fff"><ellipse cx="174.443" cy="204.808" rx="29.355" ry="23.377"/><ellipse cx="333.557" cy="204.808" rx="29.355" ry="23.377"/></g></g><path d="m434.605 504.5h-361.21c-30.553 0-55.321-24.768-55.321-55.321v-53.704c0-30.553 24.768-55.321 55.321-55.321h361.211c30.553 0 55.321 24.768 55.321 55.321v53.704c-.001 30.553-24.769 55.321-55.322 55.321z" fill="#f5ea72"/><path d="m73.395 340.154c-30.553 0-55.321 24.768-55.321 55.321v53.704c0 30.553 24.768 55.321 55.321 55.321h133.966c-50.15-41.511-45.633-135.514-36.452-164.346z" fill="#ebca5f"/><path d="m105.94 388.642-24.988 24.988c-4.803 4.803-4.803 12.59 0 17.392l24.988 24.988c4.803 4.803 12.59 4.803 17.393 0l24.988-24.988c4.803-4.803 4.803-12.59 0-17.392l-24.988-24.988c-4.803-4.802-12.59-4.802-17.393 0z" fill="#de5c6e"/><path d="m422.468 400.338c0-4.143-3.357-7.5-7.5-7.5h-202.858c-4.143 0-7.5 3.357-7.5 7.5s3.357 7.5 7.5 7.5h202.857c4.143 0 7.501-3.358 7.501-7.5zm-104.02-210.533c4.142 0 7.5-3.357 7.5-7.5v-12c0-4.143-3.358-7.5-7.5-7.5-4.143 0-7.5 3.357-7.5 7.5v12c0 4.142 3.358 7.5 7.5 7.5zm-124.896-27c-4.143 0-7.5 3.357-7.5 7.5v12c0 4.143 3.357 7.5 7.5 7.5s7.5-3.357 7.5-7.5v-12c0-4.143-3.358-7.5-7.5-7.5zm18.558 274.011c-4.143 0-7.5 3.357-7.5 7.5s3.357 7.5 7.5 7.5h67.938c4.142 0 7.5-3.357 7.5-7.5s-3.358-7.5-7.5-7.5zm-109.473-53.477c-15.471 15.471-9.519 9.519-24.987 24.988-7.737 7.735-7.741 20.261-.001 27.999l24.988 24.989c7.717 7.717 20.279 7.718 28-.001l24.987-24.987c7.719-7.72 7.719-20.28 0-27.999l-24.988-24.989c-7.72-7.72-20.282-7.718-27.999 0zm42.38 42.382-24.986 24.987c-1.871 1.869-4.918 1.87-6.787.001l-24.989-24.989c-1.874-1.874-1.876-4.909.001-6.786l24.986-24.987c1.869-1.871 4.916-1.872 6.787-.001l24.987 24.989c1.872 1.87 1.872 4.915.001 6.786zm133.101-238.847c2.722-3.122 2.396-7.86-.728-10.581-3.123-2.722-7.86-2.398-10.581.727-2.729 3.132-6.669 4.928-10.81 4.928s-8.08-1.796-10.81-4.928c-2.721-3.124-7.459-3.448-10.581-.727-3.123 2.721-3.449 7.459-.728 10.581 5.578 6.402 13.641 10.074 22.118 10.074 8.48 0 16.542-3.672 22.12-10.074zm182.333 150.494c17.135-32.787 26.161-69.497 26.161-106.756 0-127.452-103.142-230.612-230.612-230.612-41.402 0-82.012 11.101-117.436 32.102-3.564 2.112-4.739 6.713-2.627 10.275 2.112 3.565 6.715 4.741 10.275 2.627 33.111-19.629 71.075-30.004 109.788-30.004 119.166 0 215.612 96.438 215.612 215.612 0 35.94-8.976 71.327-25.991 102.698-8.059-1.163-7.375-.439-76.155-.656-3.525-21.753-15.006-42.024-32.515-57.559 32.021-18.743 51.04-49.578 51.04-89.144 0-70.005-59.394-121.099-131.991-121.099-72.718 0-131.991 51.202-131.991 121.099 0 39.47 18.937 70.354 51.041 89.144-17.509 15.535-28.991 35.806-32.516 57.559-69.077.218-68.167-.497-76.155.656-17.015-31.372-25.991-66.759-25.991-102.698 0-63.958 28.147-124.225 77.222-165.345 3.175-2.66 3.592-7.391.932-10.566-2.66-3.173-7.391-3.593-10.565-.932-52.488 43.979-82.589 108.436-82.589 176.843 0 37.259 9.024 73.969 26.159 106.757-22.845 9.411-38.973 31.905-38.973 58.106v53.704c0 34.64 28.181 62.821 62.82 62.821h314.903c4.142 0 7.5-3.357 7.5-7.5s-3.358-7.5-7.5-7.5h-314.902c-26.368 0-47.82-21.452-47.82-47.821v-53.704c0-26.368 21.452-47.82 47.82-47.82h361.211c26.368 0 47.82 21.452 47.82 47.82v53.704c0 26.369-21.452 47.821-47.82 47.821h-10.489c-4.143 0-7.5 3.357-7.5 7.5s3.357 7.5 7.5 7.5h10.489c34.64 0 62.82-28.182 62.82-62.821v-53.704c0-26.202-16.129-48.697-38.975-58.107zm-321.442-151.417c0-61.352 52.356-106.099 116.991-106.099 64.818 0 116.991 44.908 116.991 106.099 0 63.04-54.946 94.134-116.991 94.134-62.046 0-116.991-31.094-116.991-94.134zm18.758 146.703c3.768-19.271 15.056-37.098 31.92-50.23 39.573 16.846 92.772 16.966 132.626 0 16.864 13.132 28.151 30.96 31.92 50.23z"/></g></svg>