<svg id="Capa_1" enable-background="new 0 0 512 512" height="512" viewBox="0 0 512 512" width="512" xmlns="http://www.w3.org/2000/svg"><g><ellipse cx="62.708" cy="272.063" fill="#ffbf9e" rx="49.108" ry="43.977"/><ellipse cx="449.292" cy="272.063" fill="#ffbf9e" rx="49.108" ry="43.977"/><path d="m256 496.033 113.306-28.827c-17.848-45.109-61.848-77.019-113.306-77.019s-95.457 31.91-113.306 77.019z" fill="#efedff"/><path d="m256 444.476c31.96 0 62.603-4.891 90.354-14.169-22.29-24.638-54.513-40.12-90.354-40.12s-68.064 15.482-90.354 40.12c27.752 9.278 58.394 14.169 90.354 14.169z" fill="#d4d4ff"/><path d="m135.746 492.463c-1.65 10.236 6.204 19.537 16.572 19.537h207.364c10.368 0 18.222-9.301 16.572-19.537-1.413-8.768-3.769-17.221-6.948-25.257h-226.612c-3.179 8.036-5.535 16.489-6.948 25.257z" fill="#de5c6e"/><path d="m447.501 261.821c0 93.185-85.738 151.75-191.501 151.75s-191.501-58.566-191.501-151.75 85.738-168.726 191.501-168.726 191.501 75.541 191.501 168.726z" fill="#ffd4be"/><g><g fill="#eda1ab"><ellipse cx="174.042" cy="287.074" rx="30.241" ry="24.082"/><ellipse cx="337.958" cy="287.074" rx="30.241" ry="24.082"/></g><path d="m217.606 259.427c-3.196 0-6.158-2.06-7.158-5.272-1.232-3.955.976-8.159 4.931-9.391 19.929-6.206 126.055-74.776 146.829-93.433 3.082-2.768 7.824-2.514 10.591.569 2.768 3.081 2.513 7.824-.569 10.591-22.74 20.422-130.056 89.639-152.392 96.594-.742.232-1.493.342-2.232.342z" fill="#4e5660"/><path d="m165.952 268.542c-27.885 0-79.651-13.322-91.059-16.901-3.952-1.24-6.151-5.449-4.911-9.401 1.239-3.951 5.446-6.152 9.401-4.911 10.519 3.3 60.789 16.213 86.569 16.213 4.142 0 7.5 3.358 7.5 7.5s-3.358 7.5-7.5 7.5z" fill="#4e5660"/><g><path d="m206.861 231.728h-30.39c-5.935 0-10.747 4.812-10.747 10.747v15.195c0 14.327 11.614 25.942 25.942 25.942 14.327 0 25.942-11.614 25.942-25.942v-15.195c0-5.936-4.811-10.747-10.747-10.747z" fill="#4e5660"/></g><g fill="#4e5660"><path d="m320.333 271.392c-4.142 0-7.5-3.358-7.5-7.5v-12.362c0-4.142 3.358-7.5 7.5-7.5s7.5 3.358 7.5 7.5v12.362c0 4.142-3.358 7.5-7.5 7.5z"/><path d="m276.699 284.702c-3.946 0-7.252-3.081-7.481-7.07-.059-1.027-1.182-4.415-4.097-5.667-4.992-2.146-14.331 1.954-24.984 10.964-3.164 2.676-7.896 2.278-10.57-.883-2.675-3.163-2.279-7.895.883-10.57 15.988-13.523 29.644-17.996 40.591-13.293 8.513 3.656 12.785 12.2 13.152 18.59.237 4.135-2.922 7.68-7.058 7.917-.146.008-.292.012-.436.012z"/></g></g><path d="m69.347 143.938c-10.585 17.032-18.855 60.755-14.764 91.432 2.073 15.547 20.375 22.974 32.774 13.368 20.652-16 48.689-47.074 62.561-96.134 20.877-73.829-57.782-45.335-80.571-8.666z" fill="#d2996f"/><path d="m442.653 143.938c10.585 17.032 18.855 60.755 14.764 91.432-2.074 15.547-20.375 22.974-32.774 13.368-20.652-16-48.689-47.074-62.561-96.134-20.877-73.829 57.782-45.335 80.571-8.666z" fill="#d2996f"/><path d="m385.766 58.995c-64.838 0-47.58-58.995-129.766-58.995-13.609 0-24.479 1.625-33.459 4.324-61.936 46.486-61.936 151.82 33.459 169.771 100.719 0 149.719-15.498 186.653-30.157 17.029-68.702-21.786-84.943-56.887-84.943z" fill="#6171a3"/><path d="m222.541 4.324c-45.25 13.603-42.206 54.671-96.307 54.671-35.102 0-73.917 16.241-56.887 84.943 36.933 14.659 85.934 30.157 186.653 30.157-69.964-20.863-76.909-122.941-33.459-169.771z" fill="#475a99"/><g fill="#efedff"><ellipse cx="256" cy="59.882" rx="34.522" ry="25.989"/><path d="m297.699 132.051-19.77-7.196 19.77-7.196c3.893-1.417 5.899-5.721 4.483-9.613-1.417-3.893-5.722-5.899-9.613-4.483l-36.569 13.31-36.569-13.31c-3.89-1.416-8.196.59-9.613 4.483-1.417 3.892.59 8.196 4.483 9.613l19.77 7.196-19.77 7.196c-3.893 1.417-5.899 5.721-4.483 9.613 1.415 3.887 5.716 5.901 9.613 4.483l36.569-13.311 36.569 13.31c3.901 1.419 8.2-.6 9.613-4.483 1.416-3.892-.591-8.195-4.483-9.612z"/></g></g></svg>