<svg id="Capa_1" enable-background="new 0 0 512 512" height="512" viewBox="0 0 512 512" width="512" xmlns="http://www.w3.org/2000/svg"><g><path d="m153.9 99.553c28.316 28.316 35.457 67.084 15.95 86.592-19.507 19.507-58.276 12.366-86.592-15.95s-44.68-76.307-25.173-95.814 67.499-3.144 95.815 25.172z" fill="#d4d4ff"/><path d="m148.743 196.51c-1.119-7.739-3.541-16.481-7.646-26.37-22.807-54.945-62.094-78.638-88.441-87.732-10.032 22.543 5.628 62.811 30.603 87.786 20.105 20.107 45.475 29.522 65.484 26.316z" fill="#6171a3"/><path d="m358.1 99.553c-28.316 28.316-35.457 67.084-15.95 86.592 19.507 19.507 58.276 12.366 86.592-15.95s44.68-76.307 25.173-95.814-67.499-3.144-95.815 25.172z" fill="#d4d4ff"/><path d="m363.257 196.51c1.119-7.739 3.541-16.481 7.646-26.37 22.807-54.945 62.094-78.638 88.441-87.732 10.032 22.543-5.628 62.811-30.603 87.786-20.105 20.107-45.475 29.522-65.484 26.316z" fill="#6171a3"/><path d="m256 484.327c86.724 0 149.699-4.454 203.151-29.69 13.999-6.609 20.18-23.203 13.79-37.303-12.452-27.479-16.054-72.858-16.054-159.651 0-134.326-125.51-168.038-200.887-168.038s-200.887 33.712-200.887 168.039c0 86.792-3.601 132.172-16.054 159.651-6.39 14.1-.209 30.694 13.79 37.303 53.452 25.235 116.427 29.689 203.151 29.689z" fill="#de5c6e"/><path d="m256 484.327c70.992 0 126.063-2.993 173.031-17.919-33.058-35.848-32.237-145.272-32.237-179.422h-281.588c0 34.15.821 143.574-32.237 179.422 46.967 14.926 102.039 17.919 173.031 17.919z" fill="#d5364c"/><ellipse cx="77.111" cy="289.942" fill="#ffcbbe" rx="45.449" ry="40.701"/><ellipse cx="434.889" cy="289.942" fill="#ffcbbe" rx="45.449" ry="40.701"/><path d="m341.276 438.263c-23.695-7.763-55.095-10.243-85.276-10.243s-61.581 2.48-85.275 10.243c-13.373 15.452-22.62 34.575-26.018 55.656-1.527 9.474 5.741 18.081 15.337 18.081h191.913c9.596 0 16.865-8.607 15.337-18.081-3.399-21.081-12.645-40.203-26.018-55.656z" fill="#d4d4ff"/><path d="m256 451.81c30.181 0 59.112-4.679 85.276-13.547-20.672-23.885-51.208-38.999-85.276-38.999s-64.604 15.114-85.275 38.999c26.163 8.868 55.094 13.547 85.275 13.547z" fill="#9ea2e3"/><path d="m433.232 280.463c0 86.241-79.349 140.442-177.232 140.442s-177.231-54.201-177.231-140.442 79.349-156.154 177.231-156.154 177.232 69.912 177.232 156.154z" fill="#ffddcf"/><path d="m256 110.741c-151.828 0-198.398 126.665-173.745 138.763 25.725.183 44.233-10.509 53.661-23.772 1.894-2.664 5.132-4.055 8.372-3.617 42.57 5.754 83.648-11.323 105.148-34.169 3.573-3.796 9.556-3.796 13.128 0 21.5 22.845 62.578 39.923 105.148 34.169 3.239-.438 6.478.952 8.372 3.617 9.428 13.263 27.937 23.955 53.661 23.772 24.653-12.098-21.917-138.763-173.745-138.763z" fill="#de5c6e"/><path d="m294.39 51.727c-27.007-5.101-59.038 8.063-84.386 25.67-2.827 10.947-5.085 21.761-6.543 31.907-1.04 7.239 2.068 14.538 8.242 18.459 10.733 6.816 27.568 11.633 44.298 11.633s33.565-4.817 44.298-11.633c6.174-3.921 9.282-11.22 8.241-18.459-2.599-18.081-7.703-38.271-14.15-57.577z" fill="#f5ea72"/><path d="m294.39 51.727c-4.271-12.79-9.127-25.195-14.256-36.328-9.46-20.532-38.808-20.532-48.267 0-8.527 18.508-16.312 40.511-21.862 61.998 24.296-2.716 57.137-11.096 84.385-25.67z" fill="#5ec783"/><g><g><ellipse cx="174.042" cy="303.535" fill="#eda1ab" rx="30.241" ry="24.082"/><ellipse cx="337.958" cy="303.535" fill="#eda1ab" rx="30.241" ry="24.082"/><path d="m256 277.948c-11.997 0-22.681-8.062-29.401 1.88-6.816 10.085 8.45 25.723 29.401 25.723s36.217-15.638 29.401-25.723c-6.72-9.942-17.404-1.88-29.401-1.88z" fill="#4e5660"/></g><g fill="#4e5660"><path d="m191.666 286.188c-7.281 0-14.207-3.154-19-8.652-2.722-3.122-2.397-7.86.725-10.582 3.124-2.722 7.859-2.397 10.582.725 1.944 2.23 4.748 3.509 7.693 3.509 2.946 0 5.751-1.279 7.693-3.508 2.722-3.123 7.457-3.448 10.582-.727 3.122 2.722 3.448 7.459.727 10.582-4.793 5.499-11.719 8.653-19.002 8.653z"/><path d="m320.334 286.188c-7.283 0-14.209-3.154-19.002-8.653-2.722-3.123-2.396-7.86.727-10.582 3.122-2.721 7.859-2.396 10.582.727 1.942 2.229 4.747 3.508 7.693 3.508 2.945 0 5.749-1.279 7.693-3.509 2.721-3.124 7.459-3.448 10.582-.725 3.122 2.722 3.446 7.459.725 10.582-4.793 5.498-11.719 8.652-19 8.652z"/></g></g></g></svg>