<svg id="Capa_1" enable-background="new 0 0 512 512" height="512" viewBox="0 0 512 512" width="512" xmlns="http://www.w3.org/2000/svg"><g><path d="m115.426 311.012-25.295 25.295c-7.618 7.618-7.618 19.968 0 27.585l41.826 41.826 52.881-52.881-41.826-41.826c-7.618-7.616-19.968-7.616-27.586.001z" fill="#d2996f"/><path d="m236.283 381.718-75.447 75.447c-7.117 7.117-18.657 7.117-25.774 0l-16.892-16.892c-7.117-7.117-7.117-18.657 0-25.774l75.447-75.447c7.117-7.117 18.657-7.117 25.774 0l16.892 16.892c7.118 7.117 7.118 18.657 0 25.774z" fill="#ebca5f"/><path d="m.81 136.019c-4.015-17.956 7.287-35.766 25.243-39.78 28.589-6.392 100.521-19.155 150.854.329 17.158 6.641 25.684 25.936 19.041 43.094-6.641 17.158-25.934 25.685-43.094 19.042-22.422-8.679-66.49-7.675-112.264 2.558-17.956 4.015-35.766-7.287-39.78-25.243z" fill="#d5364c"/><path d="m40.975 250.694c-13.229-12.789-13.585-33.879-.796-47.107 20.361-21.062 73.418-71.282 126.171-82.692 17.983-3.89 35.715 7.536 39.604 25.519 3.89 17.982-7.533 35.715-25.519 39.604-23.5 5.083-59.752 30.158-92.353 63.88-12.788 13.228-33.879 13.584-47.107.796z" fill="#d5364c"/><path d="m433.06 466.422c-4.437-27.523-17.202-52.256-35.621-71.544-37.731-2.177-63.117-4.363-97.618-4.363-34.502 0-59.888 2.186-97.618 4.363-18.418 19.288-31.184 44.02-35.621 71.544-1.828 11.342 6.874 21.646 18.361 21.646h229.755c11.489.001 20.191-10.304 18.362-21.646z" fill="#6171a3"/><path d="m299.821 409.917c34.501 0 67.593-5.182 97.618-15.038-24.576-25.737-59.222-41.775-97.618-41.775s-73.042 16.039-97.618 41.775c30.025 9.856 63.117 15.038 97.618 15.038z" fill="#475a99"/><path d="m512 210.876c0 103.246-94.996 168.135-212.179 168.135s-212.178-64.889-212.178-168.135 94.995-186.945 212.178-186.945 212.179 83.698 212.179 186.945z" fill="#6171a3"/><path d="m448.514 217.123c0-83.717-66.572-110.865-148.693-110.865s-148.693 27.147-148.693 110.865 66.572 95.333 148.693 95.333 148.693-11.615 148.693-95.333z" fill="#f2d1a5"/><path d="m110.744 124.178c32.688 9.755 79.202 19.35 138.046 19.445 18.284.03 33.772-14.255 34.189-32.534.429-18.756-14.647-34.095-33.306-34.095-36.849 0-67.658-4.028-93.246-9.706-6.971-1.547-14.293.416-19.526 5.274-11.993 11.135-22.558 23.492-31.429 36.838-3.632 5.466-1.016 12.901 5.272 14.778z" fill="#de5c6e"/><path d="m488.898 124.178c-32.688 9.755-79.202 19.35-138.046 19.445-18.284.03-33.772-14.255-34.189-32.534-.429-18.756 14.647-34.095 33.306-34.095 36.849 0 67.658-4.028 93.246-9.706 6.971-1.547 14.294.416 19.526 5.274 11.993 11.135 22.558 23.492 31.429 36.838 3.633 5.466 1.017 12.901-5.272 14.778z" fill="#de5c6e"/><path d="m344.428 72.589h-25.414l-54.559 24.795-18.68 48.444c2.854 1.395 6.05 2.199 9.441 2.199h89.212c11.909 0 21.563-9.654 21.563-21.563v-32.312c-.001-11.909-9.655-21.563-21.563-21.563z" fill="#efedff"/><g><g><ellipse cx="217.773" cy="237.36" fill="#eda1ab" rx="30.274" ry="24.109"/><ellipse cx="381.87" cy="237.36" fill="#eda1ab" rx="30.274" ry="24.109"/><path d="m324.23 218.836c0-15.085-10.928-16.502-24.409-16.502-13.48 0-24.409 1.417-24.409 16.502s10.928 27.313 24.409 27.313 24.409-12.228 24.409-27.313z" fill="#4e5660"/></g><g fill="#4e5660"><path d="m222.834 216.077c-4.142 0-7.5-3.358-7.5-7.5v-12.362c0-4.142 3.358-7.5 7.5-7.5s7.5 3.358 7.5 7.5v12.362c0 4.142-3.358 7.5-7.5 7.5z"/><path d="m376.809 216.077c-4.142 0-7.5-3.358-7.5-7.5v-12.362c0-4.142 3.358-7.5 7.5-7.5s7.5 3.358 7.5 7.5v12.362c0 4.142-3.358 7.5-7.5 7.5z"/></g></g><path d="m255.215 72.589c-11.909 0-21.563 9.654-21.563 21.563v32.312c0 8.518 4.952 15.861 12.122 19.364l73.239-73.239z" fill="#d4d4ff"/></g></svg>