<svg id="Capa_1" enable-background="new 0 0 512 512" height="512" viewBox="0 0 512 512" width="512" xmlns="http://www.w3.org/2000/svg"><g><path d="m375.921 104.734c-8.112-163.035-74.359-87.048-119.921-87.048s-111.809-75.987-119.92 87.048z" fill="#cb775a"/><path d="m433.727 293.21c65.785-121.407 38.97-214.248-19.197-234.207-64.209-22.032-103.438 16.384-158.53 16.384s-94.321-38.416-158.53-16.384c-58.167 19.959-84.982 112.8-19.197 234.207z" fill="#d2996f"/><ellipse cx="76.611" cy="289.321" fill="#ffcbbe" rx="45.576" ry="40.814"/><ellipse cx="435.389" cy="289.321" fill="#ffcbbe" rx="45.576" ry="40.814"/><path d="m352.225 512c9.623 0 16.911-8.631 15.38-18.131-8.676-53.817-55.34-94.919-111.605-94.919s-102.929 41.103-111.605 94.919c-1.531 9.5 5.757 18.131 15.38 18.131z" fill="#efedff"/><path d="m256 398.949c-44.836 0-83.575 26.1-101.853 63.936 8.354 18.496 30.103 28.67 50.569 21.132 19.922-7.34 38.369-18.9 51.285-28.124 12.853 9.179 31.183 20.672 50.99 28.015 20.584 7.631 42.399-2.517 50.819-21.111-18.296-37.788-57.009-63.848-101.81-63.848z" fill="#d4d4ff"/><path d="m256 482.539c-4.142 0-7.5-3.358-7.5-7.5v-54.389c0-4.142 3.358-7.5 7.5-7.5s7.5 3.358 7.5 7.5v54.389c0 4.142-3.358 7.5-7.5 7.5z" fill="#d4d4ff"/><path d="m326.226 404.452c4.358 11.57 7.944 27.874 7.369 42.04-.349 8.605-8.861 14.328-16.936 11.335-32.115-11.905-60.659-37.177-60.659-37.177s-28.687 25.398-60.9 37.266c-7.83 2.885-16.296-2.714-16.679-11.05-.653-14.253 2.957-30.742 7.353-42.414z" fill="#efedff"/><path d="m433.727 279.815c0 86.482-79.571 140.835-177.727 140.835s-177.727-54.352-177.727-140.835c0-86.482 79.571-156.59 177.727-156.59s177.727 70.108 177.727 156.59z" fill="#ffddcf"/><g fill="#ebca5f"><path d="m153.717 180.007c-7.909 37.17-39.922 78.126-68.106 98.395-8.094 5.821-19.387.545-20.058-9.402-2.471-36.67 16.384-80.148 45.831-95.805z"/><path d="m358.283 180.007c7.909 37.17 39.922 78.126 68.106 98.395 8.094 5.821 19.387.545 20.058-9.402 2.471-36.67-16.384-80.148-45.831-95.805z"/><path d="m256 110.316c46.633 0 116.704 1.786 168.292 54.157 5.873 5.962 3.363 16.049-4.577 18.692-58.802 19.574-130.189 2.908-156.979-17.517-3.968-3.025-9.505-3.025-13.472 0-26.79 20.425-98.177 37.091-156.979 17.517-7.94-2.643-10.45-12.73-4.577-18.692 51.588-52.372 121.659-54.157 168.292-54.157z"/></g><g><g fill="#eda1ab"><ellipse cx="174.042" cy="285.525" rx="30.241" ry="24.082"/><ellipse cx="337.958" cy="285.525" rx="30.241" ry="24.082"/></g><g fill="#4e5660"><path d="m191.667 269.842c-4.142 0-7.5-3.358-7.5-7.5v-12.362c0-4.142 3.358-7.5 7.5-7.5s7.5 3.358 7.5 7.5v12.362c0 4.142-3.358 7.5-7.5 7.5z"/><path d="m320.334 269.842c-4.142 0-7.5-3.358-7.5-7.5v-12.362c0-4.142 3.358-7.5 7.5-7.5s7.5 3.358 7.5 7.5v12.362c-.001 4.142-3.358 7.5-7.5 7.5z"/><path d="m256 277.202c-8.669 0-16.912-3.754-22.616-10.3-2.721-3.123-2.396-7.86.727-10.582 3.123-2.721 7.861-2.396 10.582.727 2.854 3.275 6.976 5.154 11.307 5.154s8.452-1.879 11.307-5.154c2.721-3.124 7.458-3.448 10.582-.727 3.123 2.721 3.448 7.459.727 10.582-5.705 6.546-13.948 10.3-22.616 10.3z"/></g></g></g></svg>