<svg id="Capa_1" enable-background="new 0 0 512 512" height="512" viewBox="0 0 512 512" width="512" xmlns="http://www.w3.org/2000/svg"><g><path d="m460.137 232.836c0 62.27 8.672 88.184 31.832 111.345 8.147 8.147 13.185 19.401 13.185 31.832 0 24.863-20.155 45.018-45.018 45.018h-408.273c-24.863 0-45.018-20.155-45.018-45.018 0-12.431 5.039-23.686 13.185-31.832 23.16-23.161 31.832-49.075 31.832-111.345z" fill="#6171a3"/><path d="m419.616 299.546c0 40.197 5.598 56.925 20.549 71.876 5.259 5.259 8.512 12.524 8.512 20.549 0 16.049-13.011 29.06-29.06 29.06h-327.233c-16.05 0-29.06-13.011-29.06-29.06 0-8.025 3.253-15.29 8.512-20.549 14.951-14.951 20.549-31.679 20.549-71.876z" fill="#475a99"/><path d="m481.483 206.329c27.471-54.942-16.291-141.839-84.064-140.186-4.197.102-8.235-1.711-10.791-5.041-22.64-29.491-85.765-46.669-130.628-18.069-44.863-28.6-107.988-11.422-130.627 18.069-2.556 3.33-6.594 5.143-10.791 5.041-67.774-1.653-111.536 85.244-84.065 140.186z" fill="#6171a3"/><ellipse cx="51.863" cy="238.736" fill="#b8866b" rx="51.863" ry="46.445"/><ellipse cx="460.137" cy="238.736" fill="#b8866b" rx="51.863" ry="46.445"/><path d="m365.499 489.594c10.95 0 19.245-9.822 17.502-20.633-9.873-61.241-62.975-108.014-127.001-108.014s-117.128 46.773-127.001 108.014c-1.743 10.811 6.552 20.633 17.502 20.633z" fill="#efedff"/><path d="m213.608 357.648c8.065 10.188 19.951 80.088 19.951 131.945h-34.383c-3.792-26.143-23.822-56.812-44.402-72.415-7.714-5.849-8.829-17.106-2.248-24.206 17.115-18.47 43.954-35.324 61.082-35.324z" fill="#d4d4ff"/><path d="m298.392 357.648c-8.065 10.188-19.951 80.088-19.951 131.945h34.384c3.792-26.143 23.822-56.812 44.402-72.415 7.714-5.849 8.829-17.106 2.248-24.206-17.117-18.47-43.955-35.324-61.083-35.324z" fill="#d4d4ff"/><path d="m84.291 131.205c-19.346 27.325-30.537 59.595-30.537 94.173 0 98.413 90.548 160.263 202.245 160.263s202.245-61.851 202.245-160.263c0-34.578-11.19-66.848-30.537-94.173z" fill="#cc9e83"/><path d="m57.19 192.534c54.698 7.632 87.74-23.087 104.778-53.187l-104.027-1.136s-23.285 27.161-.751 54.323z" fill="#6171a3"/><path d="m454.81 192.534c-54.698 7.632-87.74-23.087-104.778-53.187l104.027-1.136s23.285 27.161.751 54.323z" fill="#6171a3"/><path d="m25.98 155.751h460.037c6.333 0 11.105-5.867 9.696-12.041-2.242-9.827-5.77-19.574-10.551-28.875-2.595-5.048-7.848-8.175-13.524-8.175h-431.281c-5.676 0-10.929 3.127-13.524 8.175-4.781 9.301-8.308 19.048-10.55 28.875-1.408 6.174 3.364 12.041 9.697 12.041z" fill="#5ec783"/><ellipse cx="256" cy="98.76" fill="#efedff" rx="76.353" ry="76.353" transform="matrix(.707 -.707 .707 .707 5.147 209.945)"/><path d="m256 22.406c-42.169 0-76.353 34.185-76.353 76.353 0 17.661 6.012 33.908 16.08 46.843l107.116-107.116c-12.935-10.067-29.182-16.08-46.843-16.08z" fill="#d4d4ff"/><circle cx="256" cy="98.76" fill="#6171a3" r="29.363"/><g><g><path d="m202.172 259.995c.007 13.843-14.079 25.072-31.463 25.081-17.383.009-31.481-11.206-31.488-25.049s14.079-25.073 31.463-25.081c17.383-.01 31.481 11.205 31.488 25.049z" fill="#eda1ab"/><path d="m309.828 259.941c.007 13.843 14.105 25.058 31.488 25.049s31.47-11.238 31.463-25.081-14.105-25.059-31.488-25.05-31.47 11.238-31.463 25.082z" fill="#eda1ab"/><path d="m286.848 248.62c-.01-19.068-13.824-20.852-30.864-20.844s-30.852 1.807-30.843 20.875c.01 19.067 13.831 34.518 30.871 34.509 17.04-.008 30.845-15.472 30.836-34.54z" fill="#4e5660"/></g><g fill="#4e5660"><path d="m323.681 238.757c-.005 0-.009 0-.015 0-4.142-.008-7.493-3.372-7.485-7.514l.023-12.362c.008-4.137 3.364-7.486 7.5-7.486h.015c4.142.008 7.493 3.372 7.485 7.514l-.023 12.362c-.008 4.138-3.365 7.486-7.5 7.486z"/><path d="m208.74 237.626c-.006 0-.011 0-.017 0-4.142-.009-7.493-3.374-7.484-7.516.008-3.853-3.12-6.995-6.972-7.003-1.881-.043-3.623.719-4.945 2.036-1.323 1.316-2.053 3.069-2.057 4.936-.009 4.136-3.365 7.484-7.499 7.484-.006 0-.011 0-.017 0-4.142-.009-7.493-3.374-7.484-7.516.013-5.873 2.312-11.39 6.474-15.533 4.15-4.132 9.658-6.406 15.513-6.406h.048c12.124.027 21.965 9.912 21.939 22.035-.009 4.135-3.365 7.483-7.499 7.483z"/></g></g></g></svg>