<svg id="Capa_1" enable-background="new 0 0 512 512" height="512" viewBox="0 0 512 512" width="512" xmlns="http://www.w3.org/2000/svg"><g><path d="m173.026 381.714c10.177-32.305-16.599-64.252-53.32-64.252-30.634 0-55.468 22.554-55.468 50.375 0 14.638 6.881 27.81 17.859 37.012 2.87 2.405 4.244 6.147 3.596 9.836-5.301 30.125 20.382 58.196 54.803 58.196 30.634 0 55.468-22.554 55.468-50.375 0-16.782-9.044-31.637-22.938-40.792z" fill="#d2996f"/><ellipse cx="88.271" cy="303.795" fill="#ffbf9e" rx="42.614" ry="38.161"/><ellipse cx="423.729" cy="303.795" fill="#ffbf9e" rx="42.614" ry="38.161"/><path d="m360.351 495.047c-8.112-50.319-51.743-88.75-104.351-88.75s-96.239 38.431-104.351 88.75c-1.431 8.883 5.383 16.953 14.381 16.953h41.254l48.716-25.867 48.716 25.867h41.254c8.998 0 15.813-8.07 14.381-16.953z" fill="#6171a3"/><path d="m305.76 391.519 16.274 60.241-46.229 60.24h-39.61l-46.229-60.24 16.274-60.241z" fill="#f2bcd5"/><path d="m190.509 449.749c20.243 5.312 42.217 8.148 65.491 8.148s45.248-2.836 65.491-8.148l-15.731-58.23h-99.52z" fill="#ea9cd0"/><path d="m151.686 435.552c.163 3.558 1.742 7.042 4.708 9.511 28.3 23.563 50.889 66.936 50.889 66.936h28.912c-1.061-13.621-5.845-34.923-11.289-55.851-24.345-17.102-51.475-25.179-73.22-20.596z" fill="#efedff"/><path d="m360.314 435.552c-.163 3.558-1.742 7.042-4.708 9.511-28.301 23.564-50.89 66.937-50.89 66.937h-28.912c1.061-13.621 5.845-34.923 11.289-55.851 24.346-17.103 51.476-25.18 73.221-20.597z" fill="#efedff"/><path d="m360.314 435.552c.158-3.458-1.021-6.986-3.591-9.719-10.023-10.661-27.537-26.075-50.963-34.314 0 0-10.142 31.856-18.667 64.629 26.915-3.083 51.586-10.169 73.221-20.596z" fill="#d4d4ff"/><path d="m206.24 391.519c-23.426 8.239-40.94 23.653-50.963 34.314-2.57 2.733-3.749 6.261-3.591 9.719 21.635 10.426 46.306 17.512 73.221 20.596-8.525-32.773-18.667-64.629-18.667-64.629z" fill="#d4d4ff"/><path d="m422.175 294.907c0 80.861-74.399 131.681-166.175 131.681s-166.175-50.82-166.175-131.681 74.399-146.412 166.175-146.412 166.175 65.551 166.175 146.412z" fill="#ffd4be"/><path d="m129.583 102.659c35.425 24.781 77.345 34.066 126.417 34.066s90.992-9.286 126.417-34.066c-2.57-26.56-2.632-54.384-1.473-80.769.312-7.114-4.731-13.337-11.754-14.513-22.825-3.823-62.698-7.377-113.19-7.377s-90.365 3.554-113.19 7.376c-7.023 1.176-12.066 7.4-11.754 14.513 1.159 26.385 1.097 54.21-1.473 80.77z" fill="#6171a3"/><path d="m382.421 102.656c-35.082 7.404-77.347 12.8-126.421 12.8s-91.339-5.396-126.421-12.8c-2.586 26.731-7.709 52.183-16.692 73.591h286.225c-8.983-21.408-14.105-46.86-16.691-73.591z" fill="#de5c6e"/><path d="m128.511 162.388c-24.787 14.099-62.056 68.114-56.081 115.784 1.972 15.732 18.672 24.92 33.052 18.241 31.677-14.713 72.153-56.486 76.873-106.687z" fill="#d2996f"/><path d="m383.489 162.388c24.787 14.099 62.056 68.114 56.081 115.784-1.972 15.732-18.672 24.92-33.052 18.241-31.677-14.713-72.153-56.486-76.873-106.687z" fill="#d2996f"/><path d="m256 213.062c-60.512 0-117.931-8.702-170.664-25.863-13.703-4.46-21.196-19.183-16.736-32.886 4.459-13.703 19.184-21.196 32.885-16.736 47.51 15.462 99.497 23.302 154.516 23.302s107.005-7.84 154.516-23.302c13.7-4.46 28.426 3.034 32.885 16.736 4.46 13.703-3.033 28.426-16.736 32.886-52.735 17.161-110.154 25.863-170.666 25.863z" fill="#6171a3"/><path d="m468.604 465.861-5.093 10.494c-3.142 6.474-12.365 6.474-15.507 0l-5.093-10.494c-2.583-5.323-6.882-9.622-12.205-12.205l-10.494-5.093c-6.474-3.142-6.474-12.365 0-15.507l10.494-5.093c5.323-2.583 9.622-6.882 12.205-12.205l5.093-10.494c3.142-6.474 12.365-6.474 15.507 0l5.093 10.494c2.583 5.323 6.882 9.622 12.205 12.205l10.494 5.093c6.474 3.142 6.474 12.365 0 15.507l-10.494 5.093c-5.323 2.583-9.622 6.882-12.205 12.205z" fill="#f2bcd5"/><path d="m43.396 81.642 5.093 10.494c3.142 6.474 12.365 6.474 15.507 0l5.093-10.494c2.583-5.323 6.882-9.622 12.205-12.205l10.494-5.093c6.474-3.142 6.474-12.365 0-15.507l-10.494-5.093c-5.323-2.583-9.622-6.882-12.205-12.205l-5.093-10.494c-3.142-6.474-12.365-6.474-15.507 0l-5.093 10.494c-2.583 5.323-6.882 9.622-12.205 12.205l-10.494 5.093c-6.474 3.142-6.474 12.365 0 15.507l10.494 5.093c5.323 2.583 9.622 6.882 12.205 12.205z" fill="#f2bcd5"/><g><g fill="#eda1ab"><ellipse cx="175.258" cy="318.231" rx="29.792" ry="23.725"/><ellipse cx="336.742" cy="318.231" rx="29.792" ry="23.725"/></g><g fill="#4e5660"><path d="m206.801 299.914c-4.143 0-7.5-3.358-7.5-7.5 0-3.684-2.996-6.68-6.68-6.68s-6.681 2.997-6.681 6.68c0 4.142-3.357 7.5-7.5 7.5s-7.5-3.358-7.5-7.5c0-11.955 9.726-21.68 21.681-21.68 11.954 0 21.68 9.726 21.68 21.68 0 4.142-3.358 7.5-7.5 7.5z"/><path d="m333.56 299.914c-4.143 0-7.5-3.358-7.5-7.5 0-3.684-2.997-6.68-6.681-6.68s-6.68 2.997-6.68 6.68c0 4.142-3.357 7.5-7.5 7.5s-7.5-3.358-7.5-7.5c0-11.955 9.726-21.68 21.68-21.68 11.955 0 21.681 9.726 21.681 21.68 0 4.142-3.358 7.5-7.5 7.5z"/><path d="m256 323.341c-7.933 0-15.477-3.436-20.696-9.426-2.722-3.122-2.395-7.86.727-10.581s7.859-2.397 10.582.727c2.37 2.72 5.792 4.28 9.388 4.28s7.018-1.56 9.388-4.28c2.72-3.123 7.458-3.448 10.582-.727 3.122 2.721 3.448 7.459.727 10.581-5.221 5.99-12.765 9.426-20.698 9.426z"/></g></g></g></svg>