<svg id="Capa_1" enable-background="new 0 0 512 512" height="512" viewBox="0 0 512 512" width="512" xmlns="http://www.w3.org/2000/svg"><g><path d="m458.175 326.266c0-85.794-90.525-155.344-202.192-155.344s-202.193 69.55-202.193 155.344 90.525 140.57 202.192 140.57 202.193-54.776 202.193-140.57z" fill="#6171a3"/><ellipse cx="74.102" cy="289.298" fill="#b8866b" rx="46.213" ry="41.385"/><ellipse cx="437.898" cy="289.298" fill="#b8866b" rx="46.213" ry="41.385"/><path d="m369.165 493.615c-3.487-21.629-13.03-41.229-26.827-57.015-25.577-4.643-55.785-7.35-86.339-7.35s-60.761 2.707-86.338 7.35c-13.797 15.786-23.34 35.386-26.827 57.015-1.552 9.633 5.839 18.385 15.596 18.385h195.14c9.758 0 17.148-8.752 15.595-18.385z" fill="#de5c6e"/><path d="m256 450.278c30.554 0 59.842-4.724 86.339-13.678-21.013-24.042-51.9-39.232-86.339-39.232s-65.326 15.191-86.338 39.232c26.496 8.955 55.784 13.678 86.338 13.678z" fill="#d5364c"/><path d="m256 480.381c-4.143 0-7.5-3.358-7.5-7.5v-53.509c0-4.142 3.357-7.5 7.5-7.5s7.5 3.358 7.5 7.5v53.509c0 4.142-3.357 7.5-7.5 7.5z" fill="#d5364c"/><path d="m436.212 276.568c0 87.692-80.684 142.804-180.212 142.804s-180.213-55.112-180.213-142.804 80.684-158.78 180.213-158.78 180.212 71.089 180.212 158.78z" fill="#d2996f"/><path d="m442.159 176.356c-31.283-94.203-59.77-176.356-186.159-176.356s-154.876 82.153-186.158 176.356l186.158 10.909z" fill="#de5c6e"/><path d="m442.159 176.356c-6.297-18.962-12.482-37.435-19.374-54.849-45.383 6.378-110.547 13.015-166.785 13.015s-121.403-6.637-166.785-13.015c-6.892 17.414-13.077 35.886-19.374 54.849l186.159 10.909z" fill="#d5364c"/><path d="m180.982 131.403c24.205 9.507 50.9 12.625 75.018 12.625s50.813-3.118 75.018-12.625c2.207-7.242 3.404-14.926 3.404-22.89 0-43.311-35.111-59.871-78.422-59.871s-78.422 16.56-78.422 59.871c0 7.964 1.196 15.648 3.404 22.89z" fill="#f5ea72"/><path d="m221.493 133.784c11.285 8.864 23.284 10.244 34.507 10.244 11.29 0 23.29-1.992 34.72-10.253-4.198-16.681-15.809-33.895-34.525-46.056-6.374-4.141-14.805-.756-16.722 6.6-4.087 15.677-13.785 25.377-17.98 39.465z" fill="#de5c6e"/><path d="m69.842 176.356c-10.272 23.563-13.809 68.696-1.616 101.497 4.31 11.593 19.356 14.777 27.953 5.884 19.796-20.477 42.835-64.018 46.45-93.409z" fill="#6171a3"/><path d="m442.158 176.356c10.272 23.563 13.809 68.696 1.616 101.497-4.31 11.593-19.356 14.777-27.953 5.884-19.796-20.477-42.835-64.018-46.45-93.409z" fill="#6171a3"/><path d="m256 134.523c-24.119 0-49.879-1.222-75.018-3.12 9.796 32.143 39.672 55.532 75.018 55.532s65.223-23.389 75.018-55.532c-25.139 1.898-50.9 3.12-75.018 3.12z" fill="#ebca5f"/><path d="m292.374 143.951c-.233-3.337-.79-6.745-1.654-10.176-11.778.479-23.429.748-34.72.748-11.223 0-22.801-.265-34.507-.739-1.232 4.138-1.995 8.651-1.995 13.81 0 20.184 16.383 36.542 36.577 36.502 21.382-.043 37.787-18.815 36.299-40.145z" fill="#d5364c"/><path d="m256 215.228c-90.076 0-193.524-15.042-226.886-21.904-13.469-2.77-22.144-15.936-19.373-29.406 2.77-13.47 15.924-22.149 29.406-19.373 35.403 7.282 135.356 20.883 216.852 20.883s181.449-13.601 216.852-20.883c13.471-2.771 26.635 5.903 29.406 19.373s-5.903 26.635-19.373 29.406c-33.36 6.862-136.808 21.904-226.884 21.904z" fill="#de5c6e"/><g><g><ellipse cx="173.951" cy="306.406" fill="#eda1ab" rx="30.274" ry="24.109"/><ellipse cx="338.049" cy="306.406" fill="#eda1ab" rx="30.274" ry="24.109"/><path d="m280.409 287.883c0-15.085-10.928-16.502-24.409-16.502-13.48 0-24.409 1.417-24.409 16.502s10.928 27.313 24.409 27.313c13.48 0 24.409-12.229 24.409-27.313z" fill="#4e5660"/></g><g fill="#4e5660"><path d="m179.013 285.123c-4.143 0-7.5-3.358-7.5-7.5v-12.362c0-4.142 3.357-7.5 7.5-7.5s7.5 3.358 7.5 7.5v12.362c0 4.142-3.358 7.5-7.5 7.5z"/><path d="m332.987 285.123c-4.143 0-7.5-3.358-7.5-7.5v-12.362c0-4.142 3.357-7.5 7.5-7.5s7.5 3.358 7.5 7.5v12.362c0 4.142-3.357 7.5-7.5 7.5z"/></g></g></g></svg>