<svg id="Capa_1" enable-background="new 0 0 512 512" height="512" viewBox="0 0 512 512" width="512" xmlns="http://www.w3.org/2000/svg"><g><path d="m22.46 33.795c29.209 33.514 73.759 64.826 126.121 84.188 10.397-12.409 16.618-28.062 16.618-45.094 0-40.256-34.66-72.889-77.415-72.889-27.472 0-51.583 13.484-65.324 33.795z" fill="#cb775a"/><path d="m148.581 117.982c-24.929-61.572-77.483-84.187-126.121-84.187-7.645 11.3-12.092 24.704-12.092 39.094 0 40.255 34.66 72.888 77.415 72.888 24.667 0 46.621-10.875 60.798-27.795z" fill="#ebca5f"/><path d="m489.54 33.795c-29.209 33.514-73.759 64.826-126.121 84.188-10.397-12.409-16.618-28.062-16.618-45.094 0-40.256 34.66-72.889 77.415-72.889 27.472 0 51.583 13.484 65.324 33.795z" fill="#cb775a"/><path d="m363.419 117.982c24.929-61.572 77.483-84.188 126.121-84.188 7.645 11.3 12.092 24.704 12.092 39.094 0 40.255-34.66 72.888-77.415 72.888-24.667.001-46.621-10.874-60.798-27.794z" fill="#ebca5f"/><path d="m392.394 489.841c-10.603-65.77-67.632-116.003-136.394-116.003s-125.791 50.232-136.394 116.003c-1.872 11.61 7.036 22.159 18.796 22.159h61.628l55.97-11.425 55.97 11.425h61.628c11.76 0 20.668-10.549 18.796-22.159z" fill="#d2996f"/><path d="m256 431.265c35.114 0 68.794-5.255 99.367-15.249-25.123-26.003-60.354-42.177-99.367-42.177s-74.244 16.174-99.367 42.177c30.573 9.994 64.253 15.249 99.367 15.249z" fill="#cb775a"/><path d="m473.204 228.243c0 105.692-97.245 172.117-217.204 172.117s-217.204-66.426-217.204-172.117 97.246-191.372 217.204-191.372 217.204 85.68 217.204 191.372z" fill="#d2996f"/><path d="m394.644 197.148c-39.766-37.616-75.125-61.906-138.644-61.906s-98.879 24.29-138.644 61.906c-3.493 9.833-5.253 20.655-5.253 32.395 0 61.983 64.425 112.23 143.897 112.23s143.897-50.247 143.897-112.23c0-11.741-1.76-22.562-5.253-32.395z" fill="#ffddcf"/><path d="m256 131.121c-76.957 0-123.698 23.945-138.644 66.027 41.157-5.872 112.12-21.442 138.644-58.314 26.524 36.871 97.487 52.442 138.644 58.314-14.946-42.083-61.687-66.027-138.644-66.027z" fill="#6171a3"/><path d="m256 138.834c31.709 0 62.821-5.349 60.632-29.329-2.993-32.796-28.923-72.634-60.632-72.634s-57.639 39.838-60.632 72.633c-2.189 23.981 28.923 29.33 60.632 29.33z" fill="#ebca5f"/><g fill="#4e5660"><path d="m148.738 122.306c-4.142 0-7.5-3.358-7.5-7.5v-12.362c0-4.142 3.358-7.5 7.5-7.5s7.5 3.358 7.5 7.5v12.362c0 4.142-3.358 7.5-7.5 7.5z"/><path d="m363.262 122.306c-4.142 0-7.5-3.358-7.5-7.5v-12.362c0-4.142 3.358-7.5 7.5-7.5s7.5 3.358 7.5 7.5v12.362c0 4.142-3.358 7.5-7.5 7.5z"/></g><g><g><ellipse cx="173.951" cy="263.394" fill="#eda1ab" rx="30.274" ry="24.109"/><ellipse cx="338.048" cy="263.394" fill="#eda1ab" rx="30.274" ry="24.109"/><path d="m280.409 244.87c0-15.085-10.928-16.502-24.409-16.502-13.48 0-24.409 1.417-24.409 16.502s10.928 27.313 24.409 27.313c13.48 0 24.409-12.228 24.409-27.313z" fill="#4e5660"/></g><g fill="#4e5660"><path d="m179.012 242.111c-4.142 0-7.5-3.358-7.5-7.5v-12.362c0-4.142 3.358-7.5 7.5-7.5s7.5 3.358 7.5 7.5v12.362c0 4.142-3.358 7.5-7.5 7.5z"/><path d="m332.988 242.111c-4.142 0-7.5-3.358-7.5-7.5v-12.362c0-4.142 3.358-7.5 7.5-7.5s7.5 3.358 7.5 7.5v12.362c0 4.142-3.358 7.5-7.5 7.5z"/></g></g><path d="m271.65 83.257c0-5.901-7.007-8.849-15.65-8.849s-15.65 2.948-15.65 8.849 7.007 12.52 15.65 12.52 15.65-6.619 15.65-12.52z" fill="#4e5660"/><path d="m311.97 512c0-34.541-25.059-57.391-55.97-57.391-30.912 0-55.97 22.85-55.97 57.391z" fill="#ebca5f"/></g></svg>