<svg id="Capa_1" enable-background="new 0 0 512 512" height="512" viewBox="0 0 512 512" width="512" xmlns="http://www.w3.org/2000/svg"><g><path d="m239.781 438.752c0 37.323-79.759 67.579-145.972 67.579s-93.809-30.256-93.809-67.579 27.595-67.579 93.808-67.579 145.973 30.256 145.973 67.579z" fill="#d4d4ff"/><path d="m272.219 438.752c0 37.323 79.759 67.579 145.972 67.579s93.809-30.256 93.809-67.579-27.595-67.579-93.808-67.579-145.973 30.256-145.973 67.579z" fill="#d4d4ff"/><path d="m462.505 282.281c9.547 87.054 8.348 174.109-121.637 174.109h-169.735c-129.985 0-131.184-87.054-121.637-174.109z" fill="#d2996f"/><ellipse cx="60.816" cy="269.714" fill="#ffcbbe" rx="49.589" ry="44.408"/><ellipse cx="451.184" cy="269.714" fill="#ffcbbe" rx="49.589" ry="44.408"/><path d="m377.431 492.272c-3.864-23.966-14.655-45.612-30.249-62.825-31.302-2.12-58.93-4.815-91.183-4.815s-59.881 2.695-91.183 4.815c-15.594 17.214-26.385 38.859-30.249 62.825-1.665 10.337 6.266 19.728 16.736 19.728h209.394c10.47 0 18.401-9.391 16.734-19.728z" fill="#5ec783"/><path d="m256 443.74c32.253 0 63.176-4.933 91.183-14.293-22.506-24.844-55.021-40.452-91.183-40.452s-68.677 15.608-91.183 40.452c28.007 9.359 58.93 14.293 91.183 14.293z" fill="#3cb767"/><path d="m256 427.866c-11.678 0-26.999 5.929-34.431 13.948 7.535 15.621 20.142 25.867 34.431 25.867s26.896-10.246 34.431-25.867c-7.432-8.018-22.753-13.948-34.431-13.948z" fill="#ffddcf"/><path d="m290.431 441.814c4.634-9.608 7.353-21.244 7.353-33.792 0-4.125-.293-8.152-.852-12.042-12.806-4.519-26.58-6.986-40.932-6.986-14.353 0-28.127 2.467-40.933 6.986-.558 3.889-.852 7.917-.852 12.042 0 12.548 2.719 24.185 7.353 33.792 11.254 1.269 22.753 1.925 34.431 1.925 11.679.001 23.178-.655 34.432-1.925z" fill="#ffcbbe"/><path d="m449.376 259.372c0 94.097-86.577 153.235-193.376 153.235s-193.376-59.138-193.376-153.235 86.578-170.378 193.376-170.378 193.376 76.28 193.376 170.378z" fill="#ffddcf"/><path d="m263.819 75.447c154.448-58.811 205.961 92.889 192.887 146.316-1.353 5.531-6.463 9.355-12.154 9.183-82.837-2.505-153.995-40.336-180.608-70.85-4.22-4.839-11.666-4.839-15.886 0-26.613 30.514-97.771 68.345-180.608 70.85-5.691.172-10.801-3.652-12.154-9.183-13.076-53.427 38.438-205.127 192.885-146.316 5.031 1.916 10.607 1.916 15.638 0z" fill="#d2996f"/><path d="m58.138 71.464-5.561 11.458c-3.43 7.069-13.501 7.069-16.931 0l-5.561-11.458c-2.82-5.812-7.514-10.505-13.326-13.326l-11.457-5.56c-7.069-3.43-7.069-13.501 0-16.931l11.458-5.561c5.812-2.82 10.505-7.514 13.326-13.326l5.561-11.458c3.431-7.069 13.501-7.069 16.931 0l5.561 11.458c2.82 5.812 7.514 10.505 13.326 13.326l11.458 5.561c7.069 3.431 7.069 13.501 0 16.931l-11.458 5.561c-5.812 2.82-10.506 7.514-13.327 13.325z" fill="#8cd6fe"/><path d="m458.839 144.815-6.185 12.746c-3.816 7.863-15.017 7.863-18.833 0l-6.185-12.746c-3.137-6.464-8.358-11.685-14.823-14.823l-12.745-6.185c-7.863-3.816-7.863-15.017 0-18.833l12.745-6.185c6.465-3.137 11.685-8.358 14.823-14.823l6.185-12.745c3.816-7.863 15.017-7.863 18.833 0l6.185 12.745c3.137 6.465 8.358 11.685 14.823 14.823l12.746 6.185c7.863 3.816 7.863 15.017 0 18.833l-12.746 6.185c-6.465 3.138-11.686 8.359-14.823 14.823z" fill="#8cd6fe"/><ellipse cx="256" cy="48.68" fill="#de5c6e" rx="39.026" ry="48.68"/><path d="m317.842 98.82c21.753-21.753 27.033-51.743 11.792-66.984-15.36-15.359-44.246-9.489-65.064 9.952-4.808 4.49-12.332 4.49-17.14 0-20.818-19.441-49.705-25.312-65.064-9.952-15.241 15.241-9.961 45.23 11.792 66.984z" fill="#f2bcd5"/><path d="m256 119.848c-21.661 0-66.543-5.006-97.363-23.768-9.791-5.961-12.897-18.73-6.936-28.521 5.96-9.791 18.731-12.897 28.521-6.936 18.901 11.506 53.15 17.714 75.779 17.714 22.628 0 56.877-6.208 75.779-17.714 9.791-5.959 22.561-2.855 28.521 6.936s2.855 22.56-6.937 28.521c-30.821 18.762-75.703 23.768-97.364 23.768z" fill="#5ec783"/><g><g fill="#eda1ab"><ellipse cx="175.258" cy="285.714" rx="29.792" ry="23.725"/><ellipse cx="336.742" cy="285.714" rx="29.792" ry="23.725"/></g><g fill="#4e5660"><path d="m206.801 267.397c-4.142 0-7.5-3.358-7.5-7.5 0-3.684-2.997-6.68-6.681-6.68s-6.68 2.997-6.68 6.68c0 4.142-3.358 7.5-7.5 7.5s-7.5-3.358-7.5-7.5c0-11.955 9.726-21.68 21.68-21.68 11.955 0 21.681 9.726 21.681 21.68 0 4.142-3.358 7.5-7.5 7.5z"/><path d="m333.56 267.397c-4.142 0-7.5-3.358-7.5-7.5 0-3.684-2.997-6.68-6.68-6.68s-6.681 2.997-6.681 6.68c0 4.142-3.358 7.5-7.5 7.5s-7.5-3.358-7.5-7.5c0-11.955 9.726-21.68 21.681-21.68s21.68 9.726 21.68 21.68c0 4.142-3.358 7.5-7.5 7.5z"/><path d="m256 290.824c-7.932 0-15.476-3.436-20.696-9.425-2.722-3.122-2.396-7.86.726-10.582s7.86-2.397 10.581.726c2.371 2.721 5.793 4.281 9.388 4.281s7.017-1.56 9.388-4.281c2.722-3.123 7.459-3.448 10.582-.726 3.123 2.721 3.448 7.459.726 10.582-5.219 5.989-12.763 9.425-20.695 9.425z"/></g></g></g></svg>