<svg id="Capa_1" enable-background="new 0 0 512 512" height="512" viewBox="0 0 512 512" width="512" xmlns="http://www.w3.org/2000/svg"><g><path d="m138.156 346.548c6.596-35.007-20.375-66.977-55.624-66.79-29.88.158-54.769 24.159-55.953 54.016-1.13 28.503 18.954 52.587 45.798 57.618 6.732 1.262 11.476 7.178 11.78 14.021 1.313 29.491 25.783 53.853 56.566 53.689 29.88-.159 54.769-24.16 55.953-54.017 1.304-32.855-25.583-59.839-58.52-58.537z" fill="#de5c6e"/><path d="m373.844 346.548c-6.596-35.007 20.375-66.977 55.624-66.79 29.88.158 54.769 24.159 55.953 54.016 1.13 28.503-18.954 52.587-45.798 57.618-6.732 1.262-11.476 7.178-11.78 14.021-1.313 29.491-25.783 53.853-56.566 53.689-29.88-.159-54.769-24.16-55.953-54.017-1.304-32.855 25.583-59.839 58.52-58.537z" fill="#de5c6e"/><ellipse cx="51.863" cy="254.168" fill="#ffcbbe" rx="51.863" ry="46.445"/><ellipse cx="460.137" cy="254.168" fill="#ffcbbe" rx="51.863" ry="46.445"/><path d="m383.001 486.934c-4.141-25.687-15.891-48.826-32.859-67.039-23.338-5.619-60.856-11.237-94.142-11.237s-70.805 5.619-94.142 11.237c-16.968 18.213-28.717 41.352-32.858 67.039-1.743 10.811 6.552 20.633 17.502 20.633h64.645l44.853-12.61 44.854 12.609h64.646c10.949 0 19.244-9.822 17.501-20.632z" fill="#6171a3"/><path d="m256 434.52c33.286 0 65.206-5.044 94.142-14.625-23.485-25.208-56.971-40.975-94.142-40.975s-70.657 15.767-94.142 40.975c28.936 9.581 60.856 14.625 94.142 14.625z" fill="#475a99"/><path d="m458.245 243.351c0 98.413-90.548 160.264-202.245 160.264s-202.245-61.851-202.245-160.264 90.548-178.192 202.245-178.192 202.245 79.779 202.245 178.192z" fill="#ffddcf"/><path d="m28.084 12.554c-4.443 4.519-7.363 10.611-7.755 17.494-2.552 44.902 10.642 120.147 60.644 141.116l45.271-41.929c-5.523-64.076-49.08-110.881-98.16-116.681z" fill="#f2bcd5"/><path d="m126.244 129.235 57.099-52.883c-9.79-12.85-60.651-57.853-130.95-71.427-9.272-1.79-18.222 1.44-24.308 7.629 29.035 15.393 67.726 53.106 98.159 116.681z" fill="#6171a3"/><path d="m483.915 12.554c4.443 4.519 7.363 10.611 7.755 17.494 2.553 44.901-10.641 120.147-60.643 141.115l-45.271-41.929c5.523-64.075 49.08-110.88 98.159-116.68z" fill="#f2bcd5"/><path d="m385.756 129.235-57.099-52.883c9.79-12.85 60.651-57.853 130.95-71.427 9.272-1.79 18.222 1.44 24.308 7.629-29.035 15.393-67.726 53.106-98.159 116.681z" fill="#6171a3"/><path d="m262.149 121.278c31.437 24.041 63.625 30.366 93.517 27.346 4.743-.479 8.816 3.252 8.694 8.018-.797 31.089 17.616 88.917 74.572 90.691 25.029.78 46.451-18.602 46.534-43.642.048-14.469-6.918-27.309-17.69-35.323-4.863-3.619-6.825-10.022-4.983-15.797 11.46-35.933-22.242-72.842-67.827-71.16-5.983.221-11.51-3.236-14.047-8.658-18.344-39.205-76.045-53.37-116.818-30.036-5.034 2.881-11.168 2.881-16.202 0-40.773-23.334-98.474-9.169-116.818 30.036-2.537 5.423-8.065 8.879-14.048 8.658-45.585-1.682-79.286 35.227-67.827 71.16 1.842 5.775-.119 12.178-4.983 15.797-10.771 8.014-17.738 20.854-17.69 35.323.083 25.041 21.505 44.422 46.534 43.642 56.956-1.774 75.369-59.603 74.572-90.691-.122-4.766 3.951-8.497 8.694-8.018 29.892 3.019 62.08-3.305 93.517-27.346 3.624-2.77 8.676-2.77 12.299 0z" fill="#de5c6e"/><g><g><ellipse cx="173.951" cy="262.186" fill="#eda1ab" rx="30.274" ry="24.109"/><ellipse cx="338.049" cy="262.186" fill="#eda1ab" rx="30.274" ry="24.109"/><path d="m280.409 243.662c0-15.085-10.928-16.502-24.409-16.502-13.48 0-24.409 1.417-24.409 16.502s10.928 27.313 24.409 27.313c13.48 0 24.409-12.228 24.409-27.313z" fill="#4e5660"/></g><g fill="#4e5660"><path d="m179.013 240.903c-4.142 0-7.5-3.358-7.5-7.5v-12.363c0-4.142 3.358-7.5 7.5-7.5s7.5 3.358 7.5 7.5v12.362c0 4.143-3.358 7.501-7.5 7.501z"/><path d="m332.987 240.903c-4.143 0-7.5-3.358-7.5-7.5v-12.363c0-4.142 3.357-7.5 7.5-7.5s7.5 3.358 7.5 7.5v12.362c0 4.143-3.357 7.501-7.5 7.501z"/></g></g><g fill="#4e5660"><path d="m120.726 310.86c-2.186 0-4.352-.951-5.834-2.782-2.606-3.219-2.109-7.942 1.111-10.548 4.752-3.847 30.114-23.506 62.788-32.743 3.986-1.126 8.13 1.191 9.257 5.177 1.126 3.986-1.191 8.13-5.177 9.257-30.484 8.618-54.762 27.807-57.43 29.967-1.389 1.125-3.058 1.672-4.715 1.672z"/><path d="m168.788 338.336c-1.221 0-2.459-.299-3.605-.929-3.63-1.995-4.955-6.555-2.96-10.185 3.324-6.049 12.795-21.262 28.902-31.847 3.462-2.275 8.112-1.313 10.387 2.148 2.275 3.462 1.313 8.112-2.148 10.387-13.297 8.739-21.21 21.469-23.995 26.537-1.367 2.484-3.933 3.889-6.581 3.889z"/><path d="m391.274 310.86c-1.657 0-3.325-.546-4.714-1.67-2.668-2.16-26.948-21.35-57.431-29.967-3.986-1.127-6.304-5.271-5.177-9.257 1.127-3.987 5.274-6.304 9.257-5.177 32.672 9.236 58.035 28.896 62.788 32.743 3.22 2.606 3.717 7.329 1.11 10.548-1.48 1.83-3.647 2.78-5.833 2.78z"/><path d="m343.212 338.336c-2.647 0-5.215-1.405-6.58-3.89-2.784-5.067-10.696-17.796-23.994-26.536-3.462-2.275-4.424-6.925-2.148-10.387 2.276-3.461 6.927-4.423 10.387-2.148 16.108 10.587 25.578 25.799 28.902 31.848 1.994 3.63.669 8.19-2.961 10.185-1.147.63-2.385.928-3.606.928z"/></g><path d="m300.854 507.566c0-25.717-20.082-46.565-44.854-46.565s-44.854 20.848-44.854 46.565z" fill="#f2bcd5"/></g></svg>