<svg id="Capa_1" enable-background="new 0 0 512 512" height="512" viewBox="0 0 512 512" width="512" xmlns="http://www.w3.org/2000/svg"><g><path d="m25.223 81.094h44.002v159.33h-44.002z" fill="#6171a3"/><path d="m25.223 127.493c6.945 2.207 14.335 3.405 22.001 3.405s15.056-1.199 22.001-3.405v-46.399h-44.002z" fill="#475a99"/><circle cx="47.224" cy="58.085" fill="#8cd6fe" r="41.908"/><path d="m97.573 223.349h-70.038c-15.207 0-27.535 12.328-27.535 27.535v48.117c0 15.207 12.328 27.535 27.535 27.535h70.038z" fill="#8cd6fe"/><path d="m442.775 81.094h44.002v159.33h-44.002z" fill="#6171a3" transform="matrix(-1 0 0 -1 929.552 321.517)"/><path d="m486.777 127.493c-6.945 2.207-14.335 3.405-22.001 3.405s-15.056-1.199-22.001-3.405v-46.399h44.002z" fill="#475a99"/><circle cx="464.776" cy="58.085" fill="#8cd6fe" r="41.908"/><path d="m414.427 223.349h70.038c15.207 0 27.535 12.328 27.535 27.535v48.117c0 15.207-12.328 27.535-27.535 27.535h-70.038z" fill="#8cd6fe"/><path d="m351.447 495.822c9.545 0 16.775-8.562 15.256-17.985-8.606-53.382-54.893-94.153-110.703-94.153s-102.097 40.771-110.703 94.153c-1.519 9.423 5.711 17.985 15.256 17.985z" fill="#efedff"/><path d="m256 436.116c30.063 0 58.881-4.665 84.94-13.506-20.564-23.836-50.989-38.925-84.94-38.925s-64.376 15.089-84.94 38.925c26.059 8.841 54.877 13.506 84.94 13.506z" fill="#d4d4ff"/><path d="m432.291 265.513c0 85.784-78.928 139.697-176.291 139.697s-176.291-53.913-176.291-139.697 78.928-155.325 176.291-155.325 176.291 69.542 176.291 155.325z" fill="#f2d1a5"/><path d="m262.672 143.682c20.662 15.389 65.069 34.105 98.283 25.34 3.006-.793 6.045 1.239 6.441 4.323 3.783 29.523 28.193 69.369 54.171 98.677 7.23 8.157 20.762 4.091 22.141-6.722 4.806-37.683-.63-111.713-66.133-146.795-2.22-1.189-2.771-4.108-1.125-6.014 6.212-7.193 10.156-14.769 12.326-21.414 2.141-6.556-1.775-13.525-8.444-15.28-27.388-7.21-82.116-11.335-120.052 3.859-2.753 1.103-5.805 1.103-8.559 0-37.936-15.195-92.663-11.069-120.051-3.859-6.669 1.756-10.585 8.724-8.444 15.28 2.17 6.645 6.113 14.22 12.325 21.414 1.646 1.906 1.095 4.825-1.125 6.014-65.504 35.082-70.94 109.112-66.134 146.795 1.379 10.813 14.911 14.879 22.141 6.722 25.978-29.308 50.389-69.154 54.171-98.677.395-3.084 3.434-5.116 6.441-4.323 33.214 8.765 77.621-9.951 98.283-25.34 3.947-2.94 9.397-2.94 13.344 0z" fill="#d2996f"/><path d="m275.958 455.906h-39.916l-5.479 19.958 5.479 19.958h39.916l5.479-19.958z" fill="#8cd6fe"/><path d="m236.042 455.906h-28.522c-6.293 0-11.395 5.102-11.395 11.395v28.521h39.916v-39.916z" fill="#5ec783"/><path d="m275.958 455.906h28.521c6.293 0 11.395 5.102 11.395 11.395v28.521h-39.916z" fill="#6171a3"/><g><g fill="#eda1ab"><ellipse cx="175.198" cy="276.365" rx="23.743" ry="29.815" transform="matrix(.005 -1 1 .005 -101.947 450.327)"/><ellipse cx="336.802" cy="277.085" rx="23.743" ry="29.815" transform="matrix(.004 -1 1 .004 58.222 612.651)"/></g><path d="m319.533 260.822c-.012 0-.022 0-.033 0-4.143-.018-7.485-3.391-7.468-7.533l.022-4.931c.019-4.131 3.373-7.467 7.499-7.467h.033c4.143.018 7.485 3.391 7.468 7.533l-.022 4.931c-.018 4.13-3.373 7.467-7.499 7.467z" fill="#4e5660"/><path d="m192.68 260.257c-.012 0-.023 0-.035 0-4.142-.019-7.484-3.392-7.466-7.534l.023-4.931c.018-4.13 3.373-7.466 7.499-7.466h.035c4.142.019 7.484 3.392 7.466 7.534l-.023 4.931c-.019 4.13-3.373 7.466-7.499 7.466z" fill="#4e5660"/><g><path d="m256.724 292.554c-4.143 0-7.5-3.358-7.5-7.5s3.357-7.5 7.5-7.5c2.146 0 3.894-1.747 3.894-3.893 0-2.147-1.747-3.894-3.894-3.894-4.143 0-7.5-3.358-7.5-7.5s3.357-7.5 7.5-7.5c2.146 0 3.894-1.747 3.894-3.894s-1.747-3.894-3.894-3.894c-4.143 0-7.5-3.358-7.5-7.5s3.357-7.5 7.5-7.5c10.418 0 18.894 8.476 18.894 18.894 0 4.275-1.428 8.224-3.831 11.394 2.403 3.169 3.831 7.118 3.831 11.394-.001 10.417-8.476 18.893-18.894 18.893z" fill="#4e5660"/></g></g></g></svg>