<svg id="Capa_1" enable-background="new 0 0 512 512" height="512" viewBox="0 0 512 512" width="512" xmlns="http://www.w3.org/2000/svg"><g><path d="m454.626 266.288c0 29.527 4.97 67.506 32.922 94.75 9.152 8.921 8.259 23.824-1.739 31.785-37.365 29.75-101.004 53.04-229.809 53.04s-192.444-23.29-229.809-53.04c-9.998-7.961-10.891-22.864-1.739-31.785 27.952-27.244 32.922-65.223 32.922-94.75z" fill="#6171a3"/><ellipse cx="50.463" cy="261.892" fill="#ffcbbe" rx="50.463" ry="45.191"/><ellipse cx="461.536" cy="261.892" fill="#ffcbbe" rx="50.464" ry="45.191"/><path d="m213.389 431.593c0 29.602-41.689 53.6-98.267 53.6-26.476 0-47.938-23.998-47.938-53.6 0-29.603 21.463-53.6 47.938-53.6 56.578 0 98.267 23.998 98.267 53.6z" fill="#8cd6fe"/><path d="m298.611 431.593c0 29.602 41.689 53.6 98.267 53.6 26.476 0 47.938-23.998 47.938-53.6 0-29.603-21.463-53.6-47.938-53.6-56.578 0-98.267 23.998-98.267 53.6z" fill="#8cd6fe"/><path d="m410.029 483.134c-6.6-40.402-28.634-75.431-59.731-99.04-31.43 8.959-51.687 26.866-51.687 47.498 0 29.603 41.689 53.6 98.267 53.6 4.563.001 8.97-.726 13.151-2.058z" fill="#5fc5fc"/><path d="m115.122 485.193c56.578 0 98.267-23.997 98.267-53.6 0-20.632-20.256-38.539-51.686-47.498-31.072 23.583-53.123 58.582-59.732 99.039 4.181 1.332 8.588 2.059 13.151 2.059z" fill="#5fc5fc"/><path d="m256 480.165 114.449-22.467c-19.471-43.842-63.386-74.421-114.449-74.421s-94.979 30.579-114.45 74.421z" fill="#f5ea72"/><path d="m256 438.21c32.613 0 63.883-4.966 92.218-14.393-22.88-24.917-55.722-40.541-92.218-40.541s-69.337 15.623-92.218 40.541c28.335 9.427 59.605 14.393 92.218 14.393z" fill="#ebca5f"/><path d="m452.786 251.367c0 95.756-88.104 155.937-196.786 155.937s-196.786-60.18-196.786-155.937 88.104-173.382 196.786-173.382 196.786 77.626 196.786 173.382z" fill="#ffddcf"/><path d="m477.276 153.71c-50.322-79.08-172.267-95.979-215.657-81.672-3.651 1.204-7.586 1.204-11.237 0-43.39-14.306-165.336 2.592-215.658 81.672-6.475 10.175-2.768 23.156 6.909 28.931 1.808 1.079 2.506 3.334 1.79 5.314-6.491 17.938-8.876 41.819-.573 65.736 3.951 11.381 17.989 15.455 27.476 8.029 18.404-14.406 38.88-41.442 51.466-68.723.949-2.057 2.946-3.414 5.203-3.603 47.513-3.959 95.217-17.78 122.877-35.942 3.723-2.444 8.533-2.444 12.255 0 27.66 18.163 75.364 31.983 122.877 35.942 2.257.188 4.254 1.546 5.203 3.603 12.586 27.281 33.062 54.317 51.466 68.723 9.487 7.426 23.525 3.352 27.476-8.029 8.304-23.917 5.918-47.799-.573-65.736-.716-1.98-.018-4.235 1.79-5.314 9.678-5.775 13.384-18.756 6.91-28.931z" fill="#6171a3"/><path d="m176.417 116.614c-2.275 0-4.522-1.031-5.996-2.987-29.741-39.477-70.604-68.134-93.951-75.057-3.971-1.177-6.236-5.351-5.059-9.322s5.351-6.236 9.322-5.058c20.081 5.954 40.693 20.594 54.448 31.828 17.799 14.536 34.569 31.79 47.221 48.583 2.493 3.309 1.831 8.011-1.477 10.503-1.352 1.018-2.937 1.51-4.508 1.51z" fill="#475a99"/><ellipse cx="78.601" cy="31.38" fill="#f5ea72" rx="30.61" ry="27.83"/><path d="m335.582 116.614c-1.571 0-3.156-.492-4.507-1.51-3.308-2.493-3.97-7.195-1.477-10.503 12.652-16.793 29.422-34.047 47.221-48.583 13.755-11.234 34.367-25.875 54.448-31.828 3.971-1.179 8.145 1.087 9.322 5.058 1.178 3.971-1.087 8.145-5.059 9.322-23.348 6.922-64.21 35.58-93.952 75.057-1.474 1.957-3.721 2.987-5.996 2.987z" fill="#475a99"/><ellipse cx="433.398" cy="31.38" fill="#f5ea72" rx="30.61" ry="27.83"/><path d="m132.427 488.375c-1.696 10.519 6.375 20.076 17.029 20.076h213.087c10.655 0 18.725-9.557 17.029-20.076-1.732-10.746-4.839-21.031-9.123-30.677h-228.899c-4.284 9.646-7.39 19.931-9.123 30.677z" fill="#6171a3"/><g><g><path d="m202.172 282.921c.007 13.843-14.079 25.072-31.463 25.081-17.383.009-31.481-11.206-31.488-25.049s14.079-25.073 31.463-25.081c17.383-.01 31.481 11.205 31.488 25.049z" fill="#eda1ab"/><path d="m309.828 282.867c.007 13.843 14.105 25.058 31.488 25.049s31.47-11.238 31.463-25.081c-.007-13.844-14.105-25.059-31.488-25.05s-31.47 11.238-31.463 25.082z" fill="#eda1ab"/><path d="m286.848 271.547c-.01-19.068-13.824-20.852-30.864-20.844s-30.852 1.807-30.843 20.875c.01 19.067 13.831 34.518 30.871 34.509s30.845-15.473 30.836-34.54z" fill="#4e5660"/></g><g fill="#4e5660"><path d="m174.045 263.159c-4.141 0-7.498-3.355-7.5-7.497-.003-6.005 2.333-11.651 6.577-15.9 4.244-4.248 9.889-6.589 15.894-6.592h.012c12.39 0 22.474 10.077 22.48 22.47.002 4.142-3.354 7.501-7.496 7.504-.001 0-.003 0-.004 0-4.141 0-7.498-3.355-7.5-7.496-.001-1.999-.78-3.876-2.194-5.289-1.413-1.411-3.29-2.189-5.287-2.189-.001 0-.003 0-.004 0-1.999.001-3.877.78-5.289 2.194-1.412 1.413-2.19 3.293-2.189 5.292.002 4.142-3.355 7.501-7.497 7.503-.001 0-.002 0-.003 0z"/><path d="m307.964 263.092c-4.141 0-7.498-3.355-7.5-7.497-.006-12.396 10.074-22.486 22.471-22.492h.012c6 0 11.642 2.336 15.888 6.576 4.249 4.244 6.59 9.889 6.593 15.894.002 4.142-3.354 7.502-7.496 7.503-.001 0-.003 0-.004 0-4.141 0-7.498-3.355-7.5-7.497-.001-1.998-.78-3.876-2.194-5.289-1.413-1.411-3.29-2.189-5.288-2.189-.001 0-.003 0-.004 0-1.999.001-3.877.78-5.289 2.194-1.413 1.413-2.19 3.293-2.189 5.291.002 4.142-3.354 7.501-7.497 7.503 0 .003-.002.003-.003.003z"/></g></g></g></svg>