<svg id="Capa_1" enable-background="new 0 0 512 512" height="512" viewBox="0 0 512 512" width="512" xmlns="http://www.w3.org/2000/svg"><g><g><path d="m164.405 486.397h-34.761c-7.042 0-13.245-4.854-14.703-11.743-4.4-20.786-21.327-31.391-48.211-46.602-15.258-8.633-31.035-17.559-43.845-30.369l34.168-34.167c8.159 8.16 20.454 15.116 33.471 22.481 31.179 17.64 73.881 41.801 73.881 100.4z" fill="#d5364c"/><path d="m113.366 137.061c-34.637-26.675-37.862-64.783-29.27-97.883 3.687-14.204 21.757-18.304 31.439-7.277 21.283 24.241 57.287 41.016 96.859 38.19z" fill="#de5c6e"/><path d="m423.714 137.061c34.637-26.675 37.862-64.783 29.27-97.883-3.687-14.204-21.757-18.304-31.44-7.277-21.283 24.241-57.287 41.016-96.858 38.19z" fill="#de5c6e"/><ellipse cx="74.403" cy="245.411" fill="#ffbf9e" rx="49.323" ry="44.17"/><ellipse cx="462.677" cy="245.411" fill="#ffbf9e" rx="49.323" ry="44.17"/><path d="m372.675 486.397c10.414 0 18.302-9.341 16.645-19.622-9.389-58.241-59.89-102.723-120.78-102.723s-111.391 44.482-120.78 102.723c-1.657 10.281 6.231 19.622 16.644 19.622z" fill="#de5c6e"/><path d="m268.54 418.442c32.064 0 62.805-4.902 90.649-14.204-22.384-24.682-54.704-40.186-90.649-40.186s-68.265 15.504-90.649 40.186c27.844 9.302 58.585 14.204 90.649 14.204z" fill="#d5364c"/><path d="m268.54 452.867c-4.142 0-7.5-3.358-7.5-7.5v-57.831c0-4.142 3.358-7.5 7.5-7.5 4.143 0 7.5 3.358 7.5 7.5v57.831c0 4.142-3.357 7.5-7.5 7.5z" fill="#d5364c"/><path d="m460.878 235.124c0 93.592-86.113 152.413-192.338 152.413s-192.338-58.821-192.338-152.413 86.113-169.464 192.338-169.464 192.338 75.872 192.338 169.464z" fill="#ffd4be"/><path d="m390.422 56.212c-18.921 10.055-41.665 15.598-65.736 13.879l99.028 66.97c12.762-9.828 21.248-21.211 26.461-33.321-16.737-18.78-36.968-34.874-59.753-47.528z" fill="#d5364c"/><path d="m146.645 56.205c-22.773 12.64-43.01 28.719-59.757 47.497 5.212 12.124 13.703 23.521 26.478 33.359l99.028-66.97c-24.077 1.72-46.826-3.826-65.749-13.886z" fill="#d5364c"/><path d="m268.499 55.996c102.342 0 187.153 67.839 200.248 155.47 1.934 12.941-9.358 24.024-22.254 21.815-86.277-14.782-26.356-113.502-177.973-113.502s-91.696 98.72-177.973 113.502c-12.897 2.21-24.188-8.874-22.254-21.815 13.095-87.631 97.906-155.47 200.248-155.47z" fill="#6171a3"/><path d="m50.9 391.531c6.434-6.434 12.457-14.411 16.891-21.862 6.103-10.253.156-23.537-11.55-25.848-13.33-2.631-29.724-4.047-43.195-2.632-6.59.692-11.795 5.897-12.487 12.487-1.415 13.471.001 29.866 2.632 43.195 2.311 11.706 15.595 17.653 25.848 11.55 7.45-4.434 15.427-10.456 21.861-16.89z" fill="#de5c6e"/></g><g><g fill="#eda1ab"><ellipse cx="187.798" cy="258.694" rx="29.792" ry="23.725"/><ellipse cx="349.282" cy="258.694" rx="29.792" ry="23.725"/></g><g fill="#4e5660"><path d="m219.342 240.377c-4.143 0-7.5-3.358-7.5-7.5 0-3.684-2.997-6.681-6.681-6.681s-6.681 2.997-6.681 6.681c0 4.142-3.357 7.5-7.5 7.5s-7.5-3.358-7.5-7.5c0-11.954 9.726-21.681 21.681-21.681s21.681 9.726 21.681 21.681c0 4.143-3.358 7.5-7.5 7.5z"/><path d="m346.1 240.377c-4.143 0-7.5-3.358-7.5-7.5 0-3.684-2.997-6.681-6.681-6.681s-6.68 2.997-6.68 6.681c0 4.142-3.358 7.5-7.5 7.5-4.143 0-7.5-3.358-7.5-7.5 0-11.954 9.725-21.681 21.68-21.681s21.681 9.726 21.681 21.681c0 4.143-3.358 7.5-7.5 7.5z"/><path d="m268.54 263.804c-7.933 0-15.476-3.435-20.696-9.426-2.722-3.122-2.396-7.86.727-10.581 3.122-2.721 7.859-2.397 10.582.727 2.37 2.72 5.792 4.28 9.388 4.28s7.018-1.56 9.388-4.28c2.72-3.124 7.457-3.448 10.582-.727 3.122 2.721 3.448 7.459.727 10.581-5.221 5.991-12.765 9.426-20.698 9.426z"/></g></g></g></svg>