<svg id="Capa_1" enable-background="new 0 0 512 512" height="512" viewBox="0 0 512 512" width="512" xmlns="http://www.w3.org/2000/svg"><g><path d="m55.904 39.957c31.099 28.739 79.73 69.293 138.507 114.086l1.686 6.377 30.835-30.835c-15.317-36.909-43.814-83.657-77.025-116.868-19.826-19.827-55.742-16.056-80.219 8.422-5.759 5.758-10.355 12.152-13.784 18.818z" fill="#8cd6fe"/><path d="m194.411 154.043 1.686 6.377 30.835-30.835c-4.764-11.479-10.804-23.91-17.863-36.589-26.851 3.044-51.61 8.579-72.351 15.879 17.779 14.32 37.111 29.483 57.693 45.168z" fill="#5fc5fc"/><path d="m168.509 99.8c-34.567-50.353-84.232-66.859-112.605-59.843-11.147 21.67-9.801 46.239 5.362 61.401 29.56 29.56 76.537 25.073 122.679 71.215l12.226-12.226c-.497-2.023-1.075-4.118-1.759-6.304-18.606-9.949-32.72-27.336-25.903-54.243z" fill="#efedff"/><ellipse cx="85.423" cy="300.259" fill="#b8866b" rx="43.337" ry="38.809"/><ellipse cx="426.578" cy="300.259" fill="#b8866b" rx="43.337" ry="38.809"/><path d="m362.123 494.759c-8.25-51.173-52.622-90.257-106.123-90.257s-97.873 39.084-106.122 90.257c-1.456 9.033 5.475 17.241 14.624 17.241h53.592l37.906-12.904 37.906 12.904h53.592c9.15 0 16.081-8.207 14.625-17.241z" fill="#8cd6fe"/><path d="m256 456.043c29.137 0 57.065-4.551 82.3-13.174-19.719-23.451-49.262-38.367-82.3-38.367s-62.581 14.916-82.3 38.367c25.235 8.623 53.163 13.174 82.3 13.174z" fill="#5fc5fc"/><path d="m424.997 291.22c0 82.234-75.663 133.917-168.997 133.917s-168.997-51.682-168.997-133.917 75.663-148.898 168.997-148.898 168.997 66.664 168.997 148.898z" fill="#cc9e83"/><path d="m293.906 512c0-22.65-16.971-41.012-37.906-41.012s-37.906 18.362-37.906 41.012z" fill="#efedff"/><path d="m128.76 167.422c-22.861 2.565-65.765 69.987-47.035 122.159 2.646 7.37 11.82 9.902 17.823 4.873 18.41-15.426 39.111-41.137 53.264-67.51 1.099-2.048 4.102-1.728 4.754.504 1.201 4.115 2.556 7.908 4.038 11.385 3.831 8.988 14.992 12.104 22.922 6.395 18.874-13.589 47.368-41.703 49.015-69.524z" fill="#6171a3"/><path d="m383.24 167.422c22.861 2.565 65.765 69.987 47.035 122.159-2.646 7.37-11.82 9.902-17.823 4.873-18.41-15.426-39.111-41.137-53.264-67.51-1.099-2.048-4.102-1.728-4.754.504-1.201 4.115-2.556 7.908-4.038 11.385-3.831 8.988-14.992 12.104-22.922 6.395-18.874-13.589-47.368-41.703-49.015-69.524z" fill="#6171a3"/><path d="m183.945 172.573 12.226-12.226c-.497-2.023-1.075-4.118-1.759-6.304-6.654-21.267-15.611-39.251-25.903-54.243-27.006 6.134-50.1 14.914-66.562 25.326 24.8 9.8 53.557 19.006 81.998 47.447z" fill="#d4d4ff"/><path d="m456.096 39.957c-31.099 28.739-79.73 69.293-138.507 114.086l-1.686 6.377-30.835-30.835c15.317-36.909 43.814-83.657 77.025-116.868 19.827-19.827 55.742-16.056 80.22 8.422 5.758 5.758 10.354 12.152 13.783 18.818z" fill="#8cd6fe"/><path d="m317.589 154.043-1.686 6.377-30.835-30.835c4.764-11.479 10.804-23.91 17.862-36.589 26.851 3.044 51.61 8.579 72.351 15.879-17.777 14.32-37.11 29.483-57.692 45.168z" fill="#5fc5fc"/><path d="m343.492 99.8c34.567-50.353 84.231-66.859 112.604-59.843 11.147 21.67 9.801 46.239-5.362 61.401-29.56 29.56-76.537 25.073-122.679 71.215l-12.226-12.226c.497-2.023 1.076-4.118 1.759-6.304 18.606-9.949 32.72-27.336 25.904-54.243z" fill="#efedff"/><path d="m328.056 172.573-12.226-12.226c.497-2.023 1.076-4.118 1.759-6.304 6.654-21.267 15.611-39.251 25.903-54.243 27.006 6.134 50.1 14.914 66.563 25.326-24.802 9.8-53.559 19.006-81.999 47.447z" fill="#d4d4ff"/><path d="m256 121.121c83.514 0 156.757 28.713 152.1 49.691-4.5 20.271-63.601 20.342-152.1 20.342s-147.6-.07-152.1-20.342c-4.657-20.978 68.586-49.691 152.1-49.691z" fill="#8cd6fe"/><g><g><path d="m202.172 321.229c.007 13.843-14.079 25.072-31.463 25.081-17.383.009-31.481-11.206-31.488-25.049s14.079-25.073 31.463-25.082c17.383-.009 31.481 11.206 31.488 25.05z" fill="#eda1ab"/><path d="m309.828 321.174c.007 13.843 14.105 25.058 31.488 25.049s31.47-11.238 31.463-25.081c-.007-13.844-14.105-25.059-31.488-25.05-17.383.01-31.47 11.239-31.463 25.082z" fill="#eda1ab"/><path d="m286.848 309.854c-.01-19.068-13.824-20.852-30.864-20.844-17.04.009-30.853 1.807-30.843 20.875.01 19.067 13.831 34.518 30.871 34.509 17.04-.008 30.845-15.472 30.836-34.54z" fill="#4e5660"/></g><g fill="#4e5660"><path d="m174.045 301.467c-4.141 0-7.498-3.355-7.5-7.497-.003-6.005 2.333-11.651 6.577-15.9 4.244-4.248 9.889-6.589 15.894-6.592h.012c12.39 0 22.474 10.077 22.48 22.47.002 4.142-3.354 7.501-7.496 7.504-.001 0-.003 0-.004 0-4.141 0-7.498-3.355-7.5-7.496-.001-1.999-.78-3.876-2.194-5.289-1.413-1.411-3.29-2.189-5.287-2.189-.001 0-.003 0-.004 0-1.999.001-3.877.78-5.29 2.194-1.412 1.413-2.189 3.293-2.189 5.291.002 4.142-3.354 7.501-7.497 7.503 0 .001-.001.001-.002.001z"/><path d="m307.965 301.399c-4.141 0-7.497-3.355-7.5-7.496-.003-6.005 2.333-11.652 6.577-15.9s9.888-6.589 15.894-6.592h.012c6 0 11.642 2.336 15.888 6.576 4.249 4.244 6.59 9.889 6.593 15.894.002 4.142-3.354 7.501-7.496 7.503-.001 0-.003 0-.004 0-4.141.001-7.498-3.355-7.5-7.497-.001-1.998-.78-3.876-2.194-5.289-1.413-1.411-3.29-2.189-5.288-2.189-.001 0-.003 0-.004 0-1.999.001-3.877.78-5.289 2.194s-2.189 3.293-2.189 5.291c.003 4.142-3.354 7.502-7.496 7.504-.001.001-.003.001-.004.001z"/></g></g></g></svg>