<svg id="Capa_1" enable-background="new 0 0 512 512" height="512" viewBox="0 0 512 512" width="512" xmlns="http://www.w3.org/2000/svg"><g><path d="m452.054 282.158c0 21.759 6.533 72.166 16.376 105.813 4.926 16.838-4.818 34.402-21.727 39.077-45.167 12.488-96.866 16.847-190.703 16.847s-145.536-4.359-190.703-16.847c-16.909-4.675-26.652-22.239-21.727-39.077 9.843-33.647 16.376-84.054 16.376-105.813z" fill="#6171a3"/><path d="m75.361 429.665c42.919 10.485 93.688 14.229 180.639 14.229s137.72-3.744 180.639-14.229c-21.07-24.907-34.181-50.888-34.562-147.508h-292.154c-.381 96.62-13.492 122.601-34.562 147.508z" fill="#475a99"/><ellipse cx="256" cy="117.273" fill="#5fc5fc" rx="169.045" ry="117.273"/><ellipse cx="67.319" cy="277.786" fill="#f2bb88" rx="47.937" ry="42.928"/><ellipse cx="444.681" cy="277.786" fill="#f2bb88" rx="47.937" ry="42.928"/><path d="m373.386 492.929c-9.125-56.604-58.207-99.836-117.386-99.836s-108.26 43.232-117.386 99.836c-1.61 9.992 6.056 19.071 16.177 19.071h70.342l30.867-13.719 30.867 13.719h70.342c10.121 0 17.787-9.079 16.177-19.071z" fill="#5fc5fc"/><path d="m232.924 410.536c-19.246 19.246-34.337 41.329-90.126 44.284-7.868.417-14.24-6.389-13.219-14.202 2.804-21.47 19.268-44.564 60.531-48.392z" fill="#8cd6fe"/><path d="m279.076 410.536c19.246 19.246 34.337 41.329 90.126 44.284 7.868.417 14.24-6.389 13.22-14.202-2.804-21.47-19.268-44.564-60.531-48.392z" fill="#8cd6fe"/><path d="m442.933 267.788c0 90.962-83.693 148.13-186.933 148.13s-186.933-57.168-186.933-148.13 83.693-164.701 186.933-164.701 186.933 73.739 186.933 164.701z" fill="#f2d1a5"/><path d="m216.567 166.222c-21.37 47.318-102.269 74.285-119.568 74.285v-91.584z" fill="#6171a3"/><path d="m295.433 166.222c21.37 47.318 102.269 74.285 119.568 74.285v-91.584z" fill="#6171a3"/><path d="m138.4 160.512c-12.701 20.206-26.556 53.195-30.542 84.251-1.231 9.591-9.37 16.783-19.04 16.783h-24.47c-10.459 0-18.808-8.755-18.261-19.199 1.911-36.451 10.792-86.764 62.94-113.496z" fill="#8cd6fe"/><path d="m373.6 160.512c12.701 20.206 26.556 53.195 30.542 84.251 1.231 9.591 9.37 16.783 19.04 16.783h24.47c10.459 0 18.808-8.755 18.261-19.199-1.911-36.451-10.792-86.764-62.94-113.496z" fill="#8cd6fe"/><path d="m458.152 194.997c-7.911-25.152-23.621-49.967-55.18-66.145l-29.372 31.66c7.417 11.8 15.224 27.962 21.234 45.55 15.82-1.401 31.003-2.964 44.453-4.658 6.84-.862 13.212-3.101 18.865-6.407z" fill="#5fc5fc"/><path d="m53.848 194.997c5.653 3.306 12.026 5.546 18.865 6.407 13.45 1.695 28.634 3.257 44.453 4.658 6.009-17.588 13.816-33.75 21.234-45.55l-29.373-31.661c-31.559 16.179-47.268 40.994-55.179 66.146z" fill="#5fc5fc"/><path d="m256 51.848c37.183 0 110.724 20.895 179.787 52.253 9.916 4.502 16.268 14.407 16.268 25.297v22.45c0 9.585-7.12 17.694-16.63 18.892-57.533 7.248-146.485 11.958-179.424 11.958s-121.891-4.71-179.424-11.958c-9.51-1.198-16.63-9.307-16.63-18.892v-22.45c0-10.89 6.352-20.795 16.267-25.297 69.062-31.358 142.603-52.253 179.786-52.253z" fill="#8cd6fe"/><g fill="#6171a3"><path d="m256 146.864c-4.142 0-7.5-3.358-7.5-7.5v-44.181c0-4.142 3.358-7.5 7.5-7.5s7.5 3.358 7.5 7.5v44.182c0 4.141-3.358 7.499-7.5 7.499z"/><path d="m182.964 144.29c-4.142 0-7.5-3.358-7.5-7.5v-28.466c0-4.142 3.358-7.5 7.5-7.5s7.5 3.358 7.5 7.5v28.466c0 4.142-3.358 7.5-7.5 7.5z"/><path d="m329.036 144.29c-4.142 0-7.5-3.358-7.5-7.5v-28.466c0-4.142 3.358-7.5 7.5-7.5s7.5 3.358 7.5 7.5v28.466c0 4.142-3.358 7.5-7.5 7.5z"/></g><path d="m297.152 480.443c-.952 8.741-3.503 21.5-10.285 31.557h-61.734c-6.783-10.057-9.333-22.816-10.285-31.557-.591-5.423 3.676-10.148 9.132-10.148h64.041c5.455 0 9.722 4.724 9.131 10.148z" fill="#f5ea72"/><g><path d="m204.535 291.385c-.042 13.236-13.549 23.923-30.169 23.871s-30.06-10.824-30.019-24.059c.041-13.236 13.548-23.923 30.169-23.871s30.06 10.824 30.019 24.059z" fill="#eda1ab"/><path d="m307.465 291.708c-.042 13.236 13.398 24.007 30.018 24.059s30.127-10.635 30.169-23.871c.042-13.235-13.398-24.007-30.019-24.059-16.62-.052-30.126 10.635-30.168 23.871z" fill="#eda1ab"/><g fill="#4e5660"><path d="m280.32 273.209c.047-14.995-10.811-16.438-24.211-16.48s-24.267 1.333-24.314 16.328 10.778 27.184 24.178 27.226 24.3-12.079 24.347-27.074z"/><path d="m206.386 272.813c-.008 0-.016 0-.024 0-4.142-.013-7.49-3.381-7.477-7.523.006-1.823-.699-3.539-1.983-4.832-1.285-1.293-2.996-2.008-4.818-2.014-.007 0-.015 0-.022 0-3.753 0-6.812 3.047-6.824 6.802-.013 4.134-3.369 7.477-7.5 7.477-.008 0-.016 0-.024 0-4.142-.013-7.49-3.381-7.477-7.523.038-12.01 9.821-21.755 21.822-21.755h.07c5.829.018 11.303 2.305 15.412 6.44s6.362 9.623 6.343 15.452c-.012 4.133-3.367 7.476-7.498 7.476z"/><path d="m334.426 273.213c-.008 0-.016 0-.023 0-4.142-.013-7.49-3.381-7.477-7.523.012-3.763-3.04-6.834-6.803-6.846-.007 0-.015 0-.021 0-3.753 0-6.812 3.047-6.824 6.802-.013 4.134-3.369 7.477-7.5 7.477-.008 0-.016 0-.024 0-4.142-.013-7.49-3.381-7.477-7.523.038-12.01 9.822-21.755 21.823-21.755h.068c12.034.038 21.793 9.858 21.756 21.892-.011 4.134-3.367 7.476-7.498 7.476z"/></g></g></g></svg>