<svg id="Capa_1" enable-background="new 0 0 512 512" height="512" viewBox="0 0 512 512" width="512" xmlns="http://www.w3.org/2000/svg"><g><path d="m322.421 487.527 16.604-77.093c22.277 4.8 66.047-3.242 99.209-17.127 9.976-4.177 21.497-.14 26.783 9.296l17.752 31.685c6.155 10.985 1.546 24.941-9.997 29.973-45.048 19.643-107.233 32.554-150.351 23.266z" fill="#efedff"/><path d="m411.463 402.632c-27.222 7.812-55.814 11.384-72.438 7.802l-16.604 77.093c34.099 7.345 80.116.801 120.159-11.971-5.123-26.312-15.796-51.158-31.117-72.924z" fill="#d4d4ff"/><path d="m380.2 429.879c-32.584-6.972-57.779-27.299-65.169-54.597-18.1-7.826-38.058-12.166-59.031-12.166-74.098 0-135.553 54.13-146.979 125.005-2.017 12.512 7.583 23.879 20.255 23.879h253.448c12.673 0 22.272-11.367 20.255-23.879-3.427-21.257-11.359-41.005-22.779-58.242z" fill="#efedff"/><path d="m137.893 421.355c-14.699 19.124-24.865 41.913-28.871 66.767-2.017 12.511 7.581 23.878 20.254 23.878h102.61c-16.935-38.877-57.532-69.607-93.993-90.645z" fill="#d4d4ff"/><path d="m380.2 429.879c-15.877-23.965-38.502-43.068-65.169-54.597-51.839 30.406-109.261 82.246-152.389 136.718h106.214c34.625-35.744 71.867-63.215 111.344-82.121z" fill="#d4d4ff"/><path d="m490.059 206.223c0 113.893-104.792 185.474-234.059 185.474s-234.059-71.581-234.059-185.474 104.792-206.223 234.059-206.223 234.059 92.329 234.059 206.223z" fill="#efedff"/><path d="m403.247 278.444 50.343-62.47-50.343-109.521-101.04-12.903h-92.414l-101.04 12.903-50.343 109.521 50.343 62.47z" fill="#ffd4be"/><path d="m414.197 135.983c-5.367 21.271-8.884 44.512-10.148 68.366-1.04 19.635-.918 48.735 5.092 78.55 24.358-4.564 48.263-14.078 75.401-33.091 3.599-13.718 5.516-28.264 5.516-43.585 0-6.454-.345-12.837-1.003-19.139l-.008.007c-20.391-20.199-48.397-37.009-74.85-51.108z" fill="#9ea2e3"/><path d="m256.943.01c17.761 44.658 53.705 91.585 97.074 126.478 31.268 25.157 77.724 53.252 135.03 60.601-10.929-104.65-110.588-186.655-232.104-187.079z" fill="#efedff"/><path d="m36.578 134.301c-9.461 22.393-14.637 46.624-14.637 71.921 0 .427.012.85.015 1.276h.004c9.998 13.383 23.969 26.43 44.776 37.205 11.688-10.597 22.959-23.415 33.744-38.449 18.444-25.71 35.119-57.661 46.953-89.97 2.505-6.84 2.306-12.862.18-18.134-46.18 9.866-85.873 22.572-111.033 36.153z" fill="#9ea2e3"/><path d="m379.576 31.07c-89.557 22.198-208.772 31.159-288.085 28.475-24.009 20.906-42.91 46.351-54.91 74.759 103.501 13.041 300.335-2.039 414.377-42.215-18.556-24.556-42.927-45.401-71.382-61.019z" fill="#d4d4ff"/><path d="m484.551 249.802c-100.63 26.512-207.379 19.387-280.869 8.222-95.282-14.475-160.512-38.967-181.723-50.526.262 37.859 12.134 71.001 32.642 98.348 105.963 33.41 244.172 51.2 365.208 37.076 31.838-23.632 54.794-55.173 64.742-93.12z" fill="#d4d4ff"/><g fill="#4e5660"><path d="m191.666 210.21c-4.142 0-7.5-3.358-7.5-7.5v-12.362c0-4.142 3.358-7.5 7.5-7.5s7.5 3.358 7.5 7.5v12.362c0 4.142-3.357 7.5-7.5 7.5z"/><path d="m320.333 210.21c-4.143 0-7.5-3.358-7.5-7.5v-12.362c0-4.142 3.357-7.5 7.5-7.5s7.5 3.358 7.5 7.5v12.362c0 4.142-3.357 7.5-7.5 7.5z"/><path d="m256 217.568c-8.668 0-16.911-3.754-22.615-10.299-2.722-3.122-2.396-7.86.726-10.581 3.123-2.722 7.86-2.397 10.582.726 2.855 3.276 6.976 5.154 11.307 5.154s8.452-1.879 11.307-5.154c2.723-3.123 7.459-3.448 10.582-.726 3.123 2.721 3.448 7.459.727 10.581-5.705 6.545-13.948 10.299-22.616 10.299z"/></g></g></svg>