<svg id="Capa_1" enable-background="new 0 0 512 512" height="512" viewBox="0 0 512 512" width="512" xmlns="http://www.w3.org/2000/svg"><g><path d="m460.644 273.829c0 69.701 37.499 71.601 37.499 107.755 0 10.997-4.457 20.953-11.664 28.16-19.857 19.857-125.581 51.11-230.48 51.11s-210.623-31.253-230.48-51.11c-7.207-7.207-11.664-17.163-11.664-28.16 0-36.155 37.499-38.054 37.499-107.755z" fill="#de5c6e"/><ellipse cx="54.654" cy="262.066" fill="#ffcbbe" rx="51.154" ry="45.81"/><ellipse cx="457.346" cy="262.066" fill="#ffcbbe" rx="51.154" ry="45.81"/><path d="m364.002 512c10.801 0 18.982-9.688 17.262-20.351-9.737-60.403-62.113-106.537-125.264-106.537s-115.527 46.134-125.265 106.537c-1.719 10.663 6.462 20.351 17.263 20.351z" fill="#f2bcd5"/><path d="m256 440.375c32.945 0 64.536-5.005 93.168-14.508-23.18-25.061-56.339-40.755-93.168-40.755s-69.988 15.694-93.168 40.755c28.632 9.503 60.223 14.508 93.168 14.508z" fill="#ea9cd0"/><path d="m98.37 393.01c-5.633 6.956-8.915 15.233-8.915 24.124 0 24.628 25.077 40.835 56.011 40.835 22.781 0 42.371-8.797 51.123-23.267-30.409-21.959-58.2-35.329-98.219-41.692z" fill="#efedff"/><path d="m145.466 372.54c-19.766 0-37.127 8.159-47.096 20.469 27.369 20.207 61.063 34.398 98.219 41.692 3.132-5.178 4.888-11.077 4.888-17.568-.001-24.627-25.078-44.593-56.011-44.593z" fill="#d4d4ff"/><path d="m413.631 393.01c5.633 6.956 8.915 15.233 8.915 24.124 0 24.628-25.077 40.835-56.011 40.835-22.781 0-42.371-8.797-51.123-23.267 30.408-21.959 58.199-35.329 98.219-41.692z" fill="#efedff"/><path d="m366.535 372.54c19.766 0 37.127 8.159 47.096 20.469-27.369 20.207-61.063 34.398-98.219 41.692-3.132-5.178-4.888-11.077-4.888-17.568 0-24.627 25.077-44.593 56.011-44.593z" fill="#d4d4ff"/><path d="m455.48 251.396c0 97.068-89.31 158.073-199.48 158.073s-199.48-61.005-199.48-158.073 89.31-175.756 199.48-175.756 199.48 78.689 199.48 175.756z" fill="#ffddcf"/><path d="m256 56.166c171.143-45.664 232.619 93.919 231.607 162.38-.242 16.375-15.276 28.518-31.344 25.353-57.918-11.411-144.294-59.211-192.205-102.898-4.569-4.167-11.545-4.167-16.115 0-47.911 43.687-134.287 91.487-192.205 102.898-16.068 3.166-31.102-8.978-31.344-25.353-1.013-68.461 60.463-208.045 231.606-162.38z" fill="#de5c6e"/><path d="m348.062 11.71-40.455 12.668c-4.881 1.528-10.201.588-14.262-2.52l-21.584-16.519c-9.301-7.119-22.22-7.119-31.522 0l-4.076 3.119c-21.005 39.969-.724 83.67 45.183 92.465 11.125-.815 23.237-2.062 33.809-3.666 12.376-1.878 22.844-10.129 27.512-21.743l19.507-48.534c3.62-9.005-4.85-18.17-14.112-15.27z" fill="#f5ea72"/><path d="m236.164 8.458-17.509 13.4c-4.062 3.109-9.381 4.049-14.262 2.52l-40.455-12.668c-9.262-2.9-17.732 6.265-14.112 15.269l19.507 48.534c4.668 11.614 15.136 19.865 27.512 21.743 19.871 3.015 45.178 4.766 59.156 4.766 6.541 0 15.562-.384 25.346-1.1-32.827-11.518-50.016-53.299-45.183-92.464z" fill="#ebca5f"/><g><g fill="#eda1ab"><ellipse cx="175.258" cy="270.852" rx="29.792" ry="23.725"/><ellipse cx="336.742" cy="270.852" rx="29.792" ry="23.725"/></g><g fill="#4e5660"><path d="m206.801 252.535c-4.143 0-7.5-3.358-7.5-7.5 0-3.684-2.996-6.681-6.68-6.681s-6.681 2.997-6.681 6.681c0 4.142-3.357 7.5-7.5 7.5s-7.5-3.358-7.5-7.5c0-11.955 9.726-21.681 21.681-21.681 11.954 0 21.68 9.726 21.68 21.681 0 4.142-3.358 7.5-7.5 7.5z"/><path d="m333.56 252.535c-4.143 0-7.5-3.358-7.5-7.5 0-3.684-2.997-6.681-6.681-6.681s-6.68 2.997-6.68 6.681c0 4.142-3.357 7.5-7.5 7.5s-7.5-3.358-7.5-7.5c0-11.955 9.726-21.681 21.68-21.681 11.955 0 21.681 9.726 21.681 21.681 0 4.142-3.358 7.5-7.5 7.5z"/><path d="m256 275.962c-7.933 0-15.477-3.435-20.696-9.426-2.722-3.122-2.395-7.86.727-10.582 3.122-2.721 7.859-2.396 10.582.727 2.37 2.72 5.792 4.28 9.388 4.28s7.018-1.56 9.388-4.28c2.72-3.123 7.458-3.448 10.582-.727 3.122 2.721 3.448 7.459.727 10.582-5.221 5.99-12.765 9.426-20.698 9.426z"/></g></g><circle cx="256" cy="461.198" fill="#efedff" r="17.778"/></g></svg>