<svg id="Capa_1" enable-background="new 0 0 512 512" height="512" viewBox="0 0 512 512" width="512" xmlns="http://www.w3.org/2000/svg"><g><ellipse cx="74.596" cy="286.82" fill="#b8866b" rx="46.088" ry="41.273"/><ellipse cx="437.404" cy="286.82" fill="#b8866b" rx="46.088" ry="41.273"/><path d="m353.306 512c9.731 0 17.101-8.728 15.553-18.335-8.773-54.421-55.962-95.986-112.858-95.986s-104.085 41.564-112.858 95.986c-1.549 9.607 5.822 18.335 15.553 18.335z" fill="#f1b260"/><path d="m256 450.53c30.493 0 59.722-4.716 86.164-13.656-20.957-24.016-51.786-39.194-86.164-39.194s-65.207 15.178-86.164 39.194c26.442 8.939 55.671 13.656 86.164 13.656z" fill="#ee8c49"/><path d="m306.79 512c16.424-62.191-22.055-114.059-38.009-124.383h-25.561c-15.955 10.324-54.434 62.192-38.01 124.383z" fill="#ee8c49"/><path d="m435.723 277.207c0 87.454-80.465 142.417-179.723 142.417s-179.723-54.963-179.723-142.417 80.465-158.349 179.723-158.349 179.723 70.896 179.723 158.349z" fill="#cc9e83"/><path d="m359.388 116.467c26.255 1.948 68.949 16.472 96.632 38.642 4.622 3.702 3.701 10.975-1.647 13.516-6.274 2.981-14.939 6.312-26.978 8.78 12.883 22.648 24.759 65.269 12.712 100.082-2.553 7.378-11.122 10.796-18.05 7.196-18.828-9.782-46.405-34.873-62.113-67.743-1.636-3.424-4.881-5.788-8.624-6.414-30.57-5.113-70.957-21.343-95.319-64.365-24.362 43.021-64.749 59.251-95.319 64.365-3.743.626-6.988 2.99-8.624 6.414-15.708 32.87-43.285 57.961-62.113 67.743-6.928 3.599-15.497.182-18.05-7.196-12.047-34.813-.171-77.434 12.712-100.082-12.038-2.468-20.704-5.799-26.978-8.78-5.349-2.541-6.27-9.814-1.647-13.516 27.682-22.169 70.376-36.693 96.632-38.642z" fill="#6171a3"/><path d="m253.571 116.103c-12.468 0-22.575-10.107-22.575-22.575 0-35.897 23.23-70.386 46.251-88.641 9.769-7.746 23.968-6.108 31.715 3.662 7.747 9.769 6.107 23.968-3.662 31.715-14.588 11.568-29.155 34.269-29.155 53.264.001 12.468-10.106 22.575-22.574 22.575z" fill="#5ec783"/><path d="m276.146 93.528c0-15.857 10.154-34.293 21.995-46.682-16.228-6.238-33.614-8.733-50.766-7.479-9.719 16.135-16.379 34.945-16.379 54.162 0 12.468 10.107 22.575 22.575 22.575 12.468-.001 22.575-10.108 22.575-22.576z" fill="#3cb767"/><path d="m180.973 154.391c36.599 0 57.503-6.739 57.621-35.754.069-17.053-12.852-39.544-36.967-39.544s-65.767 13.364-78.274 39.544c-12.509 26.182 21.02 35.754 57.62 35.754z" fill="#ee8c49"/><path d="m331.027 154.391c-36.599 0-57.503-6.739-57.621-35.754-.069-17.053 12.852-39.544 36.967-39.544s65.767 13.364 78.274 39.544c12.509 26.182-21.02 35.754-57.62 35.754z" fill="#ee8c49"/><path d="m256 163.011c46.438 0 84.352-9.402 74.733-43.644-7.736-27.539-39.453-49.445-74.733-49.445s-66.996 21.906-74.733 49.445c-9.619 34.242 28.295 43.644 74.733 43.644z" fill="#f1b260"/><g><g><ellipse cx="170.425" cy="297.893" fill="#eda1ab" rx="31.575" ry="25.145"/><ellipse cx="341.575" cy="297.732" fill="#eda1ab" rx="31.576" ry="25.145"/><ellipse cx="255.989" cy="286.134" fill="#4e5660" rx="14.126" ry="16.2"/></g><g fill="#4e5660"><path d="m188.79 278.762c-6.376 0-12.436-2.756-16.635-7.565-2.725-3.121-2.403-7.858.717-10.582 3.121-2.724 7.859-2.402 10.582.717 1.349 1.545 3.293 2.431 5.335 2.431h.006c2.044-.002 3.99-.892 5.337-2.44 2.721-3.125 7.458-3.455 10.581-.737 3.125 2.718 3.455 7.456.737 10.581-4.193 4.821-10.259 7.59-16.641 7.597-.006-.002-.013-.002-.019-.002z"/><path d="m323.132 278.635c-6.372 0-12.434-2.756-16.632-7.565-2.725-3.12-2.403-7.858.717-10.582s7.858-2.404 10.582.716c1.349 1.545 3.293 2.431 5.334 2.431h.007c2.045-.002 3.989-.891 5.337-2.441 2.721-3.126 7.458-3.454 10.581-.737 3.125 2.718 3.455 7.456.737 10.581-4.194 4.822-10.26 7.591-16.641 7.597-.006 0-.015 0-.022 0z"/></g></g></g></svg>