<svg id="Capa_1" enable-background="new 0 0 512 512" height="512" viewBox="0 0 512 512" width="512" xmlns="http://www.w3.org/2000/svg"><g><path d="m145.514 177.899c0-40.928-38.499-46.611-68.125-46.611-31.867 0-57.7-29.39-57.7-65.644s25.833-65.644 57.7-65.644c68.665 0 116.952 79.799 116.952 155.805z" fill="#6171a3"/><path d="m366.486 177.899c0-40.928 38.499-46.611 68.125-46.611 31.867 0 57.7-29.39 57.7-65.644s-25.833-65.644-57.7-65.644c-68.665 0-116.952 79.799-116.952 155.805z" fill="#6171a3"/><path d="m363.135 512c10.714 0 18.829-9.61 17.124-20.187-9.66-59.919-61.615-105.682-124.259-105.682s-114.599 45.763-124.258 105.682c-1.706 10.577 6.41 20.187 17.123 20.187z" fill="#d2996f"/><g fill="#cb775a"><path d="m256 441.198c32.747 0 64.147-4.982 92.602-14.44-23.002-24.975-55.972-40.627-92.602-40.627s-69.601 15.652-92.602 40.627c28.455 9.458 59.855 14.44 92.602 14.44z"/><path d="m148.865 512h64.809c9.59-51.558-34.527-60.984-61.154-71.67-10.473 15.092-17.732 32.582-20.779 51.483-1.705 10.577 6.411 20.187 17.124 20.187z"/><path d="m313.319 399.913c-13.591 50.502 13.438 85.671 62.432 73.226-10.334-31.865-33.03-58.16-62.432-73.226z"/></g><path d="m439.713 131.019c-7.025-8.444-14.817-16.469-23.361-23.998-21.749-19.162-47.06-33.964-74.571-43.925-15.36 27.288-24.122 60.34-24.122 92.709l48.827 22.094c0-40.928 38.499-46.61 68.125-46.61 1.721 0 3.42-.102 5.102-.27z" fill="#475a99"/><path d="m72.287 131.019c1.682.168 3.381.27 5.102.27 29.626 0 68.125 5.683 68.125 46.61l48.827-22.094c0-32.369-8.763-65.421-24.122-92.709-27.511 9.961-52.822 24.763-74.571 43.925-8.544 7.528-16.336 15.554-23.361 23.998z" fill="#475a99"/><path d="m453.878 253.49c0 96.288-88.593 156.803-197.878 156.803s-197.878-60.515-197.878-156.803 88.593-174.344 197.878-174.344 197.878 78.056 197.878 174.344z" fill="#d2996f"/><path d="m405.319 231.046c-26.634-17.927-64.9-27.714-115.37-55.427-14.2-4.565-26.266-11.247-33.949-19.597-7.683 8.35-19.75 15.032-33.949 19.597-50.47 27.714-88.736 37.5-115.37 55.427-3.132 10.214-4.803 20.916-4.803 31.945 0 71.017 69.003 105.998 154.122 105.998s154.122-34.981 154.122-105.998c0-11.029-1.671-21.731-4.803-31.945z" fill="#ffddcf"/><path d="m222.051 175.618c-22.365 7.189-50.037 9.111-74.323 3.907-4.666-1-9.531.445-12.809 3.913-13.092 13.851-22.84 30.003-28.238 47.608 33.065 4.414 85.534-16.258 115.37-55.428z" fill="#de5c6e"/><path d="m289.949 175.618c22.365 7.189 50.037 9.111 74.323 3.907 4.666-1 9.531.445 12.809 3.913 13.093 13.851 22.84 30.003 28.238 47.608-33.065 4.414-85.534-16.258-115.37-55.428z" fill="#de5c6e"/><path d="m282.509 154.478c0-9.996-11.869-14.99-26.509-14.99-14.641 0-26.509 4.994-26.509 14.99s11.869 21.208 26.509 21.208c14.641.001 26.509-11.212 26.509-21.208z" fill="#4e5660"/><g fill="#4e5660"><path d="m191.667 145.668c-4.142 0-7.5-3.357-7.5-7.5v-12.362c0-4.143 3.358-7.5 7.5-7.5s7.5 3.357 7.5 7.5v12.362c0 4.143-3.358 7.5-7.5 7.5z"/><path d="m320.333 145.668c-4.142 0-7.5-3.357-7.5-7.5v-12.362c0-4.143 3.358-7.5 7.5-7.5s7.5 3.357 7.5 7.5v12.362c0 4.143-3.357 7.5-7.5 7.5z"/></g><g><g fill="#eda1ab"><ellipse cx="175.258" cy="288.358" rx="29.792" ry="23.725"/><ellipse cx="336.742" cy="288.358" rx="29.792" ry="23.725"/></g><g fill="#4e5660"><path d="m206.801 270.04c-4.142 0-7.5-3.357-7.5-7.5 0-3.684-2.997-6.68-6.681-6.68s-6.68 2.996-6.68 6.68c0 4.143-3.358 7.5-7.5 7.5s-7.5-3.357-7.5-7.5c0-11.954 9.726-21.68 21.68-21.68 11.955 0 21.681 9.726 21.681 21.68 0 4.143-3.358 7.5-7.5 7.5z"/><path d="m333.56 270.04c-4.142 0-7.5-3.357-7.5-7.5 0-3.684-2.997-6.68-6.68-6.68s-6.681 2.996-6.681 6.68c0 4.143-3.358 7.5-7.5 7.5s-7.5-3.357-7.5-7.5c0-11.954 9.726-21.68 21.681-21.68s21.68 9.726 21.68 21.68c0 4.143-3.358 7.5-7.5 7.5z"/><path d="m256 293.468c-7.933 0-15.476-3.436-20.696-9.426-2.721-3.123-2.396-7.86.727-10.582 3.122-2.721 7.86-2.395 10.581.727 2.371 2.721 5.792 4.281 9.388 4.281 3.595 0 7.017-1.561 9.388-4.281 2.721-3.122 7.459-3.447 10.582-.727 3.123 2.722 3.448 7.459.727 10.582-5.221 5.99-12.764 9.426-20.697 9.426z"/></g></g></g></svg>