<svg id="Capa_1" enable-background="new 0 0 512 512" height="512" viewBox="0 0 512 512" width="512" xmlns="http://www.w3.org/2000/svg"><g><ellipse cx="68.367" cy="279.088" fill="#d4d4ff" rx="47.67" ry="42.69"/><ellipse cx="443.633" cy="279.088" fill="#d4d4ff" rx="47.67" ry="42.69"/><path d="m356.647 512c10.065 0 17.689-9.028 16.087-18.965-9.074-56.29-57.883-99.281-116.733-99.281s-107.659 42.992-116.733 99.281c-1.602 9.937 6.022 18.965 16.087 18.965z" fill="#f5ea72"/><path d="m367.898 473.701c-15.914-46.507-59.998-79.947-111.898-79.947s-95.984 33.44-111.898 79.946c2.817.613 5.729.936 8.702.936h.006c2.778 0 .982.005 43.566-3.219 1.088-.081 2.128.2 2.998.769l22.395 14.618c20.821 13.591 47.678 13.586 68.492 0l22.393-14.617c.881-.576 1.923-.85 3-.77l40.401 3.098c4.042.308 8.023.015 11.843-.814z" fill="#ebca5f"/><path d="m328.371 390.663c17.433 8.667 31.367 23.265 40.924 35.658 6.728 8.726-.127 21.301-11.113 20.459l-40.401-3.097c-7.165-.549-14.311 1.282-20.329 5.21l-22.395 14.618c-11.572 7.553-26.514 7.553-38.085 0l-22.395-14.618c-6.018-3.928-13.163-5.759-20.328-5.21l-40.401 3.097c-10.986.842-17.841-11.733-11.113-20.459 9.557-12.393 23.49-26.991 40.923-35.658z" fill="#5ec783"/><path d="m441.895 269.145c0 90.457-83.228 147.307-185.895 147.307s-185.894-56.85-185.894-147.307 83.227-163.786 185.894-163.786 185.895 73.33 185.895 163.786z" fill="#efedff"/><g><g><ellipse cx="173.951" cy="300.706" fill="#eda1ab" rx="30.274" ry="24.109"/><ellipse cx="338.049" cy="300.706" fill="#eda1ab" rx="30.274" ry="24.109"/><path d="m280.409 282.182c0-15.085-10.928-16.502-24.409-16.502-13.48 0-24.409 1.417-24.409 16.502s10.928 27.313 24.409 27.313c13.48 0 24.409-12.228 24.409-27.313z" fill="#4e5660"/></g><g fill="#4e5660"><path d="m179.013 279.423c-4.142 0-7.5-3.358-7.5-7.5v-12.363c0-4.142 3.358-7.5 7.5-7.5s7.5 3.357 7.5 7.5v12.362c0 4.143-3.358 7.501-7.5 7.501z"/><path d="m332.988 279.423c-4.142 0-7.5-3.358-7.5-7.5v-12.363c0-4.142 3.358-7.5 7.5-7.5s7.5 3.357 7.5 7.5v12.362c0 4.143-3.358 7.501-7.5 7.501z"/></g></g><path d="m197.607 136.001c0-41.953-45.177-66.639-79.983-47.285-2.991 1.663-6.662 1.205-9.145-1.149-10.404-9.859-24.726-15.623-40.394-14.69-27.18 1.618-49.126 23.699-50.587 50.888-1.026 19.092 7.88 36.162 22.014 46.522 3.045 2.232 4.003 6.323 2.269 9.676-4.221 8.166-6.421 17.544-5.926 27.479 1.424 28.557 25.451 51.283 54.043 51.207 32.966-.087 57.391-29.17 53.413-60.614-.527-4.168 2.481-7.962 6.654-8.447 26.9-3.122 47.642-26.001 47.642-53.587z" fill="#5ec783"/><path d="m314.393 136.001c0-41.953 45.177-66.639 79.983-47.285 2.991 1.663 6.662 1.205 9.145-1.149 10.404-9.859 24.726-15.623 40.394-14.69 27.18 1.618 49.125 23.699 50.587 50.888 1.026 19.092-7.88 36.162-22.014 46.522-3.045 2.232-4.003 6.323-2.269 9.676 4.221 8.166 6.421 17.544 5.926 27.479-1.424 28.557-25.451 51.283-54.043 51.207-32.966-.087-57.391-29.17-53.413-60.614.527-4.168-2.481-7.962-6.654-8.447-26.9-3.122-47.642-26.001-47.642-53.587z" fill="#5ec783"/><path d="m321.764 105.417c-5.572-4.341-18.198-46.618-7.931-81.561 1.532-5.215-.89-10.777-5.715-13.28-11.593-6.016-30.806-10.576-52.118-10.576s-40.525 4.56-52.119 10.575c-4.825 2.503-7.247 8.065-5.715 13.28 10.267 34.944-2.358 77.221-7.931 81.561l65.765 20.375z" fill="#6171a3"/><path d="m321.764 105.417c-3.866-3.012-11.12-24.286-11.776-48.7-15.538 5.397-30.898 7.47-53.988 7.47-23.088 0-38.447-2.073-53.988-7.47-.656 24.414-7.91 45.689-11.776 48.7l65.764 20.374z" fill="#475a99"/><path d="m256 141.793c-35.761 0-61.335-4.358-88.274-15.04-11.988-4.754-17.852-18.326-13.098-30.313 4.753-11.988 18.323-17.85 30.313-13.099 21.325 8.457 41.248 11.752 71.059 11.752s49.734-3.295 71.059-11.752c11.987-4.753 25.56 1.109 30.313 13.099 4.754 11.988-1.111 25.559-13.098 30.313-26.938 10.682-52.513 15.04-88.274 15.04z" fill="#6171a3"/></g></svg>