<svg id="Capa_1" enable-background="new 0 0 512 512" height="512" viewBox="0 0 512 512" width="512" xmlns="http://www.w3.org/2000/svg"><g><path d="m370.754 493.357c-3.74-23.202-14.351-44.103-29.674-60.557-23.553 2.678-47.034 10.053-85.08 10.053s-61.528-7.374-85.08-10.053c-15.323 16.453-25.934 37.355-29.674 60.557-1.575 9.768 5.92 18.643 15.814 18.643h197.88c9.894 0 17.389-8.875 15.814-18.643z" fill="#6171a3"/><path d="m256 395.759c-33.595 0-63.859 14.254-85.08 37.041 14.346 24.957 47.034 42.398 85.08 42.398s70.734-17.441 85.08-42.398c-21.221-22.787-51.485-37.041-85.08-37.041z" fill="#f1b260"/><path d="m256 395.759c-32.706 0-62.251 13.513-83.373 35.254 16.018 5.241 33.052 8.947 50.728 10.972 7.938 5.601 17.465 8.68 27.376 8.68h10.538c9.911 0 19.439-3.079 27.376-8.68 17.676-2.025 34.711-5.732 50.728-10.972-21.122-21.741-50.667-35.254-83.373-35.254z" fill="#ee8c49"/><path d="m438.742 273.263c0 88.923-81.816 144.809-182.742 144.809s-182.742-55.886-182.742-144.809 81.816-161.009 182.742-161.009 182.742 72.086 182.742 161.009z" fill="#cc9e83"/><path d="m486.843 100.635-51.088-51.088c-31.725-31.724-74.752-49.547-119.618-49.547h-60.137-60.137c-19.256 0-38.171 3.293-56.002 9.549-18.498 41.153-8.693 109.454 37.021 130.021 20.984-8.24 47.117-13.457 79.118-13.457 88.866 0 132.488 40.22 146.222 73.744v138.779c0 17.335 14.052 31.387 31.387 31.387h24.344c17.335 0 31.387-14.052 31.387-31.387v-84.293c0-10.311 1.804-20.543 5.331-30.232l12.147-33.374c11.416-31.364 3.626-66.501-19.975-90.102z" fill="#efedff"/><path d="m139.861 9.549c-23.713 8.32-45.508 21.89-63.616 39.998l-12.083 12.083-15.43 85.526-31.403 76.955c3.527 9.689 5.331 19.921 5.331 30.232v84.293c0 17.335 14.052 31.387 31.387 31.387h24.344c17.334 0 31.387-14.052 31.387-31.387v-112.643l-8.921-28.995c8.788-21.452 38.737-42.786 76.025-57.429-28.784-37.369-37.825-98.85-37.021-130.02z" fill="#d4d4ff"/><g fill="#6171a3"><path d="m64.162 61.63-39.005 39.005c-23.601 23.601-31.391 58.739-19.975 90.103l12.147 33.374c.227.623.426 1.255.639 1.882h91.81v-26.136c6.879-16.792 21.258-35.263 45.065-49.519-17.321-27.067-48.918-63.014-90.681-88.709z"/><path d="m447.838 61.63 39.005 39.005c23.601 23.601 31.391 58.738 19.975 90.102l-12.147 33.374c-.227.623-.426 1.255-.639 1.882h-91.81v-26.136c-6.879-16.792-21.259-35.263-45.065-49.519 17.321-27.066 48.918-63.013 90.681-88.708z"/><path d="m210.496 130.082c13.631-2.541 28.764-3.969 45.504-3.969 16.739 0 31.872 1.428 45.504 3.969 3.95-38.153 13.248-96.938 26.673-129.648-3.995-.285-8.009-.434-12.04-.434h-60.137-60.137c-4.03 0-8.045.149-12.039.434 13.425 32.71 22.723 91.495 26.672 129.648z"/></g><path d="m387.182 135.072c-22.48-16.814-61.38-37.19-131.182-37.19-41.216 0-71.652 7.106-94.301 16.386-3.829 22.739 12.117 37.926 32.021 42.313 17.423-3.93 37.975-6.404 62.28-6.404 88.866 0 127.646 33.026 146.222 49.681v-34.846c0-11.799-5.592-22.874-15.04-29.94z" fill="#f5ea72"/><path d="m275.496 338.056h-38.992c-7.55 0-13.454 6.512-12.716 14.027l5.222 53.137c1.098 11.173 10.494 19.691 21.721 19.691h10.538c11.227 0 20.623-8.517 21.721-19.691l5.222-53.137c.738-7.514-5.166-14.027-12.716-14.027z" fill="#f5ea72"/><g><g><ellipse cx="169.623" cy="280.815" fill="#eda1ab" rx="31.872" ry="25.381"/><ellipse cx="342.377" cy="280.815" fill="#eda1ab" rx="31.872" ry="25.381"/><ellipse cx="256" cy="261.314" fill="#4e5660" rx="16.918" ry="18.931"/></g><g fill="#4e5660"><path d="m206.19 257.486c-4.142 0-7.5-3.357-7.5-7.5 0-3.684-2.997-6.68-6.681-6.68s-6.681 2.996-6.681 6.68c0 4.143-3.358 7.5-7.5 7.5s-7.5-3.357-7.5-7.5c0-11.954 9.726-21.68 21.681-21.68s21.681 9.726 21.681 21.68c0 4.143-3.358 7.5-7.5 7.5z"/><path d="m332.949 257.486c-4.143 0-7.5-3.357-7.5-7.5 0-3.684-2.997-6.68-6.681-6.68s-6.681 2.996-6.681 6.68c0 4.143-3.357 7.5-7.5 7.5s-7.5-3.357-7.5-7.5c0-11.954 9.726-21.68 21.681-21.68s21.681 9.726 21.681 21.68c0 4.143-3.357 7.5-7.5 7.5z"/></g></g><path d="m109.778 165.011v34.846c13.496-12.1 37.662-32.836 83.942-43.276-13.547-10.305-24.042-25.381-32.021-42.313-15.709 6.436-27.675 13.918-36.881 20.803-9.448 7.067-15.04 18.142-15.04 29.94z" fill="#ebca5f"/></g></svg>