<svg id="Capa_1" enable-background="new 0 0 512 512" height="512" viewBox="0 0 512 512" width="512" xmlns="http://www.w3.org/2000/svg"><g><path d="m210.238 386.663c-.915-30.727-25.469-56.05-56.157-57.854-14.336-.843-27.645 3.387-38.339 11.038-8.86-5.863-19.507-9.242-30.954-9.12-29.92.319-54.391 24.98-54.487 54.902-.078 24.152 15.392 44.688 36.966 52.2 3.358 1.169 5.628 4.258 6.041 7.789 2.639 22.538 21.814 39.771 44.781 39.771 22.621 0 41.349-16.653 44.601-38.368 27.732-5.757 48.43-30.72 47.548-60.358z" fill="#f1b260"/><ellipse cx="103.727" cy="75.832" fill="#475a99" rx="64.336" ry="61.454"/><ellipse cx="51.863" cy="253.136" fill="#f2bb88" rx="51.863" ry="46.445"/><ellipse cx="460.137" cy="253.136" fill="#f2bb88" rx="51.863" ry="46.445"/><path d="m365.499 506.534c10.95 0 19.245-9.822 17.502-20.633-9.873-61.24-62.975-108.013-127.001-108.013s-117.128 46.773-127.001 108.014c-1.743 10.81 6.552 20.633 17.502 20.633h218.998z" fill="#efedff"/><path d="m164.222 416.388c28.252 9.18 59.353 14.009 91.778 14.009s63.525-4.829 91.778-14.009c-23.342-23.762-55.838-38.501-91.778-38.501s-68.436 14.74-91.778 38.501z" fill="#d4d4ff"/><path d="m230.734 429.393c-29.466-14.452-52.399-34.613-62.745-59.413s-21.771 20.524-33.928 47.507c-3.358 7.454.974 16.124 8.917 18.063 25.172 6.145 62.688 18.059 78.878 70.984h34.144c0-18.868-9.504-49.48-25.266-77.141z" fill="#8cd6fe"/><path d="m377.94 417.488c-12.158-26.983-33.928-47.507-33.928-47.507-10.346 24.8-33.28 44.961-62.745 59.413-15.763 27.66-25.267 58.272-25.267 77.14h34.145c16.19-52.925 53.706-64.839 78.878-70.984 7.943-1.939 12.275-10.609 8.917-18.062z" fill="#8cd6fe"/><path d="m281.266 429.393c32.854-2.602 63.852-10.266 91.271-22.49-12.264-21.584-28.525-36.923-28.525-36.923-25.005 7.091-46.999 31.78-62.746 59.413z" fill="#5fc5fc"/><path d="m139.463 406.904c27.418 12.224 58.416 19.888 91.271 22.49-15.747-27.634-37.74-52.322-62.745-59.413-.001-.001-16.262 15.338-28.526 36.923z" fill="#5fc5fc"/><path d="m458.245 242.319c0 98.413-90.548 160.263-202.245 160.263s-202.245-61.85-202.245-160.263 90.548-178.192 202.245-178.192 202.245 79.779 202.245 178.192z" fill="#f2d1a5"/><path d="m260.651 141.919c27.103 20.989 79.296 33.615 120.622 39.127 5.36.715 9.919 4.167 12.169 9.084 9.838 21.502 24.66 39.764 37.686 53.219 13.501 13.946 37.314 6.688 40.381-12.479 12.837-80.22-53.104-221.101-211.229-182.322-2.808.689-5.751.689-8.559 0-158.126-38.779-224.067 102.102-211.23 182.323 3.067 19.167 26.88 26.425 40.381 12.479 13.026-13.455 27.847-31.717 37.686-53.219 2.25-4.917 6.809-8.369 12.169-9.084 41.327-5.513 93.519-18.138 120.622-39.127 2.751-2.131 6.551-2.131 9.302-.001z" fill="#6171a3"/><path d="m490.973 350.199h-69.415v106.135c0 19.168 15.539 34.707 34.707 34.707 19.168 0 34.707-15.539 34.707-34.707v-106.135z" fill="#efedff"/><path d="m490.973 456.334v-52.092c-25.141 11.826-55.361-1.026-69.415-2.629v54.721c0 19.168 15.539 34.707 34.707 34.707 19.169 0 34.708-15.539 34.708-34.707z" fill="#f1b260"/><path d="m491.665 352.259h-70.799c-11.231 0-20.335-9.104-20.335-20.335v-14.576c0-11.231 9.104-20.335 20.335-20.335h70.799c11.231 0 20.335 9.104 20.335 20.335v14.576c0 11.231-9.104 20.335-20.335 20.335z" fill="#8cd6fe"/><circle cx="476.817" cy="40.649" fill="#f1b260" r="35.183"/><g><g fill="#eda1ab"><ellipse cx="175.258" cy="269.934" rx="29.792" ry="23.725"/><ellipse cx="336.742" cy="269.934" rx="29.792" ry="23.725"/></g><g fill="#4e5660"><path d="m206.801 251.616c-4.143 0-7.5-3.357-7.5-7.5 0-3.684-2.996-6.68-6.68-6.68s-6.681 2.996-6.681 6.68c0 4.143-3.357 7.5-7.5 7.5s-7.5-3.357-7.5-7.5c0-11.954 9.726-21.68 21.681-21.68 11.954 0 21.68 9.726 21.68 21.68 0 4.143-3.358 7.5-7.5 7.5z"/><path d="m333.56 251.616c-4.143 0-7.5-3.357-7.5-7.5 0-3.684-2.997-6.68-6.681-6.68s-6.68 2.996-6.68 6.68c0 4.143-3.357 7.5-7.5 7.5s-7.5-3.357-7.5-7.5c0-11.954 9.726-21.68 21.68-21.68 11.955 0 21.681 9.726 21.681 21.68 0 4.143-3.358 7.5-7.5 7.5z"/><path d="m256 275.044c-7.933 0-15.477-3.436-20.696-9.427-2.722-3.123-2.395-7.86.728-10.581 3.121-2.721 7.86-2.396 10.581.728 2.371 2.72 5.792 4.28 9.388 4.28s7.017-1.561 9.388-4.28c2.72-3.125 7.459-3.449 10.581-.728 3.123 2.721 3.449 7.458.727 10.581-5.22 5.991-12.764 9.427-20.697 9.427z"/></g></g></g></svg>