<svg id="Capa_1" enable-background="new 0 0 512 512" height="512" viewBox="0 0 512 512" width="512" xmlns="http://www.w3.org/2000/svg"><g><g><path d="m175.897 313.385c-1.117-26.779-24.776-48.172-53.813-48.172-29.75 0-53.867 22.453-53.867 50.149 0 24.829 19.477 45.621 45.119 49.495 7.422 1.121 13.631 6.383 16.028 13.496 6.858 20.352 27.269 35.117 51.393 35.117 29.75 0 53.867-22.453 53.867-50.149 0-29.075-26.707-52.605-58.727-49.936z" fill="#de5c6e"/><path d="m193.621 345.906c-24.161 6.53-64.698 40.027-169.994 10.529-13.344-3.738-25.921 7.85-23.271 21.452 8.341 42.827 35.935 51.894 30.885 80.502-1.67 9.458 5.518 18.156 15.122 18.156h128.442l82.596-69.331z" fill="#6171a3"/><path d="m257.401 407.214-63.78-61.308c-10.298 2.783-23.577 10.463-43.571 16.078-1.01 1.11-2.008 2.233-2.991 3.372-12.392 14.359-15.571 34.31-8.5 51.738-4.916 11.321-8.39 23.199-10.374 35.504-1.315 8.16-.454 16.389 2.341 23.947h44.278z" fill="#475a99"/><path d="m107.064 433.572c-6.801 0-12.69-.899-18.444-1.777-8.039-1.227-15.632-2.386-25.258-.701-4.078.713-7.967-2.015-8.681-6.095s2.015-7.966 6.095-8.681c12.044-2.11 21.227-.707 30.107.648 7.691 1.174 14.954 2.282 24.211 1.081 4.105-.534 7.87 2.364 8.403 6.472.534 4.108-2.364 7.87-6.472 8.403-3.559.463-6.856.65-9.961.65z" fill="#475a99"/><path d="m375.753 313.385c1.117-26.779 24.775-48.172 53.813-48.172 29.75 0 53.867 22.453 53.867 50.149 0 24.829-19.477 45.621-45.12 49.495-7.421 1.121-13.631 6.383-16.028 13.496-6.858 20.352-27.269 35.117-51.393 35.117-29.75 0-53.867-22.453-53.867-50.149.001-29.075 26.708-52.605 58.728-49.936z" fill="#de5c6e"/><ellipse cx="87.497" cy="242.77" fill="#ffcbbe" rx="47.847" ry="42.848"/><ellipse cx="464.153" cy="242.77" fill="#ffcbbe" rx="47.847" ry="42.848"/><path d="m376.844 476.545c10.102 0 17.754-9.062 16.146-19.035-9.108-56.498-58.098-99.649-117.166-99.649s-108.058 43.151-117.166 99.649c-1.608 9.973 6.044 19.035 16.146 19.035z" fill="#f1b260"/><path d="m275.825 432.086c34.35 0 67.346-5.435 97.213-15.742 12.848-4.434 17.064-20.533 8.184-30.822-26.407-30.598-64.89-48.238-105.397-48.238-40.526 0-79.001 17.654-105.398 48.239-8.88 10.289-4.663 26.387 8.185 30.821 29.867 10.308 62.863 15.742 97.213 15.742z" fill="#6171a3"/><path d="m462.408 232.79c0 90.792-83.536 147.853-186.583 147.853s-186.583-57.061-186.583-147.853 83.536-164.393 186.583-164.393 186.583 73.602 186.583 164.393z" fill="#ffddcf"/><path d="m281.952 136.249c19.364 14.159 52.553 18.926 77.478 12.952 4.68-1.122 9.526 1.123 11.666 5.434 8.871 17.864 23.114 35.583 43.917 45.841 3.767 1.858 6.118 5.829 5.791 10.017-1.312 16.826 11.92 32.105 29.646 32.276 15.719.152 28.726-11.488 30.181-27.141.967-10.404-3.384-19.836-10.645-25.903-3.256-2.72-3.81-7.563-1.345-11.017 6.31-8.844 9.986-19.457 9.986-30.87 0-31.821-28.421-56.891-61.901-55.838-5.032.158-9.512-2.98-11.297-7.688-16.97-44.758-79.11-62.76-123.806-37.025-3.599 2.072-7.995 2.072-11.594 0-44.696-25.736-106.836-7.734-123.806 37.025-1.785 4.708-6.265 7.846-11.297 7.688-33.481-1.053-61.901 24.017-61.901 55.838 0 11.413 3.676 22.026 9.986 30.87 2.464 3.454 1.91 8.296-1.345 11.017-7.261 6.067-11.612 15.499-10.645 25.903 1.455 15.652 14.462 27.292 30.181 27.141 17.726-.171 30.958-15.45 29.646-32.276-.327-4.187 2.024-8.159 5.791-10.017 20.802-10.259 35.046-27.977 43.917-45.841 2.14-4.31 6.986-6.555 11.666-5.434 24.924 5.975 58.114 1.207 77.478-12.952 3.651-2.672 8.598-2.672 12.252 0z" fill="#de5c6e"/><path d="m275.825 159.967c-34.842 0-52.8.677-86.839-5.488-13.979-2.531-23.258-15.915-20.727-29.894s15.913-23.256 29.893-20.727c29.507 5.344 44.119 4.665 77.673 4.665 33.698 0 48.267.661 77.672-4.665 13.975-2.53 27.363 6.748 29.894 20.727 2.532 13.978-6.748 27.362-20.726 29.894-33.587 6.082-50.958 5.488-86.84 5.488z" fill="#6171a3"/><path d="m265.643 87.277-19.876 27.491c-6.597 9.125-6.597 21.452 0 30.577l19.876 27.491c5.015 6.937 15.348 6.937 20.363 0l19.876-27.491c6.597-9.125 6.597-21.452 0-30.577l-19.876-27.491c-5.015-6.937-15.347-6.937-20.363 0z" fill="#f1b260"/></g><g><g fill="#eda1ab"><ellipse cx="189.738" cy="251.849" rx="31.765" ry="25.296"/><ellipse cx="361.912" cy="251.849" rx="31.765" ry="25.296"/></g><g fill="#4e5660"><path d="m208.25 234.687c-4.142 0-7.5-3.358-7.5-7.5v-12.362c0-4.142 3.358-7.5 7.5-7.5s7.5 3.358 7.5 7.5v12.362c0 4.142-3.358 7.5-7.5 7.5z"/><path d="m275.825 242.728c-8.996 0-17.551-3.896-23.471-10.689-2.721-3.123-2.396-7.86.727-10.582 3.122-2.721 7.859-2.396 10.582.727 3.07 3.523 7.503 5.544 12.162 5.544 4.658 0 9.091-2.02 12.161-5.544 2.721-3.123 7.458-3.448 10.582-.727 3.122 2.721 3.448 7.459.727 10.582-5.92 6.793-14.475 10.689-23.47 10.689z"/><path d="m360.112 234.342c-4.143 0-7.5-3.358-7.5-7.5 0-3.764-3.063-6.826-6.826-6.826-3.764 0-6.825 3.062-6.825 6.826 0 4.142-3.357 7.5-7.5 7.5-4.142 0-7.5-3.358-7.5-7.5 0-12.035 9.791-21.826 21.825-21.826 12.035 0 21.826 9.791 21.826 21.826 0 4.142-3.357 7.5-7.5 7.5z"/></g></g></g></svg>