<svg id="Capa_1" enable-background="new 0 0 512 512" height="512" viewBox="0 0 512 512" width="512" xmlns="http://www.w3.org/2000/svg"><g><ellipse cx="72.22" cy="283.871" fill="#b8866b" rx="46.692" ry="41.813"/><ellipse cx="439.78" cy="283.871" fill="#b8866b" rx="46.692" ry="41.813"/><path d="m354.58 512c9.858 0 17.326-8.843 15.756-18.575-8.888-55.134-56.695-97.243-114.336-97.243s-105.448 42.109-114.336 97.243c-1.569 9.732 5.898 18.575 15.756 18.575z" fill="#efedff"/><path d="m256 396.182c-46.935 0-87.346 27.919-105.539 68.055 25.047 12.563 61.386 26.167 91.899 31.462 9.028 1.567 18.262 1.565 27.281 0 30.512-5.295 66.851-18.899 91.898-31.462-18.193-40.135-58.604-68.055-105.539-68.055z" fill="#d4d4ff"/><path d="m321.124 373.87c13.863 7.562 33.834 27.339 44.023 44.674 3.765 6.405 1.568 14.694-4.886 18.374-22.157 12.632-63.069 28.906-94.848 34.421-6.229 1.081-12.598 1.081-18.827 0-31.779-5.515-72.69-21.788-94.848-34.421-6.454-3.68-8.651-11.969-4.886-18.374 10.189-17.335 30.161-37.112 44.023-44.674z" fill="#8cd6fe"/><path d="m256 446.619c-4.143 0-7.5-3.357-7.5-7.5v-26.562c0-4.143 3.357-7.5 7.5-7.5s7.5 3.357 7.5 7.5v26.562c0 4.143-3.357 7.5-7.5 7.5z" fill="#5fc5fc"/><path d="m438.077 274.133c0 88.599-81.519 144.282-182.077 144.282s-182.077-55.683-182.077-144.282 81.519-160.423 182.077-160.423 182.077 71.823 182.077 160.423z" fill="#cc9e83"/><path d="m255.994 186.934c21.416 0 51.809-4.839 75.378-17.121 2.755-1.435 6.116.164 6.729 3.209 9.578 47.555 52.521 90.551 83.744 112.853 6.866 4.904 16.451.715 17.646-7.638 18.859-131.724-88.157-172.501-183.497-172.501s-202.356 40.776-183.497 172.501c1.196 8.352 10.781 12.542 17.646 7.638 31.223-22.302 74.166-65.297 83.744-112.853.613-3.045 3.974-4.644 6.729-3.209 23.57 12.281 53.962 17.121 75.378 17.121z" fill="#6171a3"/><path d="m256 50.915c30.746 0 58.439 4.529 86.598 13.941 7.191 2.404 11.102 10.154 8.69 17.343l-12.775 38.081c-2.948 8.787-10.477 15.269-19.618 16.806-17.243 2.9-39.271 4.929-62.896 4.929s-45.654-2.029-62.896-4.929c-9.14-1.537-16.67-8.018-19.618-16.806l-12.775-38.081c-2.411-7.189 1.499-14.939 8.69-17.343 28.161-9.413 55.854-13.941 86.6-13.941z" fill="#efedff"/><g><g><path d="m202.172 309.515c.007 13.843-14.079 25.072-31.463 25.081-17.383.009-31.481-11.206-31.488-25.049s14.08-25.073 31.463-25.081c17.383-.01 31.481 11.205 31.488 25.049z" fill="#eda1ab"/><path d="m309.828 309.461c.007 13.843 14.105 25.058 31.488 25.049s31.47-11.238 31.463-25.081-14.105-25.059-31.488-25.05-31.47 11.238-31.463 25.082z" fill="#eda1ab"/><path d="m286.848 298.14c-.01-19.068-13.824-20.852-30.864-20.844-17.04.009-30.853 1.807-30.843 20.875.01 19.067 13.831 34.518 30.871 34.509 17.04-.008 30.845-15.472 30.836-34.54z" fill="#4e5660"/></g><g fill="#4e5660"><path d="m174.045 289.753c-4.141 0-7.498-3.355-7.5-7.496-.006-12.397 10.074-22.487 22.47-22.493h.012c6.001 0 11.643 2.335 15.889 6.577 4.249 4.244 6.59 9.889 6.593 15.894.002 4.143-3.354 7.502-7.496 7.504-.001 0-.003 0-.004 0-4.141 0-7.498-3.355-7.5-7.496-.002-4.125-3.358-7.478-7.482-7.478-.001 0-.002 0-.003 0-4.125.002-7.48 3.36-7.478 7.485.002 4.143-3.355 7.502-7.496 7.504-.002-.001-.004-.001-.005-.001z"/><path d="m307.965 289.685c-4.141 0-7.497-3.354-7.5-7.495-.004-6.005 2.332-11.652 6.576-15.9 4.244-4.249 9.888-6.59 15.893-6.594h.012c6.002 0 11.644 2.335 15.89 6.577 4.249 4.244 6.59 9.889 6.593 15.894.002 4.143-3.354 7.502-7.496 7.504-.001 0-.003 0-.004 0-4.141 0-7.498-3.355-7.5-7.496-.002-4.125-3.358-7.479-7.482-7.479-.001 0-.002 0-.003 0-1.998.001-3.877.78-5.289 2.194s-2.189 3.293-2.188 5.29c.003 4.143-3.354 7.502-7.495 7.505-.004 0-.006 0-.007 0z"/></g></g><path d="m327.725 69.971c0-38.644-32.112-69.971-71.725-69.971s-71.725 31.327-71.725 69.971z" fill="#d4d4ff"/><path d="m167.73 103.119c.538-.262 1.09-.503 1.672-.698 28.159-9.412 55.852-13.941 86.598-13.941s58.439 4.529 86.598 13.941c.582.195 1.135.436 1.672.698l7.018-20.921c2.411-7.189-1.499-14.939-8.69-17.342-28.159-9.413-55.852-13.941-86.598-13.941s-58.439 4.529-86.598 13.941c-7.192 2.404-11.102 10.154-8.69 17.342z" fill="#8cd6fe"/></g></svg>