<svg id="Capa_1" enable-background="new 0 0 512 512" height="512" viewBox="0 0 512 512" width="512" xmlns="http://www.w3.org/2000/svg"><g><path d="m457.193 110.021c-6.72-1.608-11.157-7.958-10.727-14.855 2.37-38.038-29.873-71.694-72.113-71.694-14.515 0-28.022 4.034-39.337 10.967-5.643 3.457-12.871 2.152-17.017-3.005-14.18-17.637-36.667-29.041-61.999-29.041s-47.819 11.403-61.998 29.041c-4.146 5.158-11.375 6.462-17.017 3.005-11.315-6.933-24.823-10.967-39.337-10.967-42.263 0-74.477 33.676-72.112 71.694.429 6.897-4.006 13.247-10.727 14.855-28.616 6.846-49.781 31.229-49.781 60.259 0 34.34 29.615 62.178 66.146 62.178 41.099 0 72.44-34.928 65.072-73.293 27.084.493 50.776-13.012 63.565-33.327 30.657 30.187 81.757 30.154 112.381 0 12.778 20.298 36.459 33.821 63.565 33.327-7.389 38.473 24.096 73.293 65.072 73.293 36.532 0 66.146-27.838 66.146-62.178-.002-29.03-21.166-53.412-49.782-60.259z" fill="#de5c6e"/><ellipse cx="51.863" cy="256.208" fill="#ffbf9e" rx="51.863" ry="46.445"/><ellipse cx="460.137" cy="256.208" fill="#ffbf9e" rx="51.863" ry="46.445"/><path d="m365.499 509.607c10.95 0 19.245-9.822 17.502-20.633-9.873-61.241-62.975-108.014-127.001-108.014s-117.128 46.773-127.001 108.014c-1.743 10.811 6.552 20.633 17.502 20.633z" fill="#8cd6fe"/><path d="m256 436.56c33.286 0 65.206-5.044 94.143-14.625-23.486-25.208-56.972-40.975-94.143-40.975s-70.657 15.767-94.143 40.975c28.937 9.581 60.857 14.625 94.143 14.625z" fill="#5fc5fc"/><path d="m294.897 434.201c-10.606-7.812-25.681-11.603-38.897-11.603-13.215 0-28.291 3.79-38.897 11.603 9.251 11.708 18.577 22.065 26.092 29.179 7.168 6.785 18.443 6.785 25.61 0 7.515-7.114 16.842-17.471 26.092-29.179z" fill="#efedff"/><path d="m188.915 303.443-7.974 71.65c6.644 18.007 21.305 40.304 36.162 59.107 12.684 1.557 25.682 2.36 38.897 2.36 13.216 0 26.213-.802 38.897-2.36 14.857-18.803 29.518-41.1 36.162-59.107l-7.974-71.65z" fill="#d4d4ff"/><path d="m458.245 245.391c0 98.413-90.548 160.263-202.245 160.263s-202.245-61.85-202.245-160.263 90.548-178.192 202.245-178.192 202.245 79.779 202.245 178.192z" fill="#ffd4be"/><path d="m312.48 368.75c0 35.535 21.337 39.824 21.337 61.982 0 17.391 12.512 26.196 23.743 26.196 7.851 0 16.374-1.717 22.555-14.928 1.195-2.555 4.84-2.555 6.036 0 6.181 13.211 14.704 14.928 22.555 14.928 11.231 0 23.743-8.804 23.743-26.196 0-22.158 21.337-26.447 21.337-61.982 0-18.929-17.541-34.273-39.178-34.273-9.384 0-17.995 2.887-24.741 7.7-4.03 2.875-9.437 2.875-13.467 0-6.745-4.813-15.357-7.7-24.741-7.7-21.638 0-39.179 15.345-39.179 34.273z" fill="#efedff"/><path d="m256 55.834c180.043 0 211.033 131.656 198.265 154.233-28.766 4.49-55.991 3.542-73.502-19.806-17.511-23.347 10.668-74.111-124.763-74.111s-107.252 50.765-124.763 74.113-44.736 24.295-73.502 19.806c-12.768-22.579 18.222-154.235 198.265-154.235z" fill="#de5c6e"/><g><g><ellipse cx="173.951" cy="265.757" fill="#eda1ab" rx="30.274" ry="24.109"/><ellipse cx="338.049" cy="265.757" fill="#eda1ab" rx="30.274" ry="24.109"/><path d="m280.409 247.233c0-15.085-10.928-16.502-24.409-16.502-13.48 0-24.409 1.417-24.409 16.502s10.928 27.313 24.409 27.313c13.48 0 24.409-12.228 24.409-27.313z" fill="#4e5660"/></g><g fill="#4e5660"><path d="m179.013 244.474c-4.142 0-7.5-3.357-7.5-7.5v-12.362c0-4.143 3.358-7.5 7.5-7.5s7.5 3.357 7.5 7.5v12.362c0 4.142-3.358 7.5-7.5 7.5z"/><path d="m332.988 244.474c-4.142 0-7.5-3.357-7.5-7.5v-12.362c0-4.143 3.358-7.5 7.5-7.5s7.5 3.357 7.5 7.5v12.362c0 4.142-3.358 7.5-7.5 7.5z"/></g></g><path d="m202.419 482.377h-26.66c-4.142 0-7.5-3.358-7.5-7.5 0-4.143 3.358-7.5 7.5-7.5h26.66c4.142 0 7.5 3.357 7.5 7.5s-3.358 7.5-7.5 7.5z" fill="#efedff"/></g></svg>