<svg id="Capa_1" enable-background="new 0 0 512 512" height="512" viewBox="0 0 512 512" width="512" xmlns="http://www.w3.org/2000/svg"><g><ellipse cx="84.037" cy="298.539" fill="#ffcbbe" rx="43.689" ry="39.125"/><ellipse cx="427.963" cy="298.539" fill="#ffcbbe" rx="43.689" ry="39.125"/><path d="m348.241 512c9.224 0 16.211-8.274 14.743-17.381-8.317-51.589-53.049-90.99-106.984-90.99s-98.668 39.401-106.984 90.99c-1.468 9.107 5.519 17.381 14.743 17.381z" fill="#8cd6fe"/><path d="m256 455.337c29.309 0 57.403-4.572 82.792-13.235-19.879-23.522-49.583-38.473-82.792-38.473s-62.913 14.951-82.792 38.473c25.389 8.663 53.483 13.235 82.792 13.235z" fill="#5fc5fc"/><path d="m256 441.871c-9.737 0-22.391 6.01-28.753 11.966 5.284 7.545 11.197 14.669 17.542 20.997 6.191 6.173 16.23 6.173 22.422 0 6.346-6.327 12.259-13.452 17.542-20.997-6.363-5.956-19.016-11.966-28.753-11.966z" fill="#efedff"/><path d="m227.247 453.837c9.415.99 19.016 1.5 28.753 1.5s19.338-.509 28.753-1.5c8.96-12.795 16.106-26.805 20.446-40.224h-98.398c4.339 13.42 11.485 27.429 20.446 40.224z" fill="#d4d4ff"/><path d="m426.369 289.427c0 82.902-76.277 135.004-170.369 135.004s-170.369-52.102-170.369-135.004 76.277-150.107 170.369-150.107 170.369 67.205 170.369 150.107z" fill="#ffddcf"/><path d="m94.673 173.316c-24.346 21.296-36.044 80.081-21.753 109.311 2.782 5.691 9.416 8.444 15.347 6.219 13.444-5.044 30.641-17.482 47.016-33.489 2.327-2.275 6.153-1.607 7.693 1.259 2.323 4.323 5.032 7.956 7.581 10.833 3.391 3.827 8.835 5.079 13.607 3.243 17.414-6.699 51.753-29.977 67.561-72.859-25.289-5.817-137.052-24.517-137.052-24.517z" fill="#de5c6e"/><path d="m417.327 173.316c24.346 21.296 36.044 80.081 21.753 109.311-2.782 5.691-9.416 8.444-15.347 6.219-13.444-5.044-30.641-17.482-47.016-33.489-2.327-2.275-6.153-1.607-7.694 1.259-2.323 4.323-5.032 7.956-7.581 10.833-3.391 3.827-8.835 5.079-13.607 3.243-17.414-6.699-51.753-29.977-67.561-72.859 25.29-5.817 137.053-24.517 137.053-24.517z" fill="#de5c6e"/><path d="m84.919 187.976c5.158-45.764 87.024-167.872 235.545-187.764 16.423-2.2 29.696 13.049 25.282 29.021-17.583 63.619 81.334 85.697 81.334 159.263l-170.1 22.025z" fill="#8cd6fe"/><path d="m112.354 127.535c-16.554 24.004-25.809 46.016-27.435 60.441l172.062 22.544 170.1-22.025c0-25.242-11.646-44.421-26.235-61.297-30.438 8.596-84.243 19.463-144.845 19.463-59.816 0-113.01-10.587-143.647-19.126z" fill="#5fc5fc"/><path d="m256 231.067c-86.643 0-170.473-20.236-202.325-34.606-13.467-6.075-19.459-21.916-13.384-35.383 6.076-13.467 21.917-19.462 35.384-13.383 20.744 9.358 94.952 29.872 180.325 29.872s159.581-20.514 180.325-29.872c13.467-6.078 29.308-.084 35.384 13.383 6.075 13.467.083 29.308-13.384 35.383-31.852 14.37-115.682 34.606-202.325 34.606z" fill="#8cd6fe"/><g><path d="m452.441 407.909c0-19.974-19.982-36.167-44.63-36.167-24.649 0-44.631 16.193-44.631 36.167 0 58.555-14.939 52.851-14.939 104.091h38.297c8.785 0 16.684-5.587 19.362-13.953 9.497-29.662 46.541-47.67 46.541-90.138z" fill="#d2996f"/></g><path d="m394.914 456.884c-.464 0-.936-.043-1.409-.133-4.069-.773-6.741-4.699-5.968-8.769 1.026-5.399 2.956-10.022 4.822-14.492 2.529-6.058 5.143-12.321 6.056-21.637.404-4.122 4.075-7.144 8.195-6.733 4.122.403 7.137 4.072 6.734 8.194-1.131 11.557-4.325 19.205-7.142 25.954-1.714 4.105-3.194 7.651-3.928 11.515-.684 3.596-3.829 6.101-7.36 6.101z" fill="#cb775a"/><g fill="#ebca5f"><path d="m93.133 458.604-5.179 10.671c-3.195 6.583-12.573 6.583-15.768 0l-5.179-10.671c-2.627-5.412-6.998-9.784-12.41-12.41l-10.671-5.179c-6.583-3.195-6.583-12.573 0-15.768l10.671-5.179c5.413-2.627 9.784-6.998 12.41-12.411l5.179-10.671c3.195-6.583 12.573-6.583 15.768 0l5.179 10.671c2.627 5.413 6.998 9.784 12.41 12.411l10.671 5.179c6.583 3.195 6.583 12.573 0 15.768l-10.671 5.179c-5.412 2.626-9.783 6.998-12.41 12.41z"/><path d="m90.993 76.289-5.179 10.671c-3.195 6.583-12.574 6.583-15.768 0l-5.179-10.671c-2.627-5.412-6.998-9.784-12.41-12.41l-10.671-5.179c-6.583-3.195-6.583-12.573 0-15.768l10.671-5.179c5.413-2.627 9.784-6.998 12.41-12.41l5.179-10.671c3.195-6.583 12.573-6.583 15.768 0l5.179 10.671c2.627 5.413 6.998 9.784 12.41 12.41l10.671 5.179c6.583 3.195 6.583 12.574 0 15.768l-10.671 5.179c-5.412 2.626-9.783 6.997-12.41 12.41z"/><path d="m421.007 76.289 5.179 10.671c3.195 6.583 12.573 6.583 15.768 0l5.179-10.671c2.627-5.412 6.998-9.784 12.411-12.41l10.671-5.179c6.583-3.195 6.583-12.573 0-15.768l-10.671-5.179c-5.413-2.627-9.784-6.998-12.411-12.41l-5.179-10.671c-3.195-6.583-12.573-6.583-15.768 0l-5.179 10.671c-2.627 5.413-6.998 9.784-12.41 12.41l-10.671 5.179c-6.583 3.195-6.583 12.574 0 15.768l10.671 5.179c5.412 2.626 9.783 6.997 12.41 12.41z"/></g><g><g fill="#eda1ab"><ellipse cx="175.258" cy="335.447" rx="29.792" ry="23.725"/><ellipse cx="336.742" cy="335.447" rx="29.792" ry="23.725"/></g><g fill="#4e5660"><path d="m206.801 317.13c-4.142 0-7.5-3.357-7.5-7.5 0-3.684-2.997-6.681-6.681-6.681s-6.68 2.997-6.68 6.681c0 4.143-3.358 7.5-7.5 7.5s-7.5-3.357-7.5-7.5c0-11.955 9.726-21.681 21.68-21.681 11.955 0 21.681 9.726 21.681 21.681 0 4.142-3.358 7.5-7.5 7.5z"/><path d="m333.56 317.13c-4.142 0-7.5-3.357-7.5-7.5 0-3.684-2.997-6.681-6.68-6.681s-6.681 2.997-6.681 6.681c0 4.143-3.358 7.5-7.5 7.5s-7.5-3.357-7.5-7.5c0-11.955 9.726-21.681 21.681-21.681s21.68 9.726 21.68 21.681c0 4.142-3.358 7.5-7.5 7.5z"/><path d="m256 340.557c-7.933 0-15.476-3.436-20.696-9.426-2.721-3.123-2.396-7.86.727-10.582 3.122-2.722 7.861-2.396 10.581.727 2.371 2.721 5.792 4.281 9.388 4.281 3.595 0 7.017-1.561 9.388-4.281 2.722-3.123 7.459-3.448 10.581-.727 3.123 2.722 3.448 7.459.727 10.582-5.22 5.99-12.763 9.426-20.696 9.426z"/></g></g></g></svg>