<svg id="Capa_1" enable-background="new 0 0 512 512" height="512" viewBox="0 0 512 512" width="512" xmlns="http://www.w3.org/2000/svg"><g><path d="m158.502 40.44c0-22.334 19.229-40.44 42.95-40.44 11.395 0 22.176 3.73 29.442 10.997 30.096 30.096 8.902 89.267-.969 120.496h-46.135c12.336-43.982-25.288-56.915-25.288-91.053z" fill="#d5364c"/><path d="m362.962 512c10.697 0 18.799-9.595 17.096-20.155-9.644-59.821-61.515-105.51-124.058-105.51s-114.414 45.689-124.058 105.511c-1.702 10.56 6.4 20.155 17.096 20.155h213.924z" fill="#d4d4ff"/><path d="m256 392.853c-10.942 0-21.884 4.797-29.319 14.396-7.474-27.159-42.038-34.997-63.222-13.813-21.235 21.235-25.904 49.377-11.426 63.855 12.534 12.534 37.59 7.976 58.48-7.86 4.361-3.306 10.583-1.492 12.541 3.618 6.16 16.076 18.598 26.756 32.946 26.756 14.349 0 26.786-10.681 32.946-26.756 1.958-5.111 8.18-6.925 12.541-3.618 20.89 15.836 45.946 20.394 58.48 7.86 14.478-14.478 9.809-42.62-11.426-63.855-21.184-21.184-55.748-13.347-63.223 13.813-7.434-9.599-18.376-14.396-29.318-14.396z" fill="#efedff"/><path d="m256 441.362c39.483 0 77.005-7.251 109.755-20.871-3.066-9.252-8.848-18.689-17.214-27.056-21.184-21.184-55.748-13.347-63.222 13.813-7.434-9.598-18.377-14.396-29.319-14.396s-21.884 4.797-29.319 14.396c-7.474-27.16-42.038-34.997-63.222-13.813-8.366 8.366-14.148 17.803-17.214 27.056 32.75 13.62 70.272 20.871 109.755 20.871z" fill="#d4d4ff"/><path d="m453.558 253.908c0 96.132-88.45 156.549-197.558 156.549s-197.558-60.417-197.558-156.549 88.45-174.063 197.558-174.063 197.558 77.93 197.558 174.063z" fill="#efedff"/><path d="m399.113 264.07c0-79.474-64.074-98.903-143.113-98.903s-143.113 19.429-143.113 98.903 64.074 96.843 143.113 96.843 143.113-17.369 143.113-96.843z" fill="#ffd4be"/><path d="m304.803 46.801c0-22.335-19.229-40.44-42.95-40.44-11.395 0-22.176 3.73-29.442 10.997-30.096 30.095-8.902 89.267.969 120.496h46.135c-12.336-43.982 25.288-56.915 25.288-91.053z" fill="#de5c6e"/><path d="m288.575 151.485c0-15.217-14.584-27.553-32.575-27.553-17.99 0-32.575 12.336-32.575 27.553s14.584 39.767 32.575 39.767c17.99 0 32.575-24.55 32.575-39.767z" fill="#f1b260"/><g><g><ellipse cx="173.951" cy="278.276" fill="#eda1ab" rx="30.274" ry="24.109"/><ellipse cx="338.049" cy="278.276" fill="#eda1ab" rx="30.274" ry="24.109"/><path d="m280.409 259.752c0-15.085-10.928-16.502-24.409-16.502-13.48 0-24.409 1.417-24.409 16.502s10.928 27.313 24.409 27.313c13.48 0 24.409-12.228 24.409-27.313z" fill="#4e5660"/></g><g fill="#4e5660"><path d="m179.013 256.993c-4.142 0-7.5-3.357-7.5-7.5v-12.362c0-4.143 3.358-7.5 7.5-7.5s7.5 3.357 7.5 7.5v12.362c0 4.143-3.358 7.5-7.5 7.5z"/><path d="m332.987 256.993c-4.143 0-7.5-3.357-7.5-7.5v-12.362c0-4.143 3.357-7.5 7.5-7.5s7.5 3.357 7.5 7.5v12.362c0 4.143-3.357 7.5-7.5 7.5z"/></g></g><g fill="#4e5660"><path d="m191.666 145.174c-4.142 0-7.5-3.357-7.5-7.5v-12.362c0-4.143 3.358-7.5 7.5-7.5s7.5 3.357 7.5 7.5v12.362c0 4.142-3.357 7.5-7.5 7.5z"/><path d="m320.333 145.174c-4.143 0-7.5-3.357-7.5-7.5v-12.362c0-4.143 3.357-7.5 7.5-7.5s7.5 3.357 7.5 7.5v12.362c0 4.142-3.357 7.5-7.5 7.5z"/></g></g></svg>