<svg id="Capa_1" enable-background="new 0 0 512 512" height="512" viewBox="0 0 512 512" width="512" xmlns="http://www.w3.org/2000/svg"><g><path d="m118.572 492.082c-8.852 0-16.647-5.937-18.886-14.501-3.623-13.857-13.129-21.467-27.646-33.088-18.087-14.479-40.597-32.499-53.689-68.063-4.677-12.703 1.831-26.792 14.534-31.468 12.706-4.673 26.792 1.83 31.468 14.534 8.377 22.758 22.254 33.866 38.322 46.729 21.243 17.005 47.679 38.169 47.679 85.857z" fill="#d2996f"/><path d="m103.089 406.557c-.83 20.666-12.137 37.5-21.06 46.108 8.938 7.673 14.946 14.546 17.658 24.917 2.239 8.564 10.035 14.5 18.886 14.5h31.782c0-47.38-26.095-68.575-47.266-85.525z" fill="#cb775a"/><ellipse cx="54.608" cy="229.761" fill="#ffddcf" rx="54.608" ry="48.903"/><path d="m80.713 249.296c-2.206 0-4.391-.968-5.871-2.827-3.711-4.659-18.833-12.139-35.8-10.488-4.125.398-7.792-2.612-8.194-6.733-.404-4.122 2.61-7.791 6.733-8.194 21.007-2.059 41.413 6.555 48.993 16.07 2.581 3.24 2.047 7.959-1.193 10.539-1.381 1.099-3.03 1.633-4.668 1.633z" fill="#ffcbbe"/><ellipse cx="457.392" cy="229.761" fill="#ffddcf" rx="54.608" ry="48.903"/><path d="m431.287 249.296c-1.638 0-3.287-.533-4.668-1.634-3.24-2.58-3.774-7.299-1.193-10.539 7.579-9.517 27.983-18.14 48.993-16.07 4.123.403 7.138 4.072 6.733 8.194-.403 4.122-4.07 7.138-8.194 6.733-16.959-1.654-32.089 5.829-35.8 10.488-1.48 1.86-3.666 2.828-5.871 2.828z" fill="#ffcbbe"/><path d="m378.531 472.176c-9.525-59.086-60.758-104.213-122.531-104.213s-113.006 45.127-122.531 104.213c-1.681 10.43 6.321 19.907 16.886 19.907h58.336l47.309-9.674 47.309 9.674h58.336c10.565-.001 18.568-9.477 16.886-19.907z" fill="#d2996f"/><path d="m256 367.963c-36.29 0-68.937 15.579-91.633 40.409 28.152 9.38 59.225 14.323 91.633 14.323s63.481-4.943 91.633-14.323c-22.696-24.83-55.343-40.409-91.633-40.409z" fill="#cb775a"/><path d="m352.17 82.324c2.627-9.786 6.466-20.11 11.595-29.189 4.692-8.305-2.281-18.448-11.685-16.852-24.802 4.209-47.909 14.76-64.465 28.089-2.073 1.669-4.707 2.489-7.352 2.2-3.579-.391-7.187-.697-10.823-.915-2.788-.167-5.394-1.496-7.134-3.68-15.582-19.565-45.454-36.291-78.316-41.889-9.43-1.606-16.483 8.501-11.777 16.828 6.061 10.725 10.32 23.187 12.907 34.449.672 2.926-.938 5.89-3.758 6.92-70.729 25.822-120.489 87.227-120.489 158.882 0 94.949 87.361 154.623 195.127 154.623s195.127-59.674 195.127-154.623c0-63.047-38.526-118.158-95.96-148.08-2.453-1.279-3.714-4.091-2.997-6.763z" fill="#d2996f"/><path d="m391.842 178.065c-33.229-23.48-74.158-37.016-135.841-56.163s0 0 0 0c-61.683 19.147-102.612 32.683-135.841 56.163-8.295 14.739-12.531 32.279-12.531 52.512 0 70.804 51.78 108.676 148.372 108.676s148.372-37.871 148.372-108.676c-.001-20.233-4.237-37.773-12.531-52.512z" fill="#ffddcf"/><g fill="#6171a3"><path d="m120.158 178.065c41.366 7.96 100.441-1.958 135.842-56.163-68.989 0-115.111 19.324-135.842 56.163z"/><path d="m256 121.902c35.4 54.205 94.476 64.123 135.842 56.163-20.731-36.839-66.853-56.163-135.842-56.163z"/></g><path d="m303.309 492.082c0-25.129-21.181-45.499-47.309-45.499s-47.309 20.371-47.309 45.499z" fill="#ebca5f"/><g><g><path d="m202.172 251.853c.007 13.843-14.079 25.072-31.463 25.081-17.383.009-31.481-11.206-31.488-25.049s14.08-25.073 31.463-25.081c17.383-.01 31.481 11.205 31.488 25.049z" fill="#eda1ab"/><path d="m309.828 251.799c.007 13.843 14.105 25.058 31.488 25.049s31.47-11.238 31.463-25.081-14.105-25.059-31.488-25.05-31.47 11.238-31.463 25.082z" fill="#eda1ab"/><path d="m286.848 240.479c-.01-19.068-13.824-20.852-30.864-20.844-17.04.009-30.853 1.807-30.843 20.875.01 19.067 13.831 34.518 30.871 34.509s30.845-15.473 30.836-34.54z" fill="#4e5660"/></g><g fill="#4e5660"><path d="m174.045 232.091c-4.141 0-7.498-3.355-7.5-7.496-.003-6.005 2.333-11.651 6.577-15.899 4.244-4.249 9.888-6.59 15.893-6.593h.014c6 0 11.642 2.335 15.887 6.576 4.249 4.244 6.59 9.889 6.593 15.894.002 4.143-3.354 7.502-7.496 7.504-.001 0-.003 0-.004 0-4.141 0-7.498-3.355-7.5-7.496-.001-1.999-.78-3.877-2.193-5.289-1.413-1.411-3.29-2.189-5.287-2.189-.001 0-.003 0-.004 0-1.999.001-3.878.78-5.29 2.193-1.412 1.414-2.189 3.293-2.188 5.291.002 4.143-3.355 7.502-7.496 7.504-.003 0-.005 0-.006 0z"/><path d="m307.965 232.023c-4.141 0-7.497-3.354-7.5-7.495-.004-6.006 2.332-11.652 6.576-15.9 4.244-4.249 9.889-6.59 15.894-6.593h.014c6 0 11.642 2.335 15.887 6.576 4.249 4.244 6.59 9.889 6.593 15.894.002 4.143-3.354 7.502-7.496 7.504-.001 0-.003 0-.004 0-4.141 0-7.498-3.355-7.5-7.496-.001-1.999-.78-3.877-2.193-5.289-1.413-1.411-3.29-2.188-5.287-2.188-.001 0-.003 0-.004 0-2 .001-3.878.78-5.29 2.193-1.413 1.414-2.189 3.293-2.188 5.29.003 4.143-3.354 7.502-7.495 7.505-.004-.001-.006-.001-.007-.001z"/></g></g></g></svg>