<svg id="Capa_1" enable-background="new 0 0 512 512" height="512" viewBox="0 0 512 512" width="512" xmlns="http://www.w3.org/2000/svg"><g><path d="m128.569 142.298c-36.294-25.924-58.285-71.635-44.728-126.512 4.564-18.476 29.572-21.541 38.791-4.891 26.696 48.216 62.215 70.951 82.023 74.046z" fill="#efedff"/><path d="m383.431 142.298c36.294-25.924 58.284-71.636 44.727-126.512-4.565-18.476-29.572-21.541-38.791-4.891-26.696 48.216-62.215 70.951-82.023 74.046z" fill="#efedff"/><ellipse cx="70.487" cy="281.72" fill="#f2bb88" rx="47.132" ry="42.207"/><ellipse cx="441.513" cy="281.72" fill="#f2bb88" rx="47.132" ry="42.207"/><path d="m355.509 512c9.951 0 17.489-8.926 15.905-18.75-8.972-55.654-57.229-98.16-115.414-98.16s-106.442 42.506-115.414 98.16c-1.584 9.824 5.954 18.75 15.905 18.75z" fill="#d2996f"/><path d="m256 479.343c43.469 0 84.893-8.545 120.82-24.559 17.903-7.98 23.777-30.532 12.216-46.36-8.639-11.827-24.343-15.84-37.727-9.891-30.28 0-60.413-3.443-95.309-3.443s-65.03 3.443-95.309 3.443c-13.383-5.949-29.088-1.936-37.726 9.891-11.562 15.828-5.687 38.38 12.216 46.36 35.925 16.014 77.35 24.559 120.819 24.559z" fill="#efedff"/><path d="m256 448.438c50.826 0 98.214-12.823 135.331-36.35-.673-1.252-1.429-2.479-2.295-3.664-8.639-11.826-24.344-15.84-37.727-9.89-30.28 0-60.413-3.443-95.309-3.443s-65.029 3.443-95.309 3.443c-13.383-5.949-29.087-1.936-37.726 9.89-.866 1.186-1.622 2.412-2.295 3.664 37.116 23.527 84.504 36.35 135.33 36.35z" fill="#d4d4ff"/><path d="m439.794 271.89c0 89.434-82.287 145.642-183.794 145.642s-183.794-56.208-183.794-145.642 82.288-161.935 183.794-161.935 183.794 72.5 183.794 161.935z" fill="#f2d1a5"/><path d="m423.596 92.079c-16.775-17.742-37.243-32.723-60.335-44.123-20.735 23.15-42.131 34.831-55.917 36.985l76.087 57.358c17.529-12.521 31.703-29.667 40.165-50.22z" fill="#d4d4ff"/><path d="m88.404 92.079c8.463 20.554 22.637 37.7 40.165 50.22l76.087-57.358c-13.786-2.154-35.182-13.835-55.917-36.985-23.092 11.399-43.56 26.381-60.335 44.123z" fill="#d4d4ff"/><path d="m439.794 191.26c-10.797-77.131-88.959-136.977-183.794-136.977s-172.997 59.845-183.793 136.976h367.587z" fill="#d2996f"/><path d="m256 137.176c-44.866 0-112.98-8.543-150.264-18.262-17.889 20.84-29.778 45.547-33.529 72.345h367.587c-3.751-26.798-15.641-51.505-33.529-72.345-37.279 9.718-105.396 18.262-150.265 18.262z" fill="#cb775a"/><path d="m214.433 135.359c12.958 12.083 29.117 15.219 41.567 15.219s28.609-3.136 41.567-15.219v-78.85c0-13.203-10.703-23.905-23.905-23.905h-35.323c-13.202 0-23.905 10.703-23.905 23.905v78.85z" fill="#8cd6fe"/><path d="m297.567 135.359c-14.875 1.158-29.117 1.817-41.567 1.817s-26.692-.659-41.567-1.817v55.901h83.133v-55.901z" fill="#5fc5fc"/><path d="m68.047 179.864c-14.363 19.297-16.851 63.837-8.302 95.302 4.596 16.918 26.257 21.905 37.955 8.847 19.631-21.914 35.442-57.145 37.843-84.753z" fill="#6171a3"/><path d="m443.952 179.864c14.363 19.297 16.851 63.837 8.302 95.302-4.596 16.918-26.257 21.905-37.955 8.847-19.631-21.914-35.442-57.145-37.843-84.753z" fill="#6171a3"/><path d="m256 225.797c-62.02 0-152.43-12.826-193.477-27.448-15.014-5.349-22.85-21.855-17.502-36.869 5.348-15.013 21.855-22.845 36.868-17.501 34.778 12.389 119.393 24.102 174.111 24.102 54.719 0 139.333-11.713 174.109-24.102 15.016-5.348 31.52 2.487 36.869 17.501 5.348 15.014-2.488 31.521-17.501 36.869-41.045 14.622-131.456 27.448-193.477 27.448z" fill="#8cd6fe"/><g><g fill="#eda1ab"><ellipse cx="175.258" cy="309.705" rx="29.792" ry="23.725"/><ellipse cx="336.742" cy="309.705" rx="29.792" ry="23.725"/></g><g fill="#4e5660"><path d="m206.801 291.389c-4.143 0-7.5-3.357-7.5-7.5 0-3.684-2.996-6.681-6.68-6.681s-6.681 2.997-6.681 6.681c0 4.143-3.357 7.5-7.5 7.5s-7.5-3.357-7.5-7.5c0-11.955 9.726-21.681 21.681-21.681 11.954 0 21.68 9.726 21.68 21.681 0 4.142-3.358 7.5-7.5 7.5z"/><path d="m333.56 291.389c-4.143 0-7.5-3.357-7.5-7.5 0-3.684-2.997-6.681-6.681-6.681s-6.68 2.997-6.68 6.681c0 4.143-3.357 7.5-7.5 7.5s-7.5-3.357-7.5-7.5c0-11.955 9.726-21.681 21.68-21.681 11.955 0 21.681 9.726 21.681 21.681 0 4.142-3.358 7.5-7.5 7.5z"/><path d="m256 314.815c-7.933 0-15.476-3.436-20.696-9.425-2.722-3.123-2.396-7.86.727-10.582 3.122-2.721 7.859-2.396 10.582.727 2.37 2.72 5.792 4.28 9.388 4.28s7.018-1.561 9.388-4.28c2.722-3.123 7.459-3.448 10.582-.727 3.123 2.722 3.448 7.459.727 10.582-5.222 5.99-12.765 9.425-20.698 9.425z"/></g></g></g></svg>