<svg id="Capa_1" enable-background="new 0 0 512 512" height="512" viewBox="0 0 512 512" width="512" xmlns="http://www.w3.org/2000/svg"><g><path d="m153.108 509.38c-11.372-.397-20.269-9.939-19.871-21.311.65-18.591-18.602-31.03-35.209-23.29-10.314 4.808-22.572.347-27.381-9.966s-.348-22.571 9.965-27.38c44.164-20.595 95.545 12.403 93.807 62.077-.402 11.492-10.085 20.284-21.311 19.87z" fill="#ea9cd0"/><path d="m169.621 69.765c-24.775-40.933-77.169-61.727-112.922-69.297-12.373-2.62-24.287 6.053-25.638 18.628-6.217 57.87-1.335 110.42 55.211 115.198z" fill="#f2bcd5"/><path d="m86.272 134.294 20.867-16.155c-13.581-65.164-38.25-91.383-73.214-107.671-1.515 2.551-2.524 5.466-2.864 8.628-6.217 57.87-1.335 110.419 55.211 115.198z" fill="#ea9cd0"/><path d="m342.379 69.765c24.775-40.933 77.17-61.727 112.923-69.297 12.373-2.62 24.287 6.053 25.638 18.628 6.217 57.87 1.335 110.42-55.211 115.198z" fill="#f2bcd5"/><path d="m425.728 134.294-20.867-16.155c13.581-65.163 38.25-91.382 73.214-107.671 1.515 2.551 2.524 5.466 2.864 8.628 6.217 57.87 1.335 110.419-55.211 115.198z" fill="#ea9cd0"/><path d="m372.641 512c11.664 0 20.5-10.463 18.643-21.978-10.517-65.236-67.082-115.059-135.284-115.059s-124.768 49.824-135.284 115.059c-1.856 11.515 6.979 21.978 18.643 21.978z" fill="#f2bcd5"/><path d="m256 432.174c34.899 0 68.372-5.229 98.752-15.175-24.931-25.909-59.956-42.036-98.752-42.036s-73.821 16.127-98.752 42.036c30.38 9.946 63.853 15.175 98.752 15.175z" fill="#ea9cd0"/><path d="m471.436 230.552c0 104.831-96.454 170.716-215.436 170.716s-215.436-65.884-215.436-170.716 96.454-189.814 215.436-189.814 215.436 84.983 215.436 189.814z" fill="#f2bcd5"/><path d="m409.171 242.987c0-61.937-51.602-95.682-153.171-95.682s-153.171 33.745-153.171 95.682 51.603 112.146 153.171 112.146 153.171-50.21 153.171-112.146z" fill="#ffddcf"/><path d="m256 189.451c27.3 0 59.917-1.996 59.917-29.271s-27.792-61.867-59.917-61.867-59.917 34.592-59.917 61.867 32.617 29.271 59.917 29.271z" fill="#ea9cd0"/><g fill="#f2bcd5"><path d="m237.582 160.255c-4.142 0-7.5-3.357-7.5-7.5v-9.656c0-4.143 3.358-7.5 7.5-7.5s7.5 3.357 7.5 7.5v9.656c0 4.142-3.357 7.5-7.5 7.5z"/><path d="m274.417 160.255c-4.142 0-7.5-3.357-7.5-7.5v-9.656c0-4.143 3.358-7.5 7.5-7.5s7.5 3.357 7.5 7.5v9.656c0 4.142-3.357 7.5-7.5 7.5z"/></g><g fill="#4e5660"><path d="m179.013 118.311c-4.142 0-7.5-3.357-7.5-7.5v-12.362c0-4.143 3.358-7.5 7.5-7.5s7.5 3.357 7.5 7.5v12.362c0 4.143-3.358 7.5-7.5 7.5z"/><path d="m332.988 118.311c-4.142 0-7.5-3.357-7.5-7.5v-12.362c0-4.143 3.358-7.5 7.5-7.5s7.5 3.357 7.5 7.5v12.362c0 4.143-3.358 7.5-7.5 7.5z"/></g><g><g><ellipse cx="169.623" cy="261.346" fill="#eda1ab" rx="31.872" ry="25.381"/><ellipse cx="342.377" cy="261.346" fill="#eda1ab" rx="31.872" ry="25.381"/><ellipse cx="256" cy="241.845" fill="#4e5660" rx="16.918" ry="18.932"/></g><g fill="#4e5660"><path d="m174.951 238.219c-4.142 0-7.5-3.358-7.5-7.5v-12.362c0-4.143 3.358-7.5 7.5-7.5s7.5 3.357 7.5 7.5v12.362c0 4.142-3.358 7.5-7.5 7.5z"/><path d="m337.049 238.219c-4.142 0-7.5-3.358-7.5-7.5v-12.362c0-4.143 3.358-7.5 7.5-7.5s7.5 3.357 7.5 7.5v12.362c0 4.142-3.358 7.5-7.5 7.5z"/></g></g><path d="m302.891 512c0-27.579-20.994-49.937-46.891-49.937s-46.891 22.358-46.891 49.937z" fill="#ea9cd0"/></g></svg>