<svg id="Capa_1" enable-background="new 0 0 512 512" height="512" viewBox="0 0 512 512" width="512" xmlns="http://www.w3.org/2000/svg"><g><path d="m453.7 257.657c0 59.841 10.962 112.078 26.758 144.968 8.933 18.6-.257 40.751-19.745 47.527-36.334 12.634-84.358 17.865-123.118 17.865h-163.19c-38.76 0-86.784-5.231-123.118-17.865-19.489-6.777-28.678-28.928-19.745-47.527 15.796-32.89 26.758-85.127 26.758-144.968z" fill="#6171a3"/><path d="m405.196 257.657h-298.392c-.194 33.25-3.197 127.852-45.504 195.705 34.836 10.315 77.81 14.656 113.105 14.656h163.19c35.295 0 78.268-4.34 113.105-14.656-42.308-67.853-45.31-162.455-45.504-195.705z" fill="#475a99"/><ellipse cx="51.863" cy="244.49" fill="#f2bb88" rx="51.863" ry="46.445"/><ellipse cx="460.137" cy="244.49" fill="#f2bb88" rx="51.863" ry="46.445"/><path d="m383.001 477.256c-9.873-61.241-62.975-108.014-127.001-108.014s-117.128 46.773-127.001 108.014c-1.743 10.81 6.552 20.633 17.502 20.633h37.976l71.523-13.614 71.523 13.613h37.976c10.95 0 19.245-9.822 17.502-20.632z" fill="#f2d1a5"/><path d="m256 369.242c-54.744 0-101.497 34.197-120.074 82.393 9.299 2.994 19.402 3.656 29.415 1.601 16.422 14.458 39.124 18.231 58.946 10.557 9.195 6.036 20.136 9.43 31.713 9.43s22.519-3.393 31.713-9.43c19.673 7.615 42.417 3.997 58.946-10.557 10.148 2.082 20.215 1.356 29.41-1.614-18.581-48.189-65.33-82.38-120.069-82.38z" fill="#f2bb88"/><path d="m328.34 464.149c-13.911-9.587-42.428-13.04-72.34-13.04-29.913 0-58.429 3.453-72.34 13.04.492 9.977.763 21.159.818 33.739h143.046c.054-12.58.324-23.762.816-33.739z" fill="#5ec783"/><path d="m171.771 400.653c6.482 12.303 10.321 31.717 11.889 63.496 13.024 4.781 27.46 4.741 40.627-.356 9.195 6.036 20.136 9.43 31.713 9.43s22.519-3.393 31.713-9.43c13.095 5.069 27.549 5.154 40.627.356 1.567-31.779 5.406-51.193 11.889-63.496-22.569-19.567-52.014-31.411-84.229-31.411s-61.66 11.844-84.229 31.411z" fill="#3cb767"/><path d="m195.081 347.279c-12.655-10.619-31.523-8.968-42.142 3.687l-22.239 26.503c-10.619 12.655-8.968 31.523 3.687 42.142 12.655 10.619 31.523 8.968 42.142-3.687l22.239-26.503c10.619-12.656 8.968-31.523-3.687-42.142z" fill="#de5c6e"/><path d="m214.648 346.412c-16.269-2.869-31.784 7.995-34.652 24.264l-6.008 34.072c-2.869 16.269 7.995 31.784 24.264 34.652 16.269 2.869 31.784-7.995 34.652-24.264l6.008-34.072c2.868-16.269-7.995-31.783-24.264-34.652z" fill="#f5ea72"/><path d="m316.919 347.279c12.655-10.619 31.523-8.968 42.142 3.687l22.239 26.504c10.619 12.655 8.968 31.523-3.687 42.142-12.655 10.619-31.523 8.968-42.142-3.687l-22.239-26.503c-10.619-12.657-8.968-31.524 3.687-42.143z" fill="#de5c6e"/><path d="m297.352 346.412c16.269-2.869 31.784 7.995 34.652 24.264l6.008 34.072c2.869 16.269-7.995 31.784-24.264 34.652-16.269 2.869-31.784-7.995-34.653-24.264l-6.008-34.072c-2.867-16.269 7.996-31.783 24.265-34.652z" fill="#f5ea72"/><path d="m256 350.984c-16.52 0-29.913 13.392-29.913 29.913v34.598c0 16.52 13.392 29.913 29.913 29.913 16.52 0 29.913-13.392 29.913-29.913v-34.598c0-16.52-13.393-29.913-29.913-29.913z" fill="#de5c6e"/><path d="m458.245 233.673c0 98.413-90.548 160.264-202.245 160.264s-202.245-61.851-202.245-160.264 90.548-178.192 202.245-178.192 202.245 79.779 202.245 178.192z" fill="#f2d1a5"/><path d="m256 39.401c176.159 0 230.388 128.314 211.939 194.2-3.084 11.013-16.063 15.743-25.672 9.539-28.197-18.206-55.168-58.447-60.353-97.68-27.982 17.044-97.084 19.073-125.914-11.195-28.83 30.268-97.932 28.239-125.915 11.195-5.185 39.232-32.156 79.474-60.353 97.68-9.608 6.204-22.588 1.474-25.672-9.539-18.448-65.886 35.781-194.2 211.94-194.2z" fill="#6171a3"/><g fill="#de5c6e"><path d="m464.084 89.1h-44.387v-44.387c0-7.161 2.845-14.029 7.908-19.092 15.346-15.345 40.225-15.345 55.571 0 15.345 15.345 15.345 40.226 0 55.571-5.063 5.064-11.931 7.908-19.092 7.908z"/><path d="m419.697 44.713v44.387h-44.387c-7.161 0-14.029-2.845-19.092-7.908-15.345-15.346-15.345-40.226 0-55.571 15.346-15.345 40.226-15.345 55.571 0 5.063 5.063 7.908 11.931 7.908 19.092z"/><path d="m375.31 89.1h44.387v44.387c0 7.161-2.845 14.029-7.908 19.092-15.345 15.346-40.225 15.346-55.571 0-15.345-15.346-15.345-40.226 0-55.571 5.063-5.063 11.931-7.908 19.092-7.908z"/><path d="m419.697 133.487v-44.387h44.387c7.161 0 14.029 2.845 19.092 7.908 15.345 15.345 15.345 40.226 0 55.571-15.346 15.346-40.225 15.346-55.571 0-5.063-5.063-7.908-11.931-7.908-19.092z"/></g><ellipse cx="419.697" cy="89.1" fill="#f5ea72" rx="28.045" ry="28.045" transform="matrix(.973 -.23 .23 .973 -9.244 98.81)"/><g><g><path d="m204.226 255.966c0 13.315-13.554 24.109-30.274 24.109s-30.274-10.794-30.274-24.109 13.554-24.109 30.274-24.109c16.719 0 30.274 10.794 30.274 24.109z" fill="#eda1ab"/><path d="m307.774 255.966c0 13.315 13.554 24.109 30.274 24.109s30.274-10.794 30.274-24.109-13.554-24.109-30.274-24.109-30.274 10.794-30.274 24.109z" fill="#eda1ab"/><path d="m280.409 237.442c0-15.085-10.928-16.502-24.409-16.502-13.48 0-24.409 1.417-24.409 16.502s10.928 27.313 24.409 27.313c13.48 0 24.409-12.228 24.409-27.313z" fill="#4e5660"/></g><g fill="#4e5660"><path d="m179.013 234.683c-4.142 0-7.5-3.357-7.5-7.5v-12.363c0-4.143 3.358-7.5 7.5-7.5s7.5 3.357 7.5 7.5v12.362c0 4.143-3.358 7.501-7.5 7.501z"/><path d="m332.987 234.683c-4.143 0-7.5-3.357-7.5-7.5v-12.363c0-4.143 3.357-7.5 7.5-7.5s7.5 3.357 7.5 7.5v12.362c0 4.143-3.357 7.501-7.5 7.501z"/></g></g></g></svg>