<svg id="Capa_1" enable-background="new 0 0 512 512" height="512" viewBox="0 0 512 512" width="512" xmlns="http://www.w3.org/2000/svg"><g><path d="m38.08 405.052 47.825-15.352c9.013-2.893 18.094 4.244 17.412 13.686l-4.64 64.243z" fill="#f5ea72"/><path d="m168.159 465.868c-22.798-.86-75.179-8.926-123.909-65.075-9.889-11.394-28.615-5.935-30.979 8.966-5.63 35.488 1.865 63.609 11.95 82.978 6.161 11.831 18.37 19.263 31.709 19.263h95.63z" fill="#3cb767"/><path d="m416.641 488.961c-11.024-68.383-70.319-120.611-141.812-120.611s-130.788 52.228-141.812 120.611c-1.946 12.071 7.316 23.039 19.543 23.039h70.317l51.952-15.353 51.952 15.353h70.317c12.227 0 21.489-10.968 19.543-23.039z" fill="#5ec783"/><path d="m172.47 411.219c31.512 10.23 66.198 15.612 102.359 15.612s70.846-5.382 102.359-15.612c-26.055-26.461-62.29-42.869-102.359-42.869s-76.304 16.409-102.359 42.869z" fill="#3cb767"/><path d="m500.66 216.972c0 109.89-101.108 178.954-225.831 178.954s-225.831-69.065-225.831-178.954 83.76-216.972 225.831-216.972 225.831 107.082 225.831 216.972z" fill="#5ec783"/><path d="m413.196 151.296c-19.372-1.926-41.937-9.322-63.395-32.697-26.335 10.845-50.564 8.628-74.972-7.529-24.409 16.157-48.637 18.374-74.972 7.529-21.458 23.375-44.023 30.77-63.395 32.697-20.463 21.156-27.255 49.019-27.255 79.557 0 66.154 74.152 107.471 165.622 107.471 91.471 0 165.623-41.317 165.623-107.471-.001-30.537-6.794-58.4-27.256-79.557z" fill="#ffd4be"/><g fill="#fff"><path d="m199.856 118.6c3.587 18.436 13.822 38.261 22.783 52.701 6.53 10.522 21.787 10.522 28.317 0 10.197-16.431 22.05-39.835 23.872-60.23-29.792-.001-54.516 2.665-74.972 7.529z"/><path d="m136.461 151.297c3.498 11.273 8.184 22.792 13.17 32.888 6.331 12.818 24.697 12.818 31.028 0 10.21-20.673 19.197-47.319 19.197-65.585-29.003 6.896-49.399 18.226-63.395 32.697z"/><path d="m349.801 118.6c-3.587 18.436-13.822 38.261-22.783 52.701-6.53 10.522-21.787 10.522-28.317 0-10.197-16.431-22.05-39.835-23.872-60.23 29.792-.001 54.517 2.665 74.972 7.529z"/><path d="m413.196 151.297c-3.498 11.273-8.184 22.792-13.17 32.888-6.331 12.818-24.698 12.818-31.028 0-10.21-20.673-19.197-47.319-19.197-65.585 29.004 6.896 49.4 18.226 63.395 32.697z"/></g><path d="m326.781 512c0-32.337-23.26-58.552-51.952-58.552s-51.952 26.215-51.952 58.552z" fill="#f5ea72"/><g><g><ellipse cx="192.78" cy="261.392" fill="#eda1ab" rx="30.274" ry="24.109"/><ellipse cx="356.877" cy="261.392" fill="#eda1ab" rx="30.274" ry="24.109"/><path d="m299.237 242.868c0-15.085-10.928-16.502-24.409-16.502-13.48 0-24.409 1.417-24.409 16.502s10.928 27.313 24.409 27.313 24.409-12.228 24.409-27.313z" fill="#4e5660"/></g><g fill="#4e5660"><path d="m197.841 240.109c-4.143 0-7.5-3.357-7.5-7.5v-12.362c0-4.143 3.357-7.5 7.5-7.5s7.5 3.357 7.5 7.5v12.362c0 4.143-3.358 7.5-7.5 7.5z"/><path d="m351.816 240.109c-4.143 0-7.5-3.357-7.5-7.5v-12.362c0-4.143 3.357-7.5 7.5-7.5s7.5 3.357 7.5 7.5v12.362c0 4.143-3.357 7.5-7.5 7.5z"/></g></g><g fill="#4e5660"><path d="m197.841 75.419c-4.143 0-7.5-3.357-7.5-7.5v-12.362c0-4.142 3.357-7.5 7.5-7.5s7.5 3.358 7.5 7.5v12.362c0 4.143-3.358 7.5-7.5 7.5z"/><path d="m351.816 75.419c-4.143 0-7.5-3.357-7.5-7.5v-12.362c0-4.142 3.357-7.5 7.5-7.5s7.5 3.358 7.5 7.5v12.362c0 4.143-3.357 7.5-7.5 7.5z"/></g><g fill="#3cb767"><path d="m257.53 64.855c-1.919 0-3.839-.732-5.304-2.196l-3.854-3.854c-2.929-2.93-2.929-7.678 0-10.607 2.93-2.928 7.678-2.928 10.607 0l3.854 3.854c2.929 2.93 2.929 7.678 0 10.607-1.464 1.464-3.384 2.196-5.303 2.196z"/><path d="m292.127 64.855c-1.919 0-3.839-.732-5.304-2.196-2.929-2.93-2.929-7.678 0-10.607l3.854-3.854c2.93-2.928 7.678-2.928 10.607 0 2.929 2.93 2.929 7.678 0 10.607l-3.854 3.854c-1.464 1.464-3.384 2.196-5.303 2.196z"/></g></g></svg>