<svg id="Capa_1" enable-background="new 0 0 512 512" height="512" viewBox="0 0 512 512" width="512" xmlns="http://www.w3.org/2000/svg"><g><path d="m58.299 386.422-8.127 2.337c-6.87 1.975-13.766-3.035-14.01-10.179l-.289-8.451c-.124-3.621-1.265-7.134-3.294-10.137l-4.734-7.007c-4.002-5.923-1.368-14.03 5.351-16.47l7.948-2.886c3.406-1.237 6.394-3.408 8.623-6.265l5.201-6.667c4.397-5.636 12.921-5.636 17.318 0l5.201 6.667c2.229 2.857 5.217 5.028 8.623 6.265l7.948 2.886c6.719 2.44 9.353 10.547 5.352 16.47l-4.734 7.007c-2.028 3.002-3.17 6.515-3.294 10.137l-.289 8.451c-.244 7.144-7.14 12.155-14.01 10.179l-8.127-2.337c-3.481-1.002-7.174-1.002-10.657 0z" fill="#ebca5f"/><path d="m366.836 512c11.711 0 20.581-10.505 18.717-22.066-10.558-65.495-67.349-115.517-135.823-115.517s-125.264 50.022-135.823 115.517c-1.863 11.561 7.008 22.066 18.718 22.066z" fill="#efedff"/><path d="m150.681 416.522c30.474 9.969 64.047 15.211 99.05 15.211s68.576-5.242 99.05-15.211c-25.024-25.954-60.149-42.104-99.05-42.104s-74.026 16.149-99.05 42.104z" fill="#d4d4ff"/><path d="m144.023 423.943c-15.436 18.511-26.107 41.134-30.115 65.991-1.864 11.561 7.007 22.066 18.717 22.066h43.151c-2.304-35.053-13.036-69.452-31.753-88.057z" fill="#6171a3"/><path d="m355.439 423.943c15.436 18.511 26.107 41.134 30.115 65.991 1.864 11.561-7.007 22.066-18.717 22.066h-43.151c2.303-35.053 13.035-69.452 31.753-88.057z" fill="#6171a3"/><path d="m466.024 229.431c0 105.249-96.838 171.396-216.294 171.396s-216.293-66.147-216.293-171.396 96.838-190.57 216.293-190.57 216.294 85.322 216.294 190.57z" fill="#efedff"/><path d="m443.042 445.385-8.127 2.337c-6.87 1.975-13.766-3.035-14.01-10.179l-.289-8.451c-.124-3.621-1.265-7.134-3.294-10.137l-4.734-7.007c-4.002-5.923-1.368-14.03 5.352-16.47l7.948-2.886c3.406-1.237 6.394-3.408 8.623-6.265l5.201-6.667c4.397-5.636 12.921-5.636 17.318 0l5.201 6.667c2.229 2.857 5.217 5.028 8.623 6.265l7.948 2.886c6.719 2.44 9.353 10.547 5.352 16.47l-4.734 7.007c-2.028 3.002-3.17 6.516-3.294 10.137l-.289 8.451c-.244 7.144-7.14 12.155-14.01 10.179l-8.127-2.337c-3.482-1.001-7.175-1.001-10.658 0z" fill="#ebca5f"/><path d="m139.389 69.952-8.127 2.337c-6.87 1.976-13.766-3.035-14.01-10.179l-.289-8.451c-.124-3.621-1.265-7.134-3.294-10.137l-4.734-7.007c-4.002-5.923-1.368-14.03 5.351-16.47l7.948-2.886c3.406-1.237 6.394-3.408 8.623-6.265l5.201-6.667c4.397-5.636 12.921-5.636 17.318 0l5.201 6.667c2.229 2.857 5.217 5.028 8.623 6.265l7.948 2.886c6.719 2.44 9.353 10.547 5.352 16.47l-4.734 7.007c-2.028 3.002-3.17 6.515-3.294 10.137l-.289 8.451c-.244 7.144-7.14 12.155-14.01 10.179l-8.127-2.337c-3.481-1.001-7.175-1.001-10.657 0z" fill="#ebca5f"/><path d="m249.731 332.91c82.595 0 133.015-58.461 133.015-76.91s0-97.402 0-97.402c-19.308-16.627-76.161-29.499-133.015-29.499s-113.707 12.872-133.016 29.499v97.402s50.421 76.91 133.016 76.91z" fill="#8cd6fe"/><path d="m249.731 332.91c82.595 0 133.015-58.461 133.015-76.91s0-97.402 0-97.402c-19.308-16.627-76.161-29.499-133.015-29.499s-113.707 12.872-133.016 29.499v97.402s50.421 76.91 133.016 76.91z" fill="#8cd6fe"/><path d="m251.435 332.891c81.58-.799 131.312-58.57 131.312-76.891 0-9.058 0-32.698 0-54.421z" fill="#5fc5fc"/><path d="m116.715 254.521 125.335-125.335c-54.22 1.09-106.896 13.535-125.335 29.412z" fill="#5fc5fc"/><path d="m383.901 135.827c-41.496-15.798-86.637-23.808-134.171-23.808-19.335 0-38.267 1.349-56.727 3.985-20.833 11.277-13.621 32.526 4.325 36.259 17.017-2.473 34.508-3.733 52.402-3.733 38.625 0 75.397 5.794 109.496 17.237 5.98 2.007 10.036 7.575 10.036 13.883v65.723c0 12.818-6.011 25.104-16.079 32.866-19.763 15.235-51.68 31.36-86.647 35.487-16.804 9.19-10.535 33.424 10.393 35.402 39.988-6.127 75.925-24.535 98.546-41.973 18.973-14.626 30.299-37.722 30.299-61.782v-77.571c-.001-14.143-8.79-26.993-21.873-31.975z" fill="#6171a3"/><g fill="#4e5660"><path d="m200.532 234.249c-4.143 0-7.5-3.358-7.5-7.5 0-3.684-2.997-6.681-6.681-6.681s-6.681 2.997-6.681 6.681c0 4.142-3.357 7.5-7.5 7.5s-7.5-3.358-7.5-7.5c0-11.955 9.726-21.681 21.681-21.681s21.681 9.726 21.681 21.681c0 4.142-3.357 7.5-7.5 7.5z"/><path d="m327.29 234.249c-4.142 0-7.5-3.358-7.5-7.5 0-3.684-2.997-6.681-6.681-6.681s-6.68 2.997-6.68 6.681c0 4.142-3.357 7.5-7.5 7.5s-7.5-3.358-7.5-7.5c0-11.955 9.726-21.681 21.68-21.681 11.955 0 21.681 9.726 21.681 21.681 0 4.142-3.357 7.5-7.5 7.5z"/><path d="m249.731 257.676c-7.933 0-15.477-3.436-20.696-9.425-2.722-3.123-2.395-7.86.727-10.582 3.122-2.721 7.859-2.397 10.582.727 2.37 2.72 5.792 4.28 9.388 4.28s7.018-1.56 9.388-4.28c2.721-3.123 7.457-3.448 10.582-.727 3.122 2.721 3.448 7.459.727 10.582-5.222 5.989-12.766 9.425-20.698 9.425z"/></g><path d="m266.536 313.726c-5.538.654-11.15 1.017-16.805 1.017-41.361 0-80.559-18.857-103.452-36.504-10.068-7.762-16.079-20.049-16.079-32.867v-65.723c0-6.308 4.056-11.876 10.036-13.883 18.302-6.141 37.379-10.639 57.093-13.504-11.541-6.398-15.872-24.456-4.325-36.259-26.92 3.844-52.828 10.452-77.445 19.824-13.081 4.982-21.87 17.83-21.87 31.973v77.571c0 24.06 11.326 47.156 30.298 61.783 27.656 21.319 75.211 44.099 125.744 44.099 9.199 0 18.298-.763 27.198-2.127-12.321-5.305-18.514-24.675-10.393-35.4z" fill="#475a99"/></g></svg>