<svg id="Capa_1" enable-background="new 0 0 512 512" height="512" viewBox="0 0 512 512" width="512" xmlns="http://www.w3.org/2000/svg"><g><path d="m360.517 512c10.452 0 18.369-9.375 16.706-19.694-9.424-58.455-60.109-103.1-121.223-103.1-61.113 0-111.799 44.645-121.223 103.1-1.663 10.319 6.254 19.694 16.706 19.694z" fill="#5ec783"/><g fill="#f1b260"><path d="m192.448 65.49c-29.817-29.817-82.409-25.568-117.467 9.49s-39.307 87.65-9.49 117.467 155.451 98.611 190.509 63.553-33.735-160.692-63.552-190.51z"/><path d="m140.266 466.325c8.924-18.761 29.868-27.472 52.182-19.816 29.817-29.817 98.61-155.451 63.552-190.509s-160.692 33.735-190.509 63.552-25.568 82.409 9.49 117.467c18.793 18.794 42.624 28.722 65.285 29.306z"/><path d="m446.509 319.552c-29.817-29.817-155.451-98.61-190.509-63.552s33.735 160.692 63.552 190.509c22.314-7.656 43.258 1.055 52.182 19.816 22.661-.585 46.492-10.512 65.285-29.306 35.059-35.058 39.308-87.65 9.49-117.467z"/><path d="m446.51 192.448c29.817-29.817 25.568-82.409-9.49-117.467s-87.65-39.307-117.467-9.49c-29.818 29.817-98.611 155.451-63.553 190.509s160.693-33.735 190.51-63.552z"/></g><g><path d="m348.077 193.708c16.572-40.441 28.602-89.796 28.602-117.357 0-10.567-1.691-20.868-4.944-30.676-19.612-.506-38.349 5.982-52.182 19.816-29.818 29.817-98.611 155.451-63.553 190.509 10.336 10.336 28.549 11.64 49.855 7.582 15.415-15.569 29.525-38.895 42.222-69.874z" fill="#ee8c49"/><path d="m140.266 45.675c-3.253 9.809-4.944 20.109-4.944 30.676 0 27.561 12.029 76.916 28.602 117.357 12.696 30.979 26.806 54.305 42.222 69.874 21.306 4.058 39.518 2.754 49.855-7.582 35.058-35.058-33.735-160.693-63.552-190.51-13.834-13.833-32.571-20.321-52.183-19.815z" fill="#ee8c49"/><path d="m345.773 76.351c0-42.167-40.193-76.351-89.773-76.351s-89.773 34.184-89.773 76.351c0 42.168 40.193 179.649 89.773 179.649s89.773-137.481 89.773-179.649z" fill="#f5ea72"/><path d="m263.582 206.145c-15.569-15.416-38.895-29.526-69.874-42.222-40.441-16.572-89.796-28.602-117.357-28.602-10.567 0-20.868 1.691-30.676 4.944-.506 19.612 5.982 38.349 19.816 52.182 29.817 29.818 155.451 98.611 190.509 63.553 10.336-10.336 11.64-28.549 7.582-49.855z" fill="#ee8c49"/><path d="m256 256c-35.058-35.058-160.692 33.735-190.51 63.552-13.833 13.833-20.322 32.57-19.816 52.182 9.809 3.253 20.109 4.944 30.676 4.944 27.561 0 76.916-12.029 117.357-28.602 30.979-12.696 54.305-26.806 69.874-42.222 4.059-21.305 2.755-39.518-7.581-49.854z" fill="#ee8c49"/><path d="m76.351 166.227c-42.167 0-76.351 40.193-76.351 89.773s34.184 89.773 76.351 89.773c42.168 0 179.649-40.193 179.649-89.773s-137.481-89.773-179.649-89.773z" fill="#f5ea72"/><path d="m256 256c-10.336-10.336-28.549-11.64-49.855-7.582-15.416 15.569-29.526 38.895-42.222 69.874-16.572 40.441-28.602 89.796-28.602 117.357 0 10.567 1.691 20.868 4.944 30.676 19.612.506 38.349-5.982 52.182-19.816 29.818-29.817 98.611-155.451 63.553-190.509z" fill="#ee8c49"/><path d="m256 256c-35.058 35.058 33.735 160.692 63.552 190.51 13.833 13.833 32.57 20.322 52.182 19.816 3.253-9.809 4.944-20.109 4.944-30.676 0-27.561-12.029-76.917-28.602-117.357-12.696-30.979-26.806-54.305-42.222-69.874-21.305-4.059-39.518-2.755-49.854 7.581z" fill="#ee8c49"/><path d="m166.227 435.649c0 42.167 40.193 76.351 89.773 76.351s89.773-34.184 89.773-76.351c0-42.168-40.193-179.649-89.773-179.649s-89.773 137.481-89.773 179.649z" fill="#f5ea72"/><path d="m318.292 163.923c-30.979 12.696-54.305 26.806-69.874 42.222-4.058 21.306-2.754 39.519 7.582 49.855 35.058 35.058 160.692-33.735 190.51-63.552 13.833-13.833 20.322-32.57 19.816-52.182-9.809-3.253-20.109-4.944-30.676-4.944-27.563 0-76.918 12.029-117.358 28.601z" fill="#ee8c49"/><path d="m256 256c-10.336 10.336-11.64 28.549-7.582 49.855 15.569 15.416 38.895 29.526 69.874 42.222 40.441 16.572 89.796 28.602 117.357 28.602 10.567 0 20.868-1.691 30.676-4.944.506-19.612-5.982-38.349-19.816-52.182-29.817-29.818-155.451-98.611-190.509-63.553z" fill="#ee8c49"/><path d="m435.649 345.773c42.167 0 76.351-40.193 76.351-89.773s-34.184-89.773-76.351-89.773c-42.168 0-179.649 40.193-179.649 89.773s137.481 89.773 179.649 89.773z" fill="#f5ea72"/></g><g fill="#ebca5f"><path d="m256 117.525c-4.143 0-7.5-3.357-7.5-7.5v-36.879c0-4.143 3.357-7.5 7.5-7.5s7.5 3.357 7.5 7.5v36.879c0 4.143-3.357 7.5-7.5 7.5z"/><path d="m81.545 271.232h-36.879c-4.143 0-7.5-3.357-7.5-7.5s3.357-7.5 7.5-7.5h36.879c4.143 0 7.5 3.357 7.5 7.5s-3.357 7.5-7.5 7.5z"/><path d="m256 446.353c-4.143 0-7.5-3.357-7.5-7.5v-36.879c0-4.143 3.357-7.5 7.5-7.5s7.5 3.357 7.5 7.5v36.879c0 4.143-3.357 7.5-7.5 7.5z"/><path d="m467.334 271.232h-36.879c-4.143 0-7.5-3.357-7.5-7.5s3.357-7.5 7.5-7.5h36.879c4.143 0 7.5 3.357 7.5 7.5s-3.357 7.5-7.5 7.5z"/></g><path d="m256 131.072c-89.865 0-152.911 62.327-173.401 115.759-.689 5.551-1.055 11.188-1.055 16.901 0 84.89 78.106 138.242 174.455 138.242s174.455-53.352 174.455-138.242c0-5.713-.365-11.35-1.054-16.901-20.489-53.431-83.535-115.759-173.4-115.759z" fill="#cc9e83"/><path d="m256 110.025c-89.865 0-163.849 59.87-173.401 136.807 35.444-1.638 65.195-22.65 76.502-51.52 1.616-4.126 5.927-6.588 10.257-5.65 28.336 6.14 58.559-1.101 79.798-19.881 3.91-3.458 9.776-3.458 13.687 0 21.23 18.772 51.45 26.025 79.798 19.881 4.331-.939 8.641 1.523 10.257 5.65 11.306 28.871 41.058 49.883 76.502 51.52-9.551-76.937-83.535-136.807-173.4-136.807z" fill="#6171a3"/><g><g fill="#eda1ab"><ellipse cx="175.258" cy="288.182" rx="29.792" ry="23.725"/><ellipse cx="336.742" cy="288.182" rx="29.792" ry="23.725"/></g><g fill="#4e5660"><path d="m206.801 269.865c-4.143 0-7.5-3.357-7.5-7.5 0-3.684-2.996-6.681-6.68-6.681s-6.681 2.997-6.681 6.681c0 4.143-3.357 7.5-7.5 7.5s-7.5-3.357-7.5-7.5c0-11.955 9.726-21.681 21.681-21.681 11.954 0 21.68 9.726 21.68 21.681 0 4.143-3.358 7.5-7.5 7.5z"/><path d="m333.56 269.865c-4.143 0-7.5-3.357-7.5-7.5 0-3.684-2.997-6.681-6.681-6.681s-6.68 2.997-6.68 6.681c0 4.143-3.357 7.5-7.5 7.5s-7.5-3.357-7.5-7.5c0-11.955 9.726-21.681 21.68-21.681 11.955 0 21.681 9.726 21.681 21.681 0 4.143-3.358 7.5-7.5 7.5z"/><path d="m256 293.292c-7.933 0-15.476-3.436-20.696-9.425-2.722-3.123-2.396-7.86.727-10.582 3.122-2.721 7.859-2.396 10.582.727 2.37 2.72 5.792 4.28 9.388 4.28s7.018-1.561 9.388-4.28c2.722-3.122 7.459-3.448 10.582-.727 3.123 2.722 3.448 7.459.727 10.582-5.222 5.989-12.765 9.425-20.698 9.425z"/></g></g></g></svg>