<svg id="Capa_1" enable-background="new 0 0 512 512" height="512" viewBox="0 0 512 512" width="512" xmlns="http://www.w3.org/2000/svg"><g><path d="m379.739 491.897c-9.619-59.668-61.357-105.24-123.74-105.24s-114.121 45.572-123.74 105.24c-1.698 10.533 6.384 20.103 17.053 20.103h57.369l51.05-14.346 51.049 14.346h53.906c10.669 0 18.751-9.57 17.053-20.103z" fill="#f5ea72"/><path d="m308.78 512c0-31.015-22.856-56.157-51.05-56.157s-51.05 25.142-51.05 56.157z" fill="#d2996f"/><path d="m500.632 254.127c-2.68-5.195-2.713-11.36-.087-16.583l2.879-5.729c20.85-41.487 2.277-91.959-40.492-110.034l-5.851-2.473c-5.52-2.333-9.545-7.224-10.772-13.09l-2.092-9.997c-9.203-43.99-52.714-71.866-96.524-61.838l-9.707 2.222c-6.115 1.4-12.52-.435-16.967-4.86l-8.406-8.364c-31.317-31.163-81.924-31.176-113.259-.031l-8.408 8.358c-2.628 2.612-5.94 4.311-9.471 4.983-101.613 119.972-10.778 391.514 221.603 400.216 19.92-10.022 35.628-28.246 41.678-51.63l1.626-6.285c1.491-5.763 5.696-10.439 11.269-12.531l.003-.001c45.007-16.894 65.188-69.279 43.148-112.002z" fill="#f1b260"/><path d="m360.134 354.573-163.699-258.846c-22.066-11.639-27.117-40.359-14.96-59.036-2.444.465-4.991.442-7.491-.131l-9.645-2.209c-43.834-10.038-87.367 17.87-96.544 61.893l-2.071 9.934c-1.223 5.87-5.249 10.766-10.771 13.101l-5.905 2.498c-42.744 18.078-61.31 68.519-40.488 109.995l2.899 5.775c2.621 5.221 2.588 11.38-.089 16.573l-.17.329c-22.029 42.727-1.839 95.106 43.17 111.992 5.576 2.092 9.783 6.77 11.274 12.537l1.621 6.272c11.426 44.212 57.37 70.011 101.068 56.754l5.618-1.705c6.379-1.935 13.306-.244 18.074 4.414l7.858 7.676c31.202 30.477 81.026 30.478 112.229.001l7.863-7.68c4.769-4.659 11.697-6.35 18.077-4.413l5.628 1.708c20.581 6.248 41.658 3.825 59.397-5.1-35.163-5.347-50.837-56.677-42.943-82.332z" fill="#ee8c49"/><path d="m55.517 77.895c16.716 25.233 52.162 58.263 88.042 78.768 11.846-10.623 19.268-25.794 19.268-42.647 0-32.125-26.938-58.167-60.168-58.167-19.106.001-36.12 8.621-47.142 22.046z" fill="#f5ea72"/><path d="m143.56 156.663c-16.382-54.679-50.534-76.47-88.042-78.768-8.147 9.924-13.026 22.468-13.026 36.121 0 32.125 26.938 58.166 60.168 58.166 15.797.001 30.164-5.892 40.9-15.519z" fill="#d2996f"/><path d="m368.439 156.663c35.88-20.505 71.326-53.534 88.042-78.768-11.022-13.425-28.036-22.045-47.143-22.045-33.23 0-60.168 26.042-60.168 58.167 0 16.852 7.422 32.023 19.269 42.646z" fill="#f5ea72"/><path d="m368.439 156.663c16.382-54.679 50.534-76.47 88.042-78.768 8.147 9.924 13.026 22.468 13.026 36.121 0 32.125-26.938 58.166-60.168 58.166-15.798.001-30.165-5.892-40.9-15.519z" fill="#d2996f"/><path d="m255.999 113.926c-66.947 0-142.964 45.908-176.138 79.595-6.172 16.288-9.522 33.714-9.522 51.831 0 90.342 83.122 147.12 185.659 147.12s185.659-56.778 185.659-147.12c0-18.117-3.35-35.543-9.522-51.831-33.172-33.686-109.189-79.595-176.136-79.595z" fill="#ffddcf"/><path d="m255.999 81.774c-81.974 0-151.533 46.811-176.137 111.747 54 18.817 135.396-12.264 167.822-36.656 4.935-3.712 11.697-3.712 16.632 0 32.426 24.392 113.821 55.473 167.821 36.657-24.605-64.936-94.163-111.748-176.138-111.748z" fill="#de5c6e"/><g><g><path d="m202.172 273.744c.007 13.843-14.079 25.072-31.463 25.081-17.383.009-31.481-11.206-31.488-25.049s14.079-25.073 31.463-25.082c17.383-.009 31.481 11.207 31.488 25.05z" fill="#eda1ab"/><path d="m309.828 273.69c.007 13.843 14.105 25.058 31.488 25.049s31.47-11.238 31.463-25.081c-.007-13.844-14.105-25.059-31.488-25.05s-31.47 11.238-31.463 25.082z" fill="#eda1ab"/><path d="m286.848 262.37c-.01-19.068-13.824-20.852-30.864-20.844-17.04.009-30.853 1.807-30.843 20.875.01 19.067 13.831 34.518 30.871 34.509s30.845-15.473 30.836-34.54z" fill="#4e5660"/></g><g fill="#4e5660"><path d="m174.045 253.982c-4.141 0-7.498-3.355-7.5-7.496-.003-6.006 2.333-11.652 6.577-15.9 4.244-4.249 9.889-6.59 15.894-6.593h.011c12.392 0 22.476 10.077 22.482 22.471.002 4.142-3.354 7.502-7.496 7.504-.001 0-.003 0-.004 0-4.141 0-7.498-3.355-7.5-7.496-.002-4.124-3.358-7.479-7.482-7.479-.001 0-.003 0-.004 0-1.998.001-3.876.78-5.289 2.193-1.413 1.414-2.19 3.294-2.189 5.292.002 4.143-3.354 7.502-7.497 7.504-.001 0-.002 0-.003 0z"/><path d="m307.965 253.915c-4.141 0-7.497-3.355-7.5-7.496-.006-12.395 10.073-22.486 22.469-22.493h.011c6.003 0 11.645 2.335 15.891 6.577 4.248 4.244 6.589 9.889 6.592 15.894.002 4.143-3.354 7.502-7.497 7.504-.001 0-.002 0-.003 0-4.141 0-7.498-3.355-7.5-7.496-.002-4.125-3.358-7.479-7.482-7.479-.001 0-.002 0-.004 0-4.125.002-7.479 3.36-7.477 7.485.003 4.142-3.354 7.502-7.496 7.504-.001 0-.003 0-.004 0z"/></g></g></g></svg>