<svg id="Capa_1" enable-background="new 0 0 512 512" height="512" viewBox="0 0 512 512" width="512" xmlns="http://www.w3.org/2000/svg"><g><path d="m116.096 0c28.658 0 47.732 61.67 47.732 104.535 0 26.937-19.074 53.1-47.732 53.1s-47.732-26.164-47.732-53.1c0-42.865 19.074-104.535 47.732-104.535z" fill="#f5ea72"/><path d="m116.096 127.304c-4.142 0-7.5-3.357-7.5-7.5v-61.037c0-4.143 3.358-7.5 7.5-7.5s7.5 3.357 7.5 7.5v61.037c0 4.142-3.358 7.5-7.5 7.5z" fill="#d2996f"/><path d="m143.156 412.834c16.248 16.248 14.124 44.716-4.744 63.584-13.172 13.172-39.205 27.587-65.269 29.003-14.528.79-24.298-14.382-17.856-27.427 11.281-22.845 7.205-43.336 24.285-60.417 18.868-18.867 47.336-20.991 63.584-4.743z" fill="#6171a3"/><ellipse cx="134.709" cy="392.812" fill="#475a99" rx="54.715" ry="47.117"/><ellipse cx="61.396" cy="270.435" fill="#ffcbbe" rx="49.441" ry="44.276"/><ellipse cx="450.604" cy="270.435" fill="#ffcbbe" rx="49.441" ry="44.276"/><path d="m360.386 512c10.439 0 18.346-9.363 16.684-19.669-9.412-58.381-60.034-102.97-121.07-102.97s-111.658 44.589-121.07 102.97c-1.661 10.306 6.246 19.669 16.684 19.669z" fill="#d2996f"/><path d="m256 389.361c-58.243 0-107.001 40.602-119.52 95.045.497.047.99.106 1.491.135 5.466.323 11.416.487 17.684.487 33.346 0 69.746-4.392 97.369-11.75.973-.259 1.974-.39 2.976-.39s2.004.132 2.976.39c27.626 7.358 64.026 11.751 97.37 11.75 6.269 0 12.218-.164 17.683-.487.501-.03.994-.088 1.491-.135-12.519-54.443-61.277-95.045-119.52-95.045z" fill="#cb775a"/><path d="m256 366.95c67.052 0 112.527 41.003 128.164 70.036 4.901 9.1-1.4 20.205-11.717 20.816-28.049 1.661-72.29-1.274-106.578-10.406-6.471-1.723-13.267-1.723-19.738 0-34.287 9.132-78.529 12.067-106.578 10.406-10.317-.611-16.618-11.716-11.717-20.816 15.637-29.033 61.112-70.036 128.164-70.036z" fill="#f1b260"/><path d="m448.801 260.123c0 93.817-86.32 152.779-192.801 152.779s-192.8-58.962-192.8-152.779 86.319-169.871 192.8-169.871 192.801 76.054 192.801 169.871z" fill="#ffddcf"/><path d="m256 165.483c30.701 21.015 145.12 71.296 193.62 79.326 8.582 1.421 16.156-5.637 15.526-14.313-9.125-125.608-132.863-161.125-209.146-161.125s-200.021 35.517-209.146 161.125c-.63 8.676 6.944 15.734 15.526 14.313 48.5-8.03 162.919-58.311 193.62-79.326z" fill="#6171a3"/><path d="m456.758 157.858c-7.617-13.936-17.266-26.658-28.876-38.051-6.422-6.302-15.676-8.741-24.441-6.71-14.134 3.275-29.026 6.107-44.159 8.473-34.932 14.807-71.856 24.894-103.282 24.894s-68.35-10.087-103.281-24.893c-15.133-2.366-30.025-5.199-44.159-8.473-8.765-2.031-18.019.408-24.441 6.71-11.61 11.393-21.259 24.115-28.876 38.051-2.947 5.392-.266 12.132 5.612 13.924 46.097 14.055 103.284 23.63 160.757 26.43 9.981-8.237 22.972-10.644 34.389-10.644s24.409 2.407 34.389 10.644c57.473-2.801 114.661-12.376 160.757-26.43 5.877-1.793 8.558-8.533 5.611-13.925z" fill="#f1b260"/><g><g><ellipse cx="173.951" cy="297.145" fill="#eda1ab" rx="30.274" ry="24.109"/><ellipse cx="338.049" cy="297.145" fill="#eda1ab" rx="30.274" ry="24.109"/><path d="m280.409 278.621c0-15.085-10.928-16.502-24.409-16.502-13.48 0-24.409 1.417-24.409 16.502s10.928 27.313 24.409 27.313c13.48.001 24.409-12.228 24.409-27.313z" fill="#4e5660"/></g><g fill="#4e5660"><path d="m179.013 275.862c-4.142 0-7.5-3.357-7.5-7.5v-12.362c0-4.143 3.358-7.5 7.5-7.5s7.5 3.357 7.5 7.5v12.362c0 4.143-3.358 7.5-7.5 7.5z"/><path d="m332.988 275.862c-4.142 0-7.5-3.357-7.5-7.5v-12.362c0-4.143 3.358-7.5 7.5-7.5s7.5 3.357 7.5 7.5v12.362c0 4.143-3.358 7.5-7.5 7.5z"/></g></g><path d="m152.718 121.571 68.893 76.642c11.48.559 22.972.855 34.389.855s22.909-.295 34.389-.855l68.892-76.642c-35.268 5.514-71.855 8.476-103.282 8.476s-68.013-2.962-103.281-8.476z" fill="#d2996f"/></g></svg>