<svg id="Capa_1" enable-background="new 0 0 497 497" height="512" viewBox="0 0 497 497" width="512" xmlns="http://www.w3.org/2000/svg"><g><ellipse cx="248.497" cy="112.293" fill="#f5ea72" rx="136.597" ry="112.293"/><path d="m469.187 216.248c0 56.547-98.805 102.388-220.687 102.388s-220.687-45.84-220.687-102.388c0-56.547 98.805-81.353 220.687-81.353s220.687 24.806 220.687 81.353z" fill="#d2996f"/><ellipse cx="65.238" cy="269.513" fill="#f2bb88" rx="46.56" ry="41.695"/><ellipse cx="431.762" cy="269.513" fill="#f2bb88" rx="46.56" ry="41.695"/><path d="m346.802 497c9.83 0 17.277-8.818 15.712-18.523-8.863-54.979-56.535-96.969-114.014-96.969s-105.151 41.99-114.014 96.969c-1.564 9.705 5.882 18.523 15.712 18.523z" fill="#efedff"/><path d="m248.5 430.678c29.678 0 58.14-4.475 83.956-12.981-21.055-22.282-50.88-36.189-83.956-36.189s-62.901 13.907-83.956 36.189c25.816 8.506 54.278 12.981 83.956 12.981z" fill="#d4d4ff"/><g><path d="m191.159 452.485h114.682v44.515h-114.682z" fill="#475a99"/><g fill="#6171a3"><path d="m191.159 424.827v27.658h35.244v-22.655c-8.671-9.24-24.43-10.672-35.244-5.003z"/><path d="m305.841 424.827v27.658h-35.244v-22.655c8.67-9.24 24.43-10.672 35.244-5.003z"/></g></g><path d="m270.597 429.83c12.056-.923 23.837-2.602 35.244-5.003v-40.976h-35.244z" fill="#475a99"/><path d="m191.159 424.827c11.407 2.401 23.189 4.08 35.244 5.003v-45.979h-35.244z" fill="#475a99"/><path d="m430.064 259.802c0 88.349-81.289 143.875-181.564 143.875s-181.564-55.525-181.564-143.875c0-88.349 81.289-159.971 181.564-159.971s181.564 71.622 181.564 159.971z" fill="#f2d1a5"/><path d="m347.887 103.55c20.092 12.177 78.541 53.385 82.291 136.836.402 8.95-9.474 14.617-17.012 9.774-22.774-14.633-57.659-41.673-74.334-66.375-2.02-2.993-6.564-2.375-7.778 1.026-3.382 9.478-7.037 16.781-10.585 22.263-3.235 4.999-9.437 7.267-15.114 5.472-15.728-4.971-40.057-20.715-53.49-36.612-1.769-2.094-4.963-2.094-6.732 0-13.433 15.897-37.762 31.641-53.49 36.612-5.677 1.795-11.879-.473-15.114-5.472-3.548-5.482-7.203-12.785-10.585-22.263-1.214-3.401-5.757-4.019-7.778-1.026-16.674 24.702-51.559 51.742-74.333 66.375-7.538 4.843-17.414-.824-17.012-9.774 3.751-83.451 62.199-124.659 82.291-136.836z" fill="#de5c6e"/><path d="m469.187 216.248c0-56.547-98.805-81.353-220.687-81.353s-220.687 24.806-220.687 81.353c0-74.778 83.764-142.324 220.684-142.324s220.684 67.546 220.684 142.324z" fill="#ebca5f"/><path d="m412.087 447.887c-4.143 0-7.5-3.357-7.5-7.5 0-15.931 6.773-41.472 21.646-59.904 2.6-3.223 7.321-3.729 10.547-1.127 3.224 2.602 3.728 7.323 1.127 10.547-13.441 16.658-18.32 39.317-18.32 50.484 0 4.142-3.357 7.5-7.5 7.5z" fill="#5ec783"/><path d="m408.319 418.783c4.495 1.443 9.352 1.443 13.846 0 36.784-11.812 56.521 13.186 53.982 40.239-2.423 25.812-21.575 37.978-60.905 37.978s-58.482-12.166-60.905-37.978c-2.539-27.053 17.198-52.051 53.982-40.239z" fill="#de5c6e"/><g><g><path d="m196.243 290.805c.007 13.438-13.667 24.338-30.541 24.346s-30.559-10.878-30.566-24.316 13.667-24.338 30.541-24.347c16.875-.007 30.56 10.88 30.566 24.317z" fill="#eda1ab"/><path d="m300.746 290.753c.007 13.438 13.691 24.324 30.566 24.315 16.874-.008 30.548-10.909 30.541-24.346-.007-13.438-13.691-24.324-30.565-24.316-16.875.009-30.549 10.909-30.542 24.347z" fill="#eda1ab"/><path d="m278.438 279.764c-.009-18.509-13.419-20.242-29.96-20.233-16.541.008-29.949 1.754-29.939 20.263.009 18.509 13.426 33.506 29.966 33.498 16.541-.008 29.943-15.019 29.933-33.528z" fill="#4e5660"/></g><g fill="#4e5660"><path d="m168.94 271.843c-4.141 0-7.498-3.355-7.5-7.496-.006-12.154 9.878-22.048 22.032-22.054h.014c5.882 0 11.414 2.289 15.576 6.447 4.165 4.161 6.46 9.695 6.464 15.584.002 4.142-3.354 7.502-7.496 7.504-.001 0-.003 0-.004 0-4.141 0-7.498-3.355-7.5-7.496-.001-1.882-.734-3.65-2.065-4.979-1.329-1.328-3.097-2.06-4.976-2.06-.002 0-.003 0-.004 0-3.884.002-7.042 3.163-7.04 7.046.002 4.143-3.354 7.502-7.497 7.504-.001 0-.003 0-.004 0z"/><path d="m298.937 271.777c-4.141 0-7.498-3.355-7.5-7.496-.006-12.154 9.877-22.048 22.031-22.054h.014c5.883 0 11.414 2.289 15.576 6.448 4.166 4.161 6.461 9.695 6.464 15.583.002 4.143-3.354 7.502-7.496 7.504-.001 0-.003 0-.004 0-4.141 0-7.498-3.355-7.5-7.496-.001-1.882-.734-3.65-2.065-4.979-1.329-1.328-3.096-2.06-4.976-2.06-.001 0-.003 0-.004 0-3.885.002-7.042 3.163-7.04 7.046.002 4.143-3.355 7.502-7.496 7.504-.001 0-.003 0-.004 0z"/></g></g></g></svg>