<svg id="Capa_1" enable-background="new 0 0 512 512" height="512" viewBox="0 0 512 512" width="512" xmlns="http://www.w3.org/2000/svg"><g><ellipse cx="54.742" cy="262.175" fill="#b8866b" rx="51.132" ry="45.79"/><ellipse cx="457.258" cy="262.175" fill="#b8866b" rx="51.132" ry="45.79"/><path d="m363.955 512c10.796 0 18.973-9.684 17.255-20.342-9.733-60.377-62.087-106.491-125.21-106.491s-115.477 46.113-125.21 106.491c-1.718 10.658 6.459 20.342 17.255 20.342z" fill="#6171a3"/><path d="m256 385.167c-47.606 0-89.08 26.231-110.773 65.025 9.247 23.603 38.268 35.958 62.635 22.143l48.138-27.294 48.138 27.293c24.333 13.799 53.383 1.475 62.635-22.141-21.692-38.795-63.167-65.026-110.773-65.026z" fill="#475a99"/><path d="m331.425 389.074c3.932 6.39 7.034 26.728 7.436 44.802.225 10.096-10.695 16.555-19.48 11.574l-63.381-35.936-63.382 35.936c-8.785 4.981-19.704-1.478-19.48-11.574.402-18.074 3.504-38.412 7.436-44.802z" fill="#efedff"/><path d="m455.393 251.51c0 97.025-89.271 158.004-199.393 158.004s-199.393-60.979-199.393-158.004 89.271-175.68 199.393-175.68 199.393 78.655 199.393 175.68z" fill="#cc9e83"/><g fill="#6171a3"><path d="m68.632 123.344c-20.54 38.225-25.393 100.103-20.341 133.678.954 6.338 6.457 10.993 12.866 10.993h17.899c12.105 0 21.884-9.79 21.975-21.895.214-28.52 4.907-68.028 25.692-96.655z"/><path d="m443.368 123.344c20.54 38.225 25.393 100.103 20.341 133.678-.954 6.338-6.457 10.993-12.866 10.993h-17.899c-12.105 0-21.884-9.79-21.975-21.895-.214-28.52-4.907-68.028-25.692-96.655z"/><path d="m43.637 95.362c42.947 27.982 125.073 62.984 212.363 62.984s169.416-35.003 212.363-62.985c3.663-14.59 7.185-31.028 9.417-46.1 2.138-14.44-9.519-27.17-24.102-26.513-53.373 2.405-132.99-3.783-180.063-19.827-11.428-3.895-23.802-3.895-35.23 0-47.074 16.044-126.69 22.232-180.063 19.827-14.583-.657-26.24 12.073-24.102 26.513 2.231 15.073 5.753 31.511 9.417 46.101z"/></g><path d="m256 142.765c-87.29 0-167.448-28.704-212.364-47.404 2.552 10.166 5.173 19.435 7.474 26.716 2.92 9.241 9.872 16.64 18.913 20.133 20.485 7.916 56.737 20.902 73.197 23.971h225.56c16.461-3.069 52.712-16.056 73.197-23.971 9.04-3.493 15.992-10.892 18.912-20.133 2.301-7.281 4.922-16.551 7.474-26.716-44.915 18.7-125.073 47.404-212.363 47.404z" fill="#efedff"/><path d="m264.702 58.452 22.492-5.428c9.175-2.214 18.004 4.738 18.004 14.177v33.3c0 27.587-22.576 50.689-50.158 50.161-26.729-.511-48.239-22.338-48.239-49.19v-34.271c0-9.438 8.83-16.391 18.005-14.177l22.492 5.428c5.719 1.38 11.685 1.38 17.404 0z" fill="#f5ea72"/><path d="m256 142.765c26.327 0 84.585 3.823 112.78 23.416-19.115 24.85-73.177 38.23-112.78 38.23s-93.665-13.381-112.78-38.23c28.195-19.593 86.453-23.416 112.78-23.416z" fill="#475a99"/><g><g fill="#eda1ab"><ellipse cx="175.258" cy="292.907" rx="29.792" ry="23.725"/><ellipse cx="336.742" cy="292.907" rx="29.792" ry="23.725"/></g><g fill="#4e5660"><path d="m206.801 274.59c-4.143 0-7.5-3.357-7.5-7.5 0-3.684-2.996-6.681-6.68-6.681s-6.681 2.997-6.681 6.681c0 4.143-3.357 7.5-7.5 7.5s-7.5-3.357-7.5-7.5c0-11.955 9.726-21.681 21.681-21.681 11.954 0 21.68 9.726 21.68 21.681 0 4.142-3.358 7.5-7.5 7.5z"/><path d="m333.56 274.59c-4.143 0-7.5-3.357-7.5-7.5 0-3.684-2.997-6.681-6.681-6.681s-6.68 2.997-6.68 6.681c0 4.143-3.357 7.5-7.5 7.5s-7.5-3.357-7.5-7.5c0-11.955 9.726-21.681 21.68-21.681 11.955 0 21.681 9.726 21.681 21.681 0 4.142-3.358 7.5-7.5 7.5z"/><path d="m256 298.017c-7.933 0-15.476-3.436-20.696-9.425-2.722-3.123-2.396-7.86.727-10.582 3.122-2.721 7.859-2.396 10.582.727 2.37 2.72 5.792 4.28 9.388 4.28s7.018-1.561 9.388-4.28c2.722-3.122 7.46-3.448 10.582-.727 3.123 2.722 3.448 7.459.727 10.582-5.222 5.989-12.765 9.425-20.698 9.425z"/></g></g><circle cx="256" cy="468.005" fill="#efedff" r="8.838"/></g></svg>