<svg id="Capa_1" enable-background="new 0 0 512 512" height="512" viewBox="0 0 512 512" width="512" xmlns="http://www.w3.org/2000/svg"><g><path d="m96.922 107.956c24.7 24.7 30.684 58.764 13.364 76.084s-55.032 21.15-76.907-7.537c-18.871-24.747-31.396-64.686-17.249-85.764 13.65-20.338 56.092-7.483 80.792 17.217z" fill="#f5ea72"/><path d="m43.13 186.456c22.04 17.419 52.199 12.542 67.156-2.415 16.858-16.858 11.632-49.577-11.437-74.087-.538.465-1.083.921-1.617 1.391-24.429 21.522-42.717 47.113-54.102 75.111z" fill="#ebca5f"/><path d="m99.991 187.848c-2.557 0-5.049-1.308-6.451-3.665-4.266-7.166-17.44-26.845-47.582-54.734-3.04-2.813-3.225-7.559-.411-10.599 2.811-3.041 7.558-3.224 10.599-.411 31.578 29.22 45.685 50.346 50.283 58.072 2.119 3.56.951 8.162-2.608 10.28-1.203.716-2.525 1.057-3.83 1.057z" fill="#ebca5f"/><path d="m415.078 107.956c-24.7 24.7-30.684 58.764-13.364 76.084s55.032 21.15 76.907-7.537c18.871-24.748 31.396-64.687 17.249-85.765-13.65-20.337-56.092-7.482-80.792 17.218z" fill="#f5ea72"/><path d="m468.87 186.456c-22.04 17.419-52.199 12.542-67.156-2.415-16.858-16.858-11.632-49.577 11.437-74.087.538.465 1.083.921 1.617 1.391 24.429 21.522 42.716 47.113 54.102 75.111z" fill="#ebca5f"/><path d="m412.009 187.848c-1.305 0-2.627-.341-3.829-1.057-3.56-2.118-4.728-6.721-2.608-10.28 4.599-7.727 18.705-28.852 50.283-58.072 3.04-2.813 7.784-2.63 10.599.411 2.814 3.04 2.629 7.785-.411 10.599-30.142 27.89-43.316 47.568-47.582 54.734-1.403 2.356-3.896 3.665-6.452 3.665z" fill="#ebca5f"/><path d="m147.434 37.655h53.044v92.931h-53.044z" fill="#d2996f"/><ellipse cx="173.956" cy="25.819" fill="#f5ea72" rx="41.404" ry="25.819"/><path d="m311.522 37.655h53.044v92.931h-53.044z" fill="#d2996f" transform="matrix(-1 0 0 -1 676.088 168.24)"/><ellipse cx="338.044" cy="25.819" fill="#f5ea72" rx="41.404" ry="25.819"/><path d="m363.695 449.619c-4.516-7.777-9.848-15.021-15.882-21.613-94.445-9.141-163.664 13.041-202.043 26.202-6.118 11.646-10.452 24.377-12.621 37.833-1.686 10.457 6.337 19.959 16.93 19.959h140.554c31.125-11.424 60.835-31.191 73.062-62.381z" fill="#f5ea72"/><g fill="#ebca5f"><path d="m164.193 427.999c-.002.002-.004.004-.006.007.004.001.009.003.013.004z"/><path d="m256 387.556c-3.523 0-7.011.15-10.46.438l.002.003c-23.189 20.007-48.12 29.064-81.341 40.013 28.204 9.392 59.333 14.34 91.799 14.34 32.471 0 63.605-4.95 91.813-14.345-22.753-24.856-55.46-40.449-91.813-40.449z"/></g><path d="m234.761 441.628c-5.888-18.621-1.828-31.112 10.781-53.631-43.41 3.613-80.487 29.504-99.772 66.211 28.828 8.662 68.883 9.043 88.991-12.58z" fill="#d2996f"/><path d="m363.695 449.619c-34.52 9.541-61.651 39.381-73.062 62.381h71.289c10.592 0 18.616-9.501 16.93-19.959-2.458-15.247-7.692-29.562-15.157-42.422z" fill="#d2996f"/><path d="m164.2 428.01c21.992 7.323 45.764 11.939 70.561 13.618 10.473-11.262 15.537-28.49 10.781-53.631-32.138 2.675-60.796 17.568-81.342 40.013z" fill="#cb775a"/><path d="m432.6 182.167c-27.305-15.863-45.55-36.301-54.799-60.635-33.422-23.459-75.75-37.486-121.801-37.486-77.518 0-144.502 39.725-176.169 97.327 2.852 29.037-8.257 60.816-19.409 79.201 2.514 92.779 89.113 150.87 195.578 150.87 108.047 0 195.638-59.83 195.638-155.027 0-26.586-6.838-51.764-19.038-74.25z" fill="#f5ea72"/><path d="m432.6 182.167c-12.867-23.713-31.706-44.425-54.799-60.635-16.555 30.09-10.449 71.456 54.799 60.635z" fill="#d2996f"/><path d="m60.422 260.575c12.288-2.587 26.549-9.417 32.619-28.431 5.802-18.175 6.775-40.776-13.21-50.77-12.472 22.686-19.469 48.144-19.469 75.043 0 1.394.023 2.779.06 4.158z" fill="#d2996f"/><ellipse cx="256" cy="162.742" fill="#ebca5f" rx="47.455" ry="42.311"/><ellipse cx="256" cy="274.59" fill="#cc9e83" rx="138.424" ry="91.024"/><g fill="#4e5660"><path d="m191.666 153.366c-4.143 0-7.5-3.357-7.5-7.5v-12.362c0-4.143 3.357-7.5 7.5-7.5s7.5 3.357 7.5 7.5v12.362c0 4.143-3.357 7.5-7.5 7.5z"/><path d="m320.333 153.366c-4.143 0-7.5-3.357-7.5-7.5v-12.362c0-4.143 3.357-7.5 7.5-7.5s7.5 3.357 7.5 7.5v12.362c0 4.143-3.357 7.5-7.5 7.5z"/><path d="m256 160.725c-8.669 0-16.911-3.754-22.615-10.299-2.722-3.123-2.395-7.86.727-10.582 3.122-2.721 7.859-2.396 10.582.727 2.854 3.275 6.975 5.154 11.307 5.154 4.331 0 8.452-1.879 11.307-5.154 2.722-3.123 7.458-3.448 10.582-.727 3.122 2.722 3.448 7.459.727 10.582-5.706 6.545-13.948 10.299-22.617 10.299z"/></g><g><path d="m204.535 284.367c-.042 13.236-13.549 23.923-30.169 23.871s-30.06-10.824-30.019-24.059c.041-13.236 13.548-23.923 30.169-23.871s30.06 10.824 30.019 24.059z" fill="#eda1ab"/><path d="m307.465 284.69c-.041 13.236 13.398 24.007 30.018 24.059s30.127-10.635 30.169-23.87c.042-13.236-13.398-24.008-30.018-24.06-16.621-.052-30.127 10.635-30.169 23.871z" fill="#eda1ab"/><g fill="#4e5660"><path d="m280.32 266.191c.047-14.995-10.811-16.438-24.211-16.48s-24.267 1.333-24.314 16.328 10.778 27.184 24.178 27.226 24.3-12.079 24.347-27.074z"/><path d="m206.387 265.795c-.009 0-.016 0-.024 0-4.142-.013-7.489-3.381-7.477-7.523.012-3.763-3.04-6.834-6.804-6.846-.007 0-.014 0-.021 0-3.752 0-6.812 3.048-6.823 6.804-.014 4.134-3.369 7.476-7.499 7.476-.009 0-.017 0-.025 0-4.142-.014-7.489-3.382-7.476-7.524.039-12.009 9.823-21.755 21.824-21.755h.068c12.033.039 21.793 9.859 21.756 21.893-.013 4.132-3.368 7.475-7.499 7.475z"/><path d="m334.427 266.196c-.009 0-.016 0-.024 0-4.142-.013-7.489-3.381-7.477-7.523.012-3.763-3.04-6.834-6.803-6.846-.007 0-.014 0-.021 0-3.753 0-6.813 3.048-6.824 6.804-.014 4.134-3.369 7.476-7.499 7.476-.009 0-.017 0-.025 0-4.142-.014-7.489-3.382-7.476-7.524.039-12.009 9.823-21.755 21.824-21.755h.068c5.829.018 11.303 2.306 15.412 6.44 4.108 4.135 6.361 9.622 6.344 15.452-.013 4.133-3.368 7.476-7.499 7.476z"/></g></g></g></svg>