<svg id="Capa_1" enable-background="new 0 0 512 512" height="512" viewBox="0 0 512 512" width="512" xmlns="http://www.w3.org/2000/svg"><g><path d="m346.582 414.234c36.191-4.688 79.909-27.114 106.457-43.803 11.261-7.079 12.37-22.974 2.256-31.612-37.878-32.348-100.552-57.841-199.295-57.841s-161.417 25.493-199.294 57.841c-10.114 8.638-9.005 24.534 2.256 31.612 26.548 16.689 70.265 39.115 106.457 43.803z" fill="#de5c6e"/><ellipse cx="51.863" cy="234.533" fill="#ffcbbe" rx="51.863" ry="46.445"/><ellipse cx="460.137" cy="234.533" fill="#ffcbbe" rx="51.863" ry="46.445"/><path d="m365.499 487.931c10.95 0 19.244-9.822 17.502-20.633-9.873-61.24-62.975-108.013-127.001-108.013s-117.128 46.773-127.001 108.014c-1.743 10.811 6.552 20.633 17.502 20.633h218.998z" fill="#6171a3"/><path d="m308.807 359.285c29.708 4.939 56.699 28.84 71.769 52.743 3.041 4.823.819 11.212-4.565 13.089-66.137 23.052-103.059 47.163-120.01 62.815-16.952-15.652-53.873-39.763-120.01-62.815-5.384-1.876-7.606-8.266-4.565-13.089 15.07-23.903 42.06-47.804 71.769-52.743z" fill="#de5c6e"/><path d="m256 414.885c39.843 0 77.725-7.231 110.878-20.818-15.311-16.892-35.935-31.102-58.071-34.782h-105.614c-22.136 3.68-42.76 17.89-58.071 34.782 33.153 13.587 71.035 20.818 110.878 20.818z" fill="#d5364c"/><path d="m294.286 412.597c-10.479-7.222-25.283-10.859-38.286-10.859s-27.808 3.637-38.286 10.859c13.823 24.307 28.846 53.186 38.286 75.334 9.44-22.148 24.463-51.027 38.286-75.334z" fill="#efedff"/><path d="m217.714 412.597c12.491 1.508 25.282 2.288 38.286 2.288s25.795-.78 38.286-2.288c12.658-22.259 24.31-40.684 29.743-46.587h-136.059c5.434 5.903 17.085 24.329 29.744 46.587z" fill="#d4d4ff"/><path d="m458.245 223.716c0 98.413-90.548 160.264-202.245 160.264s-202.245-61.851-202.245-160.264 90.548-178.192 202.245-178.192 202.245 79.779 202.245 178.192z" fill="#ffddcf"/><path d="m256 24.069c192.607 0 227.22 129.735 202.245 199.647-34.417-111.77-146.609-131.115-190.713-78.058-6.015 7.236-17.05 7.236-23.065 0-44.104-53.057-156.296-33.712-190.713 78.058-24.974-69.912 9.639-199.647 202.246-199.647z" fill="#6171a3"/><g><g fill="#eda1ab"><ellipse cx="174.042" cy="258.946" rx="30.241" ry="24.082"/><ellipse cx="337.958" cy="258.946" rx="30.241" ry="24.082"/></g><path d="m191.667 243.264c-4.142 0-7.5-3.357-7.5-7.5v-12.362c0-4.143 3.358-7.5 7.5-7.5s7.5 3.357 7.5 7.5v12.362c0 4.142-3.358 7.5-7.5 7.5z" fill="#4e5660"/><path d="m320.333 243.264c-4.142 0-7.5-3.357-7.5-7.5v-12.362c0-4.143 3.358-7.5 7.5-7.5s7.5 3.357 7.5 7.5v12.362c0 4.142-3.357 7.5-7.5 7.5z" fill="#4e5660"/><g fill="#fff"><path d="m236.465 258.96c-1.349 0-2.715-.364-3.946-1.127-3.52-2.184-4.604-6.807-2.42-10.327l6.928-11.17c2.182-3.521 6.806-4.603 10.327-2.421 3.52 2.184 4.604 6.807 2.42 10.327l-6.928 11.17c-1.419 2.289-3.871 3.548-6.381 3.548z"/><path d="m275.535 258.96c-2.509 0-4.961-1.259-6.381-3.548l-6.928-11.17c-2.183-3.521-1.1-8.144 2.42-10.327 3.52-2.181 8.144-1.1 10.327 2.421l6.928 11.17c2.183 3.52 1.1 8.143-2.42 10.327-1.231.763-2.597 1.127-3.946 1.127z"/></g><path d="m256 250.623c-8.669 0-16.911-3.754-22.616-10.3-2.721-3.123-2.396-7.86.727-10.582s7.86-2.395 10.582.727c2.855 3.276 6.976 5.155 11.307 5.155s8.452-1.879 11.307-5.155c2.721-3.123 7.46-3.448 10.582-.727 3.123 2.722 3.448 7.459.727 10.582-5.705 6.546-13.948 10.3-22.616 10.3z" fill="#4e5660"/></g></g></svg>