<svg id="Capa_1" enable-background="new 0 0 512 512" height="512" viewBox="0 0 512 512" width="512" xmlns="http://www.w3.org/2000/svg"><g><path d="m149.189 185.968c9.72-68.027-46.38-123.205-114.988-114.739-14.543 22.695-6.278 51.88 18.648 76.806 33.894 33.894 79.787 54.098 103.826 32.999z" fill="#f2bcd5"/><path d="m149.189 185.968c5.085-35.59-7.853-67.657-31.165-88.939-22.578 16.367-41.684 36.557-55.949 59.632 32.569 28.486 72.614 43.579 94.544 24.411z" fill="#ea9cd0"/><path d="m138.152 74.106c-34.675-34.674-73.339-35.166-96.883-11.621-2.78 2.779-5.121 5.706-7.068 8.744 26.648.588 51.916 12.898 72.563 34.503 34.064 6.953 42.425 51.098 42.425 80.236 3.316-1.597 6.381-3.714 9.115-6.448 23.544-23.544 14.522-70.74-20.152-105.414z" fill="#6171a3"/><path d="m298.29 98.142c0-21.999 10.723-53.802 18.056-73 3.196-8.368-1.69-17.65-10.403-19.729-11.464-2.735-27.037-5.413-46.662-5.413s-35.198 2.678-46.661 5.413c-8.713 2.079-13.6 11.361-10.403 19.729 7.332 19.198 18.055 51.001 18.055 73z" fill="#6171a3"/><path d="m149.189 185.968c3.316-1.597 6.381-3.714 9.115-6.448 22.107-22.107 15.499-65.063-14.093-98.929-13.421 7.215-25.967 15.651-37.447 25.142 18.783 19.654 33.742 47.001 42.425 80.235z" fill="#475a99"/><path d="m369.373 185.968c-9.719-68.027 46.38-123.205 114.988-114.739 14.543 22.695 6.278 51.88-18.648 76.806-33.894 33.894-79.787 54.098-103.826 32.999z" fill="#f2bcd5"/><path d="m369.373 185.968c-5.085-35.59 7.853-67.657 31.165-88.939 22.578 16.367 41.684 36.557 55.949 59.632-32.57 28.486-72.614 43.579-94.544 24.411z" fill="#ea9cd0"/><path d="m380.41 74.106c34.674-34.675 73.338-35.166 96.883-11.621 2.78 2.779 5.121 5.706 7.068 8.744-26.648.588-51.916 12.898-72.563 34.503-34.064 6.953-42.425 51.098-42.425 80.236-3.316-1.597-6.381-3.714-9.115-6.448-23.544-23.544-14.522-70.74 20.152-105.414z" fill="#6171a3"/><path d="m369.373 185.968c-3.316-1.597-6.381-3.714-9.115-6.448-22.107-22.107-15.499-65.063 14.093-98.929 13.421 7.215 25.967 15.651 37.447 25.142-18.783 19.654-33.742 47.001-42.425 80.235z" fill="#475a99"/><path d="m365.595 512c10.632 0 18.685-9.536 16.993-20.033-9.585-59.46-61.143-104.872-123.307-104.872s-113.721 45.413-123.307 104.872c-1.692 10.497 6.361 20.033 16.993 20.033z" fill="#efedff"/><path d="m167.213 427.602c28.288 9.415 59.507 14.375 92.068 14.375 32.56 0 63.78-4.96 92.068-14.375-22.833-24.894-55.625-40.506-92.068-40.506s-69.235 15.611-92.068 40.506z" fill="#d4d4ff"/><path d="m352.235 428.568c-13.311 10.59-30.245 25.141-50.145 33.255-6.598 2.69-5.809 12.37 1.135 13.97 21.205 4.886 49.805 5.634 75.526-.34-5.375-17.594-14.528-33.538-26.516-46.885z" fill="#6171a3"/><path d="m152.241 470.878c-1.247 0-2.511-.311-3.675-.967-13.889-7.826-35.912-17.154-61.958-17.154-4.142 0-7.5-3.357-7.5-7.5s3.358-7.5 7.5-7.5c29.299 0 53.869 10.379 69.321 19.086 3.609 2.033 4.886 6.607 2.853 10.216-1.378 2.445-3.922 3.819-6.541 3.819z" fill="#d4d4ff"/><path d="m26.72 437.913c-8.08 4.434-8.399 15.882-.524 20.671 12.769 7.765 27.034 12.942 40.54 12.942 13.251 0 23.992-11.761 23.992-26.269s-10.742-26.269-23.992-26.269c-16.456 0-24.531 10.427-40.016 18.925z" fill="#6171a3"/><path d="m166.327 428.568c13.311 10.59 30.245 25.141 50.145 33.255 6.598 2.69 5.809 12.37-1.135 13.97-21.205 4.886-49.805 5.634-75.526-.34 5.375-17.594 14.528-33.538 26.516-46.885z" fill="#6171a3"/><g><path d="m455.643 255.47c0 95.55-87.914 155.602-196.362 155.602s-196.362-60.052-196.362-155.602 87.914-173.009 196.362-173.009 196.362 77.459 196.362 173.009z" fill="#efedff"/><g fill="#6171a3"><path d="m67.897 293.411c7.099 25.969 21.508 48.309 41.3 66.337 5.742-28.208 28.044-54.68 44.013-65.165v-26.9c-22.726-.555-59.771 12.779-85.313 25.728z"/><path d="m450.665 293.411c-7.099 25.969-21.508 48.309-41.3 66.337-5.742-28.208-28.044-54.68-44.013-65.165v-26.9c22.726-.555 59.77 12.779 85.313 25.728z"/></g></g><path d="m405.406 274.597c0-56.612-45.008-102.505-146.125-102.505s-146.125 45.893-146.125 102.505 45.008 91.596 146.125 91.596 146.125-34.984 146.125-91.596z" fill="#f2d1a5"/><path d="m322.467 174.817c0-22.037-28.29-49.395-63.187-49.395s-63.187 27.358-63.187 49.395 28.29 33.855 63.187 33.855 63.187-11.818 63.187-33.855z" fill="#6171a3"/><g fill="#4e5660"><path d="m162.843 164.33c-4.142 0-7.5-3.357-7.5-7.5v-12.362c0-4.143 3.358-7.5 7.5-7.5s7.5 3.357 7.5 7.5v12.362c0 4.143-3.358 7.5-7.5 7.5z"/><path d="m355.719 164.33c-4.142 0-7.5-3.357-7.5-7.5v-12.362c0-4.143 3.358-7.5 7.5-7.5s7.5 3.357 7.5 7.5v12.362c0 4.143-3.358 7.5-7.5 7.5z"/><path d="m259.281 181.342c-8.668 0-16.91-3.754-22.615-10.299-2.722-3.122-2.397-7.86.726-10.581 3.122-2.723 7.86-2.398 10.581.726 2.855 3.275 6.977 5.154 11.307 5.154 4.331 0 8.452-1.879 11.308-5.155 2.721-3.121 7.46-3.447 10.581-.725 3.123 2.722 3.447 7.459.725 10.582-5.704 6.544-13.946 10.298-22.613 10.298z"/></g><g><g><path d="m207.507 285.94c0 13.315-13.554 24.109-30.274 24.109s-30.274-10.794-30.274-24.109 13.554-24.109 30.274-24.109c16.719 0 30.274 10.794 30.274 24.109z" fill="#eda1ab"/><path d="m311.055 285.94c0 13.315 13.554 24.109 30.274 24.109s30.274-10.794 30.274-24.109-13.554-24.109-30.274-24.109-30.274 10.794-30.274 24.109z" fill="#eda1ab"/><path d="m283.69 267.416c0-15.085-10.928-16.502-24.409-16.502s-24.409 1.417-24.409 16.502 10.928 27.313 24.409 27.313c13.48 0 24.409-12.229 24.409-27.313z" fill="#4e5660"/></g><g fill="#4e5660"><path d="m182.294 264.656c-4.142 0-7.5-3.358-7.5-7.5v-12.362c0-4.143 3.358-7.5 7.5-7.5s7.5 3.357 7.5 7.5v12.362c0 4.143-3.358 7.5-7.5 7.5z"/><path d="m336.269 264.656c-4.142 0-7.5-3.358-7.5-7.5v-12.362c0-4.143 3.358-7.5 7.5-7.5s7.5 3.357 7.5 7.5v12.362c0 4.143-3.358 7.5-7.5 7.5z"/></g></g></g></svg>