<svg id="Capa_1" enable-background="new 0 0 512 512" height="512" viewBox="0 0 512 512" width="512" xmlns="http://www.w3.org/2000/svg"><g><ellipse cx="53.553" cy="260.699" fill="#ffbf9e" rx="51.434" ry="46.06"/><ellipse cx="458.447" cy="260.699" fill="#ffbf9e" rx="51.434" ry="46.06"/><path d="m381.95 491.538c-3.683-22.844-13.432-43.657-27.541-60.737-26.769-3.518-46.635-13.064-58.285-39.943-12.617-4.177-26.106-6.441-40.124-6.441s-27.506 2.264-40.123 6.441c-11.65 26.878-31.516 36.424-58.286 39.943-14.109 17.079-23.858 37.892-27.541 60.737-1.728 10.721 6.497 20.462 17.357 20.462h34.038l25.528-11.961 25.527 11.961h47l25.527-11.961 25.528 11.961h34.038c10.86 0 19.085-9.741 17.357-20.462z" fill="#6171a3"/><path d="m256 439.814c18.809 0 37.176-1.628 54.811-4.781v-38.27c-16.605-7.914-35.19-12.345-54.811-12.345s-38.206 4.431-54.811 12.345v38.27c17.635 3.153 36.002 4.781 54.811 4.781z" fill="#475a99"/><path d="m227.53 438.554c-16.88-18.466-16.312-34.935-11.653-47.695-23.038 7.626-43.166 21.639-58.286 39.943 14.002 20.81 23.854 53.487 23.854 81.199h51.055c0-25.654-1.687-51.151-4.97-73.447z" fill="#f5ea72"/><path d="m296.123 390.859c4.659 12.76 5.227 29.229-11.653 47.695-3.284 22.296-4.97 47.793-4.97 73.446h51.055c0-27.711 9.853-60.388 23.854-81.199-15.12-18.304-35.248-32.316-58.286-39.942z" fill="#f5ea72"/><path d="m349.538 425.265c-14.463-15.59-32.764-27.57-53.415-34.406-4.989 12.401-8.887 28.914-11.653 47.695 22.801-2.038 44.68-6.53 65.068-13.289z" fill="#ebca5f"/><path d="m227.53 438.554c-2.766-18.781-6.665-35.294-11.653-47.695-20.651 6.836-38.951 18.816-53.415 34.406 20.388 6.759 42.267 11.251 65.068 13.289z" fill="#ebca5f"/><path d="m456.571 249.971c0 97.598-89.799 158.937-200.571 158.937s-200.571-61.338-200.571-158.937 89.798-176.717 200.571-176.717 200.571 79.119 200.571 176.717z" fill="#ffd4be"/><path d="m137.33 97.412c-24.826 0-59.472 40.285-64.824 40.285-27.734 0-50.217 23.051-50.217 51.486s22.483 51.486 50.217 51.486c21.469 0 39.78-13.816 46.96-33.247 1.833-4.96 6.763-8.01 12.011-7.365 29.087 3.576 56.07-19.72 56.07-51.159 0-28.435-22.483-51.486-50.217-51.486z" fill="#d2996f"/><path d="m374.67 97.412c24.826 0 59.472 40.285 64.824 40.285 27.734 0 50.217 23.051 50.217 51.486s-22.483 51.486-50.217 51.486c-21.469 0-39.78-13.816-46.96-33.247-1.833-4.96-6.763-8.01-12.011-7.365-29.087 3.576-56.07-19.72-56.07-51.159 0-28.435 22.483-51.486 50.217-51.486z" fill="#d2996f"/><path d="m256 0c126.838 0 198.721 57.972 223.196 127.483 5.055 14.355-7.734 28.599-22.498 24.908-55.742-13.938-135.634-16.709-200.698-16.709s-144.956 2.771-200.698 16.709c-14.764 3.692-27.552-10.553-22.498-24.908 24.476-69.511 96.358-127.483 223.196-127.483z" fill="#f5ea72"/><g fill="#ebca5f"><path d="m256 115.626c-4.142 0-7.5-3.357-7.5-7.5v-63.835c0-4.143 3.358-7.5 7.5-7.5 4.143 0 7.5 3.357 7.5 7.5v63.835c0 4.143-3.357 7.5-7.5 7.5z"/><path d="m192.691 71.947c-4.142 0-7.5-3.358-7.5-7.5v-14.345c0-4.143 3.358-7.5 7.5-7.5s7.5 3.357 7.5 7.5v14.346c0 4.142-3.358 7.499-7.5 7.499z"/><path d="m319.31 71.947c-4.143 0-7.5-3.358-7.5-7.5v-14.345c0-4.143 3.357-7.5 7.5-7.5s7.5 3.357 7.5 7.5v14.346c0 4.142-3.358 7.499-7.5 7.499z"/></g><path d="m256 172.806c48.509 0 90.005-19.702 102.506-34.086-16.157-20.952-62.42-41.738-102.506-41.738s-86.349 20.786-102.506 41.738c12.502 14.384 53.997 34.086 102.506 34.086z" fill="#ebca5f"/><g><g><path d="m202.172 281.948c.007 13.843-14.079 25.072-31.463 25.081-17.383.009-31.481-11.206-31.488-25.049s14.079-25.073 31.463-25.081c17.383-.01 31.481 11.205 31.488 25.049z" fill="#eda1ab"/><path d="m309.828 281.893c.007 13.843 14.105 25.058 31.488 25.049s31.47-11.238 31.463-25.081-14.105-25.059-31.488-25.05c-17.383.01-31.47 11.239-31.463 25.082z" fill="#eda1ab"/><path d="m286.848 270.573c-.01-19.068-13.824-20.852-30.864-20.844s-30.853 1.807-30.843 20.875 13.831 34.518 30.871 34.509c17.04-.008 30.845-15.472 30.836-34.54z" fill="#4e5660"/></g><g fill="#4e5660"><path d="m174.045 262.185c-4.141 0-7.498-3.355-7.5-7.496-.003-6.005 2.333-11.651 6.577-15.9s9.889-6.59 15.894-6.593h.014c6 0 11.641 2.335 15.886 6.576 4.248 4.244 6.589 9.889 6.593 15.894.002 4.142-3.354 7.502-7.496 7.504-.001 0-.003 0-.004 0-4.141 0-7.498-3.355-7.5-7.496-.001-1.999-.78-3.877-2.194-5.289-1.413-1.411-3.29-2.188-5.287-2.188-.001 0-.003 0-.004 0-1.999.001-3.877.78-5.29 2.193-1.412 1.414-2.189 3.293-2.188 5.291.002 4.143-3.355 7.502-7.497 7.504-.002 0-.003 0-.004 0z"/><path d="m307.965 262.118c-4.141 0-7.497-3.354-7.5-7.495-.004-6.006 2.332-11.652 6.576-15.9 4.244-4.249 9.889-6.59 15.894-6.593h.014c6 0 11.642 2.335 15.887 6.576 4.249 4.244 6.59 9.889 6.593 15.893.002 4.143-3.354 7.502-7.496 7.504-.001 0-.003 0-.004 0-4.141 0-7.498-3.355-7.5-7.496-.001-1.999-.78-3.877-2.193-5.289-1.413-1.411-3.29-2.189-5.287-2.189-.001 0-.003 0-.004 0-2 .001-3.878.78-5.29 2.193-1.413 1.414-2.189 3.293-2.189 5.29.003 4.143-3.354 7.503-7.495 7.505-.003.001-.005.001-.006.001z"/></g></g></g></svg>