<svg id="Capa_1" enable-background="new 0 0 512 512" height="512" viewBox="0 0 512 512" width="512" xmlns="http://www.w3.org/2000/svg"><g><path d="m393.929 474.519c-10.722-66.51-68.394-117.308-137.929-117.308-69.536 0-127.207 50.798-137.929 117.308-1.893 11.741 7.115 22.408 19.008 22.408h68.101l50.82-11.261 50.82 11.261h68.101c11.892 0 20.9-10.667 19.008-22.408z" fill="#5ec783"/><path d="m256 414.936c40.9 0 76.952-1.999 108.499-6.031-25.617-31.537-64.702-51.694-108.499-51.694s-82.882 20.156-108.499 51.694c31.547 4.032 67.599 6.031 108.499 6.031z" fill="#3ba560"/><path d="m479.705 204.821c-2.711-2.385-4.301-5.78-4.575-9.381-7.678-100.743-102.842-180.367-219.13-180.367s-211.451 79.624-219.13 180.367c-.274 3.6-1.865 6.995-4.575 9.381-20.568 18.099-32.295 40.418-32.295 66.937 0 68.943 68.501 112.273 256 112.273s256-43.329 256-112.273c0-26.519-11.727-48.838-32.295-66.937z" fill="#5ec783"/><g fill="#3ba560"><path d="m235.809 67.905c-1.919 0-3.839-.732-5.304-2.196l-4.394-4.394c-2.929-2.93-2.929-7.678 0-10.607 2.93-2.928 7.678-2.928 10.607 0l4.394 4.394c2.929 2.93 2.929 7.678 0 10.607-1.464 1.464-3.385 2.196-5.303 2.196z"/><path d="m276.191 67.905c-1.919 0-3.839-.732-5.304-2.196-2.929-2.93-2.929-7.678 0-10.607l4.394-4.394c2.93-2.928 7.678-2.928 10.607 0 2.929 2.93 2.929 7.678 0 10.607l-4.394 4.394c-1.464 1.464-3.384 2.196-5.303 2.196z"/></g><path d="m411.683 168.981c-40.657-29.478-88.157-54.061-155.683-54.061s-115.026 24.584-155.683 54.062c-6.619 13.117-9.901 27.509-9.901 42.61 0 61.152 53.725 110.726 165.584 110.726s165.584-49.574 165.584-110.726c0-15.102-3.283-29.494-9.901-42.611z" fill="#f2d1a5"/><path d="m256 100.865c-84.236 0-135.499 28.116-155.683 68.116 40.529 4.978 111.921-5.606 150.176-32.645 3.311-2.34 7.702-2.34 11.012 0 38.255 27.039 109.647 37.622 150.176 32.645-20.182-40-71.445-68.116-155.681-68.116z" fill="#d2996f"/><circle cx="137.002" cy="76.161" fill="#efedff" r="54.801"/><path d="m306.82 496.927c0-29.118-22.753-52.722-50.82-52.722s-50.82 23.605-50.82 52.722z" fill="#f5ea72"/><circle cx="374.998" cy="76.161" fill="#efedff" r="54.801"/><g fill="#4e5660"><path d="m151.183 86.545c-4.143 0-7.5-3.357-7.5-7.5 0-3.684-2.997-6.681-6.681-6.681s-6.681 2.997-6.681 6.681c0 4.143-3.357 7.5-7.5 7.5s-7.5-3.357-7.5-7.5c0-11.955 9.726-21.681 21.681-21.681s21.681 9.725 21.681 21.681c0 4.143-3.358 7.5-7.5 7.5z"/><path d="m389.179 86.545c-4.143 0-7.5-3.357-7.5-7.5 0-3.684-2.997-6.681-6.681-6.681-3.683 0-6.681 2.997-6.681 6.681 0 4.143-3.357 7.5-7.5 7.5s-7.5-3.357-7.5-7.5c0-11.955 9.726-21.681 21.681-21.681s21.681 9.725 21.681 21.681c0 4.143-3.358 7.5-7.5 7.5z"/></g><g><g><ellipse cx="173.951" cy="240.684" fill="#eda1ab" rx="30.274" ry="24.109"/><ellipse cx="338.049" cy="240.684" fill="#eda1ab" rx="30.274" ry="24.109"/><path d="m280.409 222.16c0-15.085-10.928-16.502-24.409-16.502-13.48 0-24.409 1.417-24.409 16.502s10.928 27.313 24.409 27.313c13.48 0 24.409-12.228 24.409-27.313z" fill="#4e5660"/></g><g fill="#4e5660"><path d="m179.013 219.401c-4.143 0-7.5-3.357-7.5-7.5v-12.362c0-4.143 3.357-7.5 7.5-7.5s7.5 3.357 7.5 7.5v12.362c0 4.143-3.358 7.5-7.5 7.5z"/><path d="m332.987 219.401c-4.143 0-7.5-3.357-7.5-7.5v-12.362c0-4.143 3.357-7.5 7.5-7.5s7.5 3.357 7.5 7.5v12.362c0 4.143-3.357 7.5-7.5 7.5z"/></g></g></g></svg>