<svg id="Capa_1" enable-background="new 0 0 512 512" height="512" viewBox="0 0 512 512" width="512" xmlns="http://www.w3.org/2000/svg"><g><ellipse cx="66.24" cy="276.448" fill="#f2bb88" rx="48.211" ry="43.174"/><ellipse cx="445.76" cy="276.448" fill="#f2bb88" rx="48.211" ry="43.174"/><path d="m352.136 440.873c-21.787-29.399-56.734-48.46-96.136-48.46-59.517 0-108.879 43.479-118.057 100.407-1.62 10.049 6.09 19.18 16.269 19.18h135.562c28.922-18.379 49.043-41.385 62.362-71.127z" fill="#8cd6fe"/><path d="m352.136 440.873c-21.787-29.399-56.734-48.46-96.136-48.46-35.412 0-67.227 15.393-89.124 39.852 28.471 9.528 59.068 14.007 89.414 14.007-.509 4.857-.767 9.768-.745 14.721.093 21.54 1.471 37.689 3.08 51.007h31.149c28.922-18.379 49.043-41.385 62.362-71.127z" fill="#5fc5fc"/><path d="m444.001 266.393c0 91.482-84.171 148.977-188.001 148.977s-188.001-57.496-188.001-148.977 84.171-165.643 188.001-165.643 188.001 74.161 188.001 165.643z" fill="#f2d1a5"/><g><g><ellipse cx="173.951" cy="300.235" fill="#eda1ab" rx="30.274" ry="24.109"/><ellipse cx="338.049" cy="300.235" fill="#eda1ab" rx="30.274" ry="24.109"/><path d="m280.409 281.711c0-15.085-10.928-16.502-24.408-16.502-13.481 0-24.409 1.417-24.409 16.502s10.928 27.313 24.409 27.313c13.479 0 24.408-12.228 24.408-27.313z" fill="#4e5660"/></g><g fill="#4e5660"><path d="m179.013 278.952c-4.143 0-7.5-3.358-7.5-7.5v-12.362c0-4.142 3.357-7.5 7.5-7.5s7.5 3.358 7.5 7.5v12.362c0 4.142-3.358 7.5-7.5 7.5z"/><path d="m332.987 278.952c-4.143 0-7.5-3.358-7.5-7.5v-12.362c0-4.142 3.357-7.5 7.5-7.5s7.5 3.358 7.5 7.5v12.362c0 4.142-3.357 7.5-7.5 7.5z"/></g></g><path d="m256 72.789c-246.654 0-239.428 200.049-187.338 207.449 36.825 5.232 62.201-33.014 72.472-64.277 1.875-5.708 7.584-9.203 13.546-8.461 31.403 3.909 74.372-4.179 96.112-14.038 3.316-1.504 7.1-1.504 10.416 0 21.74 9.859 64.709 17.947 96.112 14.038 5.962-.742 11.671 2.753 13.546 8.461 10.271 31.263 35.647 69.509 72.472 64.277 52.09-7.4 59.316-207.449-187.338-207.449z" fill="#6171a3"/><path d="m265.265 107.919c-13.042 0-23.615-10.572-23.615-23.615 0-31.128 16.783-60.37 46.046-80.227 10.795-7.326 25.477-4.511 32.801 6.281 7.323 10.792 4.511 25.477-6.281 32.8-16.102 10.926-25.336 25.923-25.336 41.146 0 13.043-10.573 23.615-23.615 23.615z" fill="#d5364c"/><path d="m378.586 80.735c-25.583-25.583-56.36-33.748-122.586-33.748-17.745 0-32.925.594-46.162 1.944-52.725 27.68-30.825 94.215 21.925 92.075 6.863-1.706 14.729-2.798 24.237-2.798 44.036 0 52.971 23.339 89.112 23.339 26.144 0 47.339-21.194 47.339-47.339 0-13.072-5.299-24.907-13.865-33.473z" fill="#de5c6e"/><path d="m231.763 141.006c-41.583-7.966-42.403-67.963-21.925-92.075-36.164 3.689-57.696 13.075-76.424 31.804-8.567 8.567-13.865 20.401-13.865 33.474 0 26.145 21.194 47.339 47.339 47.339 28.337-.001 39.954-14.346 64.875-20.542z" fill="#d5364c"/><path d="m452.647 512c11.91 0 22.832-6.985 27.475-17.952 4.081-9.639 6.587-21.123 6.587-35.283 0-55.053-44.428-99.728-99.386-100.129-55.922-.408-101.113 46.3-100.872 102.223.081 18.867 1.263 35.882 3.324 51.14h162.872z" fill="#d2996f"/><circle cx="340.567" cy="457.479" fill="#f5ea72" r="19.163"/><circle cx="397.982" cy="412.606" fill="#4dc176" r="19.163"/></g></svg>