<svg id="Capa_1" enable-background="new 0 0 512 512" height="512" viewBox="0 0 512 512" width="512" xmlns="http://www.w3.org/2000/svg"><g><path d="m153.138 355.889c-46.934-.686-94.786 39.347-114.143 77.657-6.732 13.324 3.993 28.968 18.826 27.284 36.463-4.14 66.181 3.457 98.394 22.754h88.463v-127.695z" fill="#5fc5fc"/><path d="m396.703 490.514c-4.39-27.234-16.995-51.715-35.184-70.835-29.428-4.709-62.761-8.292-97.071-8.292s-67.643 3.583-97.071 8.292c-18.189 19.119-30.794 43.6-35.184 70.834-1.815 11.258 6.823 21.487 18.226 21.487h59.51l54.519-16.25 54.519 16.25h59.51c11.403 0 20.041-10.229 18.226-21.486z" fill="#8cd6fe"/><path d="m167.377 419.68c29.854 9.813 62.761 14.973 97.071 14.973s67.218-5.161 97.071-14.973c-24.405-25.653-58.868-41.648-97.071-41.648-38.203-.001-72.666 15.994-97.071 41.648z" fill="#5fc5fc"/><path d="m475.06 236.854c0 102.484-94.294 166.894-210.612 166.894s-210.612-64.41-210.612-166.894 116.492-236.854 210.612-236.854 210.612 134.37 210.612 236.854z" fill="#8cd6fe"/><path d="m318.967 512c0-36.431-24.409-57.875-54.519-57.875s-54.519 21.444-54.519 57.875z" fill="#efedff"/><path d="m379.134 240.598c0-96.774-66.931-175.887-114.686-175.887-47.756 0-114.687 79.113-114.687 175.887z" fill="#efedff"/><path d="m408.918 253.94c0-53.996-46.866-97.769-144.47-97.769s-144.47 43.773-144.47 97.769 46.866 98.799 144.47 98.799 144.47-44.803 144.47-98.799z" fill="#ffd4be"/><g fill="#4e5660"><path d="m158.802 109.864c-4.143 0-7.5-3.358-7.5-7.5v-12.362c0-4.143 3.357-7.5 7.5-7.5 4.142 0 7.5 3.357 7.5 7.5v12.362c0 4.143-3.358 7.5-7.5 7.5z"/><path d="m370.094 109.864c-4.143 0-7.5-3.358-7.5-7.5v-12.362c0-4.143 3.357-7.5 7.5-7.5 4.142 0 7.5 3.357 7.5 7.5v12.362c0 4.143-3.358 7.5-7.5 7.5z"/><path d="m264.448 118.226c-8.67 0-16.913-3.754-22.616-10.3-2.721-3.123-2.395-7.86.729-10.582 3.123-2.72 7.859-2.395 10.582.729 2.853 3.275 6.974 5.153 11.306 5.153 4.331 0 8.452-1.879 11.307-5.154 2.723-3.123 7.457-3.448 10.582-.727 3.122 2.722 3.448 7.459.727 10.582-5.706 6.545-13.948 10.299-22.617 10.299z"/></g><g fill="#5fc5fc"><g><path d="m431.166 191.46h-5.542c-4.143 0-7.5-3.358-7.5-7.5 0-4.143 3.357-7.5 7.5-7.5h5.542c4.143 0 7.5 3.357 7.5 7.5 0 4.142-3.357 7.5-7.5 7.5z"/><path d="m441.129 224.075h-4.813c-4.143 0-7.5-3.357-7.5-7.5s3.357-7.5 7.5-7.5h4.813c4.143 0 7.5 3.357 7.5 7.5s-3.357 7.5-7.5 7.5z"/></g><g><path d="m103.272 191.46h-5.541c-4.143 0-7.5-3.358-7.5-7.5 0-4.143 3.357-7.5 7.5-7.5h5.541c4.143 0 7.5 3.357 7.5 7.5 0 4.142-3.358 7.5-7.5 7.5z"/><path d="m92.579 224.075h-4.812c-4.143 0-7.5-3.357-7.5-7.5s3.357-7.5 7.5-7.5h4.812c4.143 0 7.5 3.357 7.5 7.5s-3.357 7.5-7.5 7.5z"/></g></g><g><g><ellipse cx="182.4" cy="264.518" fill="#eda1ab" rx="30.274" ry="24.109"/><ellipse cx="346.497" cy="264.518" fill="#eda1ab" rx="30.274" ry="24.109"/><path d="m288.857 245.994c0-15.085-10.928-16.502-24.409-16.502-13.48 0-24.409 1.417-24.409 16.502s10.928 27.313 24.409 27.313 24.409-12.228 24.409-27.313z" fill="#4e5660"/></g><g fill="#4e5660"><path d="m187.461 243.235c-4.143 0-7.5-3.357-7.5-7.5v-12.362c0-4.143 3.357-7.5 7.5-7.5s7.5 3.357 7.5 7.5v12.362c0 4.143-3.357 7.5-7.5 7.5z"/><path d="m341.436 243.235c-4.142 0-7.5-3.357-7.5-7.5v-12.362c0-4.143 3.358-7.5 7.5-7.5 4.143 0 7.5 3.357 7.5 7.5v12.362c0 4.143-3.358 7.5-7.5 7.5z"/></g></g></g></svg>