<svg id="Capa_1" enable-background="new 0 0 512 512" height="512" viewBox="0 0 512 512" width="512" xmlns="http://www.w3.org/2000/svg"><g><path d="m82.505 385.285c-14.641 0-26.51 11.198-26.51 25.012s11.869 25.012 26.51 25.012h13.666c-10.935 3.084-18.907 12.643-18.907 23.962 0 13.814 11.869 25.012 26.51 25.012h109.317v-98.998z" fill="#d4d4ff"/><path d="m140.467 442.809h-11.953c-4.142 0-7.5-3.358-7.5-7.5s3.358-7.5 7.5-7.5h11.953c4.142 0 7.5 3.358 7.5 7.5s-3.358 7.5-7.5 7.5z" fill="#9ea2e3"/><path d="m429.496 385.285c14.641 0 26.51 11.198 26.51 25.012s-11.869 25.012-26.51 25.012h-13.666c10.935 3.084 18.907 12.643 18.907 23.962 0 13.814-11.869 25.012-26.51 25.012h-109.319v-98.998z" fill="#d4d4ff"/><path d="m383.486 442.809h-11.953c-4.142 0-7.5-3.358-7.5-7.5s3.358-7.5 7.5-7.5h11.953c4.142 0 7.5 3.358 7.5 7.5s-3.358 7.5-7.5 7.5z" fill="#9ea2e3"/><path d="m256 132.467c-4.142 0-7.5-3.358-7.5-7.5v-49.47c0-4.142 3.358-7.5 7.5-7.5s7.5 3.358 7.5 7.5v49.47c0 4.142-3.358 7.5-7.5 7.5z" fill="#ebca5f"/><path d="m256 81.948c-25.462 0-49.509-3.642-67.711-10.255-26.386-9.587-31.925-21.997-31.925-30.719 0-8.723 5.538-21.132 31.925-30.719 18.202-6.613 42.249-10.255 67.711-10.255s49.509 3.642 67.711 10.255c26.386 9.586 31.925 21.996 31.925 30.719s-5.539 21.132-31.925 30.719c-18.202 6.613-42.249 10.255-67.711 10.255zm0-66.948c-51.665 0-84.636 15.383-84.636 25.974 0 10.59 32.971 25.974 84.636 25.974s84.636-15.384 84.636-25.974c0-10.591-32.971-25.974-84.636-25.974z" fill="#f5ea72"/><ellipse cx="87.339" cy="302.638" fill="#b8866b" rx="42.85" ry="38.373"/><ellipse cx="424.661" cy="302.638" fill="#b8866b" rx="42.85" ry="38.373"/><path d="m360.93 494.953c-3.126-19.392-11.513-37.015-23.629-51.393-27.257-2.92-52.519-8.251-81.301-8.251s-54.044 5.331-81.301 8.251c-12.116 14.378-20.503 32.001-23.629 51.393-1.44 8.932 5.413 17.047 14.46 17.047h180.94c9.047 0 15.9-8.115 14.46-17.047z" fill="#8cd6fe"/><path d="m256 456.566c28.782 0 56.371-4.493 81.301-13.006-19.497-23.138-48.675-37.85-81.301-37.85s-61.803 14.712-81.301 37.849c24.93 8.514 52.519 13.007 81.301 13.007z" fill="#5fc5fc"/><path d="m423.098 293.701c0 81.31-74.812 132.412-167.098 132.412s-167.098-51.102-167.098-132.412 74.812-147.225 167.098-147.225 167.098 65.915 167.098 147.225z" fill="#cc9e83"/><path d="m259.437 198.272c28.49 22.516 74.309 25.189 101.009 18.913 4.137-.973 7.957 2.618 7.231 6.805-8.107 46.741 12.997 71.743 38.673 71.743 25.358 0 43.565-14.496 43.565-37.318 0-14.225-6.47-26.937-16.627-35.359-2.945-2.442-4.206-6.35-3.115-10.017 11.117-37.374-23.047-74.441-65.696-69.513-3.928.454-7.744-1.545-9.574-5.05-10.229-19.589-32.031-33.122-57.292-33.122-13.534 0-26.071 3.892-36.373 10.513-3.176 2.041-7.301 2.041-10.477 0-10.302-6.621-22.839-10.513-36.373-10.513-25.26 0-47.062 13.533-57.292 33.122-1.83 3.505-5.646 5.504-9.574 5.05-42.649-4.928-76.813 32.139-65.696 69.513 1.091 3.667-.17 7.575-3.115 10.017-10.157 8.421-16.627 21.134-16.627 35.359 0 22.822 18.207 37.318 43.565 37.318 25.676 0 46.78-25.002 38.673-71.743-.726-4.187 3.094-7.778 7.231-6.805 26.7 6.276 72.52 3.603 101.009-18.913 2.026-1.601 4.85-1.601 6.875 0z" fill="#6171a3"/><g><g fill="#eda1ab"><ellipse cx="176.441" cy="321.646" rx="29.356" ry="23.378"/><ellipse cx="335.559" cy="321.646" rx="29.356" ry="23.378"/></g><g fill="#4e5660"><path d="m207.522 303.707c-4.142 0-7.5-3.358-7.5-7.5 0-3.569-2.904-6.473-6.473-6.473s-6.473 2.904-6.473 6.473c0 4.142-3.358 7.5-7.5 7.5s-7.5-3.358-7.5-7.5c0-11.84 9.633-21.473 21.473-21.473s21.473 9.633 21.473 21.473c0 4.142-3.358 7.5-7.5 7.5z"/><path d="m332.424 303.707c-4.142 0-7.5-3.358-7.5-7.5 0-3.569-2.904-6.473-6.473-6.473s-6.473 2.904-6.473 6.473c0 4.142-3.358 7.5-7.5 7.5s-7.5-3.358-7.5-7.5c0-11.84 9.633-21.473 21.473-21.473s21.473 9.633 21.473 21.473c0 4.142-3.358 7.5-7.5 7.5z"/><path d="m256 326.791c-7.848 0-15.311-3.399-20.476-9.325-2.722-3.123-2.396-7.86.726-10.582s7.86-2.397 10.581.726c2.316 2.657 5.657 4.18 9.168 4.18s6.852-1.523 9.167-4.18c2.721-3.124 7.459-3.448 10.582-.727s3.448 7.459.727 10.581c-5.164 5.928-12.627 9.327-20.475 9.327z"/></g></g></g></svg>