<svg id="Capa_1" enable-background="new 0 0 512 512" height="512" viewBox="0 0 512 512" width="512" xmlns="http://www.w3.org/2000/svg"><g><path d="m467.835 278.786c0 36.892 20.644 89.153 38.43 115.243 6.228 9.136 2.838 21.723-7.26 26.226-14.973 6.677-33.764 11.356-45.248 12.78-4.642.576-8.665 3.317-11.172 7.266-12.84 20.231-44.864 36.897-89.703 36.897h-193.764c-44.839 0-76.863-16.666-89.703-36.897-2.506-3.949-6.53-6.69-11.172-7.266-11.484-1.424-30.275-6.103-45.248-12.78-10.099-4.503-13.489-17.09-7.26-26.226 17.787-26.09 38.43-78.35 38.43-115.243z" fill="#6171a3"/><path d="m448.707 434.624c-20.235-23.509-39.215-71.113-41.866-136.306h-301.682c-2.652 65.193-21.632 112.797-41.866 136.306 2.472 1.292 4.585 3.254 6.122 5.676 12.84 20.231 44.864 36.897 89.703 36.897h193.765c44.839 0 76.862-16.666 89.703-36.897 1.537-2.422 3.65-4.383 6.121-5.676z" fill="#475a99"/><path d="m386.434 465.628-.001.001c-37.486-16.909-92.704-25.449-130.434-34.98-37.729 9.531-92.948 18.07-130.434 34.98-2.76 7.763-4.849 15.844-6.192 24.174-1.875 11.63 7.048 22.197 18.828 22.197h235.596c11.78 0 20.703-10.567 18.828-22.197-1.341-8.331-3.431-16.412-6.191-24.175z" fill="#d2996f"/><path d="m386.434 465.629c-19.067-53.628-70.265-92.026-130.434-92.026s-111.368 38.398-130.434 92.026c35.572 15.703 97.124 1.58 130.434-21.106 33.06 22.519 94.698 36.881 130.434 21.106z" fill="#cb775a"/><path d="m256 476.91c-4.142 0-7.5-3.358-7.5-7.5v-69.241c0-4.142 3.358-7.5 7.5-7.5s7.5 3.358 7.5 7.5v69.241c0 4.142-3.358 7.5-7.5 7.5z" fill="#cb775a"/><path d="m344.232 356.025c32.978 17.84 57.919 70.588 28.617 81.794-31.287 11.965-103.975-7.996-116.849-37.649-12.874 29.653-85.562 49.615-116.849 37.649-29.302-11.206-4.361-63.954 28.617-81.794z" fill="#efedff"/><path d="m473.574 227.759c0 105.872-97.411 172.41-217.574 172.41s-217.574-66.538-217.574-172.41 97.411-191.697 217.574-191.697 217.574 85.826 217.574 191.697z" fill="#ffd4be"/><path d="m419.814 208.938v58.276c0 23.564 19.102 42.665 42.665 42.665 16.125 0 29.198-13.072 29.198-29.198v-96.957c0-77.629-34.502-183.724-235.677-183.724s-235.677 106.095-235.677 183.725v96.957c0 16.125 13.072 29.198 29.198 29.198 23.563 0 42.666-19.102 42.666-42.665v-58.276c0-36.791 29.825-66.616 66.616-66.616h194.397c36.789-.001 66.614 29.824 66.614 66.615z" fill="#d2996f"/><path d="m323.727 50.269c-24.09 0-43.059 6.196-57.243 15.997-6.338 4.379-14.63 4.379-20.968 0-14.184-9.801-33.153-15.997-57.243-15.997-61.784 0-89.924 40.728-89.924 78.571s28.14 78.571 89.924 78.571c24.09 0 43.059-6.196 57.243-15.997 6.338-4.379 14.63-4.379 20.968 0 14.184 9.801 33.152 15.997 57.243 15.997 61.784 0 89.924-40.729 89.924-78.571s-28.141-78.571-89.924-78.571z" fill="#6171a3"/><path d="m346.947 143.844 16.387-33.714c-6.892-9.312-19.903-15.467-39.607-15.467-31.079 0-45.53 15.302-45.53 34.177 0 16.164 10.609 29.698 33.171 33.255z" fill="#8cd6fe"/><path d="m210.079 97.863-40.743 20.09-14.875 35.527c7.5 5.901 18.679 9.536 33.812 9.536 31.079 0 45.53-15.302 45.53-34.177 0-13.712-7.636-25.532-23.724-30.976z" fill="#8cd6fe"/><path d="m188.273 94.662c-31.079 0-45.53 15.301-45.53 34.177 0 9.685 3.816 18.422 11.719 24.641l55.618-55.618c-6.058-2.049-13.306-3.2-21.807-3.2z" fill="#5fc5fc"/><path d="m323.727 163.017c31.079 0 45.53-15.302 45.53-34.177 0-6.909-1.945-13.334-5.924-18.71l-51.965 51.965c3.785.596 7.895.922 12.359.922z" fill="#5fc5fc"/><g><g><ellipse cx="173.951" cy="282.153" fill="#eda1ab" rx="30.274" ry="24.109"/><ellipse cx="338.049" cy="282.153" fill="#eda1ab" rx="30.274" ry="24.109"/><path d="m280.409 263.629c0-15.085-10.928-16.502-24.409-16.502-13.48 0-24.409 1.417-24.409 16.502s10.928 27.313 24.409 27.313c13.48 0 24.409-12.228 24.409-27.313z" fill="#4e5660"/></g><g fill="#4e5660"><path d="m179.013 260.87c-4.142 0-7.5-3.358-7.5-7.5v-12.362c0-4.142 3.358-7.5 7.5-7.5s7.5 3.358 7.5 7.5v12.362c0 4.142-3.358 7.5-7.5 7.5z"/><path d="m332.988 260.87c-4.142 0-7.5-3.358-7.5-7.5v-12.362c0-4.142 3.358-7.5 7.5-7.5s7.5 3.358 7.5 7.5v12.362c0 4.142-3.358 7.5-7.5 7.5z"/></g></g></g></svg>