<svg id="Capa_1" enable-background="new 0 0 512 512" height="512" viewBox="0 0 512 512" width="512" xmlns="http://www.w3.org/2000/svg"><g><g fill="#5ec783"><path d="m401.533 269.818c0 24.515 20.978 44.389 48.354 44.389s42.899-17.783 51.996-44.389c8.674-25.371 11.552-86.09-15.824-86.09s-84.526 61.575-84.526 86.09z"/><path d="m110.467 269.818c0 24.515-20.978 44.389-48.354 44.389s-42.899-17.783-51.996-44.389c-8.674-25.371-11.552-86.09 15.824-86.09s84.526 61.575 84.526 86.09z"/><path d="m360.652 512c10.465 0 18.393-9.388 16.727-19.72-9.435-58.53-60.187-103.232-121.379-103.232s-111.944 44.702-121.379 103.232c-1.665 10.332 6.262 19.72 16.727 19.72z"/></g><path d="m256 443.555c32.181 0 63.036-4.916 90.986-14.245-22.491-24.732-54.923-40.262-90.986-40.262s-68.495 15.53-90.986 40.262c27.95 9.329 58.804 14.245 90.986 14.245z" fill="#3cb767"/><path d="m449.293 259.48c0 94.057-86.54 153.169-193.293 153.169s-193.293-59.112-193.293-153.169 86.54-170.305 193.293-170.305 193.293 76.248 193.293 170.305z" fill="#cc9e83"/><path d="m249.605 62.176c-150.175-29.049-199.763 90.733-199.753 159.638.002 14.716 16.969 23.083 28.54 13.99 19.749-15.518 42.963-39.587 57.45-60.189-.283 13.974 1.013 24.037 2.553 31.527 1.445 7.029 8.856 11.104 15.585 8.611 26.791-9.925 70.77-33.208 95.39-61.201 3.512-3.993 9.747-3.993 13.259 0 24.62 27.993 68.599 51.276 95.39 61.201 6.729 2.493 14.14-1.582 15.585-8.611 1.54-7.49 2.836-17.552 2.553-31.527 14.486 20.602 37.701 44.671 57.45 60.189 11.571 9.093 28.538.726 28.54-13.99.01-68.905-49.578-188.687-199.752-159.638-4.22.816-8.57.816-12.79 0z" fill="#6171a3"/><path d="m305.731 183.956c4.02-7.728 6.305-16.502 6.305-25.815 0-30.948-25.088-56.036-56.036-56.036-4.38 0-8.637.519-12.728 1.469-23.23 28.767-10.945 93.357 62.459 80.382z" fill="#efedff"/><path d="m305.731 183.956c-71.34-3.885-72.768-60.731-62.46-80.382-24.813 5.766-43.308 27.999-43.308 54.567 0 30.948 25.088 56.036 56.036 56.036 21.636 0 40.394-12.269 49.732-30.221z" fill="#d4d4ff"/><path d="m256 136.938c-5.725 0-10.911 2.279-14.725 5.967-.631 19.232 7.213 30.37 27.556 32.086 5.079-3.873 8.372-9.97 8.372-16.852-.001-11.708-9.493-21.201-21.203-21.201z" fill="#5ec783"/><path d="m151.279 123.817c-.789 0-1.591-.126-2.38-.389-31.735-10.617-39.912-26.919-47.818-42.685-6.943-13.844-14.122-28.158-39.631-41.575-3.666-1.928-5.075-6.463-3.146-10.129s6.464-5.074 10.129-3.147c29.775 15.661 38.425 32.908 46.057 48.125 7.435 14.824 13.307 26.533 39.169 35.185 3.928 1.314 6.047 5.564 4.733 9.492-1.051 3.139-3.976 5.123-7.113 5.123z" fill="#f5ea72"/><ellipse cx="54.844" cy="30.072" fill="#5ec783" rx="34.004" ry="30.072"/><path d="m360.721 123.817c-3.137 0-6.061-1.984-7.111-5.123-1.314-3.928.805-8.178 4.732-9.492 25.862-8.652 31.734-20.36 39.169-35.185 7.632-15.217 16.282-32.464 46.058-48.125 3.669-1.929 8.201-.519 10.129 3.147 1.929 3.666.52 8.201-3.146 10.129-25.51 13.417-32.689 27.731-39.632 41.574-7.906 15.766-16.083 32.069-47.817 42.685-.791.264-1.593.39-2.382.39z" fill="#f5ea72"/><ellipse cx="457.156" cy="30.072" fill="#5ec783" rx="34.004" ry="30.072"/><g><g><ellipse cx="169.623" cy="292.777" fill="#eda1ab" rx="31.872" ry="25.381"/><ellipse cx="342.377" cy="292.777" fill="#eda1ab" rx="31.872" ry="25.381"/><ellipse cx="256" cy="273.276" fill="#4e5660" rx="16.918" ry="18.931"/></g><g fill="#4e5660"><path d="m174.951 269.649c-4.142 0-7.5-3.358-7.5-7.5v-12.362c0-4.142 3.358-7.5 7.5-7.5s7.5 3.358 7.5 7.5v12.362c0 4.143-3.358 7.5-7.5 7.5z"/><path d="m337.049 269.649c-4.142 0-7.5-3.358-7.5-7.5v-12.362c0-4.142 3.358-7.5 7.5-7.5 4.143 0 7.5 3.358 7.5 7.5v12.362c0 4.143-3.358 7.5-7.5 7.5z"/></g></g><path d="m241.275 142.906c-3.988 3.855-6.477 9.25-6.477 15.235 0 11.71 9.493 21.202 21.202 21.202 4.829 0 9.266-1.633 12.83-4.351-15.383-7.873-23.738-19.854-27.555-32.086z" fill="#3cb767"/></g></svg>