<svg id="Capa_1" enable-background="new 0 0 512 512" height="512" viewBox="0 0 512 512" width="512" xmlns="http://www.w3.org/2000/svg"><g><g><path d="m409.861 92.146c-20.478-20.478-28.055-48.964-22.742-75.374 2.33-11.582-9.71-20.676-20.111-15.074-31.38 16.904-52.533 50.345-51.787 88.657 1.023 52.544 43.887 95.408 96.431 96.431 38.312.746 71.753-20.407 88.657-51.787 5.603-10.401-3.492-22.441-15.074-20.111-26.41 5.314-54.897-2.264-75.374-22.742z" fill="#f5ea72"/><ellipse cx="56.94" cy="276.875" fill="#ffd4be" rx="46.947" ry="42.042"/><ellipse cx="418.268" cy="276.875" fill="#ffd4be" rx="46.947" ry="42.042"/><path d="m336.723 512c9.912 0 17.42-8.891 15.843-18.677-8.937-55.435-57.005-97.774-114.961-97.774s-106.025 42.339-114.961 97.774c-1.577 9.786 5.93 18.677 15.843 18.677z" fill="#6171a3"/><path d="m387.487 121.174c-20.902-18.416-45.32-32.52-71.868-41.834-.33 3.619-.47 7.293-.398 11.015 1.023 52.544 43.886 95.408 96.431 96.431 8.125.158 16.027-.678 23.602-2.378-10.86-23.438-26.957-44.899-47.767-63.234z" fill="#ebca5f"/><path d="m434.194 407.899c-16.307-42.253-13.517-92.421-13.517-149.481 0-89.083-81.964-161.3-183.073-161.3-24.597 0-48.054 4.284-69.481 12.035-64.236 95.975-64.236 344.621 102.945 363.84 4.917-1.925 9.708-4.289 14.313-7.095 10.941-6.666 21.67-14.301 31.476-22.517 13.798-11.56 32.716-14.771 49.532-8.35 10.585 4.041 22.445 7.916 35.115 10.809 22.166 5.063 40.876-16.73 32.69-37.941z" fill="#efedff"/></g><path d="m158.35 443.382c9.806 8.216 20.536 15.852 31.477 22.517 24.74 15.073 54.824 17.437 81.241 7.095-138.961-36.545-127.248-280.561-102.945-363.84-66.65 24.11-113.592 81.853-113.592 149.265 0 57.06 2.79 107.228-13.517 149.481-8.187 21.211 10.523 43.004 32.689 37.942 12.67-2.894 24.53-6.768 35.115-10.809 16.816-6.422 35.735-3.211 49.532 8.349z" fill="#d4d4ff"/><g><g><ellipse cx="151.227" cy="288.783" fill="#eda1ab" rx="31.872" ry="25.381"/><ellipse cx="323.981" cy="288.783" fill="#eda1ab" rx="31.872" ry="25.381"/><ellipse cx="237.604" cy="269.282" fill="#4e5660" rx="16.918" ry="18.931"/></g><g fill="#4e5660"><path d="m156.555 265.655c-4.143 0-7.5-3.358-7.5-7.5v-12.362c0-4.142 3.357-7.5 7.5-7.5s7.5 3.358 7.5 7.5v12.362c0 4.142-3.358 7.5-7.5 7.5z"/><path d="m318.653 265.655c-4.143 0-7.5-3.358-7.5-7.5v-12.362c0-4.142 3.357-7.5 7.5-7.5s7.5 3.358 7.5 7.5v12.362c0 4.142-3.357 7.5-7.5 7.5z"/></g></g></g></svg>