<svg id="Capa_1" enable-background="new 0 0 512 512" height="512" viewBox="0 0 512 512" width="512" xmlns="http://www.w3.org/2000/svg"><g><path d="m512 256c0 82.12-38.667 155.209-98.787 202.054-43.388 33.807-97.949-36.712-157.213-36.712s-113.826 70.519-157.213 36.712c-60.12-46.845-98.787-119.934-98.787-202.054 0-141.385 114.615-256 256-256s256 114.615 256 256z" fill="#7fbb1b"/><path d="m413.21 458.05c-43.39 33.81-97.95 53.95-157.21 53.95-30.37 0-59.5-5.29-86.53-15-25.71-9.23-49.53-22.46-70.68-38.95l64.16-134.78 12.48-26.21h161.14z" fill="#b75c34"/><path d="m211.29 374.37-41.82 122.63c-25.71-9.23-49.53-22.46-70.68-38.95l64.16-134.78z" fill="#a54828"/><path d="m379.88 118.06-26.72 13.34h-194.32l-25.87-12.92-.85-.42c-23.1-11.53-36.75-34.9-36.75-59.42 0-7.74 1.36-15.59 4.21-23.22 1.59-4.27 5.3-6.29 8.99-6.29 4.43 0 8.85 2.9 9.63 8.29 2.11 14.71 9.9 27.69 21.25 36.46 5.31 4.12 11.4 7.31 18.06 9.33l61.1 18.54h74.78l61.1-18.54c10.44-3.17 19.49-9.22 26.32-17.17 6.83-7.96 11.44-17.82 12.99-28.62.78-5.39 5.2-8.29 9.63-8.29 3.69 0 7.4 2.02 8.99 6.29 11.89 31.81-2.15 67.47-32.54 82.64z" fill="#fff9f1"/><path d="m358.725 167.458 19.96 5.84c48.73 14.27 100.89-6.82 126-50.96l5.3-9.33c4.51-7.92 1.14-18-7.22-21.63 0 0-52.945-.917-67.405 33.333-14.45 34.25-76.635 42.747-76.635 42.747z" fill="#ffe5bf"/><path d="m356.316 134.278 2.41 33.18s71.33-3.36 85.78-37.61c14.46-34.25 58.26-38.47 58.26-38.47l-10.87-4.71c-25.24-10.95-54.69-2.26-69.95 20.63l-5.66 8.49c-4.88 7.32-12.68 12.18-21.39 13.34z" fill="#b75c34"/><path d="m153.27 167.458-19.96 5.84c-48.73 14.27-100.89-6.82-126-50.96l-5.3-9.33c-4.51-7.92-1.14-18 7.22-21.63 0 0 52.945-.917 67.405 33.333 14.45 34.25 76.635 42.747 76.635 42.747z" fill="#ffe5bf"/><path d="m155.68 134.278-2.41 33.18s-71.33-3.36-85.78-37.61c-14.46-34.25-58.26-38.47-58.26-38.47l10.87-4.71c25.24-10.95 54.69-2.26 69.95 20.63l5.66 8.49c4.88 7.32 12.68 12.18 21.39 13.34z" fill="#a54828"/><g><path d="m254.617 410.928h-70.279l-33.07-20.25c-20.15-12.33-30.56-35.85-26.16-59.06l8.7-45.81c2.11-11.07.23-22.53-5.29-32.35l-18.59-33.1c-13.17-23.43-8.82-52.8 10.56-71.42l10.51-10.09c9.78-9.4 20.36-17.48 31.51-24.24 28.65-17.38 52.95 10.103 85.373 10.103z" fill="#cc754a"/><path d="m247.88 124.711c32.422 0 72.967-27.483 101.617-10.103 11.15 6.76 21.73 14.84 31.51 24.24l10.51 10.09c19.38 18.62 23.72 47.99 10.56 71.42l-18.6 33.1c-5.52 9.82-7.39 21.28-5.29 32.35l8.7 45.81c4.41 23.21-6.01 46.73-26.16 59.06l-33.07 20.25h-73.04z" fill="#dc8758"/><g><path d="m374.622 228.412c-.639 0-1.044-.016-1.173-.021-4.689-.216-8.316-4.192-8.101-8.881.216-4.678 4.122-8.3 8.847-8.103.967.038 22.105.565 29.934-16.582 1.949-4.271 6.995-6.15 11.263-4.202 4.271 1.95 6.151 6.992 4.202 11.262-11.455 25.092-38.868 26.527-44.972 26.527z" fill="#516666"/><path d="m137.381 228.412c-6.101 0-33.516-1.434-44.972-26.527-1.95-4.27-.068-9.312 4.202-11.262 4.273-1.949 9.313-.067 11.263 4.202 7.842 17.18 29.041 16.609 29.939 16.582 4.663-.171 8.629 3.47 8.821 8.145.192 4.674-3.408 8.624-8.082 8.839-.128.005-.533.021-1.171.021z" fill="#384948"/></g><path d="m330.727 187.028c-16.78 9.48-26.1 26.91-26.1 44.76 0 9.57 2.67 19.25 8.3 27.91l8.58 13.22c10.73 16.53 6.19 38.61-10.18 49.56l-55.33 37.02-55.32-37.02c-16.38-10.95-20.91-33.03-10.18-49.56l8.58-13.22c16.12-24.82 7.97-58.11-17.8-72.67-13.78-7.78-22.15-22.34-22.15-37.93 0-1.52.08-3.05.24-4.58l3.14-29.91c57.3-34.76 129.69-34.76 186.99 0l3.14 29.91c1.81 17.27-6.79 33.97-21.91 42.51z" fill="#fff9f1"/><path d="m184.342 400.929c0 39.576 32.082 71.658 71.658 71.658s71.658-32.082 71.658-71.658-32.083-29.749-71.658-29.749-71.658-9.827-71.658 29.749z" fill="#ffd797"/><path d="m355.621 392.649c0-55.019-44.602-99.621-99.621-99.621s-99.621 44.602-99.621 99.621 44.602 41.358 99.621 41.358 99.621 13.661 99.621-41.358z" fill="#ffe5bf"/><path d="m255.999 293.029c3.59 0 7.13.19 10.62.56-36.13 5.48-64.31 50.34-64.31 104.88 0 19.16 3.48 30.45 9.56 36.97-32.88.74-55.49-3.62-55.49-42.79 0-55.02 44.6-99.62 99.62-99.62z" fill="#ffe0a7"/><g fill="#516666"><ellipse cx="201.223" cy="384.876" rx="19.935" ry="32.785" transform="matrix(.707 -.707 .707 .707 -213.212 255.014)"/><ellipse cx="310.776" cy="384.876" rx="32.785" ry="19.935" transform="matrix(.707 -.707 .707 .707 -181.124 332.48)"/></g><g><g><ellipse cx="136.513" cy="240.958" fill="#516666" rx="20.956" ry="31.025"/><path d="m146.982 267.827c-3.079 2.642-6.664 4.158-10.472 4.158-11.579 0-20.953-13.891-20.953-31.027s9.374-31.026 20.953-31.026c3.808 0 7.392 1.515 10.472 4.158-6.256 5.362-10.472 15.387-10.472 26.869s4.217 21.506 10.472 26.868z" fill="#384948"/></g><g><ellipse cx="371.725" cy="240.958" fill="#516666" rx="20.956" ry="31.025"/><path d="m382.194 267.827c-3.079 2.642-6.664 4.158-10.472 4.158-11.579 0-20.953-13.891-20.953-31.027s9.374-31.026 20.953-31.026c3.808 0 7.392 1.515 10.472 4.158-6.256 5.362-10.472 15.387-10.472 26.869s4.216 21.506 10.472 26.868z" fill="#384948"/></g></g></g><path d="m315.55 132.278-31.51-18.09s8.32 23.42-17.33 46.93c-5.33 4.89-13.23 5.48-19.18 1.75-.81-.5-1.58-1.08-2.31-1.75-25.65-23.51-17.32-46.93-17.32-46.93l-31.5 18.08c-9.57 5.5-21.04-3.08-18.56-13.83 3.86-16.73 19.13-24.96 19.13-24.96l-14.29-7.52c-7.73-4.07-5.53-15.77 3.16-16.64 28.86-2.88 50.89 6.28 62.04 12.44 5.03 2.78 11.15 2.78 16.17 0 11.15-6.16 33.19-15.32 62.05-12.44 8.69.87 10.89 12.57 3.16 16.64l-14.29 7.52s15.61 8.41 19.25 25.52c2.24 10.53-9.33 18.64-18.67 13.28z" fill="#b75c34"/><path d="m247.53 162.868c-.81-.5-1.58-1.08-2.31-1.75-25.65-23.51-17.32-46.93-17.32-46.93l-31.5 18.08c-9.57 5.5-21.04-3.08-18.56-13.83 3.86-16.73 19.13-24.96 19.13-24.96l-14.29-7.52c-7.73-4.07-5.53-15.77 3.16-16.64 28.86-2.88 50.89 6.28 62.04 12.44 0 0-15.39 48.08-.35 81.11z" fill="#a54828"/><path d="m132.97 118.48-.85-.42c-23.1-11.53-36.75-34.9-36.75-59.42 0-7.74 1.36-15.59 4.21-23.22 1.59-4.27 5.3-6.29 8.99-6.29 4.43 0 8.85 2.9 9.63 8.29 2.11 14.71 9.9 27.69 21.25 36.46-5.02 7.78-12.54 23.92-6.48 44.6z" fill="#f7eadc"/></g></svg>