<svg id="Capa_1" enable-background="new 0 0 512 512" height="512" viewBox="0 0 512 512" width="512" xmlns="http://www.w3.org/2000/svg"><g><path d="m512 256c0 74.45-31.79 141.49-82.53 188.27-45.61 42.04-100.382-12.856-167.312-12.856-29.66 0-54.506 2.576-81.006-6.704-33.28-11.66-73.232 42.97-98.622 19.56-50.74-46.78-82.53-113.82-82.53-188.27 0-141.38 114.62-256 256-256s256 114.62 256 256z" fill="#b75c34"/><path d="m429.47 444.27c-45.61 42.04-106.54 67.73-173.47 67.73s-127.86-25.69-173.47-67.73l20.87-100.05c2.76-13.27 9.16-25.19 18.13-34.67 8.97-9.47 20.53-16.5 33.63-19.98 33.04-8.79 66.94-13.19 100.84-13.19s67.8 4.4 100.84 13.19c26.2 6.96 46.23 28.11 51.76 54.65z" fill="#ffe0a7"/><path d="m305.97 279.58c-17.1 2.2-34.08 5.53-50.85 9.99-13.1 3.48-24.67 10.51-33.64 19.98-8.97 9.48-15.36 21.4-18.13 34.67l-32 153.45c-33.28-11.66-63.43-29.99-88.82-53.4l20.86-100.05c2.77-13.27 9.17-25.19 18.14-34.67 8.98-9.47 20.53-16.5 33.62-19.98 33.04-8.79 66.95-13.19 100.84-13.19 16.7 0 33.4 1.07 49.98 3.2z" fill="#ffd797"/><g><path d="m138.89 150.9c-12.99 4.22-21.52 13.79-26.53 21.44-4.38 6.68-12.53 9.93-20.32 8.13-101.06-23.35-95.97-109.99-88.51-147.97l126.56 38.067z" fill="#ffc1ae"/><path d="m175.64 122.22-22.69 26.5c-5.18 0-9.86.81-14.06 2.18l-16.055-46.624c-4.9-14.231-15.502-25.78-29.263-31.877l-90.042-39.899c1.91-9.7 12.02-15.41 21.34-12.11l110.57 39.17c7.85 2.78 14.27 8.55 17.87 16.06z" fill="#ffe0a7"/></g><g><path d="m373.11 150.9c12.99 4.22 21.52 13.79 26.53 21.44 4.38 6.68 12.53 9.93 20.32 8.13 101.06-23.35 95.97-109.99 88.51-147.97l-126.56 38.067z" fill="#ffc1ae"/><path d="m336.36 122.22 22.69 26.5c5.18 0 9.86.81 14.06 2.18l16.055-46.624c4.9-14.231 15.502-25.78 29.263-31.877l90.042-39.899c-1.91-9.7-12.02-15.41-21.34-12.11l-110.57 39.17c-7.85 2.78-14.27 8.55-17.87 16.06z" fill="#ffe0a7"/></g><path d="m316.016 433.61 64.897-38.941c27.297-16.379 41.234-48.242 34.734-79.405l-37.318-178.921c-4.437-21.274-20.493-38.226-41.494-43.812-52.969-14.088-108.701-14.088-161.67 0-21.001 5.586-6.44 44.293-10.877 65.566l-67.936 157.167c-6.5 31.163 14.771 50.077 42.068 66.456l62.94 40.847c14.675 8.806 25.427 25.156 41.855 26.966 24.924 2.745 50.536-2.563 72.801-15.923z" fill="#ffe5bf"/><path d="m242.875 449.14c.11.13.22.26.34.39-16.43-1.8-32.56-7.11-47.23-15.92l-64.89-38.94c-27.3-16.38-41.24-48.24-34.74-79.41l37.32-178.92c4.44-21.27 20.49-38.22 41.49-43.81h.01c30.53-8.12 61.98-11.56 93.29-10.32-12.34.92-24.63 4.51-36.67 10.79h-.01c-11.18 5.83-19.73 23.53-22.1 45.74l-19.87 186.83c-3.46 32.54 3.96 65.81 18.5 82.91z" fill="#ffe0a7"/><circle cx="256" cy="334.325" fill="#f4ad9d" r="54.64"/><ellipse cx="256" cy="334.917" fill="#fd5758" rx="31.411" ry="25.003"/><path d="m329.297 289.897-33.914-33.914c-21.751-21.751-57.016-21.751-78.766 0l-33.914 33.914c-15.968 15.968-15.968 41.856 0 57.824 6.155 6.155 13.785 3.361 21.752 4.771s16.272 7.023 23.778 3.687c4.459-1.982 8.636-4.801 12.293-8.458 8.546-8.546 22.401-8.546 30.946 0 15.968 15.968 41.856 15.968 57.824 0 15.968-15.968 15.968-41.857.001-57.824z" fill="#ffc1ae"/><path d="m215.923 289.897c-15.97 15.96-15.97 41.85 0 57.82 3.66 3.66 7.85 6.48 12.31 8.46-5.27 2.35-10.95 3.52-16.62 3.52-10.46 0-20.92-4-28.91-11.98-15.96-15.97-15.96-41.86 0-57.82l33.92-33.92c15.15-15.15 36.86-19.75 55.99-13.79-8.33 2.59-16.18 7.19-22.78 13.79z" fill="#f4ad9d"/><g fill="#516666"><ellipse cx="218.189" cy="313.761" rx="21.653" ry="13.451" transform="matrix(.707 -.707 .707 .707 -157.957 246.181)"/><ellipse cx="293.811" cy="313.761" rx="13.451" ry="21.653" transform="matrix(.707 -.707 .707 .707 -135.807 299.654)"/></g><g><ellipse cx="146.954" cy="218.946" fill="#516666" rx="17.334" ry="20.958"/><path d="m155.614 237.096c-2.547 1.785-5.512 2.809-8.662 2.809-9.578 0-17.332-9.384-17.332-20.959s7.754-20.959 17.332-20.959c3.15 0 6.115 1.024 8.662 2.809-5.175 3.622-8.662 10.394-8.662 18.15s3.487 14.528 8.662 18.15z" fill="#384948"/><ellipse cx="365.046" cy="218.946" fill="#516666" rx="17.334" ry="20.958"/><path d="m373.705 237.096c-2.547 1.785-5.512 2.809-8.662 2.809-9.578 0-17.332-9.384-17.332-20.959s7.754-20.959 17.332-20.959c3.15 0 6.115 1.024 8.662 2.809-5.175 3.622-8.662 10.394-8.662 18.15s3.488 14.528 8.662 18.15z" fill="#384948"/></g></g></svg>