<svg id="Capa_1" enable-background="new 0 0 512 512" height="512" viewBox="0 0 512 512" width="512" xmlns="http://www.w3.org/2000/svg"><g><path d="m512 256c0 83.48-39.97 157.64-101.81 204.37-42.89 32.41-96.29 5.324-154.19 5.324-24.38 0-16.169 6.37-38.509 0-30.7-8.75-90.851 13.435-115.681-5.324-61.84-46.73-101.81-120.89-101.81-204.37 0-141.38 114.62-256 256-256s256 114.62 256 256z" fill="#516666"/><path d="m410.19 460.37c-17.02 12.86-35.69 23.64-55.65 31.97-30.32 12.67-63.61-13.539-98.54-13.539-24.38 0-47.97 3.857-70.3-2.503-9.66-2.75-19.09 19.872-28.24 16.042-19.96-8.33-38.63-19.11-55.65-31.97 23.23-78.95 83.5-135.21 154.19-135.21.38 0 .77 0 1.15.01 70.2.6 129.94 56.68 153.04 135.2z" fill="#f36a38"/><path d="m302.19 333.46c-60.88 22.41-101.96 72.517-111.32 153.247-9.655-2.752-24.257 9.457-33.411 5.636-19.953-8.329-38.628-19.112-55.649-31.972 23.22-78.951 83.49-135.211 154.19-135.211 16.04 0 31.53 2.9 46.19 8.3z" fill="#e05327"/><path d="m354.54 492.34c-30.32 12.67-63.61 19.66-98.54 19.66s-68.22-6.99-98.54-19.66c13.62-97.1 52.6-167.18 98.54-167.18.38 0 .77 0 1.15.01 11.51.3 22.58 5 32.91 13.42 30.41 24.8 54.39 81.87 64.48 153.75z" fill="#ffe0a7"/><path d="m290.06 338.59c-54.84 26.21-95.64 88.36-104.36 163.64-9.66-2.75-19.09-6.06-28.24-9.89 13.62-97.1 52.6-167.18 98.54-167.18.38 0 .77 0 1.15.01 11.51.3 22.58 5 32.91 13.42z" fill="#ffd797"/><g><g fill="#f36a38"><path d="m189.038 130.018-97.867-122.625c-8.728-10.936-25.764-9.504-32.544 2.735-16.873 30.457-22.67 65.821-16.404 100.071l30.632 167.44z"/><path d="m322.962 130.018 97.867-122.625c8.728-10.936 25.764-9.504 32.544 2.735 16.873 30.457 22.67 65.821 16.404 100.071l-30.632 167.44z"/></g><g fill="#ffe5bf"><path d="m348.191 161.437 73.401-95.248c7.404-9.608 22.75-5.351 24.116 6.702 3.733 32.932 3.129 89.758-27.494 156.113-48.564 105.232-70.023-67.567-70.023-67.567z"/><path d="m163.809 161.437-73.402-95.248c-7.404-9.608-22.75-5.351-24.116 6.702-3.733 32.932-3.129 89.758 27.494 156.113 48.565 105.232 70.024-67.567 70.024-67.567z"/></g><path d="m477.07 323.52-89.78 12.65c-14.25-8.97-28.37-18.74-43.32-11.01-17.82 9.22-27.17-25.71-69.71-25.71h-36.52c-42.54 0-71.99 25.21-89.81 15.99-4.43-2.29-9.12-3.82-13.9-4.61-11.36-1.87-23.23.46-33.26 6.77l-65.84 5.92c-1.99-11.38-.09-23.58 6.49-34.5l71.83-119.13c16.84-27.95 47.09-45.03 79.72-45.03h126.06c32.63 0 62.88 17.08 79.72 45.03l71.83 119.13c6.58 10.92 8.48 23.12 6.49 34.5z" fill="#f97855"/><path d="m239.03 124.86c-22.26 0-42.15 13.89-49.81 34.78l-53.38 145.52c-.69 1.88-1.29 3.77-1.81 5.67-11.36-1.87-23.23.46-33.26 6.77l-65.84 5.92c-1.99-11.38-.09-23.58 6.49-34.5l71.83-119.13c16.84-27.95 47.09-45.03 79.72-45.03z" fill="#f36a38"/><g><ellipse cx="188.711" cy="250.498" fill="#fff9f1" rx="28.78" ry="35.836"/><path d="m198.903 284.017c-3.17 1.502-6.607 2.318-10.196 2.318-15.893 0-28.776-16.045-28.776-35.838s12.882-35.838 28.776-35.838c3.589 0 7.026.816 10.196 2.318-10.868 5.127-18.587 18.197-18.587 33.52s7.719 28.394 18.587 33.52z" fill="#f7eadc"/><path d="m206.155 250.501c0 12.824-7.654 23.432-17.59 25.1-.903.152-1.82.231-2.751.231-11.236 0-20.341-11.344-20.341-25.331 0-13.994 9.106-25.331 20.341-25.331.932 0 1.849.079 2.751.231 9.936 1.668 17.59 12.268 17.59 25.1z" fill="#516666"/><ellipse cx="323.289" cy="250.498" fill="#fff9f1" rx="28.78" ry="35.836"/><path d="m333.481 284.017c-3.17 1.502-6.607 2.318-10.196 2.318-15.893 0-28.776-16.045-28.776-35.838s12.882-35.838 28.776-35.838c3.589 0 7.026.816 10.196 2.318-10.868 5.127-18.587 18.197-18.587 33.52s7.719 28.394 18.587 33.52z" fill="#f7eadc"/><path d="m346.528 250.501c0 13.987-9.106 25.331-20.341 25.331-1.054 0-2.087-.101-3.098-.289-9.763-1.863-17.244-12.37-17.244-25.042 0-12.68 7.481-23.179 17.244-25.042 1.011-.188 2.044-.289 3.098-.289 11.235 0 20.341 11.337 20.341 25.331z" fill="#516666"/><g fill="#384948"><path d="m314.893 250.501c0 9.748 3.127 18.587 8.196 25.042-9.763-1.863-17.244-12.37-17.244-25.042 0-12.68 7.481-23.179 17.244-25.042-5.07 6.455-8.196 15.294-8.196 25.042z"/><path d="m180.318 250.501c0 9.777 3.141 18.637 8.246 25.1-.903.152-1.82.231-2.751.231-11.236 0-20.341-11.344-20.341-25.331 0-13.994 9.106-25.331 20.341-25.331.932 0 1.849.079 2.751.231-5.104 6.463-8.246 15.323-8.246 25.1z"/></g></g><g fill="#e05327"><path d="m226.381 296.544c-.076 0-.15-.001-.227-.003-4.969-.123-8.897-4.25-8.775-9.219 1.488-60.304-42.015-82.982-43.867-83.918-4.424-2.235-6.225-7.634-4.008-12.067s7.584-6.248 12.026-4.049c.583.289 14.448 7.258 27.914 23.144 12.34 14.558 26.856 39.792 25.93 77.334-.121 4.893-4.125 8.778-8.993 8.778z"/><path d="m285.619 296.544c-4.868 0-8.872-3.884-8.993-8.778-.926-37.542 13.589-62.777 25.93-77.334 13.466-15.886 27.331-22.854 27.914-23.144 4.455-2.206 9.854-.381 12.059 4.073 2.201 4.446.389 9.832-4.046 12.045-1.927.975-45.348 23.667-43.862 83.916.123 4.969-3.806 9.097-8.775 9.219-.076.002-.152.003-.227.003z"/></g><path d="m477.07 323.52c-3.13 18-15.96 33.97-35.3 39.68l-109.65 32.39c-49.69 14.68-102.55 14.68-152.24 0l-10.57-3.12-99.08-29.27c-19.34-5.71-32.17-21.68-35.3-39.68l65.84-41.46c13.49-8.49 30.31-9.77 44.76-3.31.81.35 1.61.74 2.4 1.15 17.82 9.22 47.27 19.55 89.81 19.55h36.52c42.54 0 71.99-10.33 89.81-19.55 14.96-7.73 32.91-6.81 47.16 2.16z" fill="#ffe5bf"/><path d="m295.798 343.294c0 21.98-17.818 25.549-39.798 25.549s-39.798-3.569-39.798-25.549 17.818-39.799 39.798-39.799 39.798 17.819 39.798 39.799z" fill="#ffd797"/><path d="m289.481 286.577c-14.331 0-26.828 7.82-33.481 19.42-6.653-11.6-19.15-19.42-33.481-19.42-21.307 0-38.58 17.273-38.58 38.58s17.273 38.58 38.58 38.58c14.331 0 26.828-7.82 33.481-19.42 6.653 11.6 19.15 19.42 33.481 19.42 21.307 0 38.58-17.273 38.58-38.58s-17.273-38.58-38.58-38.58z" fill="#fff9f1"/><path d="m221.679 325.157c0 14.45 7.94 27.04 19.7 33.65-5.58 3.15-12.01 4.93-18.86 4.93-21.31 0-38.58-17.27-38.58-38.58 0-21.3 17.27-38.58 38.58-38.58 6.85 0 13.28 1.78 18.86 4.93-11.76 6.611-19.7 19.21-19.7 33.65z" fill="#f7eadc"/><path d="m256 264.721c-17.575 0-31.823 14.248-31.823 31.823 0 9.587 7.772 17.359 17.359 17.359h28.927c9.587 0 17.359-7.772 17.359-17.359.001-17.575-14.247-31.823-31.822-31.823z" fill="#516666"/></g><path d="m169.31 392.47-99.08-29.27c-19.34-5.71-32.17-21.68-35.3-39.68l65.84-41.46c13.49-8.49 30.31-9.77 44.76-3.31l-9.69 26.41c-12.45 33.95 2.63 71.04 33.47 87.31z" fill="#ffe0a7"/><g fill="#fff9f1"><ellipse cx="329.15" cy="167.518" rx="19.202" ry="10.269"/><ellipse cx="182.85" cy="167.518" rx="19.202" ry="10.269"/></g></g></svg>