<svg id="Capa_1" enable-background="new 0 0 512 512" height="512" viewBox="0 0 512 512" width="512" xmlns="http://www.w3.org/2000/svg"><g><path d="m512 256c0 71.97-29.7 137-77.51 183.51-46.12 44.86-109.08 20.091-178.49 20.091-25.87 0-24.9 13.906-48.43 6.776-23.47-7.11-61.81-5.137-81.9-18.267-13.83-9.05-36.36 2.88-48.16-8.6-47.81-46.51-77.51-111.54-77.51-183.51 0-141.38 114.62-256 256-256s256 114.62 256 256z" fill="#7fbb1b"/><path d="m434.49 439.51c-46.12 44.86-109.08 72.49-178.49 72.49-51.65 0-99.73-15.3-139.96-41.61l9.63-22.28c3.46-16.57-1.19-40.57-1.19-60.19 0-16.19 3.16-29.4 16.65-32.98 37.63-10.01 76.25-15.02 114.87-15.02s77.24 5.01 114.87 15.02c29.84 7.93 52.66 32.02 58.97 62.26z" fill="#b75c34"/><path d="m273.71 340.27c-17.53 1.31-35 6.41-52.11 15.33h-.01c-15.89 8.29-28.04 33.44-31.41 65l-8.55 80.43c-23.47-7.11-45.5-17.51-65.59-30.64-13.83-9.05-26.73-19.4-38.53-30.88l4.66-22.32c6.31-30.22 29.12-54.31 58.96-62.25h.01c43.39-11.54 88.08-16.43 132.57-14.67z" fill="#a54828"/><g><path d="m179.759 102.609c-.918-8.278-5.073-15.844-11.565-21.06l-91.436-73.481c-7.708-6.192-19.136-4.141-24.142 4.385-19.581 33.386-52.993 113.486 34.689 168.895 6.759 4.271 15.525 3.895 21.865-.965 7.255-5.567 18.466-11.784 32.121-11.478 4.417.094 9.102.875 13.991 2.585l30.167-17.522z" fill="#cc754a"/><path d="m154.56 152.86c-6.86-1.1-19.92-2.47-43.46-4.13-56.094-3.953-50.528-61.551-44.413-89.598 1.614-7.403 10.257-10.757 16.457-6.402l43.437 30.517c10.188 7.158 17.266 17.928 19.793 30.12z" fill="#dc8758"/><path d="m332.241 102.609c.918-8.278 5.073-15.844 11.565-21.06l91.435-73.482c7.708-6.192 19.136-4.141 24.142 4.385 19.582 33.387 52.994 113.487-34.688 168.896-6.759 4.271-15.525 3.895-21.865-.965-7.255-5.567-18.466-11.784-32.121-11.478-4.417.094-9.102.875-13.991 2.585l-30.167-17.522z" fill="#cc754a"/><path d="m357.44 152.86c6.86-1.1 19.92-2.47 43.46-4.13 56.094-3.953 50.528-61.551 44.413-89.598-1.614-7.403-10.257-10.757-16.457-6.402l-43.437 30.517c-10.188 7.158-17.266 17.928-19.793 30.12z" fill="#dc8758"/></g><path d="m316.016 433.61 64.897-38.941c27.297-16.379 41.234-48.242 34.734-79.405l-37.318-178.921c-4.437-21.274-20.493-38.226-41.494-43.812-43.688-11.62-89.256-13.656-133.602-6.108-9.421 1.603-14.193 13.719-23.474 16.187-21.001 5.586-11.034 34.213-15.471 55.487l-67.936 157.167c-6.5 31.163 7.438 63.025 34.734 79.405l64.897 38.941c36.942 22.166 83.092 22.166 120.033 0z" fill="#dc8758"/><path d="m242.875 449.14c.11.13.22.26.34.39-16.43-1.8-32.56-7.11-47.23-15.92l-64.89-38.94c-27.3-16.38-41.24-48.24-34.74-79.41l37.32-178.92c4.44-21.27 20.49-38.22 41.49-43.81h.01c30.53-8.12 61.98-11.56 93.29-10.32-12.34.92-24.63 4.51-36.67 10.79h-.01c-11.18 5.83-19.73 23.53-22.1 45.74l-19.87 186.83c-3.46 32.54 3.96 65.81 18.5 82.91z" fill="#cc754a"/><g><ellipse cx="207.57" cy="218.946" fill="#516666" rx="17.334" ry="20.958"/><path d="m216.23 237.096c-2.547 1.785-5.512 2.809-8.662 2.809-9.578 0-17.332-9.384-17.332-20.959s7.754-20.959 17.332-20.959c3.15 0 6.115 1.024 8.662 2.809-5.175 3.622-8.662 10.394-8.662 18.15s3.487 14.528 8.662 18.15z" fill="#384948"/><ellipse cx="304.43" cy="218.946" fill="#516666" rx="17.334" ry="20.958"/><path d="m313.09 237.096c-2.547 1.785-5.512 2.809-8.662 2.809-9.578 0-17.332-9.384-17.332-20.959s7.754-20.959 17.332-20.959c3.15 0 6.115 1.024 8.662 2.809-5.175 3.622-8.662 10.394-8.662 18.15s3.487 14.528 8.662 18.15z" fill="#384948"/></g><g><path d="m307.046 326.793 2.538-.273c31.356-3.37 54.108-31.425 50.931-62.802-.556-5.494 6.972-7.59 9.335-2.599l5.827 12.309c19.166 40.484-8.718 87.503-53.435 90.103l-19.271 1.12z" fill="#f7eadc"/><path d="m317.238 331.016 2.853 1.237c35.242 15.281 76.21-.759 91.707-35.906 2.714-6.155 11.949-3.849 11.451 2.859l-1.227 16.542c-4.037 54.407-61.842 87.45-110.773 63.321l-21.087-10.398z" fill="#fff9f1"/><path d="m204.954 326.793-2.538-.273c-31.356-3.37-54.108-31.425-50.931-62.802.556-5.494-6.972-7.59-9.335-2.599l-5.827 12.309c-19.166 40.484 8.718 87.503 53.435 90.103l19.271 1.12z" fill="#f7eadc"/><path d="m221.84 368.67-21.09 10.4c-17.67 8.71-36.49 9.97-53.53 5.46-30.13-7.98-54.66-34.02-57.24-68.78l-1.23-16.54c-.3-4.01 2.88-6.45 6.06-6.45 2.15 0 4.3 1.11 5.39 3.59 5.16 11.71 13.15 21.29 22.81 28.3 19.34 14.05 45.4 17.79 68.9 7.6l2.85-1.23z" fill="#fff9f1"/><path d="m147.22 384.53c-30.13-7.98-54.66-34.02-57.24-68.78l-1.23-16.54c-.3-4.01 2.88-6.45 6.06-6.45 2.15 0 4.3 1.11 5.39 3.59 5.16 11.71 13.15 21.29 22.81 28.3 0 0-10.32 39.05 24.21 59.88z" fill="#f7eadc"/></g><g><circle cx="256" cy="331.016" fill="#cc754a" r="54.64"/><path d="m329.297 307.152-33.914-33.914c-21.751-21.751-57.016-21.751-78.766 0l-33.914 33.914c-15.968 15.968-15.968 41.856 0 57.824 9.012 9.012 19.972 10.139 31.737 8.979 4.307-.425 9.771 1.267 13.794-.521 4.459-1.982 8.636-4.801 12.293-8.458 8.546-8.546 22.401-8.546 30.946 0 15.968 15.968 41.856 15.968 57.824 0 15.967-15.968 15.967-41.857 0-57.824z" fill="#ffc1ae"/><path d="m215.923 307.152c-15.97 15.96-15.97 41.85 0 57.82 3.66 3.66 7.85 6.48 12.31 8.46-5.27 2.35-10.95 3.52-16.62 3.52-10.46 0-20.92-4-28.91-11.98-15.96-15.97-15.96-41.86 0-57.82l33.92-33.92c15.15-15.15 36.86-19.75 55.99-13.79-8.33 2.59-16.18 7.19-22.78 13.79z" fill="#f4ad9d"/><g fill="#516666"><ellipse cx="218.189" cy="331.016" rx="21.653" ry="13.451" transform="matrix(.707 -.707 .707 .707 -170.158 251.235)"/><ellipse cx="293.811" cy="331.016" rx="13.451" ry="21.653" transform="matrix(.707 -.707 .707 .707 -148.008 304.708)"/></g></g></g></svg>