<svg id="Capa_1" enable-background="new 0 0 512 512" height="512" viewBox="0 0 512 512" width="512" xmlns="http://www.w3.org/2000/svg"><g><path d="m512 256c0 79.01-35.79 149.66-92.05 196.61-44.41 7.92-101.58 33.345-163.95 33.345-26.47 0-52-4.02-76.02-11.49-32.58-10.11-62.37-.515-87.93-21.855-56.26-46.95-92.05-117.6-92.05-196.61 0-141.38 114.62-256 256-256s256 114.62 256 256z" fill="#f97855"/><path d="m419.95 452.61c-44.41 37.08-101.58 59.39-163.95 59.39s-119.54-22.31-163.95-59.39c32.48-62.54 93.74-104.7 163.95-104.7s131.47 42.16 163.95 104.7z" fill="#809ca0"/><path d="m308.99 356.21c-62.64 20.1-111.8 74.96-129.01 144.3-32.58-10.11-62.37-26.56-87.93-47.9 32.48-62.54 93.73-104.7 163.95-104.7 18.4 0 36.18 2.91 52.99 8.3z" fill="#617f7f"/><g><path d="m487.025 144.626-76.34 29.86-84.75-68.4 123.11-100.62c.1-.09.15-.13.15-.13 12.15-9.93 30.38-5.46 36.62 8.93 9.29 21.4 20.55 53.81 24.58 92 1.75 16.58-7.84 32.29-23.37 38.36z" fill="#fff9f1"/><path d="m410.685 174.486-84.75-68.4 123.11-100.62c-3.83 3.29-80.87 71.19-38.36 169.02z" fill="#f7eadc"/><path d="m374.733 125.348 73.533-73.647c6.464-6.474 17.406-4.577 21.28 3.711 11.934 25.532 23.304 75.198-51.969 98.552-103.796 32.204-42.844-28.616-42.844-28.616z" fill="#617f7f"/><path d="m186.065 106.086-84.75 68.4-27.98-10.94-48.36-18.92c-15.53-6.07-25.12-21.78-23.37-38.36 4.03-38.19 15.28-70.6 24.58-92 6.24-14.39 24.47-18.86 36.61-8.93l16.71 13.65z" fill="#fff9f1"/><path d="m73.335 163.546-48.36-18.92c-15.53-6.07-25.12-21.78-23.37-38.36 4.03-38.19 15.28-70.6 24.58-92 6.24-14.39 24.47-18.86 36.61-8.93l16.71 13.65c-16.38 15.35-49.74 60.12-6.17 144.56z" fill="#f7eadc"/><path d="m137.263 125.348-73.533-73.647c-6.464-6.474-17.406-4.577-21.28 3.711-11.934 25.532-23.304 75.198 51.969 98.552 103.797 32.204 42.844-28.616 42.844-28.616z" fill="#617f7f"/><path d="m476.735 261.916h-424.4l37.54-98.58c17.47-45.9 61.48-76.23 110.58-76.23h128.15c49.11 0 93.12 30.33 110.59 76.23z" fill="#809ca0"/><path d="m288.205 87.246h-13.03c-34.8 0-65.83 21.95-77.41 54.77l-42.31 119.9h-103.12l37.54-98.58c17.47-45.9 61.48-76.23 110.58-76.23h87.66z" fill="#6e8c8e"/><path d="m444.185 358.186-110.69 68.63c-13.69 8.49-28.56 14.22-43.83 17.21-31.87 6.23-65.53.49-94.08-17.21l-110.7-68.63c-32.52-20.15-46.17-60.53-32.55-96.27l28.79-13.91c12.03-5.81 21.86-15.35 28.03-27.2l19.28-37.01c12.07-23.17 36.02-37.7 62.14-37.7h147.91c26.13 0 50.08 14.53 62.15 37.7l19.27 37.01c6.18 11.85 16.01 21.39 28.04 27.2l28.79 13.91c13.62 35.74-.04 76.12-32.55 96.27z" fill="#fff9f1"/><path d="m289.665 444.026c-31.87 6.23-65.53.49-94.08-17.21l-110.7-68.63c-32.52-20.15-46.17-60.53-32.55-96.27l28.79-13.91c12.03-5.81 21.86-15.35 28.03-27.2l19.28-37.01c12.07-23.17 36.02-37.7 62.14-37.7h5.75l-50.83 144.06c-6.4 18.15-3.22 38.3 8.46 53.6 25.39 33.27 75.22 88.01 135.71 100.27z" fill="#f7eadc"/><g fill="#809ca0"><path d="m407.078 248.099c0-31.75-36.693-57.489-65.932-57.489s-52.942 25.739-52.942 57.489 23.703 57.489 52.942 57.489c29.239-.001 65.932-25.739 65.932-57.489z"/><path d="m121.99 248.099c0-31.75 36.693-57.489 65.932-57.489s52.942 25.739 52.942 57.489-23.703 57.489-52.942 57.489-65.932-25.739-65.932-57.489z"/></g><path d="m215.554 322.844-22.179 38.415c-15.522 26.885 3.88 60.491 34.924 60.491h72.469c31.044 0 50.446-33.606 34.924-60.491l-22.179-38.415c-21.768-37.705-76.19-37.705-97.959 0z" fill="#6e8c8e"/><path d="m306.396 416.085c-16.468 0-31.559-7.125-41.862-19.054-10.302 11.929-25.392 19.054-41.861 19.054-5.739 0-10.392-4.653-10.392-10.392 0-5.74 4.653-10.392 10.392-10.392 14.301 0 26.938-8.6 32.195-21.91 1.567-3.967 5.399-6.574 9.665-6.574 4.265 0 8.099 2.606 9.665 6.574 5.258 13.311 17.896 21.911 32.197 21.911 5.739 0 10.392 4.653 10.392 10.392.001 5.738-4.652 10.391-10.391 10.391z" fill="#617f7f"/><g><path d="m301.466 340.416c0 2.922-1.186 5.548-3.092 7.468-1.906 1.906-4.532 3.092-7.454 3.092-3.346 0-6.395 1.355-8.584 3.558-2.202 2.188-3.558 5.224-3.558 8.57 0 3.939-1.595 7.511-4.179 10.08-2.118 2.132-4.927 3.586-8.047 4.024-.649.113-1.327.155-2.019.155-3.925 0-7.497-1.595-10.066-4.179-2.584-2.569-4.179-6.141-4.179-10.08 0-3.346-1.355-6.381-3.558-8.57-2.188-2.202-5.238-3.558-8.584-3.558-2.922 0-5.548-1.186-7.454-3.092-1.906-1.92-3.092-4.546-3.092-7.468 0-19.229 15.586-34.829 34.815-34.829h4.235c9.614 0 18.325 3.896 24.622 10.207 6.298 6.297 10.194 15.008 10.194 24.622z" fill="#516666"/><path d="m266.553 377.207c-.649.113-1.327.155-2.019.155-3.925 0-7.497-1.595-10.066-4.179-2.584-2.569-4.179-6.141-4.179-10.08 0-3.346-1.355-6.381-3.558-8.57-2.188-2.202-5.238-3.558-8.584-3.558-2.922 0-5.548-1.186-7.454-3.092-1.906-1.92-3.092-4.546-3.092-7.468 0-19.229 15.586-34.829 34.815-34.829h4.235c.001.001-29.915 23.804-.098 71.621z" fill="#384948"/></g><g><ellipse cx="180.818" cy="251.943" fill="#fde42f" rx="30.893" ry="29.104"/><path d="m191.759 279.166c-3.403 1.22-7.092 1.883-10.945 1.883-17.06 0-30.888-13.031-30.888-29.106s13.828-29.106 30.888-29.106c3.852 0 7.542.663 10.945 1.883-11.665 4.164-19.951 14.779-19.951 27.223s8.285 23.059 19.951 27.223z" fill="#f5cf33"/><path d="m199.543 251.946c0 10.415-8.216 19.03-18.882 20.385-.969.123-1.953.188-2.953.188-12.061 0-21.835-9.213-21.835-20.573 0-11.366 9.774-20.573 21.835-20.573 1 0 1.984.065 2.953.188 10.666 1.354 18.882 9.963 18.882 20.385z" fill="#516666"/><ellipse cx="348.249" cy="251.943" fill="#fde42f" rx="30.893" ry="29.104"/><path d="m359.189 279.166c-3.403 1.22-7.092 1.883-10.945 1.883-17.06 0-30.888-13.031-30.888-29.106s13.828-29.106 30.888-29.106c3.852 0 7.542.663 10.945 1.883-11.665 4.164-19.951 14.779-19.951 27.223s8.286 23.059 19.951 27.223z" fill="#f5cf33"/><path d="m373.194 251.946c0 11.36-9.774 20.573-21.835 20.573-1.132 0-2.24-.082-3.325-.235-10.479-1.513-18.51-10.046-18.51-20.338 0-10.298 8.03-18.825 18.51-20.338 1.085-.152 2.194-.235 3.325-.235 12.06 0 21.835 9.207 21.835 20.573z" fill="#516666"/><g fill="#384948"><path d="m339.236 251.946c0 7.917 3.356 15.095 8.797 20.338-10.479-1.513-18.51-10.046-18.51-20.338 0-10.298 8.03-18.825 18.51-20.338-5.441 5.242-8.797 12.42-8.797 20.338z"/><path d="m171.81 251.946c0 7.941 3.372 15.136 8.852 20.385-.969.123-1.953.188-2.953.188-12.061 0-21.835-9.213-21.835-20.573 0-11.366 9.774-20.573 21.835-20.573 1 0 1.984.065 2.953.188-5.48 5.248-8.852 12.444-8.852 20.385z"/></g></g><g fill="#809ca0"><path d="m140.516 252.12s34.567-31.824 88.436 2.906l-24.06-46.574-48.497 4.221z"/><path d="m388.552 252.12s-34.567-31.824-88.436 2.906l24.06-46.574 48.497 4.221z"/></g></g></g></svg>