<svg id="Capa_1" enable-background="new 0 0 512 512" height="512" viewBox="0 0 512 512" width="512" xmlns="http://www.w3.org/2000/svg"><g><path d="m512 256c0 87.057-43.455 163.964-109.857 210.214-41.439 28.863-91.815-5.814-146.143-5.814s-104.704 34.677-146.143 5.814c-66.402-46.25-109.857-123.157-109.857-210.214 0-141.385 114.615-256 256-256s256 114.615 256 256z" fill="#516666"/><path d="m402.14 466.21c-41.44 28.86-91.81 45.79-146.14 45.79s-104.7-16.93-146.14-45.79l59.93-200.87h172.42z" fill="#6e8c8e"/><path d="m244.37 265.34-29.7 243.33c-38.5-6.24-74.1-21.08-104.81-42.46l59.93-200.87z" fill="#617f7f"/><circle cx="255.476" cy="383.458" fill="#617f7f" r="53.224"/><g><path d="m427.584 198.66-23.79-12.55c-2.14-7-40.554-31.844-40.554-40.014 0-79.2 102.964-108.546 131.104-124.876 6.57 1.46 11.79 7.15 12.14 14.4 2.06 42.47-.87 147.88-78.9 163.04z" fill="#ffc1ae"/><path d="m400.494 163.37c0 8.17 1.16 15.74 3.3 22.74l-89.72-47.31s58.79-92.27 173.54-117.59c2.31-.51 4.59-.48 6.73.01-28.14 16.33-93.85 62.95-93.85 142.15z" fill="#6e8c8e"/><path d="m84.416 198.66 23.79-12.55c2.14-7 24.634-28.41 24.634-36.58 0-79.2-87.045-111.98-115.184-128.31-6.57 1.46-11.79 7.15-12.14 14.4-2.06 42.47.87 147.88 78.9 163.04z" fill="#ffc1ae"/><path d="m111.506 163.37c0 8.17-1.16 15.74-3.3 22.74l89.72-47.31s-58.79-92.27-173.54-117.59c-2.31-.51-4.59-.48-6.73.01 28.14 16.33 93.85 62.95 93.85 142.15z" fill="#617f7f"/></g><g fill="#fff9f1"><path d="m214.958 387.398v48.175c0 8.478-10.64 12.474-16.073 5.966-4.911-5.883-7.867-13.458-7.867-21.721 0-15.25 10.08-28.16 23.94-32.42z"/><path d="m297.042 387.398v48.175c0 8.478 10.64 12.474 16.073 5.966 4.911-5.883 7.867-13.458 7.867-21.721 0-15.25-10.08-28.16-23.94-32.42z"/></g><path d="m458.204 208.452c0-67.637-90.53-122.468-202.204-122.468s-178.49 54.831-178.49 122.468c0 32.459 9.442 52.998 43.472 74.913 30.928 19.918 57.132 46.418 65.24 82.3 4.703 20.815 7.187 45.135 28.527 45.135 5.198 0 10.192 4.416 14.846 2.816 11.649-4.005 21.167-12.591 26.406-23.605 7.412 15.583 23.388 26.305 41.847 26.07 21.28-.271 39.42-15.581 44.11-36.339l.15-.666c8.107-35.882 30.29-66.822 61.218-86.74 34.029-21.916 54.878-51.426 54.878-83.884z" fill="#809ca0"/><path d="m229.596 413.622c-4.66 1.59-9.65 2.46-14.85 2.46-21.34 0-39.83-14.78-44.54-35.59l-.32-1.41c-8.1-35.89-30.29-66.83-61.22-86.74-34.02-21.92-54.87-51.43-54.87-83.89 0-57.22 64.79-105.27 152.35-118.71-27.52 22.48-45.89 63.03-45.89 109.31 0 33.93 9.87 64.77 25.98 87.68 14.65 20.82 25.15 53.16 28.99 90.67l.15 1.48c1.7 16.61 7.21 29.55 14.22 34.74z" fill="#6e8c8e"/><path d="m255.996 388.832c.16.75.33 1.49.52 2.22-.18-.34-.35-.69-.52-1.04-.17.35-.34.71-.52 1.05.19-.73.36-1.48.52-2.23z" fill="#6e8c8e"/><path d="m271.573 341.475h-31.146c-13.36 0-24.19 10.83-24.19 24.19 0 13.36 10.83 24.19 24.19 24.19h31.146c13.36 0 24.19-10.83 24.19-24.19 0-13.36-10.83-24.19-24.19-24.19z" fill="#516666"/><path d="m270.757 389.865h-30.33c-13.36 0-24.19-10.84-24.19-24.19v-.01c0-13.35 10.83-24.19 24.19-24.19h30.33c-13.36 0-24.19 10.84-24.19 24.19v.01c0 13.35 10.83 24.19 24.19 24.19z" fill="#384948"/><g><ellipse cx="205.367" cy="256" fill="#516666" rx="29.794" ry="36.023"/><path d="m220.252 287.197c-4.378 3.068-9.474 4.827-14.888 4.827-16.463 0-29.79-16.129-29.79-36.025s13.328-36.025 29.79-36.025c5.414 0 10.51 1.76 14.888 4.827-8.894 6.226-14.888 17.866-14.888 31.198s5.994 24.973 14.888 31.198z" fill="#384948"/><ellipse cx="306.633" cy="256" fill="#516666" rx="29.794" ry="36.023"/><path d="m321.517 287.197c-4.378 3.068-9.474 4.827-14.888 4.827-16.463 0-29.79-16.129-29.79-36.025s13.328-36.025 29.79-36.025c5.414 0 10.51 1.76 14.888 4.827-8.894 6.226-14.888 17.866-14.888 31.198s5.994 24.973 14.888 31.198z" fill="#384948"/></g></g></svg>