<svg id="Capa_1" enable-background="new 0 0 512 512" height="512" viewBox="0 0 512 512" width="512" xmlns="http://www.w3.org/2000/svg"><g><path d="m512 256c0 87.057-43.455 163.964-109.857 210.214-41.439 28.863-91.814-58.38-146.143-58.38s-104.704 87.243-146.143 58.38c-66.402-46.25-109.857-123.157-109.857-210.214 0-141.385 114.615-256 256-256s256 114.615 256 256z" fill="#f97855"/><path d="m402.14 466.21c-41.44 28.86-91.81 45.79-146.14 45.79s-104.7-16.93-146.14-45.79l59.93-200.87h172.42z" fill="#fff9f1"/><path d="m244.37 265.34-29.7 243.33c-38.5-6.24-74.1-21.08-104.81-42.46l59.93-200.87z" fill="#f7eadc"/><path d="m309.428 474.652c0 17.497-23.92 26.641-53.428 26.641s-53.428-9.144-53.428-26.641 23.92-31.682 53.428-31.682 53.428 14.184 53.428 31.682z" fill="#fd5758"/><g><path d="m176.04 129.75c8.02-36-1.28-61.74-16.61-77.87v-.01c-21.69-22.81-55.44-26.38-69.31-12.51-13.73 13.73-11.53 34.34-7.27 49.22 2.24 7.81-7.25 13.5-13.21 7.98-29.64-27.48-30.68-96.56 59.35-96.56 14.71 0 27.6 3.04 38.9 8.3 71.58 33.27 79.26 155.3 79.26 155.3z" fill="#b75c34"/><path d="m442.36 96.56c-5.96 5.52-15.45-.17-13.21-7.98 4.26-14.88 6.46-35.49-7.27-49.22-20.59-20.59-85.05-2.73-88.7 59.51-.55 9.29.26 19.58 2.78 30.88l-71.11 33.85s5.01-79.5 44.58-127.66c17.19-20.93 40.91-35.94 73.58-35.94 90.03 0 88.99 69.08 59.35 96.56z" fill="#b75c34"/><path d="m335.96 129.75-71.11 33.85s5.01-79.5 44.58-127.66c0 0-8.43 47.9 23.75 62.93-.55 9.29.26 19.58 2.78 30.88z" fill="#a54828"/></g><g><path d="m501.744 181.145c-24.089 19.618-67.995 31.736-147.866 14.716l-5.049-22.058c9.793-29.264 67.532-22.649 93.567-22.649 28.517 0 56.045-14.893 68.184.569 3.219 9.751 1.22 21.227-8.836 29.422z" fill="#ffc1ae"/><path d="m510.58 151.723c-12.139-15.463-39.667 6.659-68.184 6.659-26.035 0-83.774-13.843-93.567 15.421l-10.088-44.054 46.536 10.393c29.895 6.669 61.074 4.639 89.843-5.859 3.429-1.252 6.753-1.82 9.909-1.82 12.266 0 22.027 8.604 25.551 19.26z" fill="#f7eadc"/></g><g><path d="m10.251 181.145c24.089 19.618 67.995 31.736 147.866 14.716l5.049-22.058c-9.793-29.264-67.532-22.649-93.567-22.649-28.517 0-56.045-14.893-68.184.569-3.219 9.751-1.22 21.227 8.836 29.422z" fill="#ffc1ae"/><path d="m1.415 151.723c12.139-15.463 39.667 6.659 68.184 6.659 26.035 0 83.774-13.843 93.567 15.421l10.088-44.054-46.536 10.393c-29.895 6.669-61.074 4.639-89.843-5.859-3.429-1.252-6.753-1.82-9.909-1.82-12.265 0-22.027 8.604-25.551 19.26z" fill="#f7eadc"/></g><path d="m247.833 243.361h120.211s20.821 104.128-47.633 203.053h-54.415z" fill="#f7eadc"/><path d="m265.996 446.414h-74.407c-68.454-98.925-47.633-203.053-47.633-203.053h103.877z" fill="#ede0d3"/><g><ellipse cx="167.889" cy="272.213" fill="#f5cf33" rx="26.208" ry="24.691"/><path d="m177.17 295.309c-2.887 1.035-6.017 1.597-9.285 1.597-14.473 0-26.204-11.055-26.204-24.692s11.731-24.692 26.204-24.692c3.268 0 6.398.562 9.285 1.597-9.897 3.532-16.926 12.538-16.926 23.095s7.03 19.562 16.926 23.095z" fill="#f2b632"/><ellipse cx="344.111" cy="272.213" fill="#f5cf33" rx="26.208" ry="24.691"/><path d="m353.392 295.309c-2.887 1.035-6.017 1.597-9.285 1.597-14.473 0-26.204-11.055-26.204-24.692s11.731-24.692 26.204-24.692c3.268 0 6.398.562 9.285 1.597-9.897 3.532-16.926 12.538-16.926 23.095s7.029 19.562 16.926 23.095z" fill="#f2b632"/><path d="m364.952 271.816c0 2.799-1.137 5.336-2.969 7.169-1.832 1.832-4.369 2.969-7.169 2.969h-21.404c-5.599 0-10.138-4.539-10.138-10.138 0-2.8 1.137-5.336 2.969-7.177 1.832-1.833 4.369-2.969 7.169-2.969h21.404c5.599 0 10.138 4.547 10.138 10.146z" fill="#516666"/><path d="m188.727 271.816c0 2.799-1.137 5.336-2.969 7.169-1.832 1.832-4.369 2.969-7.169 2.969h-21.404c-5.599 0-10.138-4.539-10.138-10.138 0-2.8 1.137-5.336 2.969-7.177 1.832-1.833 4.369-2.969 7.169-2.969h21.404c5.6 0 10.138 4.547 10.138 10.146z" fill="#516666"/><g fill="#384948"><path d="m336.464 272.215c0 3.461.755 6.753 2.121 9.739h-5.175c-5.599 0-10.138-4.539-10.138-10.138 0-2.8 1.137-5.336 2.969-7.177 1.832-1.833 4.369-2.969 7.169-2.969h5.565c-1.612 3.198-2.511 6.77-2.511 10.545z"/><path d="m160.248 272.215c0 3.461.755 6.753 2.121 9.739h-5.184c-5.599 0-10.138-4.539-10.138-10.138 0-2.8 1.137-5.336 2.969-7.177 1.832-1.833 4.369-2.969 7.169-2.969h5.574c-1.612 3.198-2.511 6.77-2.511 10.545z"/></g></g><path d="m368.04 243.36-23.86 7.03c-39.73 11.7-62.8 53.04-51.89 92.99l28.12 103.03c4.78 17.5-5.58 35.55-23.1 40.26l-1.87.5c-16.59 4.46-33.81-4.66-39.44-20.89-3.23 9.3-10.26 16.27-18.8 19.68-6.36 2.54-13.56 3.11-20.64 1.21l-1.87-.5c-17.52-4.71-27.88-22.76-23.1-40.26l28.12-103.03c4.8-17.6 3.01-35.46-3.89-50.95-2.71-6.08-6.21-11.8-10.41-16.99-.01-.01-.03-.03-.04-.04-1.24-1.54-2.54-3.02-3.91-4.46-8.91-9.39-24.994-28.88-38.294-32.8l-19.206 5.22c-17.51-5.16-25.74-25.19-16.93-41.17l50.14-59.43c7.52-13.64 13.31-30.03 27.19-22.96l32.33 16.46c12.13 6.18 26.49 6.18 38.62 0l32.33-16.46c13.88-7.07 30.85-1.86 38.37 11.78l38.96 70.61c8.81 15.98.58 36.01-16.93 41.17z" fill="#fff9f1"/><path d="m236.69 136.26c-31.21-15.89-69.4 90.54-35.23 134.68-8.91-9.39-20.34-16.63-33.64-20.55l-23.86-7.03c-17.51-5.16-25.74-25.19-16.93-41.17l38.96-70.61c7.52-13.64 24.49-18.85 38.37-11.78z" fill="#f7eadc"/><path d="m225.948 446.229c0 16.598 13.455 30.052 30.052 30.052 16.598 0 30.052-13.455 30.052-30.052 0-16.598-13.455-14.241-30.052-14.241-16.598 0-30.052-2.357-30.052 14.241z" fill="#ffc1ae"/><path d="m268.178 473.698c-3.72 1.66-7.85 2.58-12.18 2.58-16.59 0-30.05-13.45-30.05-30.05s13.46-14.24 30.05-14.24h.26c-4.31 1.89-6.89 5.67-6.89 13.07 0 12.831 7.74 23.85 18.81 28.64z" fill="#f4ad9d"/><path d="m237.2 485.96c-6.36 2.54-13.56 3.11-20.64 1.21l-1.87-.5c-17.52-4.71-27.88-22.76-23.1-40.26l28.12-103.03c4.8-17.6 3.01-35.46-3.89-50.95 26.59 26.59 30.27 75.59 20.87 99.31-8.79 22.17-44.52 79.87.51 94.22z" fill="#f7eadc"/><path d="m159.43 51.87c-21.69-22.81-55.44-26.38-69.31-12.51-13.73 13.73-11.53 34.34-7.27 49.22 2.24 7.81-7.25 13.5-13.21 7.98-29.64-27.48-30.68-96.56 59.35-96.56 14.71 0 27.6 3.04 38.9 8.3 0 0-24.9 14.43-8.46 43.57z" fill="#a54828"/></g></svg>