<svg id="Capa_1" enable-background="new 0 0 512 512" height="512" viewBox="0 0 512 512" width="512" xmlns="http://www.w3.org/2000/svg"><g><path d="m512 256c0 79.008-35.791 149.657-92.045 196.616-44.412 37.075-101.578 2.653-163.955 2.653-61.856 0-118.588 34.793-162.84-1.727-56.895-46.954-93.16-118.013-93.16-197.542 0-141.385 114.615-256 256-256s256 114.615 256 256z" fill="#516666"/><path d="m419.95 452.61c-42.02 35.09-95.47 56.95-153.95 59.19-3.32.14-6.65-13.143-10-13.143s-6.68 13.283-10 13.143c-58.48-2.24-111.93-24.1-153.95-59.19 30.93-59.55 87.95-100.62 153.95-104.41 3.31-.19 6.65-.29 10-.29s6.69.1 10 .29c66 3.79 123.02 44.86 153.95 104.41z" fill="#7fbb1b"/><circle cx="357.551" cy="428.235" fill="#70a41c" r="10.165"/><circle cx="338.441" cy="452.061" fill="#70a41c" r="10.165"/><path d="m308.99 356.21c-62.64 20.1-111.8 74.96-129.01 144.3-32.58-10.11-62.37-26.56-87.93-47.9 32.48-62.54 93.73-104.7 163.95-104.7 18.4 0 36.18 2.91 52.99 8.3z" fill="#70a41c"/><ellipse cx="256" cy="128.547" fill="#70a41c" rx="58.622" ry="117.12"/><path d="m256 148.382c-4.694 0-8.5-3.806-8.5-8.5v-128.455c0-4.694 3.806-8.5 8.5-8.5s8.5 3.806 8.5 8.5v128.455c0 4.694-3.806 8.5-8.5 8.5z" fill="#f5cf33"/><circle cx="128.08" cy="188.29" fill="#7fbb1b" r="78.53"/><circle cx="181.805" cy="188.29" fill="#7fbb1b" r="78.53"/><path d="m154.939 262.101c-8.38 3.06-17.43 4.72-26.86 4.72-43.37 0-78.53-35.16-78.53-78.53s35.16-78.53 78.53-78.53c9.43 0 18.48 1.66 26.86 4.72-30.14 10.97-51.67 39.87-51.67 73.81s21.53 62.84 51.67 73.81z" fill="#70a41c"/><path d="m128.39 168.29c0 15.28-10.2 28.18-24.17 32.27-2.99.87-6.16 1.34-9.44 1.34-18.56 0-33.61-15.05-33.61-33.61s15.05-33.61 33.61-33.61c8.7 0 16.62 3.3 22.58 8.72 6.78 6.15 11.03 15.03 11.03 24.89z" fill="#f5cf33"/><path d="m103.27 188.29c0 4.17.33 8.27.95 12.27-2.99.87-6.16 1.34-9.44 1.34-18.56 0-33.61-15.05-33.61-33.61s15.05-33.61 33.61-33.61c8.7 0 16.62 3.3 22.58 8.72-8.88 12.72-14.09 28.2-14.09 44.89z" fill="#f2b632"/><circle cx="89.78" cy="168.29" fill="#384948" r="16.617"/><path d="m462.45 188.29c0 23.95-10.72 45.4-27.63 59.8-7.33 6.25-15.82 11.17-25.1 14.39-8.08 2.81-16.76 4.34-25.8 4.34-43.37 0-78.53-35.16-78.53-78.53s35.16-78.53 78.53-78.53c7.59 0 14.93 1.08 21.88 3.09 10.82 3.13 20.67 8.52 29.02 15.64 16.91 14.4 27.63 35.85 27.63 59.8z" fill="#7fbb1b"/><path d="m434.82 248.09c-7.33 6.25-15.82 11.17-25.1 14.39-41.1-12.49-88.78-49.91-88.78-85.36 0-34.32 44.71-56.51 84.86-64.27 10.82 3.13 20.67 8.52 29.02 15.64-16.91 14.4-27.63 35.85-27.63 59.8s10.72 45.4 27.63 59.8z" fill="#70a41c"/><path d="m450.83 168.29c0 18.56-15.05 33.61-33.61 33.61-3.14 0-6.17-.43-9.05-1.23-14.17-3.96-24.56-16.96-24.56-32.38 0-18.56 15.05-33.61 33.61-33.61 3.41 0 6.7.51 9.8 1.45 13.78 4.2 23.81 17.01 23.81 32.16z" fill="#f5cf33"/><path d="m407.19 188.29c0 4.21.33 8.35.98 12.38-14.17-3.96-24.56-16.96-24.56-32.38 0-18.56 15.05-33.61 33.61-33.61 3.41 0 6.7.51 9.8 1.45-12.34 13.87-19.83 32.14-19.83 52.16z" fill="#f2b632"/><circle cx="422.22" cy="168.29" fill="#384948" r="16.617"/><path d="m425.3 284.7-5.01 19.99-12.39.085s9.03 11.545 6.33 17.814c-11.79 27.4-49.58 106.04-115.34 160.33-13.17 10.87-16.192 4.416-31.622 12.726-92.48-49.82-146.722-142.168-160.871-175.058-2.7-6.27-4.152-13.222-4.152-13.222l2.505-7.326-5.01-19.99c-4.25-16.95 2.401-20.896 17.621-29.486l17.976-8.282c32.81-18.51 43.297-84.982 13.176-107.601l-29.49-33.375c-6.11-4.59-28.872.215-28.872-6.835 0-5.38 1.86-10.8 5.68-15.21 6.61-7.62 17.38-10.12 26.66-6.18l39.73 16.86c12.2 5.18 24.72 9.3 37.43 12.37 4.19 1.02 8.4 1.91 12.63 2.69 45.95 8.52 93.79 3.49 137.5-15.06l39.73-16.86c9.28-3.94 20.05-1.44 26.66 6.18 3.82 4.41 5.68 9.83 5.68 15.21 0 7.05-3.18 14.03-9.29 18.62l-36.23 27.22c-30.12 22.62-27.1 68.72 5.71 87.23l24.68 13.92c15.219 8.59 22.829 26.29 18.579 43.24z" fill="#7fbb1b"/><path d="m298.89 482.92c-11.067 9.134-22.924 17.583-35.584 24.979-4.524 2.643-10.108 2.631-14.632-.012-105.099-61.418-154.944-195.157-154.944-195.157l-7.03-28.03c-4.25-16.95 3.36-34.65 18.58-43.24l24.68-13.92c32.81-18.51 35.83-64.61 5.71-87.23l-36.23-27.22c-6.11-4.59-9.29-11.57-9.29-18.62 0-5.38 1.86-10.8 5.68-15.21 6.61-7.62 17.38-10.12 26.66-6.18l39.73 16.86c12.2 5.18 24.72 9.3 37.43 12.37-35.59-3.81-26 36.43-2.27 60.16 26.2 26.2-49.6 79.38-31.35 116.49 17.4 35.38 16.83 160.02 132.86 203.96z" fill="#70a41c"/><path d="m236.229 245.871c-3.556 0-6.871-2.249-8.061-5.807-37.836-113.167-134.491-152.515-135.463-152.899-4.366-1.726-6.506-6.664-4.779-11.03 1.726-4.366 6.665-6.505 11.029-4.78 1.08.427 26.81 10.75 57.644 36.052 28.38 23.289 66.631 64.273 87.692 127.266 1.488 4.452-.914 9.268-5.366 10.757-.895.299-1.803.441-2.696.441z" fill="#f2b632"/><path d="m275.771 245.871c-.894 0-1.802-.142-2.696-.441-4.452-1.489-6.854-6.305-5.366-10.757 21.062-62.993 59.312-103.977 87.692-127.266 30.834-25.302 56.563-35.625 57.644-36.052 4.364-1.725 9.304.414 11.029 4.78 1.726 4.363-.411 9.297-4.771 11.026-.327.13-24.824 10.051-53.628 33.807-26.471 21.833-62.158 60.216-81.844 119.096-1.188 3.558-4.504 5.807-8.06 5.807z" fill="#f5cf33"/><path d="m420.29 304.69-2.02 8.04s-1.34 3.59-4.04 9.86c-4.64-5-13.74-13.29-28.99-21.52-22.44-12.12-63.08-26.57-129.24-26.57-36.53 0-65.28 4.41-87.49 10.39-18 4.86-31.7 10.75-41.75 16.18-15.24 8.23-24.35 16.52-28.99 21.52-2.7-6.27-4.04-9.86-4.04-9.86l-2.02-8.04c12.1-10.86 34.32-25.9 71.54-36.06 24.15-6.59 54.62-11.13 92.75-11.13 96.88 0 144.33 29.29 164.29 47.19z" fill="#f5cf33"/><path d="m168.51 284.89c-18 4.86-31.7 10.75-41.75 16.18-15.24 8.23-24.35 16.52-28.99 21.52-2.7-6.27-4.04-9.86-4.04-9.86l-2.02-8.04c12.1-10.86 34.32-25.9 71.54-36.06.26 3.56 1.14 7.01 2.78 10.33.87 1.76 1.69 3.75 2.48 5.93z" fill="#f2b632"/><path d="m266 334.14v177.66c-3.32.14-6.65.2-10 .2s-6.68-.06-10-.2v-177.66c0-5.52 4.48-10 10-10s10 4.48 10 10z" fill="#f5cf33"/><path d="m266 466.57v45.23c-3.32.14-6.65.2-10 .2s-6.68-.06-10-.2v-60.15c6.08 5.31 12.73 10.31 20 14.92z" fill="#f2b632"/><g fill="#70a41c"><g><circle cx="282.182" cy="128.029" r="10.165"/><circle cx="229.818" cy="128.029" r="10.165"/></g><circle cx="256" cy="148.382" r="10.165"/><circle cx="405.603" cy="272.645" r="10.165"/><circle cx="377.88" cy="256" r="10.165"/><circle cx="383.61" cy="337.745" r="10.165"/><circle cx="367.715" cy="366.515" r="10.165"/><g><circle cx="219.653" cy="307.365" r="10.165"/><circle cx="292.347" cy="307.365" r="10.165"/></g><circle cx="256" cy="297.201" r="10.165"/></g><g fill="#384948"><ellipse cx="205.276" cy="230.29" rx="10.165" ry="15.377"/><ellipse cx="306.724" cy="230.29" rx="10.165" ry="15.377"/></g></g></svg>