<svg id="Capa_1" enable-background="new 0 0 512 512" height="512" viewBox="0 0 512 512" width="512" xmlns="http://www.w3.org/2000/svg"><g><path d="m512 256c0 108.96-68.08 202.02-164.02 238.97-28.55 11-59.56-52.9-91.98-52.9-5.47 0-10.9-.17-16.28-.52-26.53-1.66-51.97 62.56-75.7 53.42-95.94-36.95-164.02-130.01-164.02-238.97 0-141.38 114.62-256 256-256s256 114.62 256 256z" fill="#7fbb1b"/><g><path d="m347.98 237.96v257.01c-28.55 11-59.56 17.03-91.98 17.03s-63.43-6.03-91.98-17.03v-257.01z" fill="#f7eadc"/><path d="m239.72 237.96v273.52c-26.53-1.66-51.97-7.37-75.7-16.51v-257.01z" fill="#ede0d3"/><path d="m385.3 125.982c-2.379-58.665-50.668-105.5-109.916-105.5h-38.767c-59.249 0-107.537 46.835-109.916 105.5-38.889 16.076-51.886 70.849-15.829 101.788l145.128 124.529 145.129-124.529c36.057-30.939 23.06-85.712-15.829-101.788z" fill="#fff9f1"/><path d="m256.009 352.301-145.138-124.531c-36.053-30.944-23.06-85.717 15.831-101.792 2.388-58.664 50.665-105.503 109.92-105.503h10.297c-25.677 0-46.971 40.076-50.895 92.518-.539 7.199-2.774 14.145-6.587 20.275-13.374 21.501-16.323 67.246-1.439 94.502z" fill="#f7eadc"/><g><ellipse cx="173.369" cy="142.398" fill="#516666" rx="18.715" ry="26.909"/><path d="m182.719 165.702c-2.75 2.292-5.951 3.606-9.352 3.606-10.341 0-18.713-12.048-18.713-26.91s8.372-26.91 18.713-26.91c3.401 0 6.602 1.314 9.352 3.606-5.587 4.651-9.352 13.346-9.352 23.304s3.765 18.654 9.352 23.304z" fill="#384948"/><ellipse cx="338.631" cy="142.398" fill="#516666" rx="18.715" ry="26.909"/><path d="m347.98 165.702c-2.75 2.292-5.951 3.606-9.352 3.606-10.341 0-18.713-12.048-18.713-26.91s8.372-26.91 18.713-26.91c3.401 0 6.602 1.314 9.352 3.606-5.587 4.651-9.352 13.346-9.352 23.304s3.765 18.654 9.352 23.304z" fill="#384948"/></g><path d="m174.286 240.322 15.612-82.973c2.186-11.619 15.974-16.709 25.186-9.297l29.515 23.751c6.657 5.357 16.145 5.357 22.802 0l29.515-23.751c9.211-7.412 22.999-2.323 25.186 9.297l15.612 82.973-91.81 48.295z" fill="#617f7f"/><path d="m331.07 268.37c-11.32 6.09-23.19 17.07-23.19 36.32v93.66c0 18.86-12.09 34.89-28.94 40.78-4.33 1.53-8.99-10.335-13.83-10.285h-17c-5.31 0-10.4 11.745-15.1 9.995-16.42-6.13-28.11-21.94-28.11-40.49v-93.66c0-19.25-11.87-30.23-23.19-36.32-10.06-5.42-13.36-18.29-7.42-28.05l30.2-49.67c3.77-6.21 13.31-3.53 13.31 3.73v12.82c0 10.57 4.25 20.14 11.13 27.12l.17.17c6.99 6.98 16.64 11.3 27.29 11.3 21.31 0 38.59-17.28 38.59-38.59v-12.82c0-7.26 9.54-9.94 13.31-3.73l30.2 49.67c5.94 9.76 2.64 22.63-7.42 28.05z" fill="#f5cf33"/><path d="m250.03 437.73c-5.35.52-12.87 2.65-17.02 1.11-16.42-6.12-28.11-21.94-28.11-40.49v-93.66c0-19.25-11.87-30.23-23.19-36.32-10.06-5.42-13.36-18.29-7.42-28.05l30.2-49.67c3.77-6.21 13.31-3.53 13.31 3.73v12.82c0 10.57 4.25 20.14 11.13 27.12l-5.37 34.34c-.85 5.45.96 10.99 4.86 14.89 1.62 1.63 2.89 3.53 3.75 5.61s1.32 4.32 1.32 6.62v114.15c0 12.01 6.69 22.45 16.54 27.8z" fill="#f2b632"/><path d="m279.72 429.98c0 3.16-.27 6.23-.78 9.15-4.33 1.53-8.99 2.37-13.83 2.42h-17c-5.31 0-10.4-.96-15.1-2.71-.48-2.84-.73-5.8-.73-8.86 0-4.9.65-9.58 1.82-13.84 3.56-13.03 12.03-22.19 21.9-22.19 13.1 0 23.72 16.13 23.72 36.03z" fill="#6e8c8e"/><path d="m264.92 441.55h-16.81c-5.31 0-10.4-.96-15.1-2.71-.48-2.84-.73-5.8-.73-8.86 0-4.9.65-9.58 1.82-13.84 2.87 14.43 15.56 25.32 30.82 25.41z" fill="#617f7f"/><g fill="#516666"><ellipse cx="208.634" cy="241.345" rx="11.227" ry="22.038" transform="matrix(.958 -.287 .287 .958 -60.395 69.883)"/><ellipse cx="304.145" cy="237.96" rx="22.038" ry="11.227" transform="matrix(.287 -.958 .958 .287 -10.971 461.189)"/></g></g></g></svg>