<svg id="Capa_1" enable-background="new 0 0 512 512" height="512" viewBox="0 0 512 512" width="512" xmlns="http://www.w3.org/2000/svg"><g><path d="m512 256c0 39.33-8.87 76.59-24.73 109.88-41.11 86.4-129.22 22.779-231.27 22.779s-190.16 63.621-231.27-22.779c-15.86-33.29-24.73-70.55-24.73-109.88 0-141.38 114.62-256 256-256s256 114.62 256 256z" fill="#f5cf33"/><path d="m487.27 365.88c-41.11 86.4-129.22 146.12-231.27 146.12-49.08 0-94.94-13.82-133.9-37.78-42.04-25.84-76.03-63.5-97.37-108.34 28.25-76.27 81.55-136.01 147.26-163.92 26.29-11.17 54.56-17.25 84.01-17.25 103.05 0 191.72 74.39 231.27 181.17z" fill="#516666"/><path d="m199.81 256s-69.19 96.53-77.71 218.22c-42.04-25.84-76.03-63.5-97.37-108.34 28.25-76.27 81.55-136.01 147.26-163.92z" fill="#384948"/><g><path d="m165.991 152.82-2.61 15.82-15.58 94.59-32.34 16.74c-7.26 3.76-14.88 6.51-22.68 8.26-20.92 4.68-43.09 2.13-62.7-7.69l-20.39-10.21c-12.64-6.33-12.99-24.24-.61-31.05l152.74-84.16z" fill="#809ca0"/><path d="m163.381 168.64-15.58 94.59-32.34 16.74c-7.26 3.76-14.88 6.51-22.68 8.26l3.69-29.772c2.252-18.175-13.87-33.267-31.857-29.82l-55.533 10.642 152.74-84.16z" fill="#6e8c8e"/></g><g><path d="m346.009 152.82 2.61 15.82 15.58 94.59 32.34 16.74c7.26 3.76 14.88 6.51 22.68 8.26 20.92 4.68 43.09 2.13 62.7-7.69l20.39-10.21c12.64-6.33 12.99-24.24.61-31.05l-152.74-84.16z" fill="#809ca0"/><path d="m348.619 168.64 15.58 94.59 32.34 16.74c7.26 3.76 14.88 6.51 22.68 8.26l-3.69-29.772c-2.252-18.175 13.87-33.267 31.857-29.82l55.533 10.642-152.74-84.16z" fill="#6e8c8e"/></g><path d="m280.634 454.374h-43.975c-33.471 0-60.605-27.134-60.605-60.605v-70.825h165.184v70.825c.001 33.471-27.133 60.605-60.604 60.605z" fill="#6e8c8e"/><path d="m283.639 454.294c-.99.06-1.99.08-3 .08h-43.98c-33.47 0-60.6-27.13-60.6-60.6v-70.83h49.97v70.83c0 32.46 25.53 58.96 57.61 60.52z" fill="#617f7f"/><path d="m283.639 49.481h36.275l69.777 132.379s31.169 125.617-26.187 225.421l-107.504-93.994z" fill="#617f7f"/><path d="m256 313.287-107.505 93.994c-57.356-99.804-26.187-225.421-26.187-225.421l77.499-132.379h83.832z" fill="#516666"/><path d="m263.541 65.726 111.557 78.855s29.514 144.28-48.563 178.363h-70.535z" fill="#6e8c8e"/><path d="m256 322.944h-70.535c-78.076-34.083-48.563-178.363-48.563-178.363l119.098-78.855z" fill="#617f7f"/><path d="m387.81 165.81s-84.5-4.52-105.96 116.33h-50.09c-21.46-120.85-105.96-116.33-105.96-116.33l62.45-72.98 23.18-27.1 108.48-16.25z" fill="#809ca0"/><path d="m256 282.14h-24.24c-21.46-120.85-105.96-116.33-105.96-116.33l62.45-72.98 55.93-17.09s-60.22 88.38 11.82 206.4z" fill="#6e8c8e"/><path d="m256 342.422v14.605c0 22.06 17.883 39.944 39.944 39.944h20.707l8.441 19.718c3.157 7.374 10.405 12.156 18.426 12.156 11.669 0 20.871-9.929 19.986-21.564l-6.049-79.523c-2.521-33.15-27.521-60.208-60.368-65.339-27.227-4.253-54.948-4.253-82.175 0-32.847 5.131-57.847 32.189-60.368 65.339l-6.049 79.523c-.885 11.635 8.317 21.564 19.986 21.564 8.021 0 15.27-4.782 18.426-12.156l8.441-19.718h20.708c22.06 0 39.944-17.883 39.944-39.944z" fill="#809ca0"/><path d="m284.134 260.718c-4.33.46-8.65 1.03-12.96 1.7-16.43 2.56-30.89 10.61-41.56 22.16s-17.55 26.6-18.81 43.18l-5.27 69.21h-10.19l-8.44 19.72c-1.58 3.69-4.18 6.72-7.38 8.84-3.21 2.11-7.03 3.31-11.04 3.31-11.67 0-20.87-9.92-19.99-21.56l6.05-79.52c1.26-16.58 8.14-31.63 18.81-43.18s25.13-19.6 41.56-22.16c13.61-2.12 27.35-3.19 41.09-3.19 9.39 0 18.78.5 28.13 1.49z" fill="#6e8c8e"/><path d="m281.193 264.061h-50.386c-29.207 0-52.883 23.677-52.883 52.883 0 18.539 15.029 33.569 33.569 33.569h89.016c18.539 0 33.569-15.029 33.569-33.569-.001-29.206-23.678-52.883-52.885-52.883z" fill="#6e8c8e"/><path d="m233.744 340.685c6.08 6.07 14.47 9.83 23.74 9.83h-45.99c-9.27 0-17.66-3.76-23.74-9.83-6.07-6.08-9.83-14.47-9.83-23.74 0-29.21 23.68-52.88 52.89-52.88h45.98c-29.21 0-52.88 23.67-52.88 52.88 0 9.269 3.76 17.66 9.83 23.74z" fill="#617f7f"/><path d="m439.49 36.27c-7.16-.45-9.05 9.71-2.2 11.86l2.7.85c16.32 5.12 26.16 20.07 26.16 35.68 0 6.76-1.85 13.65-5.82 19.92-14.24 22.45-46.71 23.24-62.03 1.52l-43.09-61.12c-4.02-5.7-8.75-10.57-13.97-14.59-24.67-18.98-60.45-18.96-85.24 2.71-30.04-26.26-76.21-20.73-99.21 11.88l-43.09 61.12c-6.81 9.66-17.01 14.86-27.48 15.7-13.1 1.04-26.64-4.75-34.55-17.22-3.97-6.27-5.82-13.16-5.82-19.92 0-15.61 9.84-30.56 26.16-35.68l2.7-.85c6.85-2.15 4.96-12.31-2.2-11.86-40.65 2.57-69.79 36.51-69.79 74.23 0 8.94 1.64 18.09 5.15 27.09 12.59 32.29 42.91 51.98 75.09 52.93.82.03 1.63.04 2.45.04 12.38 0 24.98-2.78 36.9-8.7l89.12-44.24c27.3-13.56 44.57-41.41 44.57-71.89 0 30.48 17.27 58.33 44.57 71.89l89.12 44.24c11.92 5.92 24.52 8.7 36.9 8.7 33.08 0 64.63-19.86 77.54-52.97 3.51-9 5.15-18.15 5.15-27.09 0-37.72-29.14-71.66-69.79-74.23z" fill="#b75c34"/><g><path d="m165.84 216.282c-.48 15.29-9.25 27.47-20.01 27.47-11.06 0-20.03-12.9-20.03-28.81 0-7.95 2.24-15.15 5.86-20.36 14.62 2.95 26.54 13.251 34.18 21.7z" fill="#516666"/><path d="m155.85 239.892c-2.95 2.45-6.38 3.86-10.02 3.86-11.07 0-20.03-12.9-20.03-28.81 0-7.95 2.23-15.15 5.85-20.36 6.01 1.21 11.57 3.67 16.56 6.73-1.52 4.05-2.38 8.7-2.38 13.63 0 10.661 4.03 19.97 10.02 24.95z" fill="#384948"/><path d="m386.2 214.942c0 15.91-8.97 28.81-20.04 28.81s-20.04-12.9-20.04-28.81c0-.17 0-.35.01-.52 7.95-8.35 19.76-17.79 34.01-20.12 3.74 5.23 6.06 12.551 6.06 20.64z" fill="#516666"/><path d="m376.17 239.892c-2.94 2.45-6.37 3.86-10.01 3.86-11.07 0-20.04-12.9-20.04-28.81 0-.17 0-.35.01-.52 6.08-6.38 14.41-13.4 24.37-17.4-2.71 4.91-4.34 11.14-4.34 17.92 0 10.661 4.03 19.97 10.01 24.95z" fill="#384948"/></g><g fill="#516666"><path d="m232.766 320.12v30.39h-14.51v-9.541c0-4.48-3.673-8.018-8.153-8.009-.029 0-.058 0-.087 0-12.57 0-22.75-5.75-22.75-12.84s10.18-12.83 22.75-12.83 22.75 5.74 22.75 12.83z"/><path d="m279.234 320.12v30.39h14.51v-9.541c0-4.48 3.673-8.018 8.153-8.009h.087c12.57 0 22.75-5.75 22.75-12.84s-10.18-12.83-22.75-12.83-22.75 5.74-22.75 12.83z"/></g><g fill="#a54828"><path d="m82.96 190.52c-32.18-.95-62.5-20.64-75.09-52.93-3.51-9-5.15-18.15-5.15-27.09 0-37.72 29.14-71.66 69.79-74.23 7.16-.45 9.05 9.71 2.2 11.86l-2.7.85c-16.32 5.12-26.16 20.07-26.16 35.68 0 6.76 1.85 13.65 5.82 19.92 7.91 12.47 21.45 18.26 34.55 17.22-.83.68-39.4 32.54-3.26 68.72z"/><path d="m300.57 137.62c-27.3-13.56-44.57-41.41-44.57-71.89v-32.63c24.79-21.67 60.57-21.69 85.24-2.71 0 0-67.86 9.01-40.67 107.23z"/></g></g></svg>