<svg id="Capa_1" enable-background="new 0 0 512 512" height="512" viewBox="0 0 512 512" width="512" xmlns="http://www.w3.org/2000/svg"><g><path d="m512 256c0 31.89-5.83 62.42-16.49 90.58-89.907 43.353-130.02 73.967-239.51 73.967-48.57 0-41.39 42.23-80.08 18.719-48.52-29.46-139.08-38.896-159.43-92.686-10.66-28.16-16.49-58.69-16.49-90.58 0-141.38 114.62-256 256-256s256 114.62 256 256z" fill="#8fd1e3"/><path d="m495.51 346.58c-36.58 96.68-130.02 165.42-239.51 165.42s-202.93-68.74-239.51-165.42c62.51-51.7 146.79-83.38 239.51-83.38s177 31.68 239.51 83.38z" fill="#b75c34"/><path d="m256 263.2c-61.22 0-113.24 86.61-131.99 207.06-.24 1.57-.48 3.14-.69 4.71-48.52-29.46-86.48-74.6-106.83-128.39 62.51-51.7 146.79-83.38 239.51-83.38z" fill="#a54828"/><path d="m412.249 198.923c-5.599-15.551-5.554-32.695.73-47.982 3.196-7.774 4.894-15.913 4.894-24.295 0-54.776-72.473-99.181-161.873-99.181s-161.873 44.405-161.873 99.181c0 8.382 1.698 16.521 4.894 24.295 6.284 15.287 6.329 32.431.73 47.981-16.342 45.391-32.684 90.783-49.026 136.175-7.498 20.826 4.074 43.742 25.332 49.912 117.525 34.107 242.359 34.107 359.885 0 21.258-6.169 32.83-29.085 25.332-49.912-16.341-45.391-32.683-90.783-49.025-136.174z" fill="#fff9f1"/><path d="m177.648 138.889c0 9.41.83 18.56 2.37 27.29 3.04 17.17 3.07 36.43.36 53.9-7.91 51-15.82 101.99-23.73 152.99-1.56 10.07-1.41 20.58.08 29.83-27.15-4.21-54.1-10.18-80.67-17.89-21.26-6.17-32.83-29.09-25.33-49.91 16.34-45.4 32.68-90.79 49.02-136.18 5.6-15.55 5.56-32.69-.73-47.98-3.19-7.77-4.89-15.91-4.89-24.3 0-54.77 72.47-99.18 161.87-99.18-43.27 0-78.35 49.89-78.35 111.43z" fill="#f7eadc"/><path d="m341.571 208.829c9.165 8.178.456 22.916-11.154 18.91-23.325-8.049-48.364-12.42-74.426-12.42-26.056 0-51.089 4.367-74.41 12.413-11.609 4.005-20.315-10.731-11.152-18.907 22.728-20.28 52.704-32.606 85.562-32.606 32.865 0 62.848 12.327 85.58 32.61z" fill="#f2b632"/><path d="m309.76 242.445c-11.81 9.54-31.32 28.87-43.31 59.67-1.68 4.32-5.82 7.18-10.45 7.18-.81 0-1.61-.09-2.37-.26-1.44-.3-2.78-.89-3.96-1.71-1.83-1.26-3.28-3.05-4.12-5.21-11.99-30.8-31.5-50.13-43.31-59.67-5.69-4.6 7.325-15.95 9.895-22.799 11.27-30.02.524-52.751 2.225-68.211.98-8.89 7.12-16.35 15.64-19.08 4.86-1.56 9.81-2.67 14.82-3.33 3.71-.49 7.44-.74 11.18-.74 8.77 0 17.54 1.36 26 4.07 4.26 1.37 7.92 3.91 10.65 7.23 2.72 3.32 4.5 7.4 4.99 11.85 1.7 15.46 6.09 41.85 17.36 71.87 2.57 6.85.45 14.54-5.24 19.14z" fill="#fde42f"/><g><path d="m191.094 157.895c2.104 2.516 2.843 5.894 2.019 9.068-3.734 14.386-14.584 24.791-27.383 24.791-15.89 0-28.78-16.05-28.78-35.84 0-8.053 2.132-15.481 5.731-21.466 2.827-4.701 8.894-6.315 13.679-3.632 12.236 6.861 25.456 15.987 34.734 27.079z" fill="#f5cf33"/><path d="m175.92 189.435c-3.17 1.5-6.6 2.32-10.19 2.32-15.89 0-28.78-16.05-28.78-35.84 0-8.05 2.13-15.475 5.727-21.459 2.841-4.726 8.933-6.299 13.742-3.602 2.153 1.208 4.336 2.485 6.521 3.83-3.52 5.94-5.6 13.28-5.6 21.23 0 15.321 7.72 28.391 18.58 33.521z" fill="#f2b632"/><path d="m375.05 155.915c0 19.79-12.89 35.84-28.78 35.84-12.799 0-23.649-10.405-27.383-24.791-.824-3.174-.085-6.553 2.019-9.068 9.278-11.092 22.497-20.218 34.733-27.078 4.785-2.683 10.851-1.069 13.679 3.632 3.6 5.984 5.732 13.412 5.732 21.465z" fill="#f5cf33"/><path d="m356.46 189.435c-3.17 1.5-6.61 2.32-10.2 2.32-12.791 0-23.64-10.406-27.373-24.793-.829-3.193-.063-6.581 2.056-9.111 5.565-6.644 12.546-12.585 19.878-17.747-1.89 4.77-2.95 10.14-2.95 15.81-.001 15.321 7.719 28.391 18.589 33.521z" fill="#f2b632"/><g fill="#384948"><ellipse cx="346.267" cy="155.915" rx="11.579" ry="14.418"/><ellipse cx="165.733" cy="155.915" rx="11.579" ry="14.418"/></g></g><path d="m253.63 309.035c-1.44-.3-2.78-.89-3.96-1.71-1.83-1.26-3.28-3.05-4.12-5.21-11.99-30.8-31.5-50.13-43.31-59.67-5.69-4.6-7.81-12.29-5.24-19.14 11.27-30.02 15.66-56.41 17.36-71.87.98-8.89 7.12-16.35 15.64-19.08 4.86-1.56 9.81-2.67 14.82-3.33-4.47 20.32-18.76 99.48 8.81 180.01z" fill="#f5cf33"/><g fill="#516666"><ellipse cx="225.882" cy="167.923" rx="6.4" ry="12.009"/><ellipse cx="286.118" cy="167.923" rx="6.4" ry="12.009"/></g></g></svg>