<svg id="Capa_1" enable-background="new 0 0 512 512" height="512" viewBox="0 0 512 512" width="512" xmlns="http://www.w3.org/2000/svg"><g><path d="m512 256c0 78.94-35.73 149.54-91.91 196.5-52.764 0-101.65 17.073-164.09 17.073-26.5 0-52.07-4.03-76.11-11.51-32.6-10.14-62.41 15.817-87.98-5.563-56.18-46.96-91.91-117.56-91.91-196.5 0-141.38 114.62-256 256-256s256 114.62 256 256z" fill="#f5cf33"/><g><path d="m423.856 305.575c0-41.418-72.922-74.994-162.875-74.994s-162.876 33.576-162.876 74.994 72.922 111.144 162.875 111.144 162.876-69.726 162.876-111.144z" fill="#b75c34"/><path d="m420.09 452.5c-44.43 37.14-101.65 59.5-164.09 59.5s-119.66-22.36-164.09-59.5c32.45-62.69 93.78-104.97 164.09-104.97s131.64 42.28 164.09 104.97z" fill="#b75c34"/><path d="m308.99 355.83c-62.75 20.13-111.97 75.15-129.1 144.66-32.6-10.14-62.41-26.61-87.98-47.99 32.44-62.69 93.77-104.97 164.09-104.97 18.4 0 36.18 2.9 52.99 8.3z" fill="#a54828"/><path d="m434.76 223.86-10.23 68.06c-.35.74-22.318-11.991-22.698-11.241-5.6 11.13-3.106 31.906-4.412 49.521-26.17 26.42-69.9 50.37-141.43 50.37-70.9 0-114.49-23.54-140.73-49.69-12.07-12.02-3.633-31.77-9.333-42.86-.57-1.11-17.947 4.98-18.467 3.9l-18.63-101.09 83.86-64.38 14.47 2.87 96.82 19.15 125.04-22.02z" fill="#ffe5bf"/><path d="m255.995 380.568c-70.899 0-114.489-23.542-140.733-49.69-3.123-21.682-22.107-27.112-27.797-38.96l-18.64-101.09 83.86-64.38 14.48 2.87c-25.51 78.86-15.8 180.88 88.83 251.25z" fill="#ffe0a7"/><path d="m306.125 318.048c-1.07.68-2.07 1.47-2.98 2.38-9.61 9.61-31.02 27.1-47.15 27.1-16.12 0-37.53-17.49-47.14-27.1-.91-.91-1.91-1.7-2.98-2.38 3.32.15 6.63.68 9.88 1.58 9.09 2.52 22.57 5.03 40.24 5.03 17.68 0 31.16-2.51 40.25-5.03 3.25-.9 6.56-1.43 9.88-1.58z" fill="#dc8758"/><path d="m306.125 318.048c-1.07.68-2.07 1.47-2.98 2.38-9.61 9.61-31.02 27.1-47.15 27.1-16.12 0-37.53-17.49-47.14-27.1-.91-.91-1.91-1.7-2.98-2.38 3.32.15 7.845-2.392 11.095-1.492 9.09 2.52 21.355 4.999 39.025 4.999 17.68 0 31.16-2.479 40.25-4.999 3.25-.9 6.56 1.642 9.88 1.492z" fill="#dc8758"/><path d="m326.545 313.848c-5.78-.24-14.24.25-20.42 4.2-3.32.15-6.63.68-9.88 1.58-9.09 2.52-22.57 5.03-40.25 5.03-17.67 0-31.15-2.51-40.24-5.03-3.25-.9-6.56-1.43-9.88-1.58-6.18-3.95-14.64-4.44-20.42-4.2-.7.03-1.11-.52-1.11-1.07 0-.38.2-.77.64-.96 9.68-4.31 20.56-5.18 30.77-2.35 9.09 2.52 22.57 5.03 40.24 5.03 17.68 0 31.16-2.51 40.25-5.03 3.96-1.1 8.02-1.64 12.07-1.64 6.4 0 12.77 1.35 18.7 3.99 1.08.47.71 2.08-.47 2.03z" fill="#516666"/><path d="m274.868 315.24c13.45-1.884 23.455-13.389 23.455-26.97v-4.463c0-11.813-11.276-20.364-22.651-17.176l-13.514 3.786c-4.029 1.129-8.29 1.129-12.318 0l-13.514-3.786c-11.375-3.187-22.651 5.363-22.651 17.176v4.463c0 13.581 10.006 25.086 23.455 26.97 12.519 1.754 25.22 1.754 37.738 0z" fill="#b75c34"/><path d="m270.396 315.79c-4.79.51-9.6.76-14.4.76-6.3 0-12.61-.43-18.87-1.31-13.45-1.88-23.45-13.39-23.45-26.97v-4.46c0-11.82 11.27-20.37 22.65-17.18l12.52 3.51c-3.86 3.23-6.37 8.08-6.37 13.67v4.46c0 13.58 10 25.09 23.45 26.97 1.49.21 2.98.39 4.47.55z" fill="#a54828"/><path d="m172.91 286.09c-.81.17-1.62.32-2.44.45-25.48 4.03-47.24 18.66-55.21 44.34-12.07-12.02-20.47-24.59-26.17-35.68 15.33-42.89 40.88-71.34 66.75-77.49 11.3-2.71 22.67-1.15 33.27 5.31 37.97 23.11 14.8 56.68-16.2 63.07z" fill="#b75c34"/><path d="m172.91 286.09c-.81.17-1.62.32-2.44.45-25.48 4.03-47.24 18.66-55.21 44.34-12.07-12.02-20.47-24.59-26.17-35.68 15.33-42.89 40.88-71.34 66.75-77.49 1.61 22.83 6.95 45.94 17.07 68.38z" fill="#a54828"/><path d="m423.43 294.16c-5.6 11.13-13.94 23.84-26.01 36.04-8.13-25.26-29.74-39.67-54.99-43.66-32.19-5.08-57.6-39.81-18.64-63.53 34.71-21.12 77.51 10.21 99.64 71.15z" fill="#b75c34"/><g fill="#384948"><ellipse cx="236.158" cy="297.963" rx="11.859" ry="7.215"/><ellipse cx="275.841" cy="297.963" rx="11.859" ry="7.215"/></g><path d="m440.865 353.598-25.15 40.19c-9.41 15.05-25.35 22.93-41.44 22.93-12.36 0-24.82-4.66-34.46-14.3-2.75-2.75-2.36-7.31.82-9.54 22.29-15.58 95.61-74.54 75.43-163.94-13.88-61.45-66.31-59.11-107.43-46.59-34.34 10.45-70.93 10.45-105.27 0-14.77-4.5-31-7.68-46.38-7.07-27.43 1.1-52.15 14.29-61.05 53.66-20.19 89.4 53.14 148.36 75.43 163.94 1.75 1.23 2.66 3.16 2.66 5.11 0 1.59-.6 3.19-1.84 4.43-22.19 22.19-59.26 17.98-75.9-8.63l-25.15-40.19c-42.01-67.15-39.06-153.07 7.45-217.18l48.21-66.45c26.37-36.35 68.57-57.87 113.49-57.87h31.43c44.92 0 87.11 21.52 113.49 57.87l48.21 66.45c46.51 64.11 49.46 150.03 7.45 217.18z" fill="#dc8758"/><path d="m95.935 228.938c-20.19 89.4 53.14 148.36 75.43 163.94 1.75 1.23 2.66 3.16 2.66 5.11 0 1.59-.6 3.19-1.84 4.43-22.19 22.19-59.26 17.98-75.9-8.63l-25.15-40.19c-42.01-67.15-39.06-153.07 7.45-217.18l48.21-66.45c26.37-36.35 68.57-57.87 113.49-57.87h31.43c-43.7 0-104 74.64-114.73 163.18-27.43 1.1-52.15 14.29-61.05 53.66z" fill="#cc754a"/><g><ellipse cx="169.463" cy="251.848" fill="#fff9f1" rx="24.444" ry="30.437"/><path d="m178.12 280.318c-2.692 1.276-5.612 1.969-8.66 1.969-13.499 0-24.44-13.628-24.44-30.438s10.941-30.438 24.44-30.438c3.048 0 5.967.693 8.66 1.969-9.23 4.354-15.787 15.455-15.787 28.47s6.556 24.113 15.787 28.468z" fill="#f7eadc"/><path d="m184.279 251.85c0 10.892-6.501 19.902-14.94 21.319-.767.129-1.546.196-2.337.196-9.543 0-17.277-9.635-17.277-21.515 0-11.886 7.734-21.515 17.277-21.515.791 0 1.57.067 2.337.196 8.439 1.418 14.94 10.421 14.94 21.319z" fill="#516666"/><ellipse cx="342.536" cy="251.848" fill="#fff9f1" rx="24.444" ry="30.437"/><path d="m351.192 280.318c-2.692 1.276-5.612 1.969-8.66 1.969-13.499 0-24.44-13.628-24.44-30.438s10.941-30.438 24.44-30.438c3.048 0 5.967.693 8.66 1.969-9.23 4.354-15.787 15.455-15.787 28.47s6.557 24.113 15.787 28.468z" fill="#f7eadc"/><path d="m362.273 251.85c0 11.88-7.734 21.515-17.277 21.515-.895 0-1.772-.086-2.631-.245-8.292-1.582-14.646-10.506-14.646-21.27 0-10.77 6.354-19.687 14.646-21.27.859-.159 1.736-.245 2.631-.245 9.544.001 17.277 9.63 17.277 21.515z" fill="#516666"/><g fill="#384948"><path d="m335.404 251.85c0 8.28 2.656 15.787 6.961 21.27-8.292-1.582-14.646-10.506-14.646-21.27 0-10.77 6.354-19.687 14.646-21.27-4.305 5.484-6.961 12.991-6.961 21.27z"/><path d="m162.335 251.85c0 8.304 2.668 15.829 7.004 21.319-.767.129-1.546.196-2.337.196-9.543 0-17.277-9.635-17.277-21.515 0-11.886 7.734-21.515 17.277-21.515.791 0 1.57.067 2.337.196-4.336 5.49-7.004 13.015-7.004 21.319z"/></g></g></g></g></svg>