<svg id="Capa_1" enable-background="new 0 0 512 512" height="512" viewBox="0 0 512 512" width="512" xmlns="http://www.w3.org/2000/svg"><g><path d="m512 256c0 119.4-81.75 219.71-192.32 248.02-20.36 5.21-41.7-23.63-63.68-23.63-7.5 0-14.93-.32-22.27-.96-14.16-1.22-28 28.02-41.41 24.59-110.57-28.31-192.32-128.62-192.32-248.02 0-141.38 114.62-256 256-256s256 114.62 256 256z" fill="#b75c34"/><path d="m337.63 283.45-17.95 220.57c-20.36 5.21-41.7 7.98-63.68 7.98s-43.32-2.77-63.68-7.98l-17.95-220.57z" fill="#f7eadc"/><path d="m233.73 511.04c-14.16-1.22-28-3.59-41.41-7.02l-17.96-220.57h52.83z" fill="#ede0d3"/><path d="m167.721 304.968c26.605 15.123 42.607 36.918 72.051 39.262 40.246 3.204 81.203-5.53 117.569-26.201 23.609-13.42 43.973-29.936 55.829-47.979 28.023-42.643-13.402-80.412-28.023-95.033s0-19.494 0-40.206 45.08-35.333 34.114-73.102c-4.34-14.95-30.825-26.656-61.243-35.342-66.62-19.025-137.417-19.025-204.037 0-30.418 8.687-56.903 20.392-61.243 35.342-10.965 37.769 34.114 52.39 34.114 73.102s14.62 25.586 0 40.206-56.045 52.39-28.023 95.033c11.858 18.043 45.282 21.498 68.892 34.918z" fill="#fff9f1"/><path d="m256 344.871c-34.93 0-69.85-8.95-101.34-26.84-23.61-13.42-43.97-29.94-55.83-47.98-28.02-42.64 13.4-80.41 28.02-95.03s0-19.5 0-40.21-45.08-35.33-34.11-73.1c4.34-14.95 30.82-26.66 61.24-35.34 33.31-9.51 67.67-14.27 102.02-14.27-16.21 0-32.41 4.76-48.13 14.27-14.35 8.68-26.84 20.39-28.89 35.34-5.17 37.77 16.09 73.1 16.09 93.81s6.9 4.88 0 19.5c-6.89 14.62-26.44 52.39-13.22 95.03 5.6 18.04 15.2 34.56 26.34 47.98 14.86 17.889 31.33 26.84 47.81 26.84z" fill="#f7eadc"/><path d="m386.489 95.839s25.436-2.805 43.416 13.157c4.472 3.97 1.279 11.347-4.674 10.777l-38.742-3.706z" fill="#516666"/><path d="m377.58 201.93c0 .97-.06 1.94-.18 2.9v.01c-.37 2.91-10.823-3.733-12.343-1.033-1.37 2.42 6.423 14.033 4.423 15.733-4.24 3.66-9.65 5.63-15.17 5.63-3.84 0-7.73-.95-11.31-2.95-19.41-10.84-43.47-8.68-60.63 5.44-7.66 6.3-17.01 9.45-26.37 9.45s-18.71-3.15-26.37-9.45c-9.43-7.76-20.94-11.91-32.62-12.27-.56-.02-1.13-.03-1.69-.03-9.02 0-18.09 2.26-26.32 6.86-3.58 2-7.47 2.95-11.31 2.95-5.52 0-10.93-1.97-15.17-5.63-2-1.7 5.576-9.57 4.206-11.99-1.52-2.7-11.756.2-12.126-2.71v-.01c-1.07-8.48 2.61-17.19 10.12-22.22l66.04-44.27c13.088-8.782 28.097-13.343 43.19-13.723.678-.024 1.361-.037 2.05-.037 15.78 0 31.56 4.58 45.24 13.76l66.04 44.27c6.65 4.46 10.3 11.8 10.3 19.32z" fill="#ffc1ae"/><path d="m256 124.58c-.683 0-1.367.02-2.05.037.678-.024 1.361-.037 2.05-.037z" fill="#f4ad9d"/><path d="m197.01 215.39c-.56-.02-1.13-.03-1.69-.03-9.02 0-18.09 2.26-26.32 6.86-3.58 2-7.47 2.95-11.31 2.95-5.52 0-10.93-1.97-15.17-5.63-2-1.7-3.73-3.79-5.1-6.21-1.52-2.7-2.45-5.58-2.82-8.49v-.01c-1.07-8.48 2.61-17.19 10.12-22.22l66.04-44.27c13.088-8.782 28.097-13.343 43.19-13.723-42.284 1.528-62.796 50.253-56.94 90.773z" fill="#f4ad9d"/><path d="m377.4 204.83v.01c-.37 2.91-1.3 5.79-2.82 8.49-1.37 2.42-3.1 4.51-5.1 6.21l-6.84-6.84c-13.19-13.19-32.57-18.38-50.59-13.56l-15.9 4.25c-26.27 7.03-54.03 7.03-80.3 0l-15.9-4.25c-18.02-4.82-37.4.37-50.59 13.56l-6.84 6.84c-2-1.7-3.73-3.79-5.1-6.21-1.52-2.7-2.45-5.58-2.82-8.49v-.01l3.44-3.44c17.22-17.22 42.53-24 66.05-17.71l15.89 4.25c23.57 6.31 48.47 6.31 72.04 0l15.89-4.25c23.52-6.29 48.83.49 66.05 17.71z" fill="#f97855"/><g><ellipse cx="125.508" cy="138.337" fill="#516666" rx="29.555" ry="42.495"/><path d="m140.273 175.139c-4.343 3.619-9.398 5.695-14.769 5.695-16.331 0-29.551-19.027-29.551-42.497s13.221-42.497 29.551-42.497c5.37 0 10.426 2.076 14.769 5.695-8.823 7.345-14.769 21.076-14.769 36.803s5.946 29.457 14.769 36.801z" fill="#384948"/><ellipse cx="386.492" cy="138.337" fill="#516666" rx="29.555" ry="42.495"/><path d="m401.257 175.139c-4.343 3.619-9.398 5.695-14.769 5.695-16.331 0-29.551-19.027-29.551-42.497s13.221-42.497 29.551-42.497c5.37 0 10.426 2.076 14.769 5.695-8.823 7.345-14.769 21.076-14.769 36.803s5.946 29.457 14.769 36.801z" fill="#384948"/></g><path d="m125.508 95.839s-25.436-2.805-43.416 13.157c-4.472 3.97-1.279 11.347 4.674 10.777l38.742-3.706z" fill="#384948"/></g></svg>