<svg id="Capa_1" enable-background="new 0 0 512 512" height="512" viewBox="0 0 512 512" width="512" xmlns="http://www.w3.org/2000/svg"><g><path d="m512 256c0 51.69-15.32 99.8-41.67 140.04-45.71 69.83-119.821 57.956-209.511 57.956-45.07 0-87.42-11.65-124.2-32.09-36.43-20.26-72.209 8.884-94.949-25.866-26.35-40.24-41.67-88.35-41.67-140.04 0-141.38 114.62-256 256-256s256 114.62 256 256z" fill="#8fd1e3"/><path d="m470.33 396.04c-45.71 69.83-124.64 115.96-214.33 115.96s-168.62-46.13-214.33-115.96c30.22-57.88 76.03-102.66 130.32-125.72 26.29-11.17 54.56-17.25 84.01-17.25 90.25 0 169.47 57.06 214.33 142.97z" fill="#f36a38"/><path d="m199.81 324.36s-46.58 64.99-68.01 155.55c-36.43-20.26-67.39-49.12-90.13-83.87 30.22-57.88 76.03-102.66 130.32-125.72z" fill="#e05327"/><g><g><path d="m433.234 174.894-49.388-31.747c-43.697-110.939 76.574-139.906 76.574-139.906 38.619 22.889 44.341 137.32-27.186 171.653z" fill="#ffc1ae"/><path d="m410.931 152.614-66.471-66.413s77.341-105.849 115.96-82.96c0 0-93.186 38.435-49.489 149.373z" fill="#f97855"/></g><g><path d="m78.766 174.894 49.388-31.747c43.697-110.939-76.574-139.906-76.574-139.906-38.619 22.889-44.341 137.32 27.186 171.653z" fill="#ffc1ae"/><path d="m101.069 152.614 66.471-66.414s-77.341-105.849-115.96-82.96c0 .001 93.186 38.436 49.489 149.374z" fill="#f97855"/></g></g><path d="m427.74 312.66c-13.13 7.77-27.1 16.14-41.25 24.76-19.21 11.72-41.3 17.88-63.8 17.88h-133.38c-22.5 0-44.59-6.16-63.8-17.88-14.15-8.62-28.12-16.99-41.25-24.76-42.36-25.08-54.08-81.1-25.38-121.09l79.15-110.26c20.85-29.05 57.71-41.85 92.08-31.97l16.38 4.72c6.21 1.79 12.81 1.79 19.02 0l16.38-4.72c34.37-9.88 71.23 2.92 92.08 31.97l79.15 110.26c28.7 39.99 16.98 96.01-25.38 121.09z" fill="#f97855"/><path d="m219.03 355.3h-29.72c-22.5 0-44.59-6.16-63.8-17.88-14.15-8.62-28.12-16.99-41.25-24.76-42.36-25.08-54.08-81.1-25.38-121.09l79.15-110.26c20.85-29.05 57.71-41.85 92.08-31.97-42.78 62.04-111.27 214.22-11.08 305.96z" fill="#f36a38"/><path d="m256 95.841c-6.002 0-10.958 4.689-11.29 10.682l-9.028 163.144h40.636l-9.028-163.144c-.332-5.992-5.288-10.682-11.29-10.682z" fill="#f36a38"/><g><ellipse cx="153.135" cy="214.408" fill="#516666" rx="23.298" ry="33.499"/><path d="m164.774 243.42c-3.423 2.853-7.409 4.489-11.642 4.489-12.873 0-23.295-14.999-23.295-33.5s10.422-33.5 23.295-33.5c4.233 0 8.219 1.636 11.642 4.489-6.955 5.79-11.642 16.614-11.642 29.011s4.687 23.221 11.642 29.011z" fill="#384948"/><ellipse cx="358.865" cy="214.408" fill="#516666" rx="23.298" ry="33.499"/><path d="m370.505 243.42c-3.423 2.853-7.409 4.489-11.642 4.489-12.873 0-23.295-14.999-23.295-33.5s10.422-33.5 23.295-33.5c4.233 0 8.219 1.636 11.642 4.489-6.955 5.79-11.642 16.614-11.642 29.011s4.687 23.221 11.642 29.011z" fill="#384948"/></g><path d="m335.551 332.375c0-43.935-35.616-79.551-79.55-79.551s-79.55 35.616-79.55 79.551 35.616 57.527 79.55 57.527 79.55-13.592 79.55-57.527z" fill="#f97855"/><path d="m280.099 372.914c-2.155 0-4.31-.822-5.954-2.466-10.005-10.005-26.286-10.004-36.29 0-3.288 3.288-8.619 3.288-11.908 0s-3.289-8.619 0-11.908c8.929-8.93 20.876-20.701 32.588-20.007 10.024.594 19.876 12.365 27.517 20.007 3.289 3.288 3.289 8.619 0 11.908-1.643 1.644-3.798 2.466-5.953 2.466z" fill="#e05327"/><g><path d="m358.865 313.151c0 30.355-24.606 54.953-54.953 54.953-14.51 0-27.704-5.629-37.524-14.838-4.105-3.83-7.617-8.288-10.388-13.22-2.771 4.932-6.283 9.39-10.388 13.228-9.82 9.2-23.005 14.829-37.524 14.829-30.347 0-54.953-24.598-54.953-54.953 0-30.346 24.606-54.944 54.953-54.944 20.578 0 38.497 11.318 47.913 28.057 9.416-16.74 27.343-28.057 47.913-28.057 30.345.001 54.951 24.599 54.951 54.945z" fill="#ffe5bf"/><path d="m266.388 293.055v60.211c-.801-.747-1.579-1.518-2.333-2.311-4.357-4.583-11.757-4.58-16.111.006-.754.794-1.531 1.566-2.332 2.314v-60.22z" fill="#ffe0a7"/><path d="m230.486 363.334c-6.845 3.073-14.43 4.778-22.407 4.778-30.342 0-54.942-24.6-54.942-54.956 0-30.342 24.6-54.942 54.942-54.942 7.976 0 15.562 1.704 22.407 4.778-19.166 8.577-32.507 27.813-32.507 50.164s13.341 41.587 32.507 50.178z" fill="#ffe0a7"/><g><path d="m280.114 311.664c17.189-2.408 29.976-17.112 29.976-34.468v-5.704c0-15.097-14.41-26.025-28.948-21.952l-17.271 4.839c-5.149 1.443-10.594 1.443-15.743 0l-17.271-4.839c-14.538-4.073-28.948 6.854-28.948 21.952v5.704c0 17.356 12.787 32.06 29.976 34.468 15.999 2.242 32.232 2.242 48.229 0z" fill="#ffc1ae"/><path d="m274.399 312.367c-6.122.651-12.269.971-18.403.971-8.051 0-16.116-.549-24.116-1.674-17.189-2.403-29.969-17.113-29.969-34.468v-5.7c0-15.106 14.403-26.033 28.947-21.956l16.001 4.486c-4.933 4.128-8.141 10.326-8.141 17.47v5.7c0 17.355 12.78 32.065 29.969 34.468 1.904.269 3.808.498 5.712.703z" fill="#f4ad9d"/><g fill="#384948"><ellipse cx="236.158" cy="298.749" rx="11.859" ry="7.215"/><ellipse cx="275.841" cy="298.749" rx="11.859" ry="7.215"/></g></g></g><g fill="#ffc1ae"><path d="m394.597 179.208c-3.633 7.597-13.467-.624-27.288-7.234-13.82-6.609-26.393-9.104-22.76-16.701s17.782-8.397 31.602-1.788c13.821 6.61 22.079 18.127 18.446 25.723z"/><path d="m117.403 179.208c3.633 7.597 13.467-.624 27.288-7.234 13.82-6.609 26.393-9.104 22.76-16.701s-17.782-8.397-31.602-1.788c-13.821 6.61-22.079 18.127-18.446 25.723z"/></g><g><g><path d="m223.906 503.455c-12.797 0-23.172-10.374-23.172-23.172v-19.162c0-12.797 10.374-23.172 23.172-23.172 12.797 0 23.172 10.374 23.172 23.172v19.162c-.001 12.798-10.375 23.172-23.172 23.172z" fill="#ffe5bf"/><path d="m232.644 501.751c-2.7 1.1-5.65 1.71-8.74 1.71-12.8 0-23.17-10.38-23.17-23.18v-19.16c0-12.8 10.37-23.17 23.17-23.17 3.09 0 6.04.61 8.74 1.71-8.47 3.44-14.44 11.75-14.44 21.46v19.16c0 9.71 5.97 18.03 14.44 21.47z" fill="#ffe0a7"/></g><g><path d="m288.094 503.455c-12.797 0-23.172-10.374-23.172-23.172v-19.162c0-12.797 10.374-23.172 23.172-23.172 12.797 0 23.172 10.374 23.172 23.172v19.162c0 12.798-10.374 23.172-23.172 23.172z" fill="#ffe5bf"/><path d="m296.833 501.751c-2.7 1.1-5.65 1.71-8.74 1.71-12.8 0-23.17-10.38-23.17-23.18v-19.16c0-12.8 10.37-23.17 23.17-23.17 3.09 0 6.04.61 8.74 1.71-8.47 3.44-14.44 11.75-14.44 21.46v19.16c0 9.71 5.97 18.03 14.44 21.47z" fill="#ffe0a7"/></g></g></g></svg>