<svg id="Capa_1" enable-background="new 0 0 512 512" height="512" viewBox="0 0 512 512" width="512" xmlns="http://www.w3.org/2000/svg"><g><path d="m512 256c0 96.75-53.67 180.96-132.86 224.48-.33.19-.66.37-.99.55-36.3 19.75-77.92 10.97-122.15 10.97-20.53 0-40.5-2.41-59.63-6.99-22.09-5.26-43.07 6.6-62.52-3.98-.33-.18-.67-.37-1-.55-79.18-43.53-132.85-127.74-132.85-224.48 0-141.38 114.62-256 256-256s256 114.62 256 256z" fill="#7fbb1b"/><g><path d="m379.14 480.48c-.33.19-.66.37-.99.55-36.3 19.75-77.92 30.97-122.15 30.97s-85.85-11.22-122.15-30.97c-.33-.18-.67-.37-1-.55 21.98-28.46 51.64-46.8 83.53-55.03 12.95-3.35 26.29-5.03 39.61-5.03 46.11-.01 92.23 20.02 123.15 60.06z" fill="#f97855"/><path d="m255.99 420.42s-49 24.66-59.62 84.59c-22.09-5.26-43.07-13.4-62.52-23.98-.33-.18-.67-.37-1-.55 21.98-28.46 51.64-46.8 83.53-55.03 12.95-3.35 26.29-5.03 39.61-5.03z" fill="#f36a38"/><path d="m194.147 199.965-30.154 23.841-30.628 24.205-60.495-61.423c-7.24-7.351-10.85-17.505-9.934-27.77 2.583-28.907 13.466-90.605 58.531-151.266 7.218-9.702 21.633-10.11 29.47-.894 21.091 24.768 53.861 82.195 43.21 193.307z" fill="#f36a38"/><path d="m183.48 177.235s-27.38-82.969-60.481-75.665-27.963 44.32-17.053 55.23c0 0-16.027 64.895 50.12 64.895s27.414-44.46 27.414-44.46z" fill="#ffe5bf"/><path d="m194.147 199.965-30.154 23.841c-1.6-5.298-1.656-13.697.342-26.015 14.779-91.047-42.869-190.239-42.869-190.239 7.218-9.702 21.633-10.11 29.47-.894 21.092 24.768 53.862 82.195 43.211 193.307z" fill="#e05327"/><path d="m378.638 248.008 60.496-61.426c7.235-7.346 10.848-17.498 9.929-27.768-2.586-28.902-13.46-90.607-58.53-151.261-7.214-9.708-21.631-10.108-29.472-.899-21.093 24.771-53.855 82.199-43.207 193.305z" fill="#f36a38"/><path d="m328.52 177.235s27.38-82.969 60.481-75.665 27.963 44.32 17.053 55.23c0 0 16.027 64.895-50.12 64.895s-27.414-44.46-27.414-44.46z" fill="#ffe5bf"/><path d="m317.85 199.963 30.154 23.841c1.6-5.298 1.656-13.697-.342-26.015-14.779-91.047 42.869-190.239 42.869-190.239-7.218-9.702-21.633-10.11-29.47-.894-21.092 24.767-53.862 82.194-43.211 193.307z" fill="#e05327"/><path d="m432.06 281.51-19.76 84.17h-312.6l-19.76-84.17 60.386-95.835c14.22-36.98 31.262-62.168 65.882-42.918l29.792 10.053c1.53.85 3.09 1.59 4.69 2.22 9.82 3.95 20.8 3.95 30.62 0 1.6-.63 3.16-1.37 4.69-2.22l22.22-12.35c34.62-19.25 78.26-3.42 92.48 33.56z" fill="#f97855"/><path d="m236 152.814s-77.879-13.09-77.879 84.667c0 48.73 1.843 92.161 14.889 128.198h-73.31l-19.757-84.17 41.357-107.492c14.216-36.975 57.857-52.802 92.481-33.553z" fill="#f36a38"/><g><path d="m300.746 264.231s17.491-88.02 76.578-39.602c7.326 6.003 14.772 10.208 22.196 12.969 4.736 1.761 6.996 7.14 4.947 11.759-8.481 19.11-31.207 60.41-64.907 47.739-43.408-16.321-38.814-32.865-38.814-32.865z" fill="#ffe5bf"/><path d="m172.437 297.093c-4.305 1.611-8.432 2.362-12.373 2.373-26.898.11-45.132-33.443-52.527-50.109-2.053-4.614.21-10 4.945-11.755 7.417-2.759 14.867-6.965 22.196-12.969 9.647-7.903 18.189-12.174 25.717-13.775 38.608-8.245 50.86 53.376 50.86 53.376s4.591 16.535-38.818 32.859z" fill="#ffe5bf"/><path d="m158.121 237.481c0 21.788.375 42.505 1.943 61.985-26.898.11-45.132-33.443-52.527-50.109-2.053-4.614.21-10 4.945-11.755 7.417-2.759 14.867-6.965 22.196-12.969 9.647-7.903 18.189-12.174 25.717-13.775-1.457 7.804-2.274 16.634-2.274 26.623z" fill="#ffe0a7"/></g><path d="m387.134 413.15c-40.286 24.47-85.705 36.71-131.134 36.71s-90.848-12.24-131.134-36.71c-44.845-27.229-63.774-82.669-44.922-131.642l19.757 39.193c12.682 25.165 44.282 31.291 65.352 15.894 3.576-2.605 6.843-5.828 9.669-9.691l19.293-26.357c8.245-11.258 22.969-15.673 36.048-10.794l25.938 9.68 25.938-9.68c13.079-4.878 27.803-.464 36.048 10.794l19.293 26.357c19.481 26.611 60.186 23.233 75.02-6.203l19.757-39.193c18.851 48.973-.078 104.413-44.923 131.642z" fill="#ffe5bf"/><path d="m256 449.86c-45.429 0-90.848-12.24-131.134-36.71-44.845-27.229-63.774-82.669-44.922-131.642l19.757 39.193c12.682 25.165 44.282 31.291 65.352 15.894 9.988 50.088 34.028 89.248 90.947 113.265z" fill="#ffe0a7"/><path d="m256 342.556c-.739-1.512-1.556-2.98-2.439-4.404.806-.055 1.623-.077 2.439-.077s1.633.022 2.439.077c-.883 1.424-1.7 2.892-2.439 4.404z" fill="#516666"/><circle cx="256" cy="383.577" fill="#ffe0a7" r="36.843"/><circle cx="256" cy="369.991" fill="#516666" r="23.256"/><path d="m290.301 314.578c-14.73 0-27.56 8.102-34.3 20.087-6.74-11.985-19.571-20.087-34.3-20.087-21.724 0-39.334 17.611-39.334 39.334 0 21.724 17.611 39.334 39.334 39.334 14.73 0 27.56-8.102 34.3-20.087 6.74 11.985 19.571 20.087 34.3 20.087 21.724 0 39.334-17.611 39.334-39.334s-17.611-39.334-39.334-39.334z" fill="#fff9f1"/><path d="m237.736 389.832c-4.9 2.2-10.33 3.42-16.04 3.42-21.72 0-39.33-17.61-39.33-39.34 0-21.72 17.61-39.33 39.33-39.33 5.71 0 11.14 1.22 16.04 3.42-13.72 6.14-23.27 19.91-23.27 35.91s9.55 29.77 23.27 35.92z" fill="#f7eadc"/><path d="m295.977 328.866c-.585 1.336-1.302 2.616-2.141 3.819-.695 1.004-1.788 1.501-2.892 1.501s-2.218-.508-2.947-1.501c-2.439-3.355-6.115-5.298-9.956-5.64-3.653-.331-7.461.784-10.485 3.488-5.353 4.779-5.905 12.98-1.689 18.774 1.402 1.932.618 4.658-1.589 5.552-5.298 2.141-11.247 2.141-16.556 0-2.207-.894-2.991-3.62-1.589-5.552l.254-.353c2.483-3.41 3.179-7.583 2.263-11.39-.375-1.545-1.015-3.024-1.898-4.371-.894-1.347-2.031-2.561-3.422-3.565-2.461-1.788-5.298-2.649-8.123-2.649-4.282 0-8.499 1.987-11.203 5.706-1.435 1.987-4.437 2.009-5.839 0-.839-1.203-1.556-2.483-2.13-3.819-2.108-4.823-2.472-10.375-.762-15.629l3.764-11.589c2.594-8.013 7.627-14.724 14.117-19.437s14.426-7.428 22.847-7.428c16.843 0 31.765 10.85 36.964 26.865l3.764 11.589c1.709 5.254 1.345 10.795-.752 15.629z" fill="#cc754a"/><path d="m295.977 328.866c-.585 1.336-1.302 2.616-2.141 3.819-.695 1.004-1.788 1.501-2.892 1.501s-2.218-.508-2.947-1.501c-2.439-3.355-6.115-5.298-9.956-5.64-3.653-.331-7.461.784-10.485 3.488-5.353 4.779-5.905 12.98-1.689 18.774 1.402 1.932.618 4.658-1.589 5.552-5.298 2.141-11.247 2.141-16.556 0-2.207-.894-2.991-3.62-1.589-5.552l.254-.353c2.483-3.41 3.179-7.583 2.263-11.39-.375-1.545-1.015-3.024-1.898-4.371-.894-1.347-2.031-2.561-3.422-3.565-2.461-1.788-5.298-2.649-8.123-2.649-4.282 0-8.499 1.987-11.203 5.706-1.435 1.987-4.437 2.009-5.839 0-.839-1.203-1.556-2.483-2.13-3.819 3.234-5.221 7.439-9.713 12.329-13.267 7.848-5.695 17.45-8.973 27.637-8.973 16.533 0 31.544 8.631 39.976 22.24z" fill="#dc8758"/><g><g><ellipse cx="174.264" cy="255.728" fill="#516666" rx="20.956" ry="31.025"/><path d="m184.733 282.597c-3.079 2.642-6.664 4.158-10.472 4.158-11.579 0-20.953-13.891-20.953-31.027s9.374-31.027 20.953-31.027c3.808 0 7.392 1.515 10.472 4.158-6.256 5.362-10.472 15.387-10.472 26.869s4.216 21.507 10.472 26.869z" fill="#384948"/></g><g><ellipse cx="337.736" cy="255.728" fill="#516666" rx="20.956" ry="31.025"/><path d="m348.206 282.597c-3.079 2.642-6.664 4.158-10.472 4.158-11.579 0-20.953-13.891-20.953-31.027s9.374-31.027 20.953-31.027c3.808 0 7.392 1.515 10.472 4.158-6.256 5.362-10.472 15.387-10.472 26.869s4.216 21.507 10.472 26.869z" fill="#384948"/></g></g><g><g><path d="m310.456 206.662c-.732 0-1.472-.097-2.205-.3-3.762-1.039-6.288-4.565-6.06-8.462.109-1.867 2.864-46.087 19.75-76.665 2.21-4.002 7.245-5.455 11.248-3.245 4.002 2.21 5.455 7.246 3.245 11.248-6.355 11.509-10.498 25.642-13.165 38.16 8.683-8.49 15.815-12.535 16.327-12.82 3.995-2.224 9.036-.79 11.26 3.204 2.22 3.986.795 9.016-3.181 11.247-.363.209-18.06 10.51-29.879 33.181-1.454 2.787-4.316 4.452-7.34 4.452z" fill="#fff9f1"/></g><g><path d="m201.544 206.662c.732 0 1.472-.097 2.205-.3 3.762-1.039 6.288-4.565 6.06-8.462-.109-1.867-2.864-46.087-19.75-76.665-2.21-4.002-7.245-5.455-11.248-3.245-4.002 2.21-5.455 7.246-3.245 11.248 6.355 11.509 10.498 25.642 13.165 38.16-8.683-8.49-15.815-12.535-16.327-12.82-3.995-2.224-9.036-.79-11.26 3.204-2.22 3.986-.795 9.016 3.181 11.247.363.209 18.06 10.51 29.879 33.181 1.454 2.787 4.316 4.452 7.34 4.452z" fill="#fff9f1"/></g></g></g><path d="m271.31 155.03v94.16c0 8.45-6.86 15.3-15.31 15.3s-15.31-6.85-15.31-15.3v-94.16c9.82 3.95 20.8 3.95 30.62 0z" fill="#f36a38"/></g></svg>