<svg id="Capa_1" enable-background="new 0 0 512 512" height="512" viewBox="0 0 512 512" width="512" xmlns="http://www.w3.org/2000/svg"><g><path d="m512 256c0 82.12-38.667 155.209-98.787 202.054-43.388 33.807-97.949-1.464-157.213-1.464s-113.826 35.272-157.213 1.464c-60.12-46.845-98.787-119.934-98.787-202.054 0-141.385 114.615-256 256-256s256 114.615 256 256z" fill="#b75c34"/><path d="m413.21 458.05c-43.39 33.81-97.95 53.95-157.21 53.95-30.37 0-59.5-5.29-86.53-15-25.71-9.23-49.53-22.46-70.68-38.95l64.16-134.78 12.48-26.21h161.14z" fill="#6e8c8e"/><path d="m211.29 374.37-41.82 122.63c-25.71-9.23-49.53-22.46-70.68-38.95l64.16-134.78z" fill="#617f7f"/><g><ellipse cx="101.056" cy="162.398" fill="#809ca0" rx="62.607" ry="94.132" transform="matrix(.707 -.707 .707 .707 -85.234 119.022)"/><path d="m153.434 238.366c-26.49 10.96-66.02-1.08-96.64-31.7-36.77-36.76-46.75-86.38-22.3-110.83 14.1-14.1 36.59-16.75 60.15-9.41-5.32 2.2-10.11 5.32-14.2 9.41-24.45 24.45-14.47 74.07 22.3 110.83 15.56 15.56 33.41 26.32 50.69 31.7z" fill="#6e8c8e"/><ellipse cx="101.056" cy="162.398" fill="#617f7f" rx="34.246" ry="51.49" transform="matrix(.707 -.707 .707 .707 -85.234 119.022)"/><ellipse cx="410.944" cy="162.398" fill="#809ca0" rx="94.132" ry="62.607" transform="matrix(.707 -.707 .707 .707 5.53 338.147)"/><path d="m402.814 118.127c-36.76 36.76-46.74 86.38-22.29 110.83 5.16 5.16 11.44 8.78 18.48 10.95-21.51 5.32-41.62 2.05-54.62-10.95-24.45-24.45-14.47-74.07 22.29-110.83 29-29 66.01-41.34 92.35-33.24-18.95 4.68-38.99 16.02-56.21 33.24z" fill="#6e8c8e"/><ellipse cx="410.944" cy="162.398" fill="#617f7f" rx="51.49" ry="34.246" transform="matrix(.707 -.707 .707 .707 5.53 338.147)"/></g><path d="m436.48 382.92-134.26 27.23c-30.5 6.19-61.94 6.19-92.44 0l-134.26-27.23c-31.84-6.46-50.96-39.22-40.92-70.12l27.04-83.21c13.68-42.11 40.14-77.41 74.24-102.19 28.46-20.68 62.24-34.03 98.37-37.88 7.17-.76 14.42 13.284 21.75 13.284s14.58-14.044 21.75-13.284c79.42 8.47 147.51 62.83 172.61 140.07l27.04 83.21c10.04 30.9-9.08 63.66-40.92 70.12z" fill="#ffe5bf"/><path d="m135.877 127.407c28.453-20.678 62.241-34.024 98.375-37.872 6.714-.715 13.509 2.679 20.365 2.633-5.632.091-11.2-3.046-16.681-1.877-22.804 4.864-44.103 18.818-62.179 39.876-22.78 26.53-40.46 64.33-49.6 109.42l-18.06 89.1c-4.81 23.77.42 48.56 11.63 63.21l-44.21-8.97c-31.84-6.46-50.96-39.22-40.92-70.13l27.04-83.21c13.68-42.1 40.14-77.4 74.24-102.18z" fill="#ffe0a7"/><path d="m427.666 245.315-88.192-50.917c-19.863-11.468-43.567-10.228-61.724 1.181v-106.059c-7.17-.76-14.42-1.15-21.75-1.15s-14.58.39-21.75 1.15v106.056c-18.157-11.406-41.862-12.648-61.72-1.177l-41.25 23.81-46.95 27.1c-19.17 11.07-29.89 31.16-29.89 51.82 0 10.14 2.58 20.42 8.02 29.83 9.73 16.85 26.43 27.17 44.36 29.42 12.48 1.57 25.55-.77 37.28-7.55l111.895-64.602 111.903 64.607c28.586 16.504 65.139 6.71 81.644-21.876 16.505-28.586 6.71-65.139-21.876-81.643z" fill="#6e8c8e"/><path d="m131.28 218.21c-1.92 6.92-3.64 14.05-5.12 21.38l-18.06 89.1c-1.88 9.3-2.23 18.75-1.28 27.69-17.93-2.25-34.63-12.57-44.36-29.42-5.44-9.41-8.02-19.69-8.02-29.83 0-20.66 10.72-40.75 29.89-51.82z" fill="#617f7f"/><g><ellipse cx="182.742" cy="260.759" fill="#fff9f1" rx="39.856" ry="49.628"/><path d="m196.857 307.179c-4.39 2.08-9.15 3.21-14.12 3.21-22.01 0-39.85-22.22-39.85-49.63s17.84-49.63 39.85-49.63c4.97 0 9.73 1.13 14.12 3.21-15.05 7.1-25.74 25.2-25.74 46.42s10.69 39.32 25.74 46.42z" fill="#f7eadc"/><path d="m206.9 260.763c0 17.76-10.6 32.45-24.36 34.76-1.25.21-2.52.32-3.81.32-15.56 0-28.17-15.71-28.17-35.08 0-19.38 12.61-35.08 28.17-35.08 1.29 0 2.56.11 3.81.32 13.76 2.31 24.36 16.99 24.36 34.76z" fill="#516666"/><ellipse cx="329.258" cy="260.759" fill="#fff9f1" rx="39.856" ry="49.628"/><path d="m343.372 307.179c-4.39 2.08-9.15 3.21-14.12 3.21-22.01 0-39.85-22.22-39.85-49.63s17.84-49.63 39.85-49.63c4.97 0 9.73 1.13 14.12 3.21-15.05 7.1-25.74 25.2-25.74 46.42s10.69 39.32 25.74 46.42z" fill="#f7eadc"/><path d="m361.44 260.763c0 19.37-12.61 35.08-28.17 35.08-1.46 0-2.89-.14-4.29-.4-13.52-2.58-23.88-17.13-23.88-34.68 0-17.56 10.36-32.1 23.88-34.68 1.4-.26 2.83-.4 4.29-.4 15.56 0 28.17 15.7 28.17 35.08z" fill="#516666"/><g fill="#384948"><path d="m317.63 260.763c0 13.5 4.33 25.74 11.35 34.68-13.52-2.58-23.88-17.13-23.88-34.68 0-17.56 10.36-32.1 23.88-34.68-7.02 8.94-11.35 21.18-11.35 34.68z"/><path d="m171.12 260.763c0 13.54 4.35 25.81 11.42 34.76-1.25.21-2.52.32-3.81.32-15.56 0-28.17-15.71-28.17-35.08 0-19.38 12.61-35.08 28.17-35.08 1.29 0 2.56.11 3.81.32-7.07 8.95-11.42 21.22-11.42 34.76z"/></g></g><g><path d="m349.982 362.88c-8.02 24.66-34.52 38.17-59.18 30.15l-26.8-8.7-7.99-2.6-8.01 2.6-26.8 8.7c-24.66 8.02-51.16-5.49-59.18-30.15-8.02-24.68 5.48-51.18 30.16-59.19l32.25-10.49 4.26-1.38c17.75-5.77 36.88-5.77 54.63 0l4.25 1.38 32.25 10.49c24.68 8.01 38.17 34.51 30.16 59.19z" fill="#809ca0"/><g fill="#6e8c8e"><path d="m264.002 308.582v75.748c-5.193-1.69-10.788-1.692-15.982-.006l-.018.006v-76.02c0-4.595 3.869-8.282 8.529-7.983 4.253.273 7.471 3.993 7.471 8.255z"/><path d="m232.774 389.269-11.57 3.76c-24.66 8.02-51.16-5.49-59.18-30.15-8.02-24.68 5.48-51.18 30.16-59.2l28.21-9.17c-18.28 13.67-26.73 37.93-19.29 60.85 5.22 16.059 17.15 28.059 31.67 33.91z"/></g></g><g><path d="m285.047 307.473c0 2.298-.933 4.364-2.432 5.874-1.499 1.499-3.564 2.432-5.863 2.432-2.632 0-5.03 1.066-6.751 2.798-1.732 1.721-2.798 4.108-2.798 6.74 0 3.098-1.255 5.907-3.287 7.928-1.666 1.677-3.875 2.82-6.329 3.165-.511.089-1.044.122-1.588.122-3.087 0-5.896-1.255-7.917-3.287-2.032-2.021-3.287-4.83-3.287-7.928 0-2.632-1.066-5.019-2.798-6.74-1.721-1.732-4.119-2.798-6.751-2.798-2.298 0-4.364-.933-5.863-2.432-1.499-1.51-2.432-3.575-2.432-5.874 0-15.123 12.258-27.393 27.382-27.393h3.331c7.562 0 14.413 3.065 19.365 8.028 4.954 4.952 8.018 11.803 8.018 19.365z" fill="#516666"/><path d="m257.588 336.409c-.511.089-1.044.122-1.588.122-3.087 0-5.896-1.255-7.917-3.287-2.032-2.021-3.287-4.83-3.287-7.928 0-2.632-1.066-5.019-2.798-6.74-1.721-1.732-4.119-2.798-6.751-2.798-2.298 0-4.364-.933-5.863-2.432-1.499-1.51-2.432-3.575-2.432-5.874 0-15.123 12.258-27.393 27.382-27.393h3.331c.001.001-23.528 18.722-.077 56.33z" fill="#384948"/></g><g fill="#617f7f"><g><circle cx="301.496" cy="336.539" r="8.386"/><circle cx="318.976" cy="353.31" r="8.386"/><circle cx="295.017" cy="358.256" r="8.386"/></g><g><circle cx="210.504" cy="336.539" r="8.386"/><circle cx="193.024" cy="353.31" r="8.386"/><circle cx="216.983" cy="358.256" r="8.386"/></g></g></g></svg>