<?xml version="1.0" encoding="iso-8859-1"?>
<!-- Generator: Adobe Illustrator 27.2.0, SVG Export Plug-In . SVG Version: 6.00 Build 0)  -->
<svg version="1.1" id="Capa_1" xmlns="http://www.w3.org/2000/svg" xmlns:xlink="http://www.w3.org/1999/xlink" x="0px" y="0px"
	 viewBox="0 0 502.06 502.06" style="enable-background:new 0 0 502.06 502.06;" xml:space="preserve">
<g>
	<g>
		<circle style="fill:#FDCB50;" cx="251.047" cy="251.012" r="241"/>
		<g>
			<path style="fill:#65CACF;" d="M249.047,10.052c-131.764,1.676-237.87,108.813-237.87,240.96c0,133.211,107.807,241,241,241
				c133.212,0,241-107.807,241-241h-244.13V10.052z"/>
		</g>
		<path style="fill:#B1D952;" d="M470.633,350.535l-0.707-0.933c-46.174-35.322-75.057-38.59-98.88-38.59c-60,0-30,120-120,120
			c-27.876,0-30-30-60-30s-44.731,66.004-44.731,66.004l0.044,1.169c31.652,15.27,67.162,23.828,104.688,23.828
			C348.755,492.012,432.783,434.01,470.633,350.535z"/>
		<path style="fill:#B1D952;" d="M139.541,347.892c15.813,0,53.713-14.061,53.713-58.886c0-54.384-53.263-72.093-53.263-110.476
			c0-33.974,49.808-46.738,49.808-110.665c0-16.849-4.147-32.287-11.24-45.712l-0.401-0.563
			C81.22,52.788,11.177,143.645,11.177,251.012c0,50.951,15.785,98.172,42.716,137.076l0.06-0.093
			c15.536-16.669,19.268-47.671,45.703-47.671C113.036,340.323,125.209,347.892,139.541,347.892z"/>
		<path style="fill:#FD8F01;" d="M341.047,251.012c0-49.629-40.371-90-90-90v-90c99.258,0,180,80.742,180,180H341.047z"/>
		<g>
			<path style="fill:#FB6050;" d="M251.047,161.012v90h90C341.047,201.383,300.675,161.012,251.047,161.012z"/>
		</g>
		<path style="fill:#91B706;" d="M11.065,247.983c9.299,10.589,21.447,21.442,43.568,21.442c3.409,0,31.325-0.432,31.325-27.673
			c0-21.859-25.844-67.429-39.344-116.533L11.065,247.983z"/>
	</g>
	<path style="fill:#052A75;" d="M428.565,73.487C270.859-83.798,0.189,28.115,0.048,251.014
		C-2.724,386.035,116.016,504.795,251.048,502.01C473.962,501.858,585.858,231.167,428.565,73.487z M481.817,241.012h-220.77V20.242
		C380.481,25.356,476.703,121.577,481.817,241.012z M172.937,33.616c4.554,10.756,6.863,22.242,6.863,34.249
		c0.741,59.525-48.057,67.908-49.809,110.665c0.001,21.167,12.971,36.605,25.513,51.534c13.643,16.239,27.75,33.03,27.75,58.942
		c0,40.187-35.04,48.885-43.713,48.885c-5.864,0-11.682-1.692-17.842-3.483c-39.981-13.049-52.181,6.862-67.913,36.694
		C-23.538,248.57,38.797,79.502,172.937,33.616z M65.951,389.071c10.352-13.364,17.2-39.773,33.705-38.747
		c5.15,0,10.643,1.598,16.458,3.288c6.896,2.006,14.713,4.279,23.427,4.279c19.96,0,63.713-17.346,63.713-68.885
		c0.236-57.342-51.589-75.615-53.264-110.476c0.001-10.686,7.396-19.5,16.759-30.659c26.38-28.164,44.321-71.445,25.355-120.227
		c15.726-4.153,32.104-6.681,48.943-7.402v230.77c0,5.523,4.477,10,10,10h230.77c-1.107,25.84-6.472,50.594-15.421,73.574
		c-43.524-30.828-71.957-33.574-95.349-33.574c-33.982,0-45.058,30.565-54.83,57.532c-11.641,32.125-22.637,62.468-65.17,62.468
		c-21.863,0.014-25.864-30.091-60-30c-29.112,0-45.128,41.137-51.438,62.283C110.73,437.323,85.607,415.357,65.951,389.071z
		 M251.047,482.012c-33.165,0-64.712-7.039-93.247-19.679c6.312-22.811,19.701-51.321,33.247-51.321
		c24.429,0.02,27.486,30.013,60,30c25.283,0,44.618-8.463,59.109-25.873c12.088-14.523,18.876-33.255,24.865-49.781
		c10.263-28.322,16.997-44.346,36.026-44.346c20.834,0,46.384,2.6,87.085,32.271C420.342,429.492,341.719,482.012,251.047,482.012z"
		/>
</g>
<g>
</g>
<g>
</g>
<g>
</g>
<g>
</g>
<g>
</g>
<g>
</g>
<g>
</g>
<g>
</g>
<g>
</g>
<g>
</g>
<g>
</g>
<g>
</g>
<g>
</g>
<g>
</g>
<g>
</g>
</svg>
