<?xml version="1.0" encoding="iso-8859-1"?>
<!-- Generator: Adobe Illustrator 28.3.0, SVG Export Plug-In . SVG Version: 6.00 Build 0)  -->
<svg version="1.1" id="Capa_1" xmlns="http://www.w3.org/2000/svg" xmlns:xlink="http://www.w3.org/1999/xlink" x="0px" y="0px"
	 viewBox="0 0 512.012 512.012" style="enable-background:new 0 0 512.012 512.012;" xml:space="preserve">
<g>
	<g>
		<path style="fill:#D46B5C;" d="M53.939,498.571l11.339-81.016c13.327-95.224,94.676-166.064,190.698-166.064h0
			c95.971,0,177.291,70.765,190.679,165.928l11.416,81.15c0.255,1.815-1.152,3.437-2.983,3.437H56.922
			C55.092,502.006,53.685,500.386,53.939,498.571z"/>
		<path style="fill:#B55348;" d="M450.115,441.982c-12.099,8.213-25.122,15.202-38.918,20.805
			c-49.521,20.142-101.734,30.353-155.191,30.353s-105.67-10.211-155.191-30.353c-13.806-5.613-26.839-12.601-38.948-20.825
			l3.414-24.409c13.324-95.227,94.675-166.065,190.695-166.065c47.985,0,92.305,17.692,126.303,47.282
			c34.008,29.59,57.685,71.069,64.382,118.652L450.115,441.982z"/>
		<path style="fill:#FDE0BE;" d="M396.068,425.581L396.068,425.581c-89.813,36.52-190.31,36.52-280.123,0l0,0
			C33.334,391.99-9.253,300.132,18.435,215.262l21.457-65.768C67.037,66.293,144.533,10.006,231.942,10.006h48.128
			c87.409,0,164.905,56.287,192.05,139.488l21.457,65.768C521.265,300.132,478.678,391.99,396.068,425.581z"/>
		<path style="fill:#F7B073;" d="M258.746,452.956c-48.49,0.37-97.03-8.76-142.8-27.37c-65.58-26.67-105.94-90.06-105.94-157.51
			c0-17.52,2.72-35.31,8.43-52.81l21.46-65.77c19.11-58.59,63.19-103.83,118.12-125.47c-35.96,48-57.26,107.62-57.26,172.21
			C100.756,308.426,165.026,405.596,258.746,452.956z"/>
		<path style="fill:#D46B5C;" d="M483.953,185.76l-58.94-45.374c-33.828-25.945-79.794-29.319-117.036-8.605
			c-16.166,8.997-34.068,13.485-51.971,13.485s-35.806-4.488-51.971-13.485c-16.236-9.027-34.129-13.485-51.951-13.485
			c-23.064,0-46.007,7.46-65.085,22.09l-58.94,45.374l11.828-36.267C67.038,66.295,144.533,10.006,231.938,10.006h48.136
			c87.405,0,164.9,56.289,192.051,139.487L483.953,185.76z"/>
		<path style="fill:#B55348;" d="M158.026,24.016c-22.74,30.35-39.62,65.34-48.96,103.31v0.01c-7.75,3.39-15.16,7.75-22.07,13.05
			l-58.94,45.37l11.83-36.26C59.006,90.906,103.096,45.656,158.026,24.016z"/>
		<path style="fill:#D46B5C;" d="M198.091,246.407c0,13.856-5.613,26.397-14.68,35.484c-9.067,9.077-21.598,14.69-35.434,14.69
			c-12.902,0-25.584,2.279-37.523,6.647c-11.928,4.358-23.094,10.794-32.964,19.118l-42.171,34.972
			c-16.346-26.568-25.313-57.443-25.313-89.243c0-13.656,1.657-27.482,5.101-41.197v-0.01l67.494-24.379
			c11.708-4.147,24.038-6.255,36.468-6.255h28.907C175.649,196.233,198.091,218.694,198.091,246.407z"/>
		<path style="fill:#B55348;" d="M120.136,300.196c-3.28,0.86-6.5,1.87-9.68,3.03c-11.93,4.36-23.1,10.8-32.97,19.12l-42.17,34.97
			c-16.34-26.57-25.31-57.44-25.31-89.24c0-13.66,1.66-27.48,5.1-41.2v-0.01l67.5-24.38c5.91-2.09,11.99-3.67,18.16-4.71
			C100.946,233.876,107.796,268.406,120.136,300.196z"/>
		<path style="fill:#D46B5C;" d="M489.696,331.543v0.01c-3.685,9.157-8.163,17.983-13.374,26.377l-41.8-35.585
			c-9.87-8.324-21.035-14.76-32.964-19.118c-11.939-4.368-24.62-6.647-37.523-6.647c-13.836,0-26.367-5.613-35.434-14.69
			c-9.067-9.087-14.68-21.628-14.68-35.484c0-27.713,22.441-50.174,50.114-50.174h28.908c12.431,0,24.761,2.109,36.468,6.255
			l67.645,24.982c3.032,12.25,4.629,24.59,4.9,36.81c0,0.01,0,0.01,0,0.02C502.488,287.564,498.19,310.427,489.696,331.543z"/>
		<path style="fill:#D46B5C;" d="M251.137,380.563h9.738c17.766,0,32.302-14.536,32.302-32.302v-0.491
			c0-10.353-8.393-18.746-18.746-18.746h-36.848c-10.353,0-18.746,8.393-18.746,18.746v0.491
			C218.835,366.027,233.371,380.563,251.137,380.563z"/>
	</g>
	<g>
		<path style="fill:#052A75;" d="M495.256,343.858c19.226-41.468,22.005-88.238,7.827-131.696l-21.457-65.769
			c-13.977-42.84-40.622-79.472-77.056-105.934c-36.437-26.465-79.488-40.453-124.5-40.453h-48.128
			c-45.013,0-88.064,13.988-124.5,40.453c-36.434,26.462-63.08,63.094-77.056,105.934L8.928,212.161
			C-5.25,255.619-2.47,302.39,16.756,343.858c10.076,21.733,24.185,40.945,41.416,56.792c0,0-12.367,85.392-14.135,96.536
			c-0.522,3.732,0.596,7.504,3.07,10.348c2.472,2.843,6.05,4.473,9.816,4.473h398.167c3.768,0,7.347-1.632,9.82-4.476
			c2.474-2.847,3.591-6.62,3.065-10.355l-14.182-96.481C471.046,384.839,485.171,365.611,495.256,343.858z M34.9,335.444
			C17.808,298.579,15.338,257,27.942,218.364l21.457-65.769C62.06,113.79,86.194,80.61,119.195,56.641
			c32.998-23.967,71.985-36.635,112.747-36.635h48.128c40.762,0,79.75,12.668,112.747,36.635c33,23.969,57.135,57.149,69.796,95.955
			l21.457,65.769c12.604,38.636,10.134,80.215-6.958,117.08c-17.09,36.862-47.21,65.584-84.811,80.873
			c-43.495,17.687-89.351,26.654-136.295,26.654s-92.8-8.968-136.295-26.654C82.11,401.028,51.99,372.307,34.9,335.444z
			 M447.05,492.006H64.955c0,0,10.62-75.756,10.838-77.1c11.217,7.953,23.402,14.66,36.384,19.939
			c45.898,18.663,94.29,28.127,143.828,28.127s97.93-9.464,143.828-28.127c12.962-5.271,25.128-11.965,36.33-19.901
			C436.373,416.233,447.05,492.006,447.05,492.006z"/>
		<path style="fill:#052A75;" d="M118.047,364.793h32.572l6.875,6.521c19.038,18.058,44.871,26.439,70.868,22.996l27.645-3.661
			l27.646,3.661c3.837,0.509,7.667,0.759,11.476,0.759c21.997-0.001,43.163-8.363,59.392-23.756l6.875-6.521h32.572
			c5.523,0,10-4.478,10-10s-4.477-10-10-10h-36.56c-2.561,0-5.024,0.982-6.882,2.745l-9.768,9.265
			c-12.848,12.186-29.717,18.634-47.166,18.242c5.987-7.299,9.586-16.629,9.586-26.784v-0.49c0-15.852-12.896-28.747-28.746-28.747
			h-36.849c-15.851,0-28.746,12.896-28.746,28.747v0.49c0,10.156,3.6,19.486,9.588,26.786c-17.448,0.395-34.319-6.057-47.167-18.243
			l-9.768-9.266c-1.858-1.763-4.321-2.745-6.882-2.745h-36.56c-5.523,0-10,4.478-10,10S112.524,364.793,118.047,364.793z
			 M228.836,347.771c0-4.823,3.923-8.747,8.746-8.747h36.849c4.823,0,8.746,3.924,8.746,8.747v0.49
			c0,12.297-10.004,22.302-22.301,22.302h-9.738c-12.297,0-22.301-10.005-22.301-22.302V347.771z"/>
		<circle style="fill:#052A75;" cx="146.071" cy="245.006" r="10"/>
		<circle style="fill:#052A75;" cx="365.941" cy="245.006" r="10"/>
	</g>
</g>
<g>
</g>
<g>
</g>
<g>
</g>
<g>
</g>
<g>
</g>
<g>
</g>
<g>
</g>
<g>
</g>
<g>
</g>
<g>
</g>
<g>
</g>
<g>
</g>
<g>
</g>
<g>
</g>
<g>
</g>
</svg>
